<svg width="32" height="32" viewBox="0 0 32 32" fill="none" xmlns="http://www.w3.org/2000/svg">
<g id="Theme=Light, Name=Avatar, State=Fill">
<g id="user-avatar-filled-alt" clip-path="url(#clip0_1470_13586)">
<path id="Vector" d="M16 9.14282C15.1524 9.14282 14.3238 9.39418 13.619 9.8651C12.9142 10.336 12.3649 11.0054 12.0405 11.7885C11.7162 12.5716 11.6313 13.4333 11.7966 14.2646C11.962 15.096 12.3702 15.8596 12.9696 16.459C13.5689 17.0584 14.3326 17.4665 15.1639 17.6319C15.9953 17.7973 16.857 17.7124 17.6401 17.388C18.4232 17.0636 19.0925 16.5143 19.5635 15.8096C20.0344 15.1048 20.2857 14.2762 20.2857 13.4285C20.2857 12.2919 19.8342 11.2018 19.0305 10.3981C18.2267 9.59435 17.1367 9.14282 16 9.14282Z" fill="currentColor"/>
<path id="Vector_2" d="M16 4C13.6266 4 11.3066 4.70379 9.33316 6.02236C7.35977 7.34094 5.8217 9.21509 4.91345 11.4078C4.0052 13.6005 3.76756 16.0133 4.23058 18.3411C4.6936 20.6689 5.83649 22.8071 7.51472 24.4853C9.19295 26.1635 11.3312 27.3064 13.6589 27.7694C15.9867 28.2324 18.3995 27.9948 20.5922 27.0866C22.7849 26.1783 24.6591 24.6402 25.9776 22.6668C27.2962 20.6935 28 18.3734 28 16C27.9964 12.8185 26.731 9.76834 24.4813 7.51868C22.2317 5.26902 19.1815 4.00358 16 4ZM22.8507 23.6507C22.8337 22.5263 22.3756 21.4537 21.5751 20.6639C20.7746 19.8741 19.6959 19.4305 18.5714 19.4286H13.4286C12.3041 19.4305 11.2254 19.8741 10.4249 20.6639C9.62445 21.4537 9.16633 22.5263 9.14929 23.6507C7.59492 22.2628 6.49877 20.4354 6.00601 18.4107C5.51324 16.3859 5.64709 14.2593 6.38984 12.3123C7.13259 10.3653 8.44919 8.68983 10.1653 7.50774C11.8815 6.32566 13.9162 5.69271 16 5.69271C18.0839 5.69271 20.1186 6.32566 21.8347 7.50774C23.5508 8.68983 24.8674 10.3653 25.6102 12.3123C26.3529 14.2593 26.4868 16.3859 25.994 18.4107C25.5012 20.4354 24.4051 22.2628 22.8507 23.6507Z" fill="currentColor"/>
</g>
</g>
<defs>
<clipPath id="clip0_1470_13586">
<rect width="24" height="24" fill="white" transform="translate(4 4)"/>
</clipPath>
</defs>
</svg>
