<svg width="32" height="32" viewBox="0 0 32 32" fill="none" xmlns="http://www.w3.org/2000/svg">
<g id="Theme=Light, Name=Bot, State=Fill">
<g id="Group">
<path id="Vector" d="M22.786 18.2548C24.285 18.2548 25.5 19.4698 25.5 20.9687V22.003H25.492C25.441 23.1721 25.1205 24.6383 23.8077 25.8362C22.3737 27.1447 19.8982 28.0001 15.75 28.0001C11.6017 28.0001 9.12634 27.1447 7.6923 25.8362C6.37946 24.6383 6.05897 23.1721 6.008 22.003H6V20.9687C6 19.4698 7.21507 18.2548 8.71395 18.2548H22.786Z" fill="currentColor"/>
<path id="Vector_2" d="M10.4999 5.5C9.25723 5.5 8.24988 6.50735 8.24988 7.75V13.75C8.24988 14.9926 9.25723 16 10.4999 16H20.9999C22.2425 16 23.2499 14.9926 23.2499 13.75V7.75C23.2499 6.50735 22.2425 5.5 20.9999 5.5H16.4999C16.4999 5.5 16.4999 5.21289 16.4999 4.75C16.4999 4.28712 16.164 4 15.7499 4C15.3357 4 14.9999 4.34571 14.9999 4.75V5.5H10.4999ZM11.2499 10.75C11.2499 9.92157 11.9215 9.25 12.7499 9.25C13.5783 9.25 14.2499 9.92157 14.2499 10.75C14.2499 11.5784 13.5783 12.25 12.7499 12.25C11.9215 12.25 11.2499 11.5784 11.2499 10.75ZM17.2499 10.75C17.2499 9.92157 17.9214 9.25 18.7499 9.25C19.5783 9.25 20.2499 9.92157 20.2499 10.75C20.2499 11.5784 19.5783 12.25 18.7499 12.25C17.9214 12.25 17.2499 11.5784 17.2499 10.75Z" fill="currentColor"/>
</g>
</g>
</svg>
