<svg width="24" height="24" viewBox="0 0 24 24" fill="none" xmlns="http://www.w3.org/2000/svg">
<g id="Name=Google, State=24x24">
<g id="Google" clip-path="url(#clip0_1480_9477)">
<path id="Vector" d="M20.8249 10.2373H20.1V10.2H12V13.8H17.0864C16.3443 15.8956 14.3503 17.4 12 17.4C9.01785 17.4 6.6 14.9822 6.6 12C6.6 9.01785 9.01785 6.6 12 6.6C13.3765 6.6 14.6289 7.1193 15.5824 7.96755L18.1281 5.4219C16.5207 3.92385 14.3706 3 12 3C7.02975 3 3 7.02975 3 12C3 16.9703 7.02975 21 12 21C16.9703 21 21 16.9703 21 12C21 11.3966 20.9379 10.8075 20.8249 10.2373Z" fill="#FFC107"/>
<path id="Vector_2" d="M4.03766 7.81095L6.99461 9.9795C7.79471 7.9986 9.73241 6.6 12 6.6C13.3765 6.6 14.6289 7.1193 15.5824 7.96755L18.1281 5.4219C16.5207 3.92385 14.3706 3 12 3C8.54306 3 5.54516 4.95165 4.03766 7.81095Z" fill="#FF3D00"/>
<path id="Vector_3" d="M12 21C14.3247 21 16.437 20.1103 18.0341 18.6636L15.2486 16.3065C14.345 16.9909 13.2218 17.4 12 17.4C9.65914 17.4 7.67149 15.9073 6.92269 13.8243L3.98779 16.0855C5.47729 19.0002 8.50219 21 12 21Z" fill="#4CAF50"/>
<path id="Vector_4" d="M20.825 10.2374H20.1V10.2H12V13.8H17.0864C16.73 14.8067 16.0824 15.6747 15.2472 16.307C15.2476 16.3065 15.2481 16.3065 15.2485 16.3061L18.034 18.6632C17.8369 18.8423 21 16.5 21 12C21 11.3966 20.9379 10.8075 20.825 10.2374Z" fill="#1976D2"/>
</g>
</g>
<defs>
<clipPath id="clip0_1480_9477">
<rect width="18" height="18" fill="white" transform="translate(3 3)"/>
</clipPath>
</defs>
</svg>
