<svg width="173" height="65" viewBox="0 0 173 65" fill="none" xmlns="http://www.w3.org/2000/svg">
<g id="State=Vertical">
<g id="Logo">
<g id="Puzzle">
<g clip-path="url(#clip0_1550_21587)">
<path id="Vector" d="M0.944897 36.7058L2.67382 38.8828L-3.29786 43.6255C-4.955 44.9415 -5.24634 47.303 -3.97846 48.8994L0.632005 54.7046C-5.12859 59.2796 0.764432 66.433 6.39509 61.9611L11.0056 67.7664C11.6169 68.5362 12.5179 69.0246 13.5101 69.1243C14.5024 69.2239 15.5047 68.9266 16.2966 68.2976L21.9697 63.7921C21.5901 63.9003 27.4184 59.5455 30.0315 57.3895L35.7046 52.884C36.4965 52.2551 37.0131 51.3461 37.1407 50.357C37.2684 49.368 36.9966 48.3798 36.3852 47.61L32.4017 42.5752L30.2623 44.2519C28.0229 46.0304 24.1374 45.1033 22.4085 42.9264C20.6795 40.7494 20.7951 37.1749 22.7296 35.1599L24.8252 33.2255L21.4012 28.7431C20.7898 27.9732 19.8889 27.4848 18.8966 27.3851C17.9043 27.2855 16.902 27.5829 16.1101 28.2118L10.1384 32.9544L8.4095 30.7775C7.64527 29.8152 6.51911 29.2046 5.27877 29.0801C4.03844 28.9556 2.78552 29.3272 1.79566 30.1134C0.805788 30.8995 0.16005 32.0357 0.000502899 33.2721C-0.159046 34.5084 0.180664 35.7435 0.944897 36.7058Z" fill="#D84B4B"/>
</g>
</g>
<path id="Subtract" fill-rule="evenodd" clip-rule="evenodd" d="M41.8978 33.8653C42.0181 35.7106 42.2988 38.639 42.4993 40.4041C42.9405 44.0547 44.0634 54.4046 44.2639 56.8516C44.4243 58.9778 44.1035 59.7801 42.9806 60.0609C39.251 60.9836 35.6417 61.3045 34.198 60.783C33.2355 60.422 32.9147 60.0609 32.3132 58.5766L31.8319 57.4534L31.1101 57.8947C30.8427 58.0602 30.1993 58.3593 29.4123 58.6967C29.9778 58.25 30.4978 57.8331 30.9305 57.4758L36.6693 52.918C37.4704 52.2818 37.9859 51.3534 38.1025 50.3371C38.2191 49.3208 37.9271 48.2998 37.2909 47.4987L32.7332 41.7599L30.4678 43.559C29.9316 43.9848 29.3402 44.289 28.7259 44.4752C28.8832 44.2258 29.0511 43.9629 29.2252 43.6936C29.6204 43.0349 30.0243 42.385 30.3584 41.8475C30.7364 41.2393 31.0249 40.7751 31.1101 40.6047L31.4309 40.003L28.7841 39.9227C26.8592 39.8425 25.8967 39.7222 25.2551 39.4815C24.322 39.1225 23.2285 38.0248 22.664 36.9643C22.9883 36.3801 23.432 35.8477 23.991 35.4038L26.2564 33.6047L21.6986 27.8658C21.0624 27.0648 20.134 26.5492 19.1177 26.4327C18.1014 26.3161 17.0804 26.608 16.2793 27.2442L10.2385 32.0418L8.43935 29.7765C7.94843 29.1584 7.31834 28.6763 6.60913 28.3635C9.37771 21.5255 14.5201 13.8608 21.2047 6.46612C22.3275 5.22253 23.5707 3.93882 24.0119 3.57778C24.4404 3.2134 24.64 3.04371 24.8614 3.00752C25.0543 2.97597 25.2639 3.04585 25.6561 3.17662C26.1373 3.29697 27.6612 3.89871 29.0247 4.46033C32.2731 5.82427 39.8525 8.47191 41.6171 8.91319C43.5019 9.39458 43.5821 9.55504 43.542 12.5236C43.5019 16.3346 42.8603 24.5584 42.4993 25.8822C42.4191 26.2432 42.0582 26.8049 41.6973 27.1258L41.0957 27.6874L37.326 27.6473C35.2407 27.6072 32.4736 27.5269 31.1502 27.4467L28.744 27.3264L28.7039 25.3206C28.6237 23.1944 28.4232 22.5927 28.0222 23.5154C27.6612 24.4781 25.1748 29.5729 24.854 30.0141C24.6936 30.2548 24.6134 30.4955 24.6535 30.5356C24.6936 30.5758 25.8566 30.5356 27.2602 30.4554C28.6237 30.3351 32.3934 30.2147 35.6417 30.1345C40.4541 30.0542 41.5369 30.0944 41.6171 30.2949C41.6572 30.4153 41.7775 32.0199 41.8978 33.8653Z" fill="#0066FF"/>
</g>
<g id="Letras">
<path id="Grawiki" d="M66.5456 31.56C67.0123 31.56 67.4256 31.52 67.7856 31.44C68.1456 31.36 68.4856 31.2533 68.8056 31.12V28.91H67.3656C67.1523 28.91 66.9856 28.8533 66.8656 28.74C66.7456 28.6267 66.6856 28.4833 66.6856 28.31V26.45H71.8656V32.6C71.4923 32.8733 71.1023 33.11 70.6956 33.31C70.2956 33.5033 69.8656 33.6633 69.4056 33.79C68.9523 33.9167 68.4656 34.01 67.9456 34.07C67.4323 34.13 66.879 34.16 66.2856 34.16C65.219 34.16 64.2323 33.9733 63.3256 33.6C62.419 33.22 61.6323 32.7 60.9656 32.04C60.3056 31.3733 59.7856 30.5867 59.4056 29.68C59.0323 28.7667 58.8456 27.7767 58.8456 26.71C58.8456 25.6233 59.0256 24.6267 59.3856 23.72C59.7456 22.8067 60.259 22.02 60.9256 21.36C61.599 20.7 62.409 20.1867 63.3556 19.82C64.309 19.4533 65.3723 19.27 66.5456 19.27C67.1523 19.27 67.7223 19.32 68.2556 19.42C68.789 19.52 69.279 19.6567 69.7256 19.83C70.179 20.0033 70.5923 20.21 70.9656 20.45C71.339 20.69 71.6723 20.95 71.9656 21.23L70.9856 22.72C70.8923 22.86 70.779 22.97 70.6456 23.05C70.519 23.13 70.379 23.17 70.2256 23.17C70.0256 23.17 69.819 23.1033 69.6056 22.97C69.339 22.81 69.0856 22.6733 68.8456 22.56C68.6123 22.44 68.3723 22.3433 68.1256 22.27C67.879 22.1967 67.619 22.1433 67.3456 22.11C67.0723 22.0767 66.7656 22.06 66.4256 22.06C65.7923 22.06 65.2223 22.1733 64.7156 22.4C64.209 22.62 63.7756 22.9333 63.4156 23.34C63.0623 23.7467 62.789 24.2367 62.5956 24.81C62.4023 25.3767 62.3056 26.01 62.3056 26.71C62.3056 27.4833 62.4123 28.17 62.6256 28.77C62.839 29.37 63.1323 29.8767 63.5056 30.29C63.8856 30.7033 64.3323 31.02 64.8456 31.24C65.3656 31.4533 65.9323 31.56 66.5456 31.56ZM78.5239 34V23.63H80.3639C80.5173 23.63 80.6439 23.6433 80.7439 23.67C80.8506 23.6967 80.9373 23.74 81.0039 23.8C81.0773 23.8533 81.1306 23.9267 81.1639 24.02C81.2039 24.1133 81.2373 24.2267 81.2639 24.36L81.4339 25.33C81.8139 24.7433 82.2406 24.28 82.7139 23.94C83.1873 23.6 83.7039 23.43 84.2639 23.43C84.7373 23.43 85.1173 23.5433 85.4039 23.77L85.0039 26.05C84.9773 26.19 84.9239 26.29 84.8439 26.35C84.7639 26.4033 84.6573 26.43 84.5239 26.43C84.4106 26.43 84.2773 26.4167 84.1239 26.39C83.9706 26.3567 83.7773 26.34 83.5439 26.34C82.7306 26.34 82.0906 26.7733 81.6239 27.64V34H78.5239ZM98.3503 34C98.057 34 97.8337 33.96 97.6803 33.88C97.5337 33.8 97.4103 33.6333 97.3103 33.38L97.0903 32.81C96.8303 33.03 96.5803 33.2233 96.3403 33.39C96.1003 33.5567 95.8503 33.7 95.5903 33.82C95.337 33.9333 95.0637 34.0167 94.7703 34.07C94.4837 34.13 94.1637 34.16 93.8103 34.16C93.337 34.16 92.907 34.1 92.5203 33.98C92.1337 33.8533 91.8037 33.67 91.5303 33.43C91.2637 33.19 91.057 32.8933 90.9103 32.54C90.7637 32.18 90.6903 31.7667 90.6903 31.3C90.6903 30.9333 90.7837 30.5567 90.9703 30.17C91.157 29.7833 91.4803 29.4333 91.9403 29.12C92.4003 28.8 93.0203 28.5333 93.8003 28.32C94.5803 28.1067 95.5637 27.9867 96.7503 27.96V27.52C96.7503 26.9133 96.6237 26.4767 96.3703 26.21C96.1237 25.9367 95.7703 25.8 95.3103 25.8C94.9437 25.8 94.6437 25.84 94.4103 25.92C94.177 26 93.967 26.09 93.7803 26.19C93.6003 26.29 93.4237 26.38 93.2503 26.46C93.077 26.54 92.8703 26.58 92.6303 26.58C92.417 26.58 92.2337 26.53 92.0803 26.43C91.9337 26.3233 91.817 26.1933 91.7303 26.04L91.1703 25.07C91.797 24.5167 92.4903 24.1067 93.2503 23.84C94.017 23.5667 94.837 23.43 95.7103 23.43C96.337 23.43 96.9003 23.5333 97.4003 23.74C97.907 23.94 98.3337 24.2233 98.6803 24.59C99.0337 24.95 99.3037 25.38 99.4903 25.88C99.677 26.38 99.7703 26.9267 99.7703 27.52V34H98.3503ZM94.7903 32.11C95.1903 32.11 95.5403 32.04 95.8403 31.9C96.1403 31.76 96.4437 31.5333 96.7503 31.22V29.78C96.1303 29.8067 95.6203 29.86 95.2203 29.94C94.8203 30.02 94.5037 30.12 94.2703 30.24C94.037 30.36 93.8737 30.4967 93.7803 30.65C93.6937 30.8033 93.6503 30.97 93.6503 31.15C93.6503 31.5033 93.747 31.7533 93.9403 31.9C94.1337 32.04 94.417 32.11 94.7903 32.11ZM105.176 23.63H107.656C107.876 23.63 108.066 23.68 108.226 23.78C108.386 23.88 108.483 24.01 108.516 24.17L109.556 28.82C109.636 29.1733 109.71 29.5167 109.776 29.85C109.843 30.1833 109.903 30.5133 109.956 30.84C110.05 30.5133 110.146 30.1867 110.246 29.86C110.353 29.5267 110.456 29.18 110.556 28.82L111.856 24.16C111.896 24.0067 111.993 23.88 112.146 23.78C112.3 23.6733 112.476 23.62 112.676 23.62H114.056C114.276 23.62 114.463 23.6733 114.616 23.78C114.776 23.88 114.876 24.0067 114.916 24.16L116.156 28.82C116.25 29.1733 116.343 29.5167 116.436 29.85C116.536 30.1833 116.63 30.52 116.716 30.86C116.77 30.5267 116.833 30.1967 116.906 29.87C116.986 29.5367 117.07 29.1867 117.156 28.82L118.256 24.17C118.29 24.01 118.383 23.88 118.536 23.78C118.696 23.68 118.876 23.63 119.076 23.63H121.436L118.216 34H115.696C115.563 34 115.45 33.96 115.356 33.88C115.263 33.8 115.19 33.6667 115.136 33.48L113.656 28.31C113.59 28.0767 113.526 27.8467 113.466 27.62C113.406 27.3933 113.353 27.1667 113.306 26.94C113.26 27.1733 113.206 27.4067 113.146 27.64C113.093 27.8667 113.03 28.0967 112.956 28.33L111.456 33.48C111.356 33.8267 111.136 34 110.796 34H108.396L105.176 23.63ZM130.446 23.63V34H127.346V23.63H130.446ZM130.806 20.79C130.806 21.0367 130.756 21.27 130.656 21.49C130.556 21.7033 130.419 21.8933 130.246 22.06C130.072 22.22 129.869 22.35 129.636 22.45C129.409 22.5433 129.166 22.59 128.906 22.59C128.652 22.59 128.416 22.5433 128.196 22.45C127.976 22.35 127.779 22.22 127.606 22.06C127.439 21.8933 127.306 21.7033 127.206 21.49C127.112 21.27 127.066 21.0367 127.066 20.79C127.066 20.5367 127.112 20.3 127.206 20.08C127.306 19.86 127.439 19.6667 127.606 19.5C127.779 19.3333 127.976 19.2033 128.196 19.11C128.416 19.0167 128.652 18.97 128.906 18.97C129.166 18.97 129.409 19.0167 129.636 19.11C129.869 19.2033 130.072 19.3333 130.246 19.5C130.419 19.6667 130.556 19.86 130.656 20.08C130.756 20.3 130.806 20.5367 130.806 20.79ZM140.649 19.03V27.42H141.109C141.302 27.42 141.449 27.3933 141.549 27.34C141.656 27.2867 141.756 27.19 141.849 27.05L143.809 24.13C143.922 23.9567 144.056 23.83 144.209 23.75C144.369 23.67 144.569 23.63 144.809 23.63H147.649L144.969 27.32C144.842 27.4933 144.702 27.6467 144.549 27.78C144.402 27.9133 144.242 28.0333 144.069 28.14C144.369 28.3667 144.629 28.6667 144.849 29.04L147.769 34H144.969C144.736 34 144.532 33.9633 144.359 33.89C144.192 33.81 144.056 33.6733 143.949 33.48L141.989 29.81C141.896 29.6433 141.799 29.5367 141.699 29.49C141.599 29.4367 141.449 29.41 141.249 29.41H140.649V34H137.549V19.03H140.649ZM156.872 23.63V34H153.772V23.63H156.872ZM157.232 20.79C157.232 21.0367 157.182 21.27 157.082 21.49C156.982 21.7033 156.846 21.8933 156.672 22.06C156.499 22.22 156.296 22.35 156.062 22.45C155.836 22.5433 155.592 22.59 155.332 22.59C155.079 22.59 154.842 22.5433 154.622 22.45C154.402 22.35 154.206 22.22 154.032 22.06C153.866 21.8933 153.732 21.7033 153.632 21.49C153.539 21.27 153.492 21.0367 153.492 20.79C153.492 20.5367 153.539 20.3 153.632 20.08C153.732 19.86 153.866 19.6667 154.032 19.5C154.206 19.3333 154.402 19.2033 154.622 19.11C154.842 19.0167 155.079 18.97 155.332 18.97C155.592 18.97 155.836 19.0167 156.062 19.11C156.296 19.2033 156.499 19.3333 156.672 19.5C156.846 19.6667 156.982 19.86 157.082 20.08C157.182 20.3 157.232 20.5367 157.232 20.79Z" fill="black"/>
<path id="Crea en comunidad" d="M71.966 43.52C72.0193 43.52 72.066 43.5417 72.106 43.585L72.491 44C72.1977 44.34 71.841 44.605 71.421 44.795C71.0043 44.985 70.4993 45.08 69.906 45.08C69.3927 45.08 68.926 44.9917 68.506 44.815C68.086 44.635 67.7277 44.385 67.431 44.065C67.1343 43.7417 66.9043 43.355 66.741 42.905C66.5777 42.455 66.496 41.96 66.496 41.42C66.496 40.88 66.581 40.385 66.751 39.935C66.921 39.485 67.1593 39.0983 67.466 38.775C67.776 38.4517 68.146 38.2017 68.576 38.025C69.006 37.845 69.481 37.755 70.001 37.755C70.511 37.755 70.961 37.8367 71.351 38C71.741 38.1633 72.0843 38.385 72.381 38.665L72.061 39.11C72.041 39.1433 72.0143 39.1717 71.981 39.195C71.951 39.215 71.9093 39.225 71.856 39.225C71.796 39.225 71.7227 39.1933 71.636 39.13C71.5493 39.0633 71.436 38.99 71.296 38.91C71.156 38.83 70.981 38.7583 70.771 38.695C70.561 38.6283 70.3027 38.595 69.996 38.595C69.626 38.595 69.2877 38.66 68.981 38.79C68.6743 38.9167 68.4093 39.1017 68.186 39.345C67.966 39.5883 67.7943 39.885 67.671 40.235C67.5477 40.585 67.486 40.98 67.486 41.42C67.486 41.8667 67.5493 42.265 67.676 42.615C67.806 42.965 67.981 43.2617 68.201 43.505C68.4243 43.745 68.686 43.9283 68.986 44.055C69.2893 44.1817 69.616 44.245 69.966 44.245C70.1793 44.245 70.371 44.2333 70.541 44.21C70.7143 44.1833 70.8727 44.1433 71.016 44.09C71.1627 44.0367 71.2977 43.97 71.421 43.89C71.5477 43.8067 71.6727 43.7083 71.796 43.595C71.8527 43.545 71.9093 43.52 71.966 43.52ZM74.2214 40.95C74.3814 40.6033 74.5781 40.3333 74.8114 40.14C75.0447 39.9433 75.3297 39.845 75.6664 39.845C75.7731 39.845 75.8747 39.8567 75.9714 39.88C76.0714 39.9033 76.1597 39.94 76.2364 39.99L76.1714 40.655C76.1514 40.7383 76.1014 40.78 76.0214 40.78C75.9747 40.78 75.9064 40.77 75.8164 40.75C75.7264 40.73 75.6247 40.72 75.5114 40.72C75.3514 40.72 75.2081 40.7433 75.0814 40.79C74.9581 40.8367 74.8464 40.9067 74.7464 41C74.6497 41.09 74.5614 41.2033 74.4814 41.34C74.4047 41.4733 74.3347 41.6267 74.2714 41.8V45H73.3764V39.935H73.8864C73.9831 39.935 74.0497 39.9533 74.0864 39.99C74.1231 40.0267 74.1481 40.09 74.1614 40.18L74.2214 40.95ZM80.2039 41.915C80.2039 41.7083 80.1739 41.52 80.1139 41.35C80.0572 41.1767 79.9722 41.0283 79.8589 40.905C79.7489 40.7783 79.6139 40.6817 79.4539 40.615C79.2939 40.545 79.1122 40.51 78.9089 40.51C78.4822 40.51 78.1439 40.635 77.8939 40.885C77.6472 41.1317 77.4939 41.475 77.4339 41.915H80.2039ZM80.9239 44.29C80.8139 44.4233 80.6822 44.54 80.5289 44.64C80.3756 44.7367 80.2106 44.8167 80.0339 44.88C79.8606 44.9433 79.6806 44.99 79.4939 45.02C79.3072 45.0533 79.1222 45.07 78.9389 45.07C78.5889 45.07 78.2656 45.0117 77.9689 44.895C77.6756 44.775 77.4206 44.6017 77.2039 44.375C76.9906 44.145 76.8239 43.8617 76.7039 43.525C76.5839 43.1883 76.5239 42.8017 76.5239 42.365C76.5239 42.0117 76.5772 41.6817 76.6839 41.375C76.7939 41.0683 76.9506 40.8033 77.1539 40.58C77.3572 40.3533 77.6056 40.1767 77.8989 40.05C78.1922 39.92 78.5222 39.855 78.8889 39.855C79.1922 39.855 79.4722 39.9067 79.7289 40.01C79.9889 40.11 80.2122 40.2567 80.3989 40.45C80.5889 40.64 80.7372 40.8767 80.8439 41.16C80.9506 41.44 81.0039 41.76 81.0039 42.12C81.0039 42.26 80.9889 42.3533 80.9589 42.4C80.9289 42.4467 80.8722 42.47 80.7889 42.47H77.4039C77.4139 42.79 77.4572 43.0683 77.5339 43.305C77.6139 43.5417 77.7239 43.74 77.8639 43.9C78.0039 44.0567 78.1706 44.175 78.3639 44.255C78.5572 44.3317 78.7739 44.37 79.0139 44.37C79.2372 44.37 79.4289 44.345 79.5889 44.295C79.7522 44.2417 79.8922 44.185 80.0089 44.125C80.1256 44.065 80.2222 44.01 80.2989 43.96C80.3789 43.9067 80.4472 43.88 80.5039 43.88C80.5772 43.88 80.6339 43.9083 80.6739 43.965L80.9239 44.29ZM84.8421 42.72C84.4321 42.7333 84.0821 42.7667 83.7921 42.82C83.5054 42.87 83.2704 42.9367 83.0871 43.02C82.9071 43.1033 82.7754 43.2017 82.6921 43.315C82.6121 43.4283 82.5721 43.555 82.5721 43.695C82.5721 43.8283 82.5938 43.9433 82.6371 44.04C82.6804 44.1367 82.7388 44.2167 82.8121 44.28C82.8888 44.34 82.9771 44.385 83.0771 44.415C83.1804 44.4417 83.2904 44.455 83.4071 44.455C83.5638 44.455 83.7071 44.44 83.8371 44.41C83.9671 44.3767 84.0888 44.33 84.2021 44.27C84.3188 44.21 84.4288 44.1383 84.5321 44.055C84.6388 43.9717 84.7421 43.8767 84.8421 43.77V42.72ZM81.9671 40.65C82.2471 40.38 82.5488 40.1783 82.8721 40.045C83.1954 39.9117 83.5538 39.845 83.9471 39.845C84.2304 39.845 84.4821 39.8917 84.7021 39.985C84.9221 40.0783 85.1071 40.2083 85.2571 40.375C85.4071 40.5417 85.5204 40.7433 85.5971 40.98C85.6738 41.2167 85.7121 41.4767 85.7121 41.76V45H85.3171C85.2304 45 85.1638 44.9867 85.1171 44.96C85.0704 44.93 85.0338 44.8733 85.0071 44.79L84.9071 44.31C84.7738 44.4333 84.6438 44.5433 84.5171 44.64C84.3904 44.7333 84.2571 44.8133 84.1171 44.88C83.9771 44.9433 83.8271 44.9917 83.6671 45.025C83.5104 45.0617 83.3354 45.08 83.1421 45.08C82.9454 45.08 82.7604 45.0533 82.5871 45C82.4138 44.9433 82.2621 44.86 82.1321 44.75C82.0054 44.64 81.9038 44.5017 81.8271 44.335C81.7538 44.165 81.7171 43.965 81.7171 43.735C81.7171 43.535 81.7721 43.3433 81.8821 43.16C81.9921 42.9733 82.1704 42.8083 82.4171 42.665C82.6638 42.5217 82.9854 42.405 83.3821 42.315C83.7788 42.2217 84.2654 42.1683 84.8421 42.155V41.76C84.8421 41.3667 84.7571 41.07 84.5871 40.87C84.4171 40.6667 84.1688 40.565 83.8421 40.565C83.6221 40.565 83.4371 40.5933 83.2871 40.65C83.1404 40.7033 83.0121 40.765 82.9021 40.835C82.7954 40.9017 82.7021 40.9633 82.6221 41.02C82.5454 41.0733 82.4688 41.1 82.3921 41.1C82.3321 41.1 82.2804 41.085 82.2371 41.055C82.1938 41.0217 82.1571 40.9817 82.1271 40.935L81.9671 40.65ZM93.0164 41.915C93.0164 41.7083 92.9864 41.52 92.9264 41.35C92.8697 41.1767 92.7847 41.0283 92.6714 40.905C92.5614 40.7783 92.4264 40.6817 92.2664 40.615C92.1064 40.545 91.9247 40.51 91.7214 40.51C91.2947 40.51 90.9564 40.635 90.7064 40.885C90.4597 41.1317 90.3064 41.475 90.2464 41.915H93.0164ZM93.7364 44.29C93.6264 44.4233 93.4947 44.54 93.3414 44.64C93.1881 44.7367 93.0231 44.8167 92.8464 44.88C92.6731 44.9433 92.4931 44.99 92.3064 45.02C92.1197 45.0533 91.9347 45.07 91.7514 45.07C91.4014 45.07 91.0781 45.0117 90.7814 44.895C90.4881 44.775 90.2331 44.6017 90.0164 44.375C89.8031 44.145 89.6364 43.8617 89.5164 43.525C89.3964 43.1883 89.3364 42.8017 89.3364 42.365C89.3364 42.0117 89.3897 41.6817 89.4964 41.375C89.6064 41.0683 89.7631 40.8033 89.9664 40.58C90.1697 40.3533 90.4181 40.1767 90.7114 40.05C91.0047 39.92 91.3347 39.855 91.7014 39.855C92.0047 39.855 92.2847 39.9067 92.5414 40.01C92.8014 40.11 93.0247 40.2567 93.2114 40.45C93.4014 40.64 93.5497 40.8767 93.6564 41.16C93.7631 41.44 93.8164 41.76 93.8164 42.12C93.8164 42.26 93.8014 42.3533 93.7714 42.4C93.7414 42.4467 93.6847 42.47 93.6014 42.47H90.2164C90.2264 42.79 90.2697 43.0683 90.3464 43.305C90.4264 43.5417 90.5364 43.74 90.6764 43.9C90.8164 44.0567 90.9831 44.175 91.1764 44.255C91.3697 44.3317 91.5864 44.37 91.8264 44.37C92.0497 44.37 92.2414 44.345 92.4014 44.295C92.5647 44.2417 92.7047 44.185 92.8214 44.125C92.9381 44.065 93.0347 44.01 93.1114 43.96C93.1914 43.9067 93.2597 43.88 93.3164 43.88C93.3897 43.88 93.4464 43.9083 93.4864 43.965L93.7364 44.29ZM95.7496 40.67C95.8596 40.5467 95.9763 40.435 96.0996 40.335C96.2229 40.235 96.3529 40.15 96.4896 40.08C96.6296 40.0067 96.7763 39.9517 96.9296 39.915C97.0863 39.875 97.2546 39.855 97.4346 39.855C97.7113 39.855 97.9546 39.9017 98.1646 39.995C98.3779 40.085 98.5546 40.215 98.6946 40.385C98.8379 40.5517 98.9463 40.7533 99.0196 40.99C99.0929 41.2267 99.1296 41.4883 99.1296 41.775V45H98.2346V41.775C98.2346 41.3917 98.1463 41.095 97.9696 40.885C97.7963 40.6717 97.5313 40.565 97.1746 40.565C96.9113 40.565 96.6646 40.6283 96.4346 40.755C96.2079 40.8817 95.9979 41.0533 95.8046 41.27V45H94.9096V39.935H95.4446C95.5713 39.935 95.6496 39.9967 95.6796 40.12L95.7496 40.67ZM106.569 40.835C106.543 40.8717 106.516 40.9 106.489 40.92C106.463 40.94 106.426 40.95 106.379 40.95C106.329 40.95 106.274 40.93 106.214 40.89C106.154 40.8467 106.079 40.8 105.989 40.75C105.903 40.7 105.794 40.655 105.664 40.615C105.538 40.5717 105.381 40.55 105.194 40.55C104.944 40.55 104.724 40.595 104.534 40.685C104.344 40.7717 104.184 40.8983 104.054 41.065C103.928 41.2317 103.831 41.4333 103.764 41.67C103.701 41.9067 103.669 42.1717 103.669 42.465C103.669 42.7717 103.704 43.045 103.774 43.285C103.844 43.5217 103.943 43.7217 104.069 43.885C104.199 44.045 104.354 44.1683 104.534 44.255C104.718 44.3383 104.923 44.38 105.149 44.38C105.366 44.38 105.544 44.355 105.684 44.305C105.824 44.2517 105.939 44.1933 106.029 44.13C106.123 44.0667 106.199 44.01 106.259 43.96C106.323 43.9067 106.384 43.88 106.444 43.88C106.518 43.88 106.574 43.9083 106.614 43.965L106.864 44.29C106.754 44.4267 106.629 44.5433 106.489 44.64C106.349 44.7367 106.198 44.8183 106.034 44.885C105.874 44.9483 105.706 44.995 105.529 45.025C105.353 45.055 105.173 45.07 104.989 45.07C104.673 45.07 104.378 45.0117 104.104 44.895C103.834 44.7783 103.599 44.61 103.399 44.39C103.199 44.1667 103.043 43.8933 102.929 43.57C102.816 43.2467 102.759 42.8783 102.759 42.465C102.759 42.0883 102.811 41.74 102.914 41.42C103.021 41.1 103.174 40.825 103.374 40.595C103.578 40.3617 103.826 40.18 104.119 40.05C104.416 39.92 104.756 39.855 105.139 39.855C105.496 39.855 105.809 39.9133 106.079 40.03C106.353 40.1433 106.594 40.305 106.804 40.515L106.569 40.835ZM109.867 39.855C110.237 39.855 110.57 39.9167 110.867 40.04C111.164 40.1633 111.417 40.3383 111.627 40.565C111.837 40.7917 111.997 41.0667 112.107 41.39C112.22 41.71 112.277 42.0683 112.277 42.465C112.277 42.865 112.22 43.225 112.107 43.545C111.997 43.865 111.837 44.1383 111.627 44.365C111.417 44.5917 111.164 44.7667 110.867 44.89C110.57 45.01 110.237 45.07 109.867 45.07C109.494 45.07 109.157 45.01 108.857 44.89C108.56 44.7667 108.307 44.5917 108.097 44.365C107.887 44.1383 107.725 43.865 107.612 43.545C107.502 43.225 107.447 42.865 107.447 42.465C107.447 42.0683 107.502 41.71 107.612 41.39C107.725 41.0667 107.887 40.7917 108.097 40.565C108.307 40.3383 108.56 40.1633 108.857 40.04C109.157 39.9167 109.494 39.855 109.867 39.855ZM109.867 44.375C110.367 44.375 110.74 44.2083 110.987 43.875C111.234 43.5383 111.357 43.07 111.357 42.47C111.357 41.8667 111.234 41.3967 110.987 41.06C110.74 40.7233 110.367 40.555 109.867 40.555C109.614 40.555 109.392 40.5983 109.202 40.685C109.015 40.7717 108.859 40.8967 108.732 41.06C108.609 41.2233 108.515 41.425 108.452 41.665C108.392 41.9017 108.362 42.17 108.362 42.47C108.362 43.07 108.485 43.5383 108.732 43.875C108.982 44.2083 109.36 44.375 109.867 44.375ZM113.406 45V39.935H113.941C114.067 39.935 114.146 39.9967 114.176 40.12L114.241 40.64C114.427 40.41 114.637 40.2217 114.871 40.075C115.104 39.9283 115.374 39.855 115.681 39.855C116.021 39.855 116.296 39.95 116.506 40.14C116.719 40.33 116.872 40.5867 116.966 40.91C117.039 40.7267 117.132 40.5683 117.246 40.435C117.362 40.3017 117.492 40.1917 117.636 40.105C117.779 40.0183 117.931 39.955 118.091 39.915C118.254 39.875 118.419 39.855 118.586 39.855C118.852 39.855 119.089 39.8983 119.296 39.985C119.506 40.0683 119.682 40.1917 119.826 40.355C119.972 40.5183 120.084 40.72 120.161 40.96C120.237 41.1967 120.276 41.4683 120.276 41.775V45H119.381V41.775C119.381 41.3783 119.294 41.0783 119.121 40.875C118.947 40.6683 118.697 40.565 118.371 40.565C118.224 40.565 118.084 40.5917 117.951 40.645C117.821 40.695 117.706 40.77 117.606 40.87C117.506 40.97 117.426 41.0967 117.366 41.25C117.309 41.4 117.281 41.575 117.281 41.775V45H116.386V41.775C116.386 41.3683 116.304 41.065 116.141 40.865C115.977 40.665 115.739 40.565 115.426 40.565C115.206 40.565 115.002 40.625 114.816 40.745C114.629 40.8617 114.457 41.0217 114.301 41.225V45H113.406ZM125.793 39.935V45H125.263C125.137 45 125.057 44.9383 125.023 44.815L124.953 44.27C124.733 44.5133 124.487 44.71 124.213 44.86C123.94 45.0067 123.627 45.08 123.273 45.08C122.997 45.08 122.752 45.035 122.538 44.945C122.328 44.8517 122.152 44.7217 122.008 44.555C121.865 44.3883 121.757 44.1867 121.683 43.95C121.613 43.7133 121.578 43.4517 121.578 43.165V39.935H122.468V43.165C122.468 43.5483 122.555 43.845 122.728 44.055C122.905 44.265 123.173 44.37 123.533 44.37C123.797 44.37 124.042 44.3083 124.268 44.185C124.498 44.0583 124.71 43.885 124.903 43.665V39.935H125.793ZM128.045 40.67C128.155 40.5467 128.271 40.435 128.395 40.335C128.518 40.235 128.648 40.15 128.785 40.08C128.925 40.0067 129.071 39.9517 129.225 39.915C129.381 39.875 129.55 39.855 129.73 39.855C130.006 39.855 130.25 39.9017 130.46 39.995C130.673 40.085 130.85 40.215 130.99 40.385C131.133 40.5517 131.241 40.7533 131.315 40.99C131.388 41.2267 131.425 41.4883 131.425 41.775V45H130.53V41.775C130.53 41.3917 130.441 41.095 130.265 40.885C130.091 40.6717 129.826 40.565 129.47 40.565C129.206 40.565 128.96 40.6283 128.73 40.755C128.503 40.8817 128.293 41.0533 128.1 41.27V45H127.205V39.935H127.74C127.866 39.935 127.945 39.9967 127.975 40.12L128.045 40.67ZM133.721 39.935V45H132.831V39.935H133.721ZM133.911 38.345C133.911 38.4317 133.892 38.5133 133.856 38.59C133.822 38.6633 133.776 38.73 133.716 38.79C133.659 38.8467 133.591 38.8917 133.511 38.925C133.434 38.9583 133.352 38.975 133.266 38.975C133.179 38.975 133.097 38.9583 133.021 38.925C132.947 38.8917 132.882 38.8467 132.826 38.79C132.769 38.73 132.724 38.6633 132.691 38.59C132.657 38.5133 132.641 38.4317 132.641 38.345C132.641 38.2583 132.657 38.1767 132.691 38.1C132.724 38.02 132.769 37.9517 132.826 37.895C132.882 37.835 132.947 37.7883 133.021 37.755C133.097 37.7217 133.179 37.705 133.266 37.705C133.352 37.705 133.434 37.7217 133.511 37.755C133.591 37.7883 133.659 37.835 133.716 37.895C133.776 37.9517 133.822 38.02 133.856 38.1C133.892 38.1767 133.911 38.2583 133.911 38.345ZM138.483 41.14C138.316 40.9167 138.136 40.7617 137.943 40.675C137.75 40.585 137.533 40.54 137.293 40.54C136.823 40.54 136.461 40.7083 136.208 41.045C135.955 41.3817 135.828 41.8617 135.828 42.485C135.828 42.815 135.856 43.0983 135.913 43.335C135.97 43.5683 136.053 43.7617 136.163 43.915C136.273 44.065 136.408 44.175 136.568 44.245C136.728 44.315 136.91 44.35 137.113 44.35C137.406 44.35 137.661 44.2833 137.878 44.15C138.098 44.0167 138.3 43.8283 138.483 43.585V41.14ZM139.373 37.635V45H138.843C138.716 45 138.636 44.9383 138.603 44.815L138.523 44.2C138.306 44.46 138.06 44.67 137.783 44.83C137.506 44.99 137.186 45.07 136.823 45.07C136.533 45.07 136.27 45.015 136.033 44.905C135.796 44.7917 135.595 44.6267 135.428 44.41C135.261 44.1933 135.133 43.9233 135.043 43.6C134.953 43.2767 134.908 42.905 134.908 42.485C134.908 42.1117 134.958 41.765 135.058 41.445C135.158 41.1217 135.301 40.8417 135.488 40.605C135.675 40.3683 135.903 40.1833 136.173 40.05C136.446 39.9133 136.753 39.845 137.093 39.845C137.403 39.845 137.668 39.8983 137.888 40.005C138.111 40.1083 138.31 40.2533 138.483 40.44V37.635H139.373ZM143.524 42.72C143.114 42.7333 142.764 42.7667 142.474 42.82C142.187 42.87 141.952 42.9367 141.769 43.02C141.589 43.1033 141.457 43.2017 141.374 43.315C141.294 43.4283 141.254 43.555 141.254 43.695C141.254 43.8283 141.275 43.9433 141.319 44.04C141.362 44.1367 141.42 44.2167 141.494 44.28C141.57 44.34 141.659 44.385 141.759 44.415C141.862 44.4417 141.972 44.455 142.089 44.455C142.245 44.455 142.389 44.44 142.519 44.41C142.649 44.3767 142.77 44.33 142.884 44.27C143 44.21 143.11 44.1383 143.214 44.055C143.32 43.9717 143.424 43.8767 143.524 43.77V42.72ZM140.649 40.65C140.929 40.38 141.23 40.1783 141.554 40.045C141.877 39.9117 142.235 39.845 142.629 39.845C142.912 39.845 143.164 39.8917 143.384 39.985C143.604 40.0783 143.789 40.2083 143.939 40.375C144.089 40.5417 144.202 40.7433 144.279 40.98C144.355 41.2167 144.394 41.4767 144.394 41.76V45H143.999C143.912 45 143.845 44.9867 143.799 44.96C143.752 44.93 143.715 44.8733 143.689 44.79L143.589 44.31C143.455 44.4333 143.325 44.5433 143.199 44.64C143.072 44.7333 142.939 44.8133 142.799 44.88C142.659 44.9433 142.509 44.9917 142.349 45.025C142.192 45.0617 142.017 45.08 141.824 45.08C141.627 45.08 141.442 45.0533 141.269 45C141.095 44.9433 140.944 44.86 140.814 44.75C140.687 44.64 140.585 44.5017 140.509 44.335C140.435 44.165 140.399 43.965 140.399 43.735C140.399 43.535 140.454 43.3433 140.564 43.16C140.674 42.9733 140.852 42.8083 141.099 42.665C141.345 42.5217 141.667 42.405 142.064 42.315C142.46 42.2217 142.947 42.1683 143.524 42.155V41.76C143.524 41.3667 143.439 41.07 143.269 40.87C143.099 40.6667 142.85 40.565 142.524 40.565C142.304 40.565 142.119 40.5933 141.969 40.65C141.822 40.7033 141.694 40.765 141.584 40.835C141.477 40.9017 141.384 40.9633 141.304 41.02C141.227 41.0733 141.15 41.1 141.074 41.1C141.014 41.1 140.962 41.085 140.919 41.055C140.875 41.0217 140.839 40.9817 140.809 40.935L140.649 40.65ZM149.049 41.14C148.883 40.9167 148.703 40.7617 148.509 40.675C148.316 40.585 148.099 40.54 147.859 40.54C147.389 40.54 147.028 40.7083 146.774 41.045C146.521 41.3817 146.394 41.8617 146.394 42.485C146.394 42.815 146.423 43.0983 146.479 43.335C146.536 43.5683 146.619 43.7617 146.729 43.915C146.839 44.065 146.974 44.175 147.134 44.245C147.294 44.315 147.476 44.35 147.679 44.35C147.973 44.35 148.228 44.2833 148.444 44.15C148.664 44.0167 148.866 43.8283 149.049 43.585V41.14ZM149.939 37.635V45H149.409C149.283 45 149.203 44.9383 149.169 44.815L149.089 44.2C148.873 44.46 148.626 44.67 148.349 44.83C148.073 44.99 147.753 45.07 147.389 45.07C147.099 45.07 146.836 45.015 146.599 44.905C146.363 44.7917 146.161 44.6267 145.994 44.41C145.828 44.1933 145.699 43.9233 145.609 43.6C145.519 43.2767 145.474 42.905 145.474 42.485C145.474 42.1117 145.524 41.765 145.624 41.445C145.724 41.1217 145.868 40.8417 146.054 40.605C146.241 40.3683 146.469 40.1833 146.739 40.05C147.013 39.9133 147.319 39.845 147.659 39.845C147.969 39.845 148.234 39.8983 148.454 40.005C148.678 40.1083 148.876 40.2533 149.049 40.44V37.635H149.939Z" fill="black"/>
</g>
</g>
<defs>
<clipPath id="clip0_1550_21587">
<rect x="22.4182" y="63.4181" width="38.9297" height="21.2061" rx="4.73488" transform="rotate(-128.456 22.4182 63.4181)" fill="white"/>
</clipPath>
</defs>
</svg>
