<svg width="128" height="101" viewBox="0 0 128 101" fill="none" xmlns="http://www.w3.org/2000/svg">
<g id="State=Horizontal">
<g id="Logo">
<g id="Puzzle">
<g clip-path="url(#clip0_1499_9343)">
<path id="Vector" d="M42.7796 34.2058L44.5085 36.3828L38.5369 41.1255C36.8797 42.4415 36.5884 44.803 37.8563 46.3994L42.4667 52.2046C36.7061 56.7796 42.5991 63.933 48.2298 59.4611L52.8403 65.2664C53.4517 66.0362 54.3526 66.5246 55.3449 66.6243C56.3371 66.7239 57.3395 66.4266 58.1314 65.7976L63.8045 61.2921C63.4248 61.4003 69.2531 57.0455 71.8662 54.8895L77.5393 50.384C78.3312 49.7551 78.8478 48.8461 78.9754 47.857C79.1031 46.868 78.8313 45.8798 78.2199 45.11L74.2364 40.0752L72.097 41.7519C69.8576 43.5304 65.9721 42.6033 64.2432 40.4264C62.5143 38.2494 62.6299 34.6749 64.5643 32.6599L66.6599 30.7255L63.2359 26.2431C62.6245 25.4732 61.7236 24.9848 60.7313 24.8851C59.739 24.7855 58.7367 25.0829 57.9448 25.7118L51.9731 30.4544L50.2442 28.2775C49.48 27.3152 48.3538 26.7046 47.1135 26.5801C45.8732 26.4556 44.6202 26.8272 43.6304 27.6134C42.6405 28.3995 41.9948 29.5357 41.8352 30.7721C41.6757 32.0084 42.0154 33.2435 42.7796 34.2058Z" fill="#D84B4B"/>
</g>
</g>
<path id="Subtract" fill-rule="evenodd" clip-rule="evenodd" d="M83.7325 31.3653C83.8528 33.2106 84.1335 36.139 84.334 37.9041C84.7752 41.5547 85.8981 51.9046 86.0986 54.3516C86.259 56.4778 85.9382 57.2801 84.8153 57.5609C81.0857 58.4836 77.4764 58.8045 76.0327 58.283C75.0703 57.922 74.7494 57.5609 74.1479 56.0766L73.6667 54.9534L72.9448 55.3947C72.6774 55.5602 72.0341 55.8593 71.247 56.1967C71.8125 55.75 72.3325 55.3331 72.7652 54.9758L78.504 50.418C79.3051 49.7818 79.8206 48.8534 79.9372 47.8371C80.0538 46.8208 79.7618 45.7998 79.1256 44.9987L74.5679 39.2599L72.3025 41.059C71.7664 41.4848 71.1749 41.789 70.5606 41.9752C70.7179 41.7258 70.8858 41.4629 71.06 41.1936C71.4551 40.5349 71.859 39.885 72.1931 39.3475C72.5711 38.7393 72.8597 38.2751 72.9448 38.1047L73.2656 37.503L70.6188 37.4227C68.6939 37.3425 67.7314 37.2222 67.0898 36.9815C66.1568 36.6225 65.0632 35.5248 64.4987 34.4643C64.823 33.8801 65.2668 33.3477 65.8257 32.9038L68.0911 31.1047L63.5333 25.3658C62.8971 24.5648 61.9687 24.0492 60.9524 23.9327C59.9361 23.8161 58.9151 24.108 58.1141 24.7442L52.0732 29.5418L50.2741 27.2765C49.7831 26.6584 49.1531 26.1763 48.4438 25.8635C51.2124 19.0255 56.3548 11.3608 63.0394 3.96612C64.1623 2.72253 65.4054 1.43882 65.8466 1.07778C66.2751 0.713403 66.4747 0.543712 66.6961 0.507519C66.8891 0.475973 67.0986 0.545845 67.4908 0.67662C67.972 0.796967 69.4959 1.39871 70.8594 1.96033C74.1078 3.32427 81.6873 5.97191 83.4518 6.41319C85.3366 6.89458 85.4168 7.05504 85.3767 10.0236C85.3366 13.8346 84.695 22.0584 84.334 23.3822C84.2538 23.7432 83.8929 24.3049 83.532 24.6258L82.9304 25.1874L79.1608 25.1473C77.0754 25.1072 74.3083 25.0269 72.9849 24.9467L70.5787 24.8264L70.5386 22.8206C70.4584 20.6944 70.2579 20.0927 69.8569 21.0154C69.4959 21.9781 67.0096 27.0729 66.6887 27.5141C66.5283 27.7548 66.4481 27.9955 66.4882 28.0356C66.5283 28.0758 67.6913 28.0356 69.0949 27.9554C70.4584 27.8351 74.2281 27.7147 77.4764 27.6345C82.2888 27.5542 83.3716 27.5944 83.4518 27.7949C83.4919 27.9153 83.6122 29.5199 83.7325 31.3653Z" fill="#0066FF"/>
</g>
<g id="Letra">
<path id="Grawiki" d="M22.2151 76.56C22.6817 76.56 23.0951 76.52 23.4551 76.44C23.8151 76.36 24.1551 76.2533 24.4751 76.12V73.91H23.0351C22.8217 73.91 22.6551 73.8533 22.5351 73.74C22.4151 73.6267 22.3551 73.4833 22.3551 73.31V71.45H27.5351V77.6C27.1617 77.8733 26.7717 78.11 26.3651 78.31C25.9651 78.5033 25.5351 78.6633 25.0751 78.79C24.6217 78.9167 24.1351 79.01 23.6151 79.07C23.1017 79.13 22.5484 79.16 21.9551 79.16C20.8884 79.16 19.9017 78.9733 18.9951 78.6C18.0884 78.22 17.3017 77.7 16.6351 77.04C15.9751 76.3733 15.4551 75.5867 15.0751 74.68C14.7017 73.7667 14.5151 72.7767 14.5151 71.71C14.5151 70.6233 14.6951 69.6267 15.0551 68.72C15.4151 67.8067 15.9284 67.02 16.5951 66.36C17.2684 65.7 18.0784 65.1867 19.0251 64.82C19.9784 64.4533 21.0417 64.27 22.2151 64.27C22.8217 64.27 23.3917 64.32 23.9251 64.42C24.4584 64.52 24.9484 64.6567 25.3951 64.83C25.8484 65.0033 26.2617 65.21 26.6351 65.45C27.0084 65.69 27.3417 65.95 27.6351 66.23L26.6551 67.72C26.5617 67.86 26.4484 67.97 26.3151 68.05C26.1884 68.13 26.0484 68.17 25.8951 68.17C25.6951 68.17 25.4884 68.1033 25.2751 67.97C25.0084 67.81 24.7551 67.6733 24.5151 67.56C24.2817 67.44 24.0417 67.3433 23.7951 67.27C23.5484 67.1967 23.2884 67.1433 23.0151 67.11C22.7417 67.0767 22.4351 67.06 22.0951 67.06C21.4617 67.06 20.8917 67.1733 20.3851 67.4C19.8784 67.62 19.4451 67.9333 19.0851 68.34C18.7317 68.7467 18.4584 69.2367 18.2651 69.81C18.0717 70.3767 17.9751 71.01 17.9751 71.71C17.9751 72.4833 18.0817 73.17 18.2951 73.77C18.5084 74.37 18.8017 74.8767 19.1751 75.29C19.5551 75.7033 20.0017 76.02 20.5151 76.24C21.0351 76.4533 21.6017 76.56 22.2151 76.56ZM34.1934 79V68.63H36.0334C36.1867 68.63 36.3134 68.6433 36.4134 68.67C36.52 68.6967 36.6067 68.74 36.6734 68.8C36.7467 68.8533 36.8 68.9267 36.8334 69.02C36.8734 69.1133 36.9067 69.2267 36.9334 69.36L37.1034 70.33C37.4834 69.7433 37.91 69.28 38.3834 68.94C38.8567 68.6 39.3734 68.43 39.9334 68.43C40.4067 68.43 40.7867 68.5433 41.0734 68.77L40.6734 71.05C40.6467 71.19 40.5934 71.29 40.5134 71.35C40.4334 71.4033 40.3267 71.43 40.1934 71.43C40.08 71.43 39.9467 71.4167 39.7934 71.39C39.64 71.3567 39.4467 71.34 39.2134 71.34C38.4 71.34 37.76 71.7733 37.2934 72.64V79H34.1934ZM54.0198 79C53.7264 79 53.5031 78.96 53.3498 78.88C53.2031 78.8 53.0798 78.6333 52.9798 78.38L52.7598 77.81C52.4998 78.03 52.2498 78.2233 52.0098 78.39C51.7698 78.5567 51.5198 78.7 51.2598 78.82C51.0064 78.9333 50.7331 79.0167 50.4398 79.07C50.1531 79.13 49.8331 79.16 49.4798 79.16C49.0064 79.16 48.5764 79.1 48.1898 78.98C47.8031 78.8533 47.4731 78.67 47.1998 78.43C46.9331 78.19 46.7264 77.8933 46.5798 77.54C46.4331 77.18 46.3598 76.7667 46.3598 76.3C46.3598 75.9333 46.4531 75.5567 46.6398 75.17C46.8264 74.7833 47.1498 74.4333 47.6098 74.12C48.0698 73.8 48.6898 73.5333 49.4698 73.32C50.2498 73.1067 51.2331 72.9867 52.4198 72.96V72.52C52.4198 71.9133 52.2931 71.4767 52.0398 71.21C51.7931 70.9367 51.4398 70.8 50.9798 70.8C50.6131 70.8 50.3131 70.84 50.0798 70.92C49.8464 71 49.6364 71.09 49.4498 71.19C49.2698 71.29 49.0931 71.38 48.9198 71.46C48.7464 71.54 48.5398 71.58 48.2998 71.58C48.0864 71.58 47.9031 71.53 47.7498 71.43C47.6031 71.3233 47.4864 71.1933 47.3998 71.04L46.8398 70.07C47.4664 69.5167 48.1598 69.1067 48.9198 68.84C49.6864 68.5667 50.5064 68.43 51.3798 68.43C52.0064 68.43 52.5698 68.5333 53.0698 68.74C53.5764 68.94 54.0031 69.2233 54.3498 69.59C54.7031 69.95 54.9731 70.38 55.1598 70.88C55.3464 71.38 55.4398 71.9267 55.4398 72.52V79H54.0198ZM50.4598 77.11C50.8598 77.11 51.2098 77.04 51.5098 76.9C51.8098 76.76 52.1131 76.5333 52.4198 76.22V74.78C51.7998 74.8067 51.2898 74.86 50.8898 74.94C50.4898 75.02 50.1731 75.12 49.9398 75.24C49.7064 75.36 49.5431 75.4967 49.4498 75.65C49.3631 75.8033 49.3198 75.97 49.3198 76.15C49.3198 76.5033 49.4164 76.7533 49.6098 76.9C49.8031 77.04 50.0864 77.11 50.4598 77.11ZM60.8457 68.63H63.3257C63.5457 68.63 63.7357 68.68 63.8957 68.78C64.0557 68.88 64.1524 69.01 64.1857 69.17L65.2257 73.82C65.3057 74.1733 65.379 74.5167 65.4457 74.85C65.5124 75.1833 65.5724 75.5133 65.6257 75.84C65.719 75.5133 65.8157 75.1867 65.9157 74.86C66.0224 74.5267 66.1257 74.18 66.2257 73.82L67.5257 69.16C67.5657 69.0067 67.6624 68.88 67.8157 68.78C67.969 68.6733 68.1457 68.62 68.3457 68.62H69.7257C69.9457 68.62 70.1324 68.6733 70.2857 68.78C70.4457 68.88 70.5457 69.0067 70.5857 69.16L71.8257 73.82C71.919 74.1733 72.0124 74.5167 72.1057 74.85C72.2057 75.1833 72.299 75.52 72.3857 75.86C72.439 75.5267 72.5024 75.1967 72.5757 74.87C72.6557 74.5367 72.739 74.1867 72.8257 73.82L73.9257 69.17C73.959 69.01 74.0524 68.88 74.2057 68.78C74.3657 68.68 74.5457 68.63 74.7457 68.63H77.1057L73.8857 79H71.3657C71.2324 79 71.119 78.96 71.0257 78.88C70.9324 78.8 70.859 78.6667 70.8057 78.48L69.3257 73.31C69.259 73.0767 69.1957 72.8467 69.1357 72.62C69.0757 72.3933 69.0224 72.1667 68.9757 71.94C68.929 72.1733 68.8757 72.4067 68.8157 72.64C68.7624 72.8667 68.699 73.0967 68.6257 73.33L67.1257 78.48C67.0257 78.8267 66.8057 79 66.4657 79H64.0657L60.8457 68.63ZM86.1152 68.63V79H83.0152V68.63H86.1152ZM86.4752 65.79C86.4752 66.0367 86.4252 66.27 86.3252 66.49C86.2252 66.7033 86.0886 66.8933 85.9152 67.06C85.7419 67.22 85.5386 67.35 85.3052 67.45C85.0786 67.5433 84.8352 67.59 84.5752 67.59C84.3219 67.59 84.0852 67.5433 83.8652 67.45C83.6452 67.35 83.4486 67.22 83.2752 67.06C83.1086 66.8933 82.9752 66.7033 82.8752 66.49C82.7819 66.27 82.7352 66.0367 82.7352 65.79C82.7352 65.5367 82.7819 65.3 82.8752 65.08C82.9752 64.86 83.1086 64.6667 83.2752 64.5C83.4486 64.3333 83.6452 64.2033 83.8652 64.11C84.0852 64.0167 84.3219 63.97 84.5752 63.97C84.8352 63.97 85.0786 64.0167 85.3052 64.11C85.5386 64.2033 85.7419 64.3333 85.9152 64.5C86.0886 64.6667 86.2252 64.86 86.3252 65.08C86.4252 65.3 86.4752 65.5367 86.4752 65.79ZM96.3184 64.03V72.42H96.7784C96.9717 72.42 97.1184 72.3933 97.2184 72.34C97.325 72.2867 97.425 72.19 97.5184 72.05L99.4784 69.13C99.5917 68.9567 99.725 68.83 99.8784 68.75C100.038 68.67 100.238 68.63 100.478 68.63H103.318L100.638 72.32C100.512 72.4933 100.372 72.6467 100.218 72.78C100.072 72.9133 99.9117 73.0333 99.7384 73.14C100.038 73.3667 100.298 73.6667 100.518 74.04L103.438 79H100.638C100.405 79 100.202 78.9633 100.028 78.89C99.8617 78.81 99.725 78.6733 99.6184 78.48L97.6584 74.81C97.565 74.6433 97.4684 74.5367 97.3684 74.49C97.2684 74.4367 97.1184 74.41 96.9184 74.41H96.3184V79H93.2184V64.03H96.3184ZM112.542 68.63V79H109.442V68.63H112.542ZM112.902 65.79C112.902 66.0367 112.852 66.27 112.752 66.49C112.652 66.7033 112.515 66.8933 112.342 67.06C112.168 67.22 111.965 67.35 111.732 67.45C111.505 67.5433 111.262 67.59 111.002 67.59C110.748 67.59 110.512 67.5433 110.292 67.45C110.072 67.35 109.875 67.22 109.702 67.06C109.535 66.8933 109.402 66.7033 109.302 66.49C109.208 66.27 109.162 66.0367 109.162 65.79C109.162 65.5367 109.208 65.3 109.302 65.08C109.402 64.86 109.535 64.6667 109.702 64.5C109.875 64.3333 110.072 64.2033 110.292 64.11C110.512 64.0167 110.748 63.97 111.002 63.97C111.262 63.97 111.505 64.0167 111.732 64.11C111.965 64.2033 112.168 64.3333 112.342 64.5C112.515 64.6667 112.652 64.86 112.752 65.08C112.852 65.3 112.902 65.5367 112.902 65.79Z" fill="black"/>
<path id="Crea en comunidad" d="M20.3625 90.224C20.4265 90.224 20.4825 90.25 20.5305 90.302L20.9925 90.8C20.6405 91.208 20.2125 91.526 19.7085 91.754C19.2085 91.982 18.6025 92.096 17.8905 92.096C17.2745 92.096 16.7145 91.99 16.2105 91.778C15.7065 91.562 15.2765 91.262 14.9205 90.878C14.5645 90.49 14.2885 90.026 14.0925 89.486C13.8965 88.946 13.7985 88.352 13.7985 87.704C13.7985 87.056 13.9005 86.462 14.1045 85.922C14.3085 85.382 14.5945 84.918 14.9625 84.53C15.3345 84.142 15.7785 83.842 16.2945 83.63C16.8105 83.414 17.3805 83.306 18.0045 83.306C18.6165 83.306 19.1565 83.404 19.6245 83.6C20.0925 83.796 20.5045 84.062 20.8605 84.398L20.4765 84.932C20.4525 84.972 20.4205 85.006 20.3805 85.034C20.3445 85.058 20.2945 85.07 20.2305 85.07C20.1585 85.07 20.0705 85.032 19.9665 84.956C19.8625 84.876 19.7265 84.788 19.5585 84.692C19.3905 84.596 19.1805 84.51 18.9285 84.434C18.6765 84.354 18.3665 84.314 17.9985 84.314C17.5545 84.314 17.1485 84.392 16.7805 84.548C16.4125 84.7 16.0945 84.922 15.8265 85.214C15.5625 85.506 15.3565 85.862 15.2085 86.282C15.0605 86.702 14.9865 87.176 14.9865 87.704C14.9865 88.24 15.0625 88.718 15.2145 89.138C15.3705 89.558 15.5805 89.914 15.8445 90.206C16.1125 90.494 16.4265 90.714 16.7865 90.866C17.1505 91.018 17.5425 91.094 17.9625 91.094C18.2185 91.094 18.4485 91.08 18.6525 91.052C18.8605 91.02 19.0505 90.972 19.2225 90.908C19.3985 90.844 19.5605 90.764 19.7085 90.668C19.8605 90.568 20.0105 90.45 20.1585 90.314C20.2265 90.254 20.2945 90.224 20.3625 90.224ZM23.069 87.14C23.261 86.724 23.497 86.4 23.777 86.168C24.057 85.932 24.399 85.814 24.803 85.814C24.931 85.814 25.053 85.828 25.169 85.856C25.289 85.884 25.395 85.928 25.487 85.988L25.409 86.786C25.385 86.886 25.325 86.936 25.229 86.936C25.173 86.936 25.091 86.924 24.983 86.9C24.875 86.876 24.753 86.864 24.617 86.864C24.425 86.864 24.253 86.892 24.101 86.948C23.953 87.004 23.819 87.088 23.699 87.2C23.583 87.308 23.477 87.444 23.381 87.608C23.289 87.768 23.205 87.952 23.129 88.16V92H22.055V85.922H22.667C22.783 85.922 22.863 85.944 22.907 85.988C22.951 86.032 22.981 86.108 22.997 86.216L23.069 87.14ZM30.248 88.298C30.248 88.05 30.212 87.824 30.14 87.62C30.072 87.412 29.97 87.234 29.834 87.086C29.702 86.934 29.54 86.818 29.348 86.738C29.156 86.654 28.938 86.612 28.694 86.612C28.182 86.612 27.776 86.762 27.476 87.062C27.18 87.358 26.996 87.77 26.924 88.298H30.248ZM31.112 91.148C30.98 91.308 30.822 91.448 30.638 91.568C30.454 91.684 30.256 91.78 30.044 91.856C29.836 91.932 29.62 91.988 29.396 92.024C29.172 92.064 28.95 92.084 28.73 92.084C28.31 92.084 27.922 92.014 27.566 91.874C27.214 91.73 26.908 91.522 26.648 91.25C26.392 90.974 26.192 90.634 26.048 90.23C25.904 89.826 25.832 89.362 25.832 88.838C25.832 88.414 25.896 88.018 26.024 87.65C26.156 87.282 26.344 86.964 26.588 86.696C26.832 86.424 27.13 86.212 27.482 86.06C27.834 85.904 28.23 85.826 28.67 85.826C29.034 85.826 29.37 85.888 29.678 86.012C29.99 86.132 30.258 86.308 30.482 86.54C30.71 86.768 30.888 87.052 31.016 87.392C31.144 87.728 31.208 88.112 31.208 88.544C31.208 88.712 31.19 88.824 31.154 88.88C31.118 88.936 31.05 88.964 30.95 88.964H26.888C26.9 89.348 26.952 89.682 27.044 89.966C27.14 90.25 27.272 90.488 27.44 90.68C27.608 90.868 27.808 91.01 28.04 91.106C28.272 91.198 28.532 91.244 28.82 91.244C29.088 91.244 29.318 91.214 29.51 91.154C29.706 91.09 29.874 91.022 30.014 90.95C30.154 90.878 30.27 90.812 30.362 90.752C30.458 90.688 30.54 90.656 30.608 90.656C30.696 90.656 30.764 90.69 30.812 90.758L31.112 91.148ZM35.8138 89.264C35.3218 89.28 34.9018 89.32 34.5538 89.384C34.2098 89.444 33.9278 89.524 33.7078 89.624C33.4918 89.724 33.3338 89.842 33.2338 89.978C33.1378 90.114 33.0898 90.266 33.0898 90.434C33.0898 90.594 33.1158 90.732 33.1678 90.848C33.2198 90.964 33.2898 91.06 33.3778 91.136C33.4698 91.208 33.5758 91.262 33.6958 91.298C33.8198 91.33 33.9518 91.346 34.0918 91.346C34.2798 91.346 34.4518 91.328 34.6078 91.292C34.7638 91.252 34.9098 91.196 35.0458 91.124C35.1858 91.052 35.3178 90.966 35.4418 90.866C35.5698 90.766 35.6938 90.652 35.8138 90.524V89.264ZM32.3638 86.78C32.6998 86.456 33.0618 86.214 33.4498 86.054C33.8378 85.894 34.2678 85.814 34.7398 85.814C35.0798 85.814 35.3818 85.87 35.6458 85.982C35.9098 86.094 36.1318 86.25 36.3118 86.45C36.4918 86.65 36.6278 86.892 36.7198 87.176C36.8118 87.46 36.8578 87.772 36.8578 88.112V92H36.3838C36.2798 92 36.1998 91.984 36.1438 91.952C36.0878 91.916 36.0438 91.848 36.0118 91.748L35.8918 91.172C35.7318 91.32 35.5758 91.452 35.4238 91.568C35.2718 91.68 35.1118 91.776 34.9438 91.856C34.7758 91.932 34.5958 91.99 34.4038 92.03C34.2158 92.074 34.0058 92.096 33.7738 92.096C33.5378 92.096 33.3158 92.064 33.1078 92C32.8998 91.932 32.7178 91.832 32.5618 91.7C32.4098 91.568 32.2878 91.402 32.1958 91.202C32.1078 90.998 32.0638 90.758 32.0638 90.482C32.0638 90.242 32.1298 90.012 32.2618 89.792C32.3938 89.568 32.6078 89.37 32.9038 89.198C33.1998 89.026 33.5858 88.886 34.0618 88.778C34.5378 88.666 35.1218 88.602 35.8138 88.586V88.112C35.8138 87.64 35.7118 87.284 35.5078 87.044C35.3038 86.8 35.0058 86.678 34.6138 86.678C34.3498 86.678 34.1278 86.712 33.9478 86.78C33.7718 86.844 33.6178 86.918 33.4858 87.002C33.3578 87.082 33.2458 87.156 33.1498 87.224C33.0578 87.288 32.9658 87.32 32.8738 87.32C32.8018 87.32 32.7398 87.302 32.6878 87.266C32.6358 87.226 32.5918 87.178 32.5558 87.122L32.3638 86.78ZM45.623 88.298C45.623 88.05 45.587 87.824 45.515 87.62C45.447 87.412 45.345 87.234 45.209 87.086C45.077 86.934 44.915 86.818 44.723 86.738C44.531 86.654 44.313 86.612 44.069 86.612C43.557 86.612 43.151 86.762 42.851 87.062C42.555 87.358 42.371 87.77 42.299 88.298H45.623ZM46.487 91.148C46.355 91.308 46.197 91.448 46.013 91.568C45.829 91.684 45.631 91.78 45.419 91.856C45.211 91.932 44.995 91.988 44.771 92.024C44.547 92.064 44.325 92.084 44.105 92.084C43.685 92.084 43.297 92.014 42.941 91.874C42.589 91.73 42.283 91.522 42.023 91.25C41.767 90.974 41.567 90.634 41.423 90.23C41.279 89.826 41.207 89.362 41.207 88.838C41.207 88.414 41.271 88.018 41.399 87.65C41.531 87.282 41.719 86.964 41.963 86.696C42.207 86.424 42.505 86.212 42.857 86.06C43.209 85.904 43.605 85.826 44.045 85.826C44.409 85.826 44.745 85.888 45.053 86.012C45.365 86.132 45.633 86.308 45.857 86.54C46.085 86.768 46.263 87.052 46.391 87.392C46.519 87.728 46.583 88.112 46.583 88.544C46.583 88.712 46.565 88.824 46.529 88.88C46.493 88.936 46.425 88.964 46.325 88.964H42.263C42.275 89.348 42.327 89.682 42.419 89.966C42.515 90.25 42.647 90.488 42.815 90.68C42.983 90.868 43.183 91.01 43.415 91.106C43.647 91.198 43.907 91.244 44.195 91.244C44.463 91.244 44.693 91.214 44.885 91.154C45.081 91.09 45.249 91.022 45.389 90.95C45.529 90.878 45.645 90.812 45.737 90.752C45.833 90.688 45.915 90.656 45.983 90.656C46.071 90.656 46.139 90.69 46.187 90.758L46.487 91.148ZM48.9028 86.804C49.0348 86.656 49.1748 86.522 49.3228 86.402C49.4708 86.282 49.6268 86.18 49.7908 86.096C49.9588 86.008 50.1348 85.942 50.3188 85.898C50.5068 85.85 50.7088 85.826 50.9248 85.826C51.2568 85.826 51.5488 85.882 51.8008 85.994C52.0568 86.102 52.2688 86.258 52.4368 86.462C52.6088 86.662 52.7388 86.904 52.8268 87.188C52.9148 87.472 52.9588 87.786 52.9588 88.13V92H51.8848V88.13C51.8848 87.67 51.7788 87.314 51.5668 87.062C51.3588 86.806 51.0408 86.678 50.6128 86.678C50.2968 86.678 50.0008 86.754 49.7248 86.906C49.4528 87.058 49.2008 87.264 48.9688 87.524V92H47.8948V85.922H48.5368C48.6888 85.922 48.7828 85.996 48.8188 86.144L48.9028 86.804ZM61.8865 87.002C61.8545 87.046 61.8225 87.08 61.7905 87.104C61.7585 87.128 61.7145 87.14 61.6585 87.14C61.5985 87.14 61.5325 87.116 61.4605 87.068C61.3885 87.016 61.2985 86.96 61.1905 86.9C61.0865 86.84 60.9565 86.786 60.8005 86.738C60.6485 86.686 60.4605 86.66 60.2365 86.66C59.9365 86.66 59.6725 86.714 59.4445 86.822C59.2165 86.926 59.0245 87.078 58.8685 87.278C58.7165 87.478 58.6005 87.72 58.5205 88.004C58.4445 88.288 58.4065 88.606 58.4065 88.958C58.4065 89.326 58.4485 89.654 58.5325 89.942C58.6165 90.226 58.7345 90.466 58.8865 90.662C59.0425 90.854 59.2285 91.002 59.4445 91.106C59.6645 91.206 59.9105 91.256 60.1825 91.256C60.4425 91.256 60.6565 91.226 60.8245 91.166C60.9925 91.102 61.1305 91.032 61.2385 90.956C61.3505 90.88 61.4425 90.812 61.5145 90.752C61.5905 90.688 61.6645 90.656 61.7365 90.656C61.8245 90.656 61.8925 90.69 61.9405 90.758L62.2405 91.148C62.1085 91.312 61.9585 91.452 61.7905 91.568C61.6225 91.684 61.4405 91.782 61.2445 91.862C61.0525 91.938 60.8505 91.994 60.6385 92.03C60.4265 92.066 60.2105 92.084 59.9905 92.084C59.6105 92.084 59.2565 92.014 58.9285 91.874C58.6045 91.734 58.3225 91.532 58.0825 91.268C57.8425 91 57.6545 90.672 57.5185 90.284C57.3825 89.896 57.3145 89.454 57.3145 88.958C57.3145 88.506 57.3765 88.088 57.5005 87.704C57.6285 87.32 57.8125 86.99 58.0525 86.714C58.2965 86.434 58.5945 86.216 58.9465 86.06C59.3025 85.904 59.7105 85.826 60.1705 85.826C60.5985 85.826 60.9745 85.896 61.2985 86.036C61.6265 86.172 61.9165 86.366 62.1685 86.618L61.8865 87.002ZM65.8435 85.826C66.2875 85.826 66.6875 85.9 67.0435 86.048C67.3995 86.196 67.7035 86.406 67.9555 86.678C68.2075 86.95 68.3995 87.28 68.5315 87.668C68.6675 88.052 68.7355 88.482 68.7355 88.958C68.7355 89.438 68.6675 89.87 68.5315 90.254C68.3995 90.638 68.2075 90.966 67.9555 91.238C67.7035 91.51 67.3995 91.72 67.0435 91.868C66.6875 92.012 66.2875 92.084 65.8435 92.084C65.3955 92.084 64.9915 92.012 64.6315 91.868C64.2755 91.72 63.9715 91.51 63.7195 91.238C63.4675 90.966 63.2735 90.638 63.1375 90.254C63.0055 89.87 62.9395 89.438 62.9395 88.958C62.9395 88.482 63.0055 88.052 63.1375 87.668C63.2735 87.28 63.4675 86.95 63.7195 86.678C63.9715 86.406 64.2755 86.196 64.6315 86.048C64.9915 85.9 65.3955 85.826 65.8435 85.826ZM65.8435 91.25C66.4435 91.25 66.8915 91.05 67.1875 90.65C67.4835 90.246 67.6315 89.684 67.6315 88.964C67.6315 88.24 67.4835 87.676 67.1875 87.272C66.8915 86.868 66.4435 86.666 65.8435 86.666C65.5395 86.666 65.2735 86.718 65.0455 86.822C64.8215 86.926 64.6335 87.076 64.4815 87.272C64.3335 87.468 64.2215 87.71 64.1455 87.998C64.0735 88.282 64.0375 88.604 64.0375 88.964C64.0375 89.684 64.1855 90.246 64.4815 90.65C64.7815 91.05 65.2355 91.25 65.8435 91.25ZM70.0901 92V85.922H70.7321C70.8841 85.922 70.9781 85.996 71.0141 86.144L71.0921 86.768C71.3161 86.492 71.5681 86.266 71.8481 86.09C72.1281 85.914 72.4521 85.826 72.8201 85.826C73.2281 85.826 73.5581 85.94 73.8101 86.168C74.0661 86.396 74.2501 86.704 74.3621 87.092C74.4501 86.872 74.5621 86.682 74.6981 86.522C74.8381 86.362 74.9941 86.23 75.1661 86.126C75.3381 86.022 75.5201 85.946 75.7121 85.898C75.9081 85.85 76.1061 85.826 76.3061 85.826C76.6261 85.826 76.9101 85.878 77.1581 85.982C77.4101 86.082 77.6221 86.23 77.7941 86.426C77.9701 86.622 78.1041 86.864 78.1961 87.152C78.2881 87.436 78.3341 87.762 78.3341 88.13V92H77.2601V88.13C77.2601 87.654 77.1561 87.294 76.9481 87.05C76.7401 86.802 76.4401 86.678 76.0481 86.678C75.8721 86.678 75.7041 86.71 75.5441 86.774C75.3881 86.834 75.2501 86.924 75.1301 87.044C75.0101 87.164 74.9141 87.316 74.8421 87.5C74.7741 87.68 74.7401 87.89 74.7401 88.13V92H73.6661V88.13C73.6661 87.642 73.5681 87.278 73.3721 87.038C73.1761 86.798 72.8901 86.678 72.5141 86.678C72.2501 86.678 72.0061 86.75 71.7821 86.894C71.5581 87.034 71.3521 87.226 71.1641 87.47V92H70.0901ZM84.9553 85.922V92H84.3193C84.1673 92 84.0713 91.926 84.0313 91.778L83.9473 91.124C83.6833 91.416 83.3873 91.652 83.0593 91.832C82.7313 92.008 82.3553 92.096 81.9313 92.096C81.5993 92.096 81.3053 92.042 81.0493 91.934C80.7973 91.822 80.5853 91.666 80.4133 91.466C80.2413 91.266 80.1113 91.024 80.0233 90.74C79.9393 90.456 79.8973 90.142 79.8973 89.798V85.922H80.9653V89.798C80.9653 90.258 81.0693 90.614 81.2773 90.866C81.4893 91.118 81.8113 91.244 82.2433 91.244C82.5593 91.244 82.8533 91.17 83.1253 91.022C83.4013 90.87 83.6553 90.662 83.8873 90.398V85.922H84.9553ZM87.6567 86.804C87.7887 86.656 87.9287 86.522 88.0767 86.402C88.2247 86.282 88.3807 86.18 88.5447 86.096C88.7127 86.008 88.8887 85.942 89.0727 85.898C89.2607 85.85 89.4627 85.826 89.6787 85.826C90.0107 85.826 90.3027 85.882 90.5547 85.994C90.8107 86.102 91.0227 86.258 91.1907 86.462C91.3627 86.662 91.4927 86.904 91.5807 87.188C91.6687 87.472 91.7127 87.786 91.7127 88.13V92H90.6387V88.13C90.6387 87.67 90.5327 87.314 90.3207 87.062C90.1127 86.806 89.7947 86.678 89.3667 86.678C89.0507 86.678 88.7547 86.754 88.4787 86.906C88.2067 87.058 87.9547 87.264 87.7227 87.524V92H86.6487V85.922H87.2907C87.4427 85.922 87.5367 85.996 87.5727 86.144L87.6567 86.804ZM94.4681 85.922V92H93.4001V85.922H94.4681ZM94.6961 84.014C94.6961 84.118 94.6741 84.216 94.6301 84.308C94.5901 84.396 94.5341 84.476 94.4621 84.548C94.3941 84.616 94.3121 84.67 94.2161 84.71C94.1241 84.75 94.0261 84.77 93.9221 84.77C93.8181 84.77 93.7201 84.75 93.6281 84.71C93.5401 84.67 93.4621 84.616 93.3941 84.548C93.3261 84.476 93.2721 84.396 93.2321 84.308C93.1921 84.216 93.1721 84.118 93.1721 84.014C93.1721 83.91 93.1921 83.812 93.2321 83.72C93.2721 83.624 93.3261 83.542 93.3941 83.474C93.4621 83.402 93.5401 83.346 93.6281 83.306C93.7201 83.266 93.8181 83.246 93.9221 83.246C94.0261 83.246 94.1241 83.266 94.2161 83.306C94.3121 83.346 94.3941 83.402 94.4621 83.474C94.5341 83.542 94.5901 83.624 94.6301 83.72C94.6741 83.812 94.6961 83.91 94.6961 84.014ZM100.183 87.368C99.983 87.1 99.767 86.914 99.535 86.81C99.303 86.702 99.043 86.648 98.755 86.648C98.191 86.648 97.757 86.85 97.453 87.254C97.149 87.658 96.997 88.234 96.997 88.982C96.997 89.378 97.031 89.718 97.099 90.002C97.167 90.282 97.267 90.514 97.399 90.698C97.531 90.878 97.693 91.01 97.885 91.094C98.077 91.178 98.295 91.22 98.539 91.22C98.891 91.22 99.197 91.14 99.457 90.98C99.721 90.82 99.963 90.594 100.183 90.302V87.368ZM101.251 83.162V92H100.615C100.463 92 100.367 91.926 100.327 91.778L100.231 91.04C99.971 91.352 99.675 91.604 99.343 91.796C99.011 91.988 98.627 92.084 98.191 92.084C97.843 92.084 97.527 92.018 97.243 91.886C96.959 91.75 96.717 91.552 96.517 91.292C96.317 91.032 96.163 90.708 96.055 90.32C95.947 89.932 95.893 89.486 95.893 88.982C95.893 88.534 95.953 88.118 96.073 87.734C96.193 87.346 96.365 87.01 96.589 86.726C96.813 86.442 97.087 86.22 97.411 86.06C97.739 85.896 98.107 85.814 98.515 85.814C98.887 85.814 99.205 85.878 99.469 86.006C99.737 86.13 99.975 86.304 100.183 86.528V83.162H101.251ZM106.232 89.264C105.74 89.28 105.32 89.32 104.972 89.384C104.628 89.444 104.346 89.524 104.126 89.624C103.91 89.724 103.752 89.842 103.652 89.978C103.556 90.114 103.508 90.266 103.508 90.434C103.508 90.594 103.534 90.732 103.586 90.848C103.638 90.964 103.708 91.06 103.796 91.136C103.888 91.208 103.994 91.262 104.114 91.298C104.238 91.33 104.37 91.346 104.51 91.346C104.698 91.346 104.87 91.328 105.026 91.292C105.182 91.252 105.328 91.196 105.464 91.124C105.604 91.052 105.736 90.966 105.86 90.866C105.988 90.766 106.112 90.652 106.232 90.524V89.264ZM102.782 86.78C103.118 86.456 103.48 86.214 103.868 86.054C104.256 85.894 104.686 85.814 105.158 85.814C105.498 85.814 105.8 85.87 106.064 85.982C106.328 86.094 106.55 86.25 106.73 86.45C106.91 86.65 107.046 86.892 107.138 87.176C107.23 87.46 107.276 87.772 107.276 88.112V92H106.802C106.698 92 106.618 91.984 106.562 91.952C106.506 91.916 106.462 91.848 106.43 91.748L106.31 91.172C106.15 91.32 105.994 91.452 105.842 91.568C105.69 91.68 105.53 91.776 105.362 91.856C105.194 91.932 105.014 91.99 104.822 92.03C104.634 92.074 104.424 92.096 104.192 92.096C103.956 92.096 103.734 92.064 103.526 92C103.318 91.932 103.136 91.832 102.98 91.7C102.828 91.568 102.706 91.402 102.614 91.202C102.526 90.998 102.482 90.758 102.482 90.482C102.482 90.242 102.548 90.012 102.68 89.792C102.812 89.568 103.026 89.37 103.322 89.198C103.618 89.026 104.004 88.886 104.48 88.778C104.956 88.666 105.54 88.602 106.232 88.586V88.112C106.232 87.64 106.13 87.284 105.926 87.044C105.722 86.8 105.424 86.678 105.032 86.678C104.768 86.678 104.546 86.712 104.366 86.78C104.19 86.844 104.036 86.918 103.904 87.002C103.776 87.082 103.664 87.156 103.568 87.224C103.476 87.288 103.384 87.32 103.292 87.32C103.22 87.32 103.158 87.302 103.106 87.266C103.054 87.226 103.01 87.178 102.974 87.122L102.782 86.78ZM112.863 87.368C112.663 87.1 112.447 86.914 112.215 86.81C111.983 86.702 111.723 86.648 111.435 86.648C110.871 86.648 110.437 86.85 110.133 87.254C109.829 87.658 109.677 88.234 109.677 88.982C109.677 89.378 109.711 89.718 109.779 90.002C109.847 90.282 109.947 90.514 110.079 90.698C110.211 90.878 110.373 91.01 110.565 91.094C110.757 91.178 110.975 91.22 111.219 91.22C111.571 91.22 111.877 91.14 112.137 90.98C112.401 90.82 112.643 90.594 112.863 90.302V87.368ZM113.931 83.162V92H113.295C113.143 92 113.047 91.926 113.007 91.778L112.911 91.04C112.651 91.352 112.355 91.604 112.023 91.796C111.691 91.988 111.307 92.084 110.871 92.084C110.523 92.084 110.207 92.018 109.923 91.886C109.639 91.75 109.397 91.552 109.197 91.292C108.997 91.032 108.843 90.708 108.735 90.32C108.627 89.932 108.573 89.486 108.573 88.982C108.573 88.534 108.633 88.118 108.753 87.734C108.873 87.346 109.045 87.01 109.269 86.726C109.493 86.442 109.767 86.22 110.091 86.06C110.419 85.896 110.787 85.814 111.195 85.814C111.567 85.814 111.885 85.878 112.149 86.006C112.417 86.13 112.655 86.304 112.863 86.528V83.162H113.931Z" fill="black"/>
</g>
</g>
<defs>
<clipPath id="clip0_1499_9343">
<rect x="64.2529" y="60.9181" width="38.9297" height="21.2061" rx="4.73488" transform="rotate(-128.456 64.2529 60.9181)" fill="white"/>
</clipPath>
</defs>
</svg>
