<svg width="311" height="312" viewBox="0 0 311 312" fill="none" xmlns="http://www.w3.org/2000/svg">
<path d="M311 238.853H0V239.008H311V238.853Z" fill="#EBEBEB"/>
<path d="M53.2308 244.774H32.6301V244.93H53.2308V244.774Z" fill="#EBEBEB"/>
<path d="M111.854 243.089H106.449V243.244H111.854V243.089Z" fill="#EBEBEB"/>
<path d="M65.789 250.553H53.8528V250.708H65.789V250.553Z" fill="#EBEBEB"/>
<path d="M279.838 249.508H252.974V249.663H279.838V249.508Z" fill="#EBEBEB"/>
<path d="M247.432 249.508H243.494V249.663H247.432V249.508Z" fill="#EBEBEB"/>
<path d="M230.694 246.883H172.425V247.038H230.694V246.883Z" fill="#EBEBEB"/>
<path d="M147.42 211.112H27.3182C25.3589 211.112 23.7666 209.519 23.7666 207.56V38.7306C23.7666 36.7713 25.3589 35.179 27.3182 35.179H147.426C149.386 35.179 150.978 36.7713 150.978 38.7306V207.56C150.972 209.519 149.379 211.112 147.42 211.112ZM27.3182 35.3345C25.446 35.3345 23.9221 36.8584 23.9221 38.7306V207.56C23.9221 209.432 25.446 210.956 27.3182 210.956H147.426C149.299 210.956 150.823 209.432 150.823 207.56V38.7306C150.823 36.8584 149.299 35.3345 147.426 35.3345H27.3182Z" fill="#EBEBEB"/>
<path d="M281.959 211.112H161.851C159.891 211.112 158.299 209.519 158.299 207.56V38.7306C158.299 36.7713 159.891 35.179 161.851 35.179H281.959C283.918 35.179 285.51 36.7713 285.51 38.7306V207.56C285.51 209.519 283.918 211.112 281.959 211.112ZM161.851 35.3345C159.978 35.3345 158.455 36.8584 158.455 38.7306V207.56C158.455 209.432 159.978 210.956 161.851 210.956H281.959C283.831 210.956 285.355 209.432 285.355 207.56V38.7306C285.355 36.8584 283.831 35.3345 281.959 35.3345H161.851Z" fill="#EBEBEB"/>
<path d="M158.156 46.8291H38.1846V180.553H158.156V46.8291Z" fill="#EBEBEB"/>
<path d="M162.05 46.8291H40.0007V180.553H162.05V46.8291Z" fill="#F5F5F5"/>
<path d="M158.156 180.553H38.1846V187.799H158.156V180.553Z" fill="#EBEBEB"/>
<path d="M180.573 180.553H58.5239V187.799H180.573V180.553Z" fill="#F0F0F0"/>
<path d="M156.593 175.094L156.593 52.2866L45.4603 52.2866L45.4603 175.094H156.593Z" fill="#FAFAFA"/>
<path d="M49.9775 175.092L82.023 52.2839H97.15L65.1046 175.092H49.9775Z" fill="white"/>
<path d="M47.9934 122.887C47.7757 122.887 47.6016 122.713 47.6016 122.495V55.8357C47.6016 55.618 47.7757 55.4438 47.9934 55.4438C48.2111 55.4438 48.3853 55.618 48.3853 55.8357V122.495C48.3791 122.707 48.2049 122.887 47.9934 122.887Z" fill="#F1F1F1"/>
<path d="M68.3516 175.092L100.397 52.2839H106.294L74.2543 175.092H68.3516Z" fill="white"/>
<path d="M156.598 175.096L156.598 52.2883H155.907L155.907 175.096H156.598Z" fill="#EBEBEB"/>
<path d="M163.343 58.1806H43.372L42.8682 54.405H162.846L163.343 58.1806Z" fill="#EBEBEB"/>
<path d="M163.343 60.9484H43.372L42.8682 57.1729H162.846L163.343 60.9484Z" fill="#EBEBEB"/>
<path d="M163.343 64.2638H43.372L42.8682 60.4883H162.846L163.343 64.2638Z" fill="#EBEBEB"/>
<path d="M163.343 67.9523H43.372L42.8682 64.1768H162.846L163.343 67.9523Z" fill="#EBEBEB"/>
<path d="M163.343 72.3747H43.372L42.8682 68.5991H162.846L163.343 72.3747Z" fill="#EBEBEB"/>
<path d="M163.343 77.3507H43.372L42.8682 73.5752H162.846L163.343 77.3507Z" fill="#EBEBEB"/>
<path d="M48.3108 172.199H61.7211V173.524H60.8752L60.1723 180.553H49.8534L49.1567 173.524H48.3108V172.199Z" fill="#EBEBEB"/>
<path d="M47.3216 159.89C47.3154 159.877 47.3216 159.871 47.3154 159.859C47.1413 159.274 46.9795 158.689 46.8365 158.092C45.9595 159.231 45.1073 159.517 44.4729 159.517C44.4045 159.517 44.336 159.51 44.2676 159.504C43.0112 159.38 41.8045 158.161 41.0394 156.239C41.0083 156.164 41.0146 156.083 41.0519 156.015C41.0892 155.946 41.1514 155.897 41.226 155.878C43.6767 155.237 45.6236 156.189 46.5504 156.799C46.4384 156.239 46.3389 155.679 46.2642 155.119C46.059 155.156 45.8599 155.181 45.6609 155.181C43.6083 155.181 42.0968 153.353 42.0284 153.259C41.9724 153.191 41.9538 153.104 41.9787 153.023C41.9973 152.942 42.0595 152.874 42.1404 152.843C43.3657 152.357 44.4045 152.314 45.2255 152.718C45.7355 152.967 46.1398 153.39 46.4384 153.944C46.88 152.619 48.18 150.087 51.7876 149.378C51.8685 149.359 51.9431 149.384 52.0053 149.428C52.0675 149.478 52.1048 149.546 52.111 149.627C52.2168 151.493 52.1608 153.776 50.7551 154.858C50.2264 155.268 49.5546 155.474 48.7398 155.474C48.1738 155.474 47.5331 155.368 46.824 155.175C47.0169 156.512 47.3154 157.85 47.6886 159.162C48.4164 158.198 50.3197 156.033 53.2058 155.293C53.3488 155.256 53.4981 155.343 53.5354 155.486C53.9584 157.091 53.7407 158.397 52.9072 159.255C52.223 159.965 51.1469 160.325 49.791 160.325C49.2312 160.325 48.6278 160.263 47.981 160.139C48.3231 161.24 48.7087 162.309 49.1192 163.342C49.9589 162.602 52.422 160.717 55.1029 161.501C55.1775 161.52 55.2397 161.576 55.2708 161.644C55.3019 161.712 55.3081 161.793 55.277 161.862C54.5493 163.641 53.722 164.623 52.6771 164.965C52.4034 165.052 52.1173 165.096 51.8187 165.096C51.1594 165.096 50.4192 164.878 49.5733 164.437C50.1517 165.799 50.7613 167.068 51.346 168.206C51.9742 167.522 53.6971 166.122 56.7512 166.769C56.888 166.8 56.9751 166.925 56.9626 167.062C56.8631 168.169 56.0794 169.226 55.0096 169.686C54.711 169.817 54.2818 169.941 53.7531 169.941C53.2555 169.941 52.6708 169.823 52.0302 169.494C53.3861 171.988 54.4684 173.574 54.4933 173.611C54.5804 173.736 54.5493 173.904 54.4249 173.991C54.3813 174.022 54.3254 174.04 54.2694 174.04C54.1823 174.04 54.1014 173.997 54.0455 173.922C54.0144 173.879 52.6646 171.894 51.0785 168.865C51.0599 168.84 51.0412 168.809 51.035 168.784C50.8608 168.449 50.6804 168.094 50.5001 167.733C49.7599 168.741 48.7709 169.295 47.7073 169.295C47.5953 169.295 47.4771 169.288 47.359 169.276C46.115 169.139 44.9767 168.25 44.5973 167.118C44.5537 166.993 44.6097 166.856 44.7217 166.794C46.8987 165.581 48.9015 166.129 49.9403 166.589C49.5484 165.762 49.1628 164.885 48.7896 163.97C48.7647 163.939 48.7522 163.896 48.746 163.858C48.6403 163.597 48.5408 163.336 48.435 163.075C47.5331 164.207 46.6437 164.766 45.7169 164.766C45.7169 164.766 45.7169 164.766 45.7107 164.766C44.5848 164.766 43.4404 163.933 42.2212 162.222C42.1342 162.104 42.159 161.936 42.2772 161.849C44.193 160.406 46.824 161.389 48.0121 161.967C47.7695 161.289 47.5393 160.599 47.3341 159.902C47.3279 159.896 47.3216 159.89 47.3216 159.89Z" fill="#EBEBEB"/>
<path d="M61.3727 167.124C60.9249 167.254 60.4771 167.329 60.0541 167.329C59.146 167.329 58.3187 167.03 57.6532 166.44C56.6269 165.531 56.1791 164.088 56.546 162.863C56.5834 162.739 56.7015 162.658 56.8322 162.67C59.824 162.987 61.323 164.972 61.9014 165.973C62.5048 164.617 63.0895 163.18 63.5995 161.688C62.8096 162.098 62.1005 162.31 61.466 162.31C61.1613 162.31 60.8689 162.26 60.589 162.166C59.1149 161.663 58.2192 159.853 57.479 157.962C57.4479 157.893 57.4541 157.812 57.4915 157.744C57.5226 157.676 57.5848 157.626 57.6594 157.601C60.701 156.755 63.1641 159.66 63.9292 160.699C64.3272 159.448 64.6693 158.167 64.9368 156.879C64.2526 157.004 63.6057 157.066 63.0148 157.066C61.466 157.066 60.2531 156.649 59.4819 155.834C58.5737 154.87 58.3498 153.421 58.8412 151.655C58.8785 151.512 59.0278 151.425 59.1709 151.468C62.2746 152.314 64.3148 154.678 65.1358 155.791C65.1732 155.561 65.2167 155.331 65.2478 155.101C65.254 155.038 65.2851 154.989 65.3287 154.945C65.6521 153.962 66.2243 153.247 66.9894 152.886C67.8975 152.457 69.0296 152.519 70.3669 153.073C70.4477 153.104 70.5037 153.172 70.5286 153.259C70.5472 153.34 70.5286 153.434 70.4726 153.496C70.3917 153.589 68.7372 155.548 66.5042 155.548C66.2741 155.548 66.0315 155.517 65.7952 155.474C65.6956 156.114 65.5775 156.755 65.4406 157.396C66.4607 156.736 68.6253 155.698 71.3372 156.444C71.4118 156.463 71.474 156.519 71.5113 156.587C71.5424 156.656 71.5487 156.736 71.5176 156.811C70.653 158.913 69.3095 160.238 67.9286 160.35C67.8664 160.356 67.8042 160.356 67.7358 160.356C67.0329 160.356 66.0875 160.033 65.1234 158.739C64.744 160.22 64.2713 161.669 63.7488 163.068C65.055 162.453 67.9846 161.383 70.0807 163.006C70.1989 163.093 70.2176 163.261 70.1367 163.379C68.7808 165.227 67.5305 166.122 66.299 166.122C66.2865 166.122 66.2803 166.122 66.2679 166.122C65.2478 166.11 64.2775 165.482 63.3009 164.213C62.7411 165.6 62.144 166.925 61.5469 168.15C62.8531 167.341 64.2837 167.466 65.9755 168.536C66.0502 168.585 66.0999 168.666 66.0999 168.753C66.0999 168.841 66.0626 168.928 65.988 168.984C65.8947 169.052 64.2775 170.196 62.5794 170.196C61.9699 170.196 61.3541 170.047 60.7881 169.649C58.779 173.506 56.969 176.093 56.9317 176.143C56.8757 176.224 56.7824 176.267 56.6891 176.267C56.6269 176.267 56.5709 176.249 56.5149 176.211C56.3781 176.118 56.347 175.931 56.4465 175.794C56.4776 175.745 58.9967 172.156 61.3727 167.124Z" fill="#EBEBEB"/>
<path d="M265.855 94.6731H237.71V125.58H265.855V94.6731Z" fill="#EBEBEB"/>
<path d="M262.932 96.6449C262.907 96.6449 262.876 96.6387 262.851 96.6201C262.777 96.5765 255.263 92.1106 252.874 92.1106C250.486 92.1106 243.327 96.5765 243.252 96.6201C243.184 96.6636 243.084 96.6449 243.04 96.5703C242.997 96.4957 243.016 96.4024 243.09 96.3588C243.389 96.1722 250.405 91.7996 252.881 91.7996C255.356 91.7996 262.702 96.1722 263.013 96.3526C263.088 96.3961 263.112 96.4894 263.069 96.5641C263.038 96.6201 262.982 96.6449 262.932 96.6449Z" fill="#EBEBEB"/>
<path d="M268.903 94.6731H239.831V125.58H268.903V94.6731Z" fill="#F5F5F5"/>
<path d="M266.469 123.147V97.1101H242.267V123.147H266.469Z" fill="white"/>
<path d="M255.02 113.271C254.622 113.271 254.237 113.315 253.863 113.395C253.963 113.072 254.013 112.73 254.013 112.369C254.013 111.492 253.695 110.69 253.173 110.068C253.44 110.149 253.72 110.205 254.013 110.205C255.648 110.205 256.973 108.88 256.973 107.244C256.973 105.608 255.648 104.283 254.013 104.283C252.377 104.283 251.052 105.608 251.052 107.244C251.052 107.909 251.276 108.513 251.643 109.004C251.263 108.867 250.853 108.786 250.43 108.786C248.452 108.786 246.847 110.391 246.847 112.369C246.847 114.329 248.415 115.915 250.361 115.952C249.895 116.748 249.628 117.669 249.628 118.658C249.628 121.637 252.041 124.05 255.02 124.05C258 124.05 260.413 121.637 260.413 118.658C260.413 115.678 257.993 113.271 255.02 113.271Z" fill="#F5F5F5"/>
<path d="M249.808 101.714C249.808 103.35 248.483 104.675 246.847 104.675C245.211 104.675 243.886 103.35 243.886 101.714C243.886 100.078 245.211 98.7534 246.847 98.7534C248.483 98.7534 249.808 100.078 249.808 101.714Z" fill="#F5F5F5"/>
<path d="M227.733 65.3523H195.924V100.278H227.733V65.3523Z" fill="#EBEBEB"/>
<path d="M223.808 66.7829C223.783 66.7829 223.752 66.7767 223.727 66.758C223.653 66.7145 216.139 62.2485 213.751 62.2485C211.362 62.2485 204.203 66.7145 204.128 66.758C204.06 66.8015 203.96 66.7829 203.917 66.7082C203.873 66.6336 203.892 66.5403 203.966 66.4968C204.265 66.3102 211.275 61.9375 213.751 61.9375C216.226 61.9375 223.572 66.3102 223.883 66.4905C223.958 66.5341 223.982 66.6274 223.939 66.702C223.914 66.758 223.858 66.7829 223.808 66.7829Z" fill="#EBEBEB"/>
<path d="M231.173 65.3523H198.319V100.278H231.173V65.3523Z" fill="#F5F5F5"/>
<path d="M228.422 97.5214V68.1008H201.072V97.5214H228.422Z" fill="white"/>
<path d="M204.986 99.3072H204.508C203.96 99.3072 203.519 98.8655 203.519 98.3182V72.331C203.519 71.7837 203.96 71.342 204.508 71.342H204.986C205.534 71.342 205.975 71.7837 205.975 72.331V98.3182C205.975 98.8655 205.534 99.3072 204.986 99.3072Z" fill="#F5F5F5"/>
<path d="M212.942 85.3308H211.213C211.15 85.3308 211.094 85.337 211.038 85.3494V79.8945C211.038 79.3471 210.597 78.9055 210.049 78.9055H208.32C207.773 78.9055 207.331 79.3471 207.331 79.8945V98.3244C207.331 98.8717 207.773 99.3133 208.32 99.3133H210.049C210.267 99.3133 210.466 99.2387 210.628 99.1205C210.79 99.2387 210.989 99.3133 211.206 99.3133H212.936C213.483 99.3133 213.925 98.8717 213.925 98.3244V86.3198C213.931 85.7724 213.483 85.3308 212.942 85.3308Z" fill="#F5F5F5"/>
<path d="M222.446 99.3072H216.04C215.492 99.3072 215.051 98.8656 215.051 98.3182V78.8994C215.051 78.352 215.492 77.9104 216.04 77.9104H222.446C222.993 77.9104 223.435 78.352 223.435 78.8994V98.3182C223.435 98.8656 222.993 99.3072 222.446 99.3072Z" fill="#F5F5F5"/>
<path d="M223.983 75.5717C225.655 75.5717 227.012 74.2155 227.012 72.5426C227.012 70.8696 225.655 69.5134 223.983 69.5134C222.31 69.5134 220.953 70.8696 220.953 72.5426C220.953 74.2155 222.31 75.5717 223.983 75.5717Z" fill="#F5F5F5"/>
<path d="M113.913 172.156C113.913 176.796 118.926 180.553 125.109 180.553C131.292 180.553 136.305 176.796 136.305 172.156H113.913Z" fill="#EBEBEB"/>
<path d="M155.5 266.942C222.105 266.942 276.1 263.79 276.1 259.901C276.1 256.013 222.105 252.86 155.5 252.86C88.8947 252.86 34.9004 256.013 34.9004 259.901C34.9004 263.79 88.8947 266.942 155.5 266.942Z" fill="#F5F5F5"/>
<path d="M213.116 260.592C219.323 260.592 224.356 260.282 224.356 259.901C224.356 259.52 219.323 259.211 213.116 259.211C206.909 259.211 201.876 259.52 201.876 259.901C201.876 260.282 206.909 260.592 213.116 260.592Z" fill="#E6E6E6"/>
<path d="M136.765 243.574H235.023C244.546 243.574 252.339 235.78 252.339 226.257V170.725C252.339 161.202 244.546 153.409 235.023 153.409H136.765C127.243 153.409 119.449 161.202 119.449 170.725V226.257C119.449 235.78 127.243 243.574 136.765 243.574Z" fill="#263238"/>
<path d="M217.887 259.901H208.588L189.691 215.136H203.923L217.887 259.901Z" fill="#263238"/>
<path d="M255.138 193.926H254.516V198.491H255.138V193.926Z" fill="#0066FF"/>
<path opacity="0.2" d="M255.138 193.926H254.516V198.491H255.138V193.926Z" fill="black"/>
<path d="M255.138 174.463H254.516V190.81H255.138V174.463Z" fill="#0066FF"/>
<path opacity="0.2" d="M255.138 174.463H254.516V190.81H255.138V174.463Z" fill="black"/>
<path d="M176.113 150.61H167.679V151.232H176.113V150.61Z" fill="#0066FF"/>
<path opacity="0.2" d="M176.113 150.61H167.679V151.232H176.113V150.61Z" fill="black"/>
<path d="M243.476 215.136L217.868 259.901L198.972 215.136H243.476Z" fill="#0066FF"/>
<path opacity="0.2" d="M243.482 215.136L217.874 259.901L198.978 215.136H243.482Z" fill="black"/>
<path d="M144.59 243.574H235.023C244.546 243.574 252.339 235.78 252.339 226.257V170.725C252.339 161.202 244.546 153.409 235.023 153.409H144.59C135.067 153.409 127.274 161.202 127.274 170.725V226.257C127.274 235.78 135.067 243.574 144.59 243.574Z" fill="#0066FF"/>
<path opacity="0.2" d="M144.59 243.574H235.023C244.546 243.574 252.339 235.78 252.339 226.257V170.725C252.339 161.202 244.546 153.409 235.023 153.409H144.59C135.067 153.409 127.274 161.202 127.274 170.725V226.257C127.274 235.78 135.067 243.574 144.59 243.574Z" fill="black"/>
<path opacity="0.7" d="M175.87 243.574H159.325L176.828 153.409H193.38L175.87 243.574Z" fill="#0066FF"/>
<path opacity="0.7" d="M190.817 243.574H181.406L198.916 153.409H208.32L190.817 243.574Z" fill="#0066FF"/>
<path d="M229.904 182.499H183.926C181.276 182.499 179.13 180.354 179.13 177.704C179.13 175.054 181.276 172.908 183.926 172.908H229.904C232.553 172.908 234.699 175.054 234.699 177.704C234.706 180.354 232.553 182.499 229.904 182.499Z" fill="white"/>
<path d="M168.17 182.499H147.346C144.696 182.499 142.55 180.354 142.55 177.704C142.55 175.054 144.696 172.908 147.346 172.908H168.17C170.82 172.908 172.966 175.054 172.966 177.704C172.972 180.354 170.82 182.499 168.17 182.499Z" fill="white"/>
<path d="M229.904 202.727H152.228C149.579 202.727 147.433 200.581 147.433 197.931C147.433 195.282 149.579 193.136 152.228 193.136H229.904C232.554 193.136 234.699 195.282 234.699 197.931C234.699 200.581 232.554 202.727 229.904 202.727Z" fill="white"/>
<path d="M229.904 222.948H193.921C191.271 222.948 189.125 220.802 189.125 218.153C189.125 215.503 191.271 213.357 193.921 213.357H229.904C232.553 213.357 234.699 215.503 234.699 218.153C234.705 220.802 232.553 222.948 229.904 222.948Z" fill="white"/>
<path opacity="0.1" d="M149.728 153.409C149.728 153.409 142.849 190.604 142.849 206.316C142.849 222.432 148.534 243.574 148.534 243.574H130.371L129.165 223.166C128.039 204.077 129.923 184.932 134.763 166.433L138.171 153.402H149.728V153.409Z" fill="black"/>
<path d="M140.255 259.901C140.255 260.635 130.054 261.232 117.471 261.232C104.888 261.232 94.687 260.635 94.687 259.901C94.687 259.167 104.888 258.57 117.471 258.57C130.054 258.57 140.255 259.167 140.255 259.901Z" fill="#E6E6E6"/>
<path d="M132.443 105.328C130.514 105.633 128.711 105.788 126.845 105.925C124.991 106.05 123.131 106.081 121.265 106.068C117.515 106.05 113.808 105.664 109.97 104.806C108.564 104.439 107.594 103.81 106.729 103.176C105.877 102.529 105.143 101.845 104.453 101.148C103.084 99.7488 101.921 98.2622 100.82 96.7632C98.6556 93.7216 96.7647 90.6116 95.104 87.3088L97.4365 85.9155C98.4815 87.3212 99.5575 88.7581 100.665 90.1389C101.753 91.5322 102.879 92.8944 104.042 94.1881C105.193 95.4943 106.393 96.7383 107.625 97.833C108.241 98.3742 108.869 98.8718 109.485 99.2699C110.094 99.6617 110.71 99.9541 111.065 99.9976C112.644 100.259 114.38 100.477 116.078 100.564C117.795 100.638 119.518 100.688 121.253 100.657C122.988 100.632 124.724 100.539 126.465 100.414C128.188 100.302 129.973 100.11 131.609 99.9105L132.443 105.328Z" fill="#FF8B7B"/>
<path d="M138.04 100.277C133.307 97.4225 126.9 99.4937 126.9 99.4937L130.141 110.708C130.141 110.708 135.266 109.265 137.275 107.082C139.371 104.806 140.895 102 138.04 100.277Z" fill="#263238"/>
<path d="M97.8408 87.0974L98.9853 83.241L93.5676 83.9127C93.5676 83.9127 94.1026 86.4256 95.5394 88.1361L97.8408 87.0974Z" fill="#FF8B7B"/>
<path d="M98.5934 78.7439L94.0839 79.5525L93.5676 83.9127L98.9853 83.241L98.5934 78.7439Z" fill="#FF8B7B"/>
<path d="M160.14 64.9106C164.93 65.0101 163.586 69.0095 163.586 69.0095C163.586 69.0095 168.805 65.7129 170.466 69.5693C172.126 73.4195 168.388 74.6386 166.199 75.2171C167.573 76.007 167.642 78.5635 165.713 79.4094C163.785 80.2553 160.557 77.9352 158.119 77.9726L155.724 75.13C158.977 73.009 155.345 64.811 160.14 64.9106Z" fill="#263238"/>
<path d="M159.394 79.9442C161.484 80.3049 163.002 80.0499 162.591 77.7423C162.181 75.4347 160.389 73.0151 157.752 72.0386C155.115 71.062 154.524 75.4222 154.524 75.4222L159.394 79.9442Z" fill="#0066FF"/>
<path d="M98.2762 241.136L92.9395 240.52L94.0031 228.13L99.3398 228.739L98.2762 241.136Z" fill="#FF8B7B"/>
<path d="M133.624 255.659L128.263 255.417L127.112 242.915L132.473 243.163L133.624 255.659Z" fill="#FF8B7B"/>
<path d="M128.057 253.793H134.091C134.309 253.793 134.489 253.949 134.52 254.16L135.204 258.931C135.273 259.429 134.85 259.895 134.346 259.889C132.244 259.851 131.23 259.727 128.574 259.727C126.944 259.727 124.556 259.895 122.304 259.895C120.102 259.895 119.928 257.668 120.867 257.463C125.072 256.561 125.737 255.311 127.156 254.117C127.417 253.911 127.734 253.793 128.057 253.793Z" fill="#263238"/>
<path d="M92.7589 238.567L98.7487 237.858C98.9664 237.833 99.1592 237.963 99.2152 238.169L100.459 242.827C100.59 243.312 100.223 243.829 99.719 243.878C97.6291 244.09 96.6028 244.084 93.9718 244.401C92.3483 244.594 89.0206 245.16 86.7814 245.421C84.592 245.682 84.1628 243.487 85.0709 243.176C89.145 241.782 90.6378 240.346 91.9067 238.996C92.1369 238.759 92.4416 238.604 92.7589 238.567Z" fill="#263238"/>
<path d="M94.0091 228.13L93.4556 234.518L98.7923 235.133L99.3397 228.745L94.0091 228.13Z" fill="#EA7063"/>
<path d="M132.474 243.163L127.106 242.921L127.709 249.365L133.071 249.607L132.474 243.163Z" fill="#EA7063"/>
<path d="M132.84 98.853C132.84 98.853 130.135 99.021 126.471 130.731C134.794 133.088 143.402 135.526 147.451 136.677C149.516 128.037 151.003 122.769 160.053 106.404C160.053 106.404 155.929 104.202 151.476 102.703C147.992 101.534 145.131 100.601 141.947 100.004C137.748 99.22 132.84 98.853 132.84 98.853Z" fill="#263238"/>
<path d="M153.572 91.7124C152.104 94.6047 149.908 100.053 151.476 102.709C151.476 102.709 149.759 105.583 144.062 103.966C137.798 102.193 141.947 100.01 141.947 100.01C145.598 100.165 146.226 97.6027 146.307 95.0525L153.572 91.7124Z" fill="#FF8B7B"/>
<path d="M136.081 99.1641C137.798 99.3507 139.956 99.6368 141.947 100.004C145.131 100.601 147.993 101.534 151.476 102.703C153.261 103.3 154.984 104.009 156.414 104.65C156.135 105.689 154.063 111.075 141.841 107.959C130.421 105.048 134.781 100.221 136.081 99.1641Z" fill="#FF8B7B"/>
<path d="M150.611 93.0684L146.313 95.0401C146.294 95.6434 146.245 96.2468 146.126 96.8128C147.489 96.9932 149.784 96.3836 150.313 95.0525C150.574 94.3994 150.63 93.4229 150.611 93.0684Z" fill="#EA7063"/>
<path d="M156.302 84.9015C155.021 90.0766 154.586 92.2909 151.451 94.4928C146.736 97.8018 140.659 95.0961 140.373 89.6474C140.112 84.7398 142.251 77.1079 147.756 75.9634C153.18 74.8314 157.584 79.7265 156.302 84.9015Z" fill="#FF8B7B"/>
<path d="M154.623 89.8901C153.062 89.0815 151.812 86.7677 154.063 84.6405C154.063 84.6405 150.978 82.8678 152.515 80.4171C154.051 77.9726 160.314 75.9449 161.291 79.2228C162.268 82.5008 159.232 83.8567 159.232 83.8567C159.232 83.8567 161.726 87.6634 157.248 88.9198C157.248 88.9198 156.862 94.4183 153.653 91.9676L154.623 89.8901Z" fill="#263238"/>
<path d="M156.246 89.7718C155.942 90.8354 155.177 91.6564 154.374 92.0794C153.167 92.72 152.272 91.7124 152.365 90.4249C152.446 89.2617 153.174 87.5263 154.499 87.4206C155.805 87.3086 156.595 88.5526 156.246 89.7718Z" fill="#FF8B7B"/>
<path d="M126.471 130.731C126.471 130.731 102.101 159.473 97.9774 175.322C93.6856 191.805 91.7388 232.521 91.7388 232.521L100.111 233.616C100.111 233.616 105.709 196.339 112.75 181.156C120.251 164.978 141.835 135.091 141.835 135.091L126.471 130.731Z" fill="#0066FF"/>
<path d="M101.262 233.765L90.5943 232.372L90.4077 229.448L102.145 231.83L101.262 233.765Z" fill="#0066FF"/>
<path opacity="0.3" d="M101.262 233.765L90.5943 232.372L90.4077 229.448L102.145 231.83L101.262 233.765Z" fill="black"/>
<path opacity="0.2" d="M126.055 143.799C123.212 154.087 122.41 159.759 121.57 165.32C123.791 161.712 126.142 158.061 128.425 154.603C129.252 152.774 130.098 150.964 130.931 149.204C130.931 149.185 130.944 149.16 130.95 149.142L126.055 143.799Z" fill="black"/>
<path d="M132.013 132.298C132.013 132.298 124.96 168.604 122.41 189.466C120.345 206.316 126.844 247.2 126.844 247.2L133.836 247.629C133.836 247.629 132.362 211.118 135.615 194.79C143.837 153.483 151.525 147.935 147.458 136.671L132.013 132.298Z" fill="#0066FF"/>
<path d="M134.7 247.685L125.65 247.132L125.227 244.557L135.03 245.577L134.7 247.685Z" fill="#0066FF"/>
<path opacity="0.3" d="M134.7 247.685L125.65 247.132L125.227 244.557L135.03 245.577L134.7 247.685Z" fill="black"/>
<path d="M148.117 135.532L148.533 137.678C148.565 137.846 148.353 137.946 148.111 137.877L126.11 131.639C125.924 131.583 125.793 131.446 125.812 131.328L126.154 129.393C126.179 129.256 126.372 129.194 126.577 129.256L147.824 135.277C147.974 135.327 148.092 135.427 148.117 135.532Z" fill="#0066FF"/>
<path opacity="0.4" d="M148.117 135.532L148.533 137.678C148.565 137.846 148.353 137.946 148.111 137.877L126.11 131.639C125.924 131.583 125.793 131.446 125.812 131.328L126.154 129.393C126.179 129.256 126.372 129.194 126.577 129.256L147.824 135.277C147.974 135.327 148.092 135.427 148.117 135.532Z" fill="black"/>
<path d="M144.59 137.1L145.156 137.262C145.268 137.293 145.374 137.262 145.386 137.187L145.809 134.674C145.822 134.599 145.741 134.512 145.629 134.481L145.063 134.32C144.951 134.288 144.845 134.32 144.833 134.394L144.41 136.907C144.391 136.982 144.478 137.069 144.59 137.1Z" fill="#0066FF"/>
<path d="M127.641 132.298L128.207 132.46C128.319 132.491 128.424 132.46 128.437 132.385L128.86 129.872C128.872 129.797 128.791 129.71 128.679 129.679L128.113 129.518C128.001 129.486 127.896 129.518 127.883 129.592L127.46 132.105C127.448 132.18 127.529 132.267 127.641 132.298Z" fill="#0066FF"/>
<path d="M136.119 134.699L136.685 134.861C136.797 134.892 136.902 134.861 136.915 134.786L137.338 132.273C137.35 132.199 137.269 132.112 137.157 132.08L136.591 131.919C136.479 131.888 136.374 131.919 136.361 131.993L135.938 134.506C135.92 134.581 136 134.668 136.119 134.699Z" fill="#0066FF"/>
<path d="M148.098 84.9077C148.017 85.3307 147.731 85.6355 147.451 85.5857C147.172 85.536 147.01 85.1503 147.091 84.7212C147.172 84.2982 147.458 83.9934 147.738 84.0432C148.011 84.0929 148.173 84.4786 148.098 84.9077Z" fill="#263238"/>
<path d="M143.284 84.0183C143.203 84.4413 142.917 84.7461 142.637 84.6963C142.357 84.6466 142.195 84.2609 142.276 83.8317C142.357 83.4088 142.643 83.104 142.923 83.1538C143.197 83.2097 143.358 83.5954 143.284 84.0183Z" fill="#263238"/>
<path d="M143.035 83.2037L142.065 82.7185C142.071 82.7185 142.444 83.6142 143.035 83.2037Z" fill="#263238"/>
<path d="M144.422 84.9888C144.422 84.9888 143.365 86.6868 142.407 87.427C142.873 88.0552 143.875 87.993 143.875 87.993L144.422 84.9888Z" fill="#FF5652"/>
<path d="M145.809 90.0144C145.573 90.0144 145.324 89.9958 145.063 89.946C144.995 89.9336 144.945 89.8651 144.963 89.7967C144.976 89.7283 145.044 89.6848 145.113 89.6972C146.979 90.0393 148.098 88.8948 148.105 88.8824C148.154 88.8326 148.235 88.8326 148.285 88.8762C148.335 88.9259 148.341 89.0068 148.291 89.0565C148.241 89.1001 147.352 90.0144 145.809 90.0144Z" fill="#263238"/>
<path d="M149.877 83.6204C149.784 83.6204 149.697 83.5707 149.647 83.4774C149.137 82.4635 148.21 82.3515 148.198 82.3453C148.061 82.3329 147.955 82.2023 147.974 82.0654C147.992 81.9286 148.111 81.8228 148.254 81.8415C148.303 81.8477 149.467 81.9908 150.101 83.2472C150.163 83.3716 150.114 83.5271 149.989 83.5893C149.958 83.6142 149.914 83.6204 149.877 83.6204Z" fill="#263238"/>
<path d="M141.549 81.4059C141.486 81.4059 141.418 81.381 141.374 81.3313C141.275 81.2317 141.269 81.07 141.368 80.9705C142.345 79.9567 143.502 80.1681 143.551 80.1806C143.688 80.2055 143.782 80.3423 143.75 80.4791C143.726 80.616 143.589 80.7031 143.452 80.6782C143.402 80.672 142.506 80.5227 141.729 81.3251C141.679 81.381 141.617 81.4059 141.549 81.4059Z" fill="#263238"/>
<path d="M160.706 112.294C161.129 114.198 161.39 115.989 161.645 117.843C161.882 119.684 162.025 121.544 162.131 123.403C162.336 127.148 162.18 130.874 161.552 134.755C161.272 136.179 160.706 137.187 160.121 138.089C159.531 138.978 158.89 139.756 158.237 140.483C156.924 141.933 155.512 143.183 154.076 144.371C151.171 146.716 148.185 148.793 144.988 150.653L143.452 148.408C144.795 147.282 146.164 146.119 147.47 144.931C148.795 143.761 150.089 142.555 151.308 141.311C152.539 140.079 153.709 138.81 154.723 137.51C155.226 136.863 155.687 136.204 156.041 135.57C156.396 134.941 156.651 134.301 156.676 133.946C156.844 132.354 156.949 130.606 156.937 128.908C156.912 127.191 156.85 125.468 156.719 123.739C156.589 122.01 156.389 120.281 156.159 118.552C155.942 116.841 155.643 115.069 155.345 113.445L160.706 112.294Z" fill="#FF8B7B"/>
<path d="M160.053 106.404C161.975 107.642 162.448 115.591 162.448 115.591L152.639 119.112C152.639 119.112 151.376 112.226 153.031 109.763C154.754 107.188 157.857 104.992 160.053 106.404Z" fill="#263238"/>
<path d="M126.216 254.732C125.806 254.732 125.42 254.664 125.196 254.453C125.016 254.291 124.947 254.061 124.985 253.775C125.016 253.563 125.14 253.464 125.24 253.42C125.862 253.134 127.498 254.191 127.678 254.309C127.721 254.341 127.74 254.39 127.734 254.44C127.728 254.49 127.69 254.527 127.641 254.54C127.255 254.633 126.714 254.732 126.216 254.732ZM125.507 253.625C125.445 253.625 125.389 253.631 125.345 253.656C125.302 253.675 125.252 253.712 125.24 253.818C125.215 254.017 125.252 254.166 125.37 254.272C125.644 254.521 126.347 254.552 127.28 254.365C126.701 254.011 125.918 253.625 125.507 253.625Z" fill="#0066FF"/>
<path d="M127.61 254.546C127.591 254.546 127.566 254.54 127.547 254.527C127.037 254.235 126.061 253.078 126.179 252.475C126.204 252.356 126.291 252.157 126.608 252.12C126.807 252.095 126.994 252.151 127.149 252.288C127.734 252.804 127.74 254.353 127.74 254.415C127.74 254.459 127.715 254.502 127.678 254.527C127.653 254.54 127.628 254.546 127.61 254.546ZM126.695 252.369C126.677 252.369 126.658 252.369 126.639 252.375C126.478 252.394 126.44 252.468 126.428 252.524C126.353 252.891 126.963 253.762 127.473 254.173C127.442 253.656 127.323 252.792 126.975 252.481C126.888 252.406 126.801 252.369 126.695 252.369Z" fill="#0066FF"/>
<path d="M90.3954 239.767C90.0533 239.767 89.7485 239.711 89.537 239.562C89.3442 239.425 89.2447 239.226 89.2385 238.971C89.2322 238.822 89.2944 238.691 89.4126 238.61C90.0222 238.175 92.28 239.008 92.5351 239.108C92.5848 239.127 92.6159 239.176 92.6159 239.232C92.6159 239.288 92.5786 239.332 92.5288 239.351C91.9628 239.531 91.0982 239.767 90.3954 239.767ZM89.9475 238.741C89.7734 238.741 89.6365 238.766 89.5557 238.822C89.5059 238.859 89.4873 238.903 89.4873 238.971C89.4935 239.145 89.5557 239.27 89.6801 239.357C90.0408 239.606 90.9241 239.556 92.081 239.22C91.3844 238.977 90.4887 238.741 89.9475 238.741Z" fill="#0066FF"/>
<path d="M92.4853 239.357C92.4729 239.357 92.4605 239.357 92.448 239.351C91.7763 239.139 90.383 238.138 90.4141 237.522C90.4203 237.379 90.5012 237.186 90.8433 237.111C91.0983 237.055 91.3409 237.099 91.571 237.248C92.305 237.727 92.6035 239.145 92.616 239.208C92.6222 239.251 92.6097 239.295 92.5786 239.326C92.5475 239.344 92.5164 239.357 92.4853 239.357ZM91.0547 237.335C91.005 237.335 90.949 237.342 90.8992 237.354C90.6691 237.404 90.6691 237.497 90.6691 237.528C90.6504 237.895 91.6145 238.704 92.305 239.015C92.193 238.604 91.9131 237.764 91.4342 237.453C91.3098 237.379 91.1854 237.335 91.0547 237.335Z" fill="#0066FF"/>
<path opacity="0.6" d="M115.394 82.1585C93.07 76.9959 70.79 90.9038 65.6274 113.221C63.7862 121.183 64.3771 129.138 66.9087 136.316L54.7983 149.179L73.0789 147.761C78.7329 155.169 86.8998 160.73 96.69 162.994C119.014 168.156 141.294 154.248 146.456 131.931C151.619 109.601 137.711 87.3211 115.394 82.1585Z" fill="#0066FF"/>
<path opacity="0.1" d="M115.394 82.1585C93.07 76.9959 70.79 90.9038 65.6274 113.221C63.7862 121.183 64.3771 129.138 66.9087 136.316L54.7983 149.179L73.0789 147.761C78.7329 155.169 86.8998 160.73 96.69 162.994C119.014 168.156 141.294 154.248 146.456 131.931C151.619 109.601 137.711 87.3211 115.394 82.1585Z" fill="black"/>
<path d="M106.076 162.042C103.084 162.042 100.08 161.7 97.1441 161.016C88.2122 158.951 80.2382 153.8 74.6837 146.523L74.0182 145.646L60.0791 146.728C60.0418 146.722 60.0107 146.71 59.9921 146.678C59.9734 146.647 59.9796 146.61 60.0045 146.579L69.2225 136.795L68.812 135.632C66.324 128.566 65.9011 120.971 67.5929 113.669C71.7603 95.6683 87.5529 83.0977 106.001 83.0977C108.987 83.0977 111.997 83.4398 114.933 84.124C136.131 89.0315 149.386 110.267 144.485 131.464C140.317 149.471 124.525 162.042 106.076 162.042ZM74.0555 145.472C74.0804 145.472 74.1052 145.484 74.1239 145.509L74.8205 146.423C80.3501 153.67 88.2931 158.789 97.1814 160.848C100.105 161.526 103.097 161.868 106.076 161.868C124.444 161.868 140.168 149.353 144.317 131.427C149.199 110.323 136 89.1808 114.896 84.2981C111.973 83.6201 108.981 83.278 106.001 83.278C87.6337 83.278 71.9096 95.7927 67.7608 113.719C66.0752 120.99 66.4982 128.553 68.9737 135.588L69.4029 136.801C69.4154 136.832 69.4091 136.87 69.3843 136.888L60.2906 146.548L74.0493 145.478C74.0493 145.472 74.0555 145.472 74.0555 145.472Z" fill="white"/>
<path d="M120.432 115.51C120.637 115.05 120.494 114.509 120.096 114.198C118.267 112.78 115.642 111.598 112.906 110.963C103.663 108.824 94.4072 114.602 92.2675 123.845C90.8369 130.028 94.2268 134.214 98.3134 135.159C101.89 135.986 105.112 135.265 108.091 132.951C108.147 134.189 108.514 135.116 108.9 135.763C109.715 137.143 111.102 138.12 112.806 138.512C119.194 139.992 127 135.707 129.556 124.66C132.312 112.767 125.868 102.523 113.894 99.7488C99.5076 96.4211 86.0289 105.297 82.5332 120.399C79.6223 132.988 86.3896 144.178 98.6368 147.015C103.495 148.14 107.482 148.159 111.562 147.083C112.097 146.94 112.445 146.424 112.377 145.876L111.979 142.785C111.935 142.468 111.755 142.182 111.487 142.001C111.22 141.827 110.884 141.777 110.573 141.864C107.743 142.692 104.198 142.685 100.596 141.852C91.0671 139.644 86.2217 131.415 88.548 121.369C91.3532 109.259 101.287 102.293 112.165 104.812C121.383 106.945 125.744 114.173 123.542 123.677C122.578 127.838 120.593 131.098 118.093 132.628C116.98 133.306 115.872 133.548 114.946 133.318C114.442 133.187 114.268 132.939 114.174 132.746C113.913 132.192 113.72 130.706 115.406 126.955L120.432 115.51ZM110.803 116.437C111.525 116.605 112.196 116.829 112.825 117.109L110.119 123.323C108.583 126.924 104.365 130.544 101.224 129.816C98.3569 129.151 98.5062 126.576 98.8483 125.095C100.204 119.217 105.684 115.255 110.803 116.437Z" fill="white"/>
<path d="M144.615 147.941L139.9 145.267L140.902 150.634C140.902 150.634 144.173 151.717 145.79 150.174L144.615 147.941Z" fill="#FF8B7B"/>
<path d="M135.434 145.932L136.517 150.379L140.902 150.634L139.9 145.267L135.434 145.932Z" fill="#FF8B7B"/>
<path d="M147.856 84.0867L146.885 83.6016C146.885 83.6016 147.265 84.4972 147.856 84.0867Z" fill="#263238"/>
<path d="M154.524 81.6298C151.855 81.4681 149.908 80.2925 149.641 78.7562C149.641 78.7562 143.533 81.2939 141.064 77.537C141.064 77.537 138.283 78.0035 137.593 76.0629C136.902 74.1222 139.801 73.5376 141.169 74.4395C141.169 74.4395 136.927 70.7075 141.281 69.6687C145.635 68.63 146.568 72.1505 146.568 72.1505C146.568 72.1505 148.279 67.0003 152.141 69.2893C155.998 71.5783 153.64 73.7988 153.64 73.7988C153.64 73.7988 162.858 74.5141 159.425 78.1404C155.992 81.7666 154.524 81.6298 154.524 81.6298Z" fill="#263238"/>
<path d="M151.19 99.5062C151.712 99.5622 151.482 101.372 151.246 101.497C150.704 101.789 144.186 100.452 144.379 99.444C144.565 99.0708 144.988 98.3617 145.299 98.1503C145.61 97.9388 146.605 99.1268 151.19 99.5062Z" fill="#263238"/>
<path d="M185.232 113.75C179.478 113.75 174.819 118.415 174.819 124.162C174.819 129.412 178.713 133.747 183.764 134.463C183.751 136.347 183.335 139.296 181.176 141.634C181.176 141.634 195.644 138.027 195.644 124.162C195.644 118.409 190.979 113.75 185.232 113.75Z" fill="#0066FF"/>
<path d="M208.662 113.75C202.909 113.75 198.25 118.415 198.25 124.162C198.25 129.412 202.144 133.747 207.194 134.463C207.182 136.347 206.765 139.296 204.607 141.634C204.607 141.634 219.075 138.027 219.075 124.162C219.075 118.409 214.416 113.75 208.662 113.75Z" fill="#0066FF"/>
</svg>
