<svg width="311" height="312" viewBox="0 0 311 312" fill="none" xmlns="http://www.w3.org/2000/svg">
<path d="M69.0919 181.16C21.372 208.708 21.372 253.38 69.0919 280.935C116.812 308.483 194.182 308.483 241.902 280.935C289.622 253.387 289.622 208.715 241.902 181.16C194.182 153.605 116.812 153.605 69.0919 181.16Z" fill="#FAFAFA"/>
<path d="M196.16 278.416C217.457 266.119 217.451 246.184 196.154 233.893C174.857 221.596 140.329 221.596 119.032 233.893C97.7412 246.184 97.7412 266.119 119.038 278.416C140.336 290.707 174.863 290.713 196.16 278.416Z" fill="#E0E0E0"/>
<path d="M24.7124 90.4475C24.7124 91.7786 25.7947 92.8609 27.1258 92.8609C28.4568 92.8609 29.5391 91.7786 29.5391 90.4475C29.5391 89.1165 28.4568 88.0342 27.1258 88.0342C25.7885 88.0342 24.7124 89.1102 24.7124 90.4475Z" fill="#F5F5F5"/>
<path d="M282.643 153.014C282.643 154.346 283.726 155.428 285.057 155.428C286.388 155.428 287.47 154.346 287.47 153.014C287.47 151.683 286.388 150.601 285.057 150.601C283.726 150.595 282.643 151.677 282.643 153.014Z" fill="#F5F5F5"/>
<path d="M236.677 40.3328C236.677 41.6639 237.76 42.7462 239.091 42.7462C240.422 42.7462 241.504 41.6639 241.504 40.3328C241.504 39.0017 240.422 37.9194 239.091 37.9194C237.76 37.9194 236.677 38.9955 236.677 40.3328Z" fill="#F5F5F5"/>
<path d="M287.47 111.178C287.47 112.51 288.552 113.592 289.883 113.592C291.214 113.592 292.297 112.51 292.297 111.178C292.297 109.847 291.214 108.765 289.883 108.765C288.552 108.765 287.47 109.847 287.47 111.178Z" fill="#F5F5F5"/>
<path d="M24.7124 155.428C24.7124 156.759 25.7947 157.841 27.1258 157.841C28.4568 157.841 29.5391 156.759 29.5391 155.428C29.5391 154.096 28.4568 153.014 27.1258 153.014C25.7885 153.014 24.7124 154.096 24.7124 155.428Z" fill="#F5F5F5"/>
<path d="M56.6147 88.4694C56.6147 84.9738 59.4573 82.125 62.9591 82.125C66.4548 82.125 69.3035 84.9675 69.3035 88.4694C69.3035 91.965 66.461 94.8138 62.9591 94.8138C59.4635 94.8138 56.6147 91.965 56.6147 88.4694ZM57.6224 88.4694C57.6224 91.4115 60.0171 93.8062 62.9591 93.8062C65.9012 93.8062 68.2959 91.4115 68.2959 88.4694C68.2959 85.5273 65.9012 83.1326 62.9591 83.1326C60.0171 83.1326 57.6224 85.5273 57.6224 88.4694Z" fill="#F5F5F5"/>
<path d="M256.457 92.8483C256.457 89.3527 259.3 86.5039 262.801 86.5039C266.297 86.5039 269.146 89.3464 269.146 92.8483C269.146 96.3439 266.303 99.1927 262.801 99.1927C259.306 99.1865 256.457 96.3439 256.457 92.8483ZM257.465 92.8483C257.465 95.7904 259.859 98.1851 262.801 98.1851C265.743 98.1851 268.138 95.7904 268.138 92.8483C268.138 89.9062 265.743 87.5115 262.801 87.5115C259.859 87.5053 257.465 89.9 257.465 92.8483Z" fill="#F5F5F5"/>
<path d="M274.545 50.7204C274.545 47.2247 277.387 44.376 280.889 44.376C284.385 44.376 287.234 47.2185 287.234 50.7204C287.234 54.216 284.391 57.0648 280.889 57.0648C277.394 57.0586 274.545 54.216 274.545 50.7204ZM275.553 50.7204C275.553 53.6624 277.947 56.0571 280.889 56.0571C283.831 56.0571 286.226 53.6624 286.226 50.7204C286.226 47.7783 283.831 45.3836 280.889 45.3836C277.947 45.3836 275.553 47.7783 275.553 50.7204Z" fill="#F5F5F5"/>
<path d="M29.8313 44.8859C29.8313 41.3903 32.6738 38.5415 36.1757 38.5415C39.6713 38.5415 42.5201 41.384 42.5201 44.8859C42.5201 48.3878 39.6776 51.2303 36.1757 51.2303C32.6738 51.2241 29.8313 48.3815 29.8313 44.8859ZM30.8327 44.8859C30.8327 47.828 33.2274 50.2227 36.1695 50.2227C39.1115 50.2227 41.5062 47.828 41.5062 44.8859C41.5062 41.9438 39.1115 39.5491 36.1695 39.5491C33.2274 39.5491 30.8327 41.9376 30.8327 44.8859Z" fill="#F5F5F5"/>
<path opacity="0.15" d="M157.596 147.255C195.226 147.255 225.73 116.75 225.73 79.1207C225.73 41.4914 195.226 10.9868 157.596 10.9868C119.967 10.9868 89.4624 41.4914 89.4624 79.1207C89.4624 116.75 119.967 147.255 157.596 147.255Z" fill="#FF0000"/>
<path d="M166.777 233.47L165.502 221.602L179.086 222.498C179.086 222.498 178.881 228.942 178.688 232.587C178.576 234.745 181.481 238.744 181.481 238.744C181.481 238.744 175.099 242.165 171.678 240.971C168.257 239.771 166.447 235.522 166.497 234.589C166.553 233.656 166.777 233.47 166.777 233.47Z" fill="#C8856A"/>
<path d="M199.5 252.012C199.712 252.005 200.073 254.214 198.922 255.171C197.597 256.279 193.679 258.126 188.454 257.585C183.229 257.044 180.38 255.582 178.272 253.983C176.157 252.385 173.196 250.133 170.832 249.685C168.637 249.269 166.242 248.385 165.527 247.763C164.818 247.141 164.867 244.324 164.867 244.324L199.5 252.012Z" fill="#263238"/>
<path d="M166.777 233.445C166.777 233.445 166.124 233.463 166 234.117C165.85 234.894 165.713 237.158 165.39 238.433C164.942 240.212 164.681 243.845 164.986 245.281C165.297 246.718 168.886 247.664 171.181 248.435C173.526 249.225 176.25 250.892 178.645 252.677C181.127 254.524 186.308 256.403 189.71 256.322C193.728 256.229 198.238 254.929 199.245 253.168C200.496 250.991 201.385 248.466 195.383 245.984C194.245 245.512 190.245 243.384 188.883 242.613C185.195 240.523 182.588 238.589 180.847 234.813C180.641 234.372 180.43 233.88 179.97 233.663C179.621 233.495 179.198 233.526 178.807 233.588C177.818 233.737 173.862 234.316 172.966 234.732C172.17 235.106 171.044 235.535 171.075 236.493C171.088 236.829 171.193 237.152 171.318 237.463C171.392 237.656 171.455 237.917 171.274 238.035C171.106 238.147 170.87 238.029 170.714 237.898C170.08 237.388 169.613 236.723 169.078 236.119C168.792 235.796 168.481 235.491 168.121 235.236C167.791 235.006 167.38 234.894 167.088 234.633C166.721 234.316 166.802 233.899 166.777 233.445Z" fill="#455A64"/>
<path d="M178.645 252.69C177.594 251.906 176.474 251.147 175.354 250.475V250.469C175.354 250.469 182.427 254.338 185.232 252.478C187.036 251.284 186.146 249.878 186.096 249.424C186.047 248.97 192.435 245.667 194.207 245.437C194.705 245.686 195.122 245.885 195.383 245.991C201.385 248.472 200.49 250.998 199.239 253.175C198.232 254.935 194.972 256.353 189.779 256.44C186.383 256.502 181.12 254.537 178.645 252.69Z" fill="#37474F"/>
<path d="M185.586 248.112C189.318 249.436 187.745 250.108 186.706 250.264C185.667 250.419 179.379 247.116 175.522 244.367C171.504 241.5 168.954 238.328 167.461 237.276C166.908 236.884 166.304 236.399 165.769 235.945C165.856 235.18 165.925 234.484 165.993 234.117C166.118 233.463 166.771 233.445 166.771 233.445C166.796 233.893 166.715 234.316 167.082 234.645C167.374 234.907 167.785 235.018 168.114 235.249C168.475 235.504 168.786 235.808 169.072 236.132C169.607 236.735 170.074 237.395 170.708 237.911C174.011 241.699 181.854 246.787 185.586 248.112Z" fill="#37474F"/>
<path d="M186.438 249.76C186.357 249.76 186.277 249.735 186.202 249.685C186.04 249.567 186.015 249.35 186.14 249.206C187.166 247.987 192.08 245.064 194.81 245.294C195.016 245.313 195.159 245.481 195.14 245.667C195.121 245.854 194.966 245.991 194.742 245.978C192.192 245.767 187.527 248.665 186.712 249.629C186.65 249.717 186.544 249.76 186.438 249.76Z" fill="#263238"/>
<path d="M183.173 247.956C183.092 247.956 183.011 247.931 182.937 247.882C182.775 247.763 182.75 247.546 182.874 247.403C183.901 246.19 188.808 243.26 191.545 243.49C191.75 243.509 191.893 243.677 191.875 243.864C191.856 244.05 191.682 244.193 191.477 244.175C188.926 243.963 184.261 246.862 183.447 247.826C183.384 247.907 183.279 247.956 183.173 247.956Z" fill="#263238"/>
<path d="M179.908 246.246C179.827 246.246 179.746 246.221 179.671 246.171C179.509 246.053 179.485 245.842 179.609 245.686C180.635 244.467 185.549 241.537 188.28 241.774C188.479 241.792 188.628 241.96 188.609 242.147C188.591 242.334 188.423 242.477 188.211 242.458C185.661 242.246 180.996 245.145 180.181 246.109C180.119 246.202 180.013 246.246 179.908 246.246Z" fill="#263238"/>
<path d="M176.878 244.286C176.797 244.286 176.716 244.262 176.642 244.212C176.48 244.094 176.455 243.882 176.58 243.733C177.606 242.514 182.526 239.59 185.25 239.82C185.456 239.839 185.599 240.007 185.58 240.194C185.561 240.38 185.387 240.523 185.182 240.505C182.632 240.293 177.967 243.192 177.152 244.156C177.09 244.237 176.984 244.286 176.878 244.286Z" fill="#263238"/>
<path d="M173.911 242.321C173.83 242.321 173.75 242.302 173.681 242.253C173.519 242.141 173.488 241.923 173.613 241.774C175.025 240.051 180.175 237.588 182.905 237.818C183.111 237.836 183.254 238.004 183.235 238.191C183.216 238.378 183.042 238.514 182.837 238.502C180.38 238.297 175.441 240.66 174.191 242.19C174.129 242.271 174.017 242.321 173.911 242.321Z" fill="#263238"/>
<path d="M139.34 240.822L142.245 229.526L128.381 227.629L127.951 238.521C127.951 238.521 126.552 242.427 127.416 243.845C128.287 245.263 137.505 246.719 138.345 245.773C139.185 244.821 139.34 240.822 139.34 240.822Z" fill="#C8856A"/>
<path d="M138.351 265.366C137.96 268.856 137.238 271.12 135.739 273.017C134.24 274.914 131.553 275.244 128.885 274.323C126.222 273.402 122.845 271.375 122.211 268.246C121.576 265.117 121.825 263.059 122.584 259.868L138.351 265.366Z" fill="#263238"/>
<path d="M127.945 238.521C126.832 238.465 127.137 243.248 126.285 247.9C125.37 252.889 123.566 254.786 122.764 258.866C121.85 263.531 122.036 265.689 123.784 268.781C125.532 271.878 132.051 275.48 135.515 271.754C138.339 268.719 138.613 265.011 138.588 260.241C138.557 255.308 138.494 251.831 138.886 248.137C139.266 244.604 140.28 241.463 139.334 240.953C139.235 241.469 139.135 242.122 139.029 242.626C138.949 243.011 138.756 244.927 138.134 244.871C138.096 244.411 138.128 243.988 138.183 243.528C138.233 243.13 138.215 242.688 137.935 242.346C137.649 242.004 136.591 241.575 136.143 241.444C135.061 241.12 133.127 240.729 132.019 240.505C131.472 240.393 130.919 240.306 130.359 240.243C129.911 240.194 129.376 240.163 128.947 240.256C128.679 240.312 128.431 240.449 128.325 240.666C128.244 240.828 128.25 241.021 128.244 241.201C128.231 241.531 128.169 241.854 128.064 242.159C128.014 242.296 127.902 242.452 127.74 242.402C127.609 242.358 127.566 242.209 127.572 242.091C127.591 241.519 127.697 241.108 127.753 240.449C127.777 240.144 127.858 239.727 127.877 239.422C127.896 239.124 127.908 238.819 127.945 238.521Z" fill="#455A64"/>
<path d="M123.081 257.547C122.945 258.219 122.08 262.679 123.442 263.662C124.91 264.725 125.899 261.261 125.899 261.261C125.899 261.261 129.482 260.72 134.539 263.326C134.24 264.029 134.924 266.554 136.361 266.206C137.785 265.863 138.575 260.726 138.588 260.657C138.594 265.229 138.258 268.812 135.515 271.76C132.051 275.486 125.532 271.878 123.784 268.787C122.036 265.689 121.85 263.537 122.764 258.872C122.857 258.4 122.963 257.964 123.081 257.547Z" fill="#37474F"/>
<path d="M126.284 261.609C126.185 263.326 124.3 262.517 124.325 260.085C124.35 257.653 126.11 252.074 126.284 247.9C126.583 242.172 126.832 238.465 127.945 238.521C127.939 238.577 127.939 238.639 127.933 238.695L127.678 241.083C127.628 241.432 127.584 241.736 127.572 242.103C127.385 245.605 127.367 252.397 126.882 255.563C126.396 258.717 126.384 259.893 126.284 261.609Z" fill="#37474F"/>
<path d="M133.942 263.208C134.383 261.566 134.738 260.458 135.273 257.311C135.801 254.182 137.642 247.913 138.557 244.548C138.855 243.994 138.974 242.918 139.03 242.638C139.123 242.165 139.222 241.568 139.309 241.077C139.316 241.04 139.328 241.009 139.334 240.971C140.018 241.351 139.795 244.063 139.44 245.468C139.085 246.874 138.65 248.379 138.208 250.395C137.07 254.369 136.983 260.322 136.255 262.611C135.521 264.893 133.506 264.85 133.942 263.208Z" fill="#37474F"/>
<path d="M134.644 263.476C134.595 263.463 134.545 263.444 134.495 263.42C134.458 263.395 130.514 261.093 125.986 261.622C125.762 261.647 125.545 261.504 125.495 261.305C125.445 261.106 125.588 260.919 125.806 260.894C130.645 260.328 134.731 262.717 134.906 262.822C135.105 262.941 135.173 263.171 135.055 263.332C134.968 263.457 134.8 263.513 134.644 263.476Z" fill="#263238"/>
<path d="M135.739 259.862C135.696 259.849 135.646 259.837 135.602 259.812C135.559 259.787 131.118 257.367 126.08 257.803C125.856 257.821 125.644 257.672 125.601 257.473C125.557 257.274 125.706 257.094 125.93 257.075C131.261 256.621 135.801 259.097 135.994 259.202C136.193 259.314 136.274 259.544 136.168 259.712C136.075 259.837 135.901 259.893 135.739 259.862Z" fill="#263238"/>
<path d="M126.503 254.294C126.347 254.263 126.21 254.151 126.167 254.008C126.104 253.809 126.229 253.616 126.447 253.573C131.485 252.671 136.299 255.495 136.498 255.613C136.697 255.731 136.766 255.961 136.647 256.123C136.535 256.291 136.28 256.322 136.088 256.21C136.044 256.185 131.367 253.449 126.677 254.288C126.621 254.307 126.565 254.301 126.503 254.294Z" fill="#263238"/>
<path d="M126.938 250.986C126.789 250.954 126.652 250.849 126.602 250.706C126.533 250.507 126.652 250.308 126.869 250.27C132.418 249.182 136.94 252.18 137.126 252.31C137.313 252.441 137.369 252.671 137.244 252.827C137.12 252.982 136.859 253.007 136.672 252.883C136.629 252.852 132.281 249.984 127.118 250.992C127.062 250.998 127 250.998 126.938 250.986Z" fill="#263238"/>
<path d="M127.448 247.278C127.299 247.247 127.168 247.142 127.112 247.005C127.044 246.806 127.156 246.607 127.373 246.563C132.573 245.468 137.493 248.578 137.698 248.709C137.891 248.833 137.947 249.064 137.829 249.225C137.711 249.387 137.456 249.418 137.263 249.294C137.213 249.263 132.461 246.265 127.635 247.278C127.572 247.291 127.51 247.291 127.448 247.278Z" fill="#263238"/>
<path d="M134.688 118.487C132.088 146.066 131.46 185.538 131.46 185.538C131.236 187.635 129.637 193.873 128.269 204.174C127.05 213.354 128.275 232.425 128.269 233.582C128.269 233.582 134.781 238.141 140.846 236.188C140.846 236.188 148.347 207.818 151.662 195.011C154.797 182.895 158.977 163.414 158.977 163.414L161.353 183.231C161.353 183.231 160.781 191.23 160.917 196.747C161.073 203.153 165.57 228.643 165.57 228.643C165.57 228.643 172.841 232.754 179.186 227.946C179.186 227.946 183.048 190.645 183.359 182.945C183.969 167.836 183.838 137.141 182.01 118.561L134.688 118.487Z" fill="#455A64"/>
<path d="M158.97 163.414L162.41 143.821C162.41 143.821 169.731 142.863 173.538 139.479C173.538 139.479 171.043 143.995 164.127 145.656L160.731 163.489L161.346 183.225L158.97 163.414Z" fill="#263238"/>
<path d="M127.896 233.837C129.37 235.92 135.497 238.327 140.92 236.542L142.283 231.529C138.184 232.779 131.174 231.921 127.896 229.184V233.837Z" fill="#37474F"/>
<path d="M165.477 228.904C167.281 230.69 174.228 231.679 179.279 228.954L179.559 224.606C175.734 226.566 168.431 226.74 164.743 224.625L165.477 228.904Z" fill="#37474F"/>
<path d="M175.808 67.1284C181.736 68.4906 184.585 69.548 189.044 76.2905C193.504 83.033 197.87 90.8328 199.058 94.4031C200.246 97.9734 201.03 104.996 198.617 106.787C196.203 108.578 175.808 87.9219 175.808 87.9219V67.1284Z" fill="#FF0000"/>
<path d="M151.419 64.8334L149.553 64.8521C149.553 64.8521 135.216 69.1501 133.711 69.7721C133.711 69.7721 130.775 79.2638 132.871 93.1095C133.307 95.9956 134.103 103.858 134.066 109.897C134.016 118.058 133.425 128.993 133.425 128.993C133.425 128.993 143.383 134.715 163.275 133.533C178.893 132.607 183.079 128.439 183.079 128.439C183.079 128.439 182.482 107.378 182.258 95.8712C181.966 80.7566 179.136 69.8156 175.808 67.1224L164.973 64.3545L151.419 64.8334Z" fill="#37474F"/>
<path d="M170.527 36.4141C169.495 34.5481 168.17 33.8079 167.324 33.5156C166.565 29.7401 161.608 27.0717 158.548 26.0889C154.386 24.7516 150.119 25.7219 146.195 27.3329C144.801 27.9052 143.315 28.4028 141.816 28.2286C141.163 28.154 140.416 27.8305 140.304 27.1836C139.794 27.4573 139.521 28.0358 139.377 28.5956C139.029 29.908 139.178 31.3386 139.782 32.5515C139.197 32.6324 138.743 33.1051 138.42 33.6027C137.431 35.1452 137.337 37.1978 138.09 38.8648C139.682 42.404 143.52 42.4226 146.748 43.4303C149.945 44.4317 153.149 45.4269 156.346 46.4283C159.033 47.268 161.714 48.1077 164.401 48.9412L164.289 53.1646L164.295 59.2229C164.295 59.2229 165.806 58.7875 166.509 57.3569C167.212 55.9263 168.375 53.9421 169.619 48.8417C171.554 40.9112 171.355 37.9007 170.527 36.4141Z" fill="#263238"/>
<path d="M169.862 54.1534C166.764 55.7643 165.271 53.3199 165.271 53.3199L165.135 64.9637C166.833 66.1269 170.789 71.8244 164.276 73.51C157.521 75.2578 150.549 69.9646 149.616 66.1828L149.553 62.4882C149.553 62.4882 148.502 62.5193 146.829 62.2953C144.043 61.9346 141.66 60.0686 140.752 56.3552C139.657 51.8706 139.794 43.2497 140.92 37.3158C141.355 35.0269 142.071 34.38 143.396 33.6833C146.686 31.948 156.445 31.3819 159.163 35.3752C158.852 37.8383 159.63 40.5316 161.906 41.2904C162.081 45.1717 162.678 47.0377 164.226 47.641C165.483 48.1324 166.036 46.198 166.864 45.2774C167.703 44.3693 170.882 43.4861 172.337 46.3846C173.805 49.3329 172.729 52.6668 169.862 54.1534Z" fill="#C8856A"/>
<path d="M149.553 62.4947C153.192 62.3766 156.414 61.8416 158.541 60.8775C160.669 59.9134 162.491 56.9527 163.038 54.0542C163.101 56.3743 162.193 60.5168 158.983 62.3144C155.773 64.1119 151.979 64.3048 149.597 64.4229L149.553 62.4947Z" fill="#AF6152"/>
<path d="M152.402 40.7307L155.493 42.0058C155.829 41.1226 155.406 40.1211 154.554 39.7666C153.696 39.412 152.732 39.8474 152.402 40.7307Z" fill="#263238"/>
<path d="M142.121 41.3401L145.349 40.3947C145.119 39.4866 144.21 38.9579 143.315 39.2191C142.425 39.4866 141.89 40.432 142.121 41.3401Z" fill="#263238"/>
<path d="M145.312 44.108C145.305 44.7673 144.596 45.2898 143.732 45.2836C142.867 45.2773 142.164 44.7362 142.17 44.0769C142.177 43.4176 142.886 44.4501 143.757 44.4563C144.627 44.4687 145.318 43.4487 145.312 44.108Z" fill="#263238"/>
<path d="M155.382 44.3443C155.376 45.0036 154.667 45.5261 153.802 45.5199C152.937 45.5137 152.235 44.9725 152.241 44.3132C152.247 43.6539 152.956 44.6864 153.827 44.6926C154.691 44.7051 155.388 43.685 155.382 44.3443Z" fill="#263238"/>
<path d="M149.696 42.0059L148.807 50.7014L144.186 49.134C145.728 46.0302 147.569 43.6542 149.696 42.0059Z" fill="#AF6152"/>
<path d="M153.541 53.0088C153.298 52.9155 153.024 52.9155 152.769 52.9093C152.514 52.903 152.266 52.9155 152.011 52.9466C151.625 53.0026 151.246 53.071 150.872 53.1705C150.132 53.3633 149.28 53.6619 148.739 54.2217C148.583 54.3834 148.876 54.6944 149.056 54.6198C149.442 54.4705 149.802 54.2777 150.182 54.1222C150.555 53.9667 150.947 53.8609 151.339 53.7614C151.712 53.6681 152.098 53.6184 152.477 53.5562C152.682 53.5251 152.881 53.4877 153.087 53.4504C153.273 53.4193 153.485 53.4131 153.64 53.2887C153.74 53.2141 153.628 53.0399 153.541 53.0088Z" fill="#AF6152"/>
<path d="M134.693 70.0457C127.522 72.7079 123.597 79.948 129.985 89.7072C135.508 98.1415 146.412 107.826 149.964 110.134C155.873 113.965 158.808 113.822 163.635 108.616C169.289 102.52 177.891 92.4751 180.33 89.2904C182.774 86.1058 186.338 85.7139 187.862 82.6599C189.386 79.6121 189.803 77.6901 191.221 75.2457C192.359 73.2926 195.712 70.2075 196.396 67.6262C196.763 67.0726 197.049 66.5128 197.229 65.953C197.534 64.9889 197.018 64.3047 196.358 64.3669C196.651 63.9937 196.769 63.7822 196.769 63.0234C196.769 62.1339 195.786 61.9908 195.307 62.221C194.356 62.6875 192.608 63.7884 192.608 63.7884C191.737 63.7884 191.414 63.8195 191.071 63.8942C190.574 64.0123 190.138 64.3047 189.716 64.5908C188.391 65.4927 187.06 66.3946 185.735 67.3027C184.945 67.8439 184.149 68.385 183.44 69.0319C181.86 70.4749 180.902 72.3285 179.894 74.1758C178.911 75.9796 177.543 77.8207 176.199 79.4006C173.606 82.4546 156.184 94.8076 156.184 94.8076C156.184 94.8076 149.858 87.9904 145.491 81.3413C139.707 72.5213 137.847 71.2089 134.693 70.0457Z" fill="#C8856A"/>
<path d="M189.354 71.4144C191.003 69.9278 192.632 68.4225 194.386 67.0604C194.89 66.7369 195.425 66.1336 196.072 66.1585C196.899 66.7991 196.514 68.0991 196.109 68.8331C194.909 70.7239 193.441 72.3785 192.017 74.0952C192.9 72.8263 195.096 69.9775 195.848 68.6962C196.228 68.012 196.433 67.0479 195.966 66.4632C195.966 66.4632 195.941 66.4632 195.91 66.4695C193.522 67.7694 191.575 69.8407 189.354 71.4144Z" fill="#AF6152"/>
<path d="M187.19 70.8607C189.865 68.2546 192.856 65.7541 196.352 64.3608C193.105 66.1273 190.12 68.5967 187.19 70.8607Z" fill="#AF6152"/>
<path d="M192.608 63.7822C190.207 65.4616 187.899 67.2281 185.473 68.8764C187.619 66.886 189.983 65.0822 192.608 63.7822Z" fill="#AF6152"/>
<path d="M148.073 84.0969C145.299 80.2779 140.789 70.6369 135.029 69.312C130.495 70.5 126.359 74.7172 126.359 79.886C126.359 85.0548 127.677 87.8601 131.87 93.3274C136.062 98.7948 144.614 107.08 149.957 110.121C150.001 102.856 152.433 97.2771 156.159 94.7829C156.159 94.7891 150.847 87.916 148.073 84.0969Z" fill="#FF0000"/>
<path opacity="0.2" d="M156.159 94.7891C153.36 96.7422 150.125 100.263 149.783 104.094C148.514 98.2972 154.859 93.1035 154.859 93.1035L156.159 94.7891Z" fill="black"/>
<path d="M195.271 93.0723C196.571 94.2665 197.684 95.8464 198.517 97.6937C199.22 99.255 199.544 100.978 199.531 102.688C199.525 104.019 199.55 106.433 198.157 107.117C197.765 107.31 197.317 107.385 196.882 107.397C196.148 107.416 195.439 107.484 194.674 107.428C193.865 107.366 193.063 107.266 192.26 107.142C190.655 106.893 189.138 106.321 187.713 105.543C184.784 103.945 182.88 101.556 180.722 99.0932C177.264 95.1435 173.743 91.2001 170.546 87.0327C168.102 83.848 164.538 83.4562 163.014 80.4022C161.49 77.3544 161.073 75.4324 159.655 72.9879C158.517 71.0348 155.164 67.9497 154.48 65.3684C154.113 64.8148 153.827 64.255 153.646 63.6952C153.342 62.7311 153.858 62.0469 154.517 62.1091C154.225 61.7359 154.107 61.5244 154.107 60.7656C154.107 59.8761 155.089 59.7331 155.568 59.9694C156.52 60.4359 158.268 61.5369 158.268 61.5369C159.139 61.5369 159.462 61.568 159.804 61.6426C160.302 61.7608 160.737 62.0531 161.16 62.3393C162.485 63.2412 163.816 64.1431 165.141 65.0512C165.931 65.5923 166.727 66.1335 167.436 66.7803C169.016 68.2234 169.974 70.0769 170.982 71.9243C171.964 73.7281 173.333 75.5692 174.676 77.1491C177.314 80.2529 181.176 82.6476 184.411 85.0672C186.525 86.647 188.814 88.3326 190.96 89.8752C192.596 91.0446 193.921 91.8407 195.271 93.0723Z" fill="#C8856A"/>
<path d="M180.094 98.3656C176.592 94.4407 173.146 90.3355 169.793 86.2863C168.58 85.0112 167.007 84.1715 165.539 83.1888C162.354 81.273 161.801 77.2611 160.19 74.2133C158.715 71.0224 155.518 68.9014 154.355 65.4058C153.963 64.7838 153.08 63.4714 153.572 62.5073C153.739 62.1589 154.144 61.9101 154.542 61.9599L154.405 62.2087C154.231 61.9972 154.057 61.7173 154.007 61.4188C153.889 60.8527 153.914 60.0566 154.56 59.8202C154.853 59.6958 155.164 59.6772 155.469 59.7642C156.52 60.2245 157.391 60.8216 158.355 61.4063L158.268 61.3814C158.778 61.3877 159.294 61.3752 159.816 61.4934C160.351 61.6178 160.799 61.9164 161.216 62.2025L163.729 63.9192C165.371 65.0886 167.2 66.0962 168.506 67.7258C170.434 70.1392 171.46 73.0502 173.42 75.42C175.192 77.9204 177.662 79.7366 180.044 81.6275C181.642 82.8777 183.26 84.1093 184.883 85.3284C188.124 87.7729 191.395 90.18 194.692 92.5561C189.716 89.0418 184.746 85.5088 179.932 81.7768C178.327 80.5266 176.729 79.2764 175.236 77.8831C173.799 76.4214 172.605 74.7669 171.498 73.0502C170.434 71.3086 169.607 69.4363 168.307 67.8938C167.038 66.3201 165.228 65.3311 163.567 64.1618L161.048 62.4513C160.221 61.792 159.294 61.6489 158.268 61.6987C157.322 61.2073 156.346 60.492 155.375 60.0752C154.927 59.9384 154.337 60.1437 154.274 60.6102C154.225 61.0953 154.274 61.6365 154.635 62.0283L154.865 62.3144L154.505 62.2771C152.918 62.4575 154.1 64.5599 154.61 65.3249C155.108 67.0043 156.271 68.4163 157.347 69.7784C158.46 71.1468 159.655 72.4966 160.389 74.1262C161.577 76.4836 162.217 79.1271 163.698 81.3103C165.365 83.4002 168.101 84.2088 169.905 86.1868C173.264 90.2422 176.623 94.391 180.094 98.3656Z" fill="#AF6152"/>
<path d="M161.533 69.1688C159.313 67.5889 157.359 65.5238 154.965 64.2239C154.934 64.2176 154.909 64.2176 154.909 64.2176C154.946 64.199 154.903 64.2301 154.878 64.2612C154.436 64.8956 154.672 65.7726 155.027 66.4506C155.773 67.7195 157.988 70.6056 158.859 71.8496C157.434 70.1391 155.96 68.4783 154.766 66.5875C154.361 65.8535 153.976 64.5535 154.803 63.9129C155.45 63.888 155.985 64.4913 156.489 64.8148C158.255 66.1769 159.879 67.6884 161.533 69.1688Z" fill="#AF6152"/>
<path d="M163.691 68.6093C160.762 66.3452 157.782 63.8759 154.529 62.1094C158.025 63.5089 161.017 66.0031 163.691 68.6093Z" fill="#AF6152"/>
<path d="M158.274 61.5371C160.899 62.8371 163.269 64.6409 165.408 66.6313C162.982 64.983 160.675 63.2165 158.274 61.5371Z" fill="#AF6152"/>
<path d="M115.567 41.7515C116.637 32.1823 109.747 23.5577 100.177 22.488C90.6082 21.4182 81.9836 28.3083 80.9138 37.8775C79.844 47.4467 86.7342 56.0713 96.3034 57.1411C105.873 58.2109 114.497 51.3207 115.567 41.7515Z" fill="white"/>
<path d="M77.9741 45.3398C81.0281 56.5358 92.5786 63.129 103.762 60.075C114.958 57.021 121.551 45.4829 118.497 34.2869C115.443 23.0971 103.905 16.4977 92.7093 19.5517C81.5195 22.6057 74.92 34.1563 77.9741 45.3398ZM81.4137 44.4006C78.8822 35.1141 84.362 25.5229 93.6485 22.9914C102.941 20.4536 112.526 25.9396 115.058 35.2261C117.595 44.5188 112.122 54.0976 102.823 56.6353C93.5365 59.1669 83.9515 53.6995 81.4137 44.4006Z" fill="#FF0000"/>
<path d="M116.221 49.5942L120.289 57.929C120.985 59.3534 119.561 60.8835 118.093 60.2989L109.472 56.8779L116.221 49.5942Z" fill="#FF0000"/>
<path d="M83.1744 51.7274L86.3235 54.8765L113.302 27.8981L110.153 24.7491L83.1744 51.7274Z" fill="#FF0000"/>
<path d="M55.2038 129.05L51.2002 136.417L87.9352 156.382L91.9388 149.015L55.2038 129.05Z" fill="#E0E0E0"/>
<path d="M57.9043 159.09L65.271 163.093L85.2357 126.358L77.869 122.355L57.9043 159.09Z" fill="#E0E0E0"/>
<path d="M223.26 149.025L227.263 156.392L263.998 136.427L259.995 129.061L223.26 149.025Z" fill="#E0E0E0"/>
<path d="M237.318 122.357L229.951 126.361L249.916 163.096L257.282 159.092L237.318 122.357Z" fill="#E0E0E0"/>
</svg>
