<svg width="311" height="311" viewBox="0 0 311 311" fill="none" xmlns="http://www.w3.org/2000/svg">
<path d="M53.5794 277.959C-2.57139 245.543 -2.57139 192.982 53.5794 160.566C109.73 128.149 200.763 128.149 256.913 160.566C313.064 192.982 313.064 245.543 256.913 277.959C200.763 310.376 109.73 310.382 53.5794 277.959Z" fill="#F5F5F5"/>
<path d="M98.5153 279.525C122.88 279.525 142.631 268.123 142.631 254.058C142.631 239.992 122.88 228.59 98.5153 228.59C74.1507 228.59 54.3994 239.992 54.3994 254.058C54.3994 268.123 74.1507 279.525 98.5153 279.525Z" fill="#E0E0E0"/>
<path d="M200.492 242.168C231.085 225.669 249.229 199.953 241.019 184.729C232.808 169.505 201.352 170.539 170.76 187.038C140.167 203.537 122.023 229.253 130.233 244.477C138.443 259.701 169.899 258.667 200.492 242.168Z" fill="#E0E0E0"/>
<path d="M236.49 90.7716L236.396 90.7157C236.39 90.7157 236.39 90.7095 236.384 90.7095L212.711 77.0847C212.705 77.0785 212.699 77.0785 212.687 77.0723L212.55 77.004V77.0102C201.49 71.4336 186.735 73.1041 170.868 83.3692C138.986 103.986 114.687 151.443 116.599 189.362C117.556 208.265 124.84 221.225 135.856 226.92V226.926L135.956 226.976C135.962 226.976 135.962 226.982 135.968 226.982L159.647 240.613C159.653 240.613 159.653 240.619 159.659 240.619L159.777 240.681V240.675C170.837 246.27 185.605 244.599 201.49 234.334C233.372 213.717 257.672 166.26 255.759 128.342C254.797 109.433 247.506 96.4723 236.49 90.7716Z" fill="#37474F"/>
<path d="M158.833 240.178L135.968 226.976C135.949 226.976 135.949 226.976 135.949 226.976L135.844 226.914C124.834 221.2 117.549 208.24 116.599 189.362C115.748 172.452 120.114 153.654 128.019 136.192L128.181 135.807L151.704 149.816C143.78 167.273 139.427 186.07 140.278 202.986C141.216 221.486 148.214 234.291 158.833 240.178Z" fill="#263238"/>
<path d="M201.484 234.328C233.366 213.711 257.665 166.254 255.747 128.336C253.834 90.4175 226.435 76.3891 194.553 97.0063C162.671 117.624 138.371 165.08 140.284 202.999C142.203 240.917 169.601 254.945 201.484 234.328Z" fill="#455A64"/>
<path d="M228.485 87.8276L188.523 170.135L179.923 160.814C177.271 157.932 173.489 156.28 169.546 156.28C165.981 156.28 162.572 157.609 159.945 160.025C154.226 165.31 153.872 174.271 159.15 179.996L181.81 204.538C184.319 207.258 187.735 208.861 191.43 209.059C191.691 209.072 191.951 209.078 192.212 209.078C192.889 209.078 193.572 209.028 194.261 208.929C198.894 208.24 202.881 205.321 204.912 201.117L250.741 106.718C246.059 96.267 238.234 89.7589 228.485 87.8276Z" fill="#37474F"/>
<path d="M260.938 60.715C260.689 60.5722 260.435 60.4356 260.168 60.3114C254.07 57.3616 246.704 59.9077 243.761 65.9873L192.907 170.725L190.02 167.595C189.156 166.664 188.188 165.894 187.138 165.291C185.623 164.422 179.177 160.69 178.134 160.087C173.613 157.479 167.719 157.97 163.658 161.702C158.69 166.291 158.386 174.072 162.969 179.04L185.629 203.588C186.492 204.52 187.48 205.302 188.554 205.917C190.032 206.762 196.453 210.482 197.509 211.09C199.167 212.053 201.036 212.618 203.005 212.723C203.812 212.767 204.625 212.736 205.464 212.618C209.488 212.022 212.947 209.482 214.711 205.836L274.867 81.9284C277.692 76.0972 275.488 69.1109 269.967 65.9314C269.713 65.7824 262.54 61.6403 260.938 60.715Z" fill="#039E00"/>
<path opacity="0.15" d="M260.938 60.715C260.689 60.5722 260.435 60.4356 260.168 60.3114C254.07 57.3616 246.704 59.9077 243.761 65.9873L192.907 170.725L190.02 167.595C189.156 166.664 188.188 165.894 187.138 165.291C185.623 164.422 179.177 160.69 178.134 160.087C173.613 157.479 167.719 157.97 163.658 161.702C158.69 166.291 158.386 174.072 162.969 179.04L185.629 203.588C186.492 204.52 187.48 205.302 188.554 205.917C190.032 206.762 196.453 210.482 197.509 211.09C199.167 212.053 201.036 212.618 203.005 212.723C203.812 212.767 204.625 212.736 205.464 212.618C209.488 212.022 212.947 209.482 214.711 205.836L274.867 81.9284C277.692 76.0972 275.488 69.1109 269.967 65.9314C269.713 65.7824 262.54 61.6403 260.938 60.715Z" fill="black"/>
<path opacity="0.15" d="M197.503 211.09C196.453 210.481 190.032 206.755 188.548 205.917C187.473 205.302 186.486 204.526 185.623 203.594L162.963 179.053C161.932 177.928 161.155 176.655 160.621 175.32L169.632 180.518C170.166 181.859 170.949 183.132 171.986 184.256L194.646 208.798C195.49 209.705 196.453 210.475 197.503 211.09Z" fill="black"/>
<path opacity="0.15" d="M255.622 67.4154C254.467 68.4463 253.492 69.7193 252.778 71.1911L200.477 178.922L192.914 170.725L243.761 65.9871C244.475 64.5091 245.456 63.2423 246.611 62.2114L255.622 67.4154Z" fill="black"/>
<path d="M269.185 65.5155C263.087 62.5657 255.722 65.1118 252.778 71.1914L200.478 178.922L190.02 167.595C185.449 162.634 177.675 162.317 172.675 166.912C167.707 171.502 167.403 179.283 171.986 184.257L194.646 208.805C196.82 211.165 199.788 212.556 202.999 212.73C203.806 212.773 204.62 212.742 205.458 212.624C209.482 212.028 212.941 209.488 214.705 205.843L274.861 81.9347C277.817 75.8241 275.271 68.4652 269.185 65.5155Z" fill="#039E00"/>
<path d="M97.6402 77.6185C92.902 77.6185 89.6603 78.8543 86.2945 83.6422C83.2082 88.0389 74.7191 102.695 74.7191 102.695C74.7191 102.695 68.5277 89.9578 67.8881 87.4117C67.2422 84.8718 67.3043 83.7416 67.9129 82.6362C68.6643 81.2762 69.335 80.0839 69.484 78.2644C69.7262 75.2153 70.4714 72.6009 69.7883 72.5139C67.8943 72.4083 67.8198 74.8365 66.8262 76.2772C66.4722 76.7926 65.3109 76.8671 64.9197 76.066C64.5036 75.2153 64.7272 73.818 64.5223 72.812C64.6154 71.9426 64.6899 71.6631 64.7893 71.1477C65.3234 71.2719 66.0996 71.2843 66.9628 71.2098C67.7825 72.4953 68.3414 73.0356 69.484 72.5139C69.6331 72.2717 68.9935 70.6261 68.2483 69.4338C68.1303 69.2475 67.9502 69.1046 67.739 69.0425C66.5902 68.7258 65.2923 68.6513 63.5287 68.9245C63.3175 68.9556 63.1064 69.0487 62.9884 69.2226C62.3301 70.1976 61.9389 71.185 61.7774 71.688C61.6905 71.955 61.4483 71.9488 61.3862 71.719C60.7776 68.7196 60.7714 64.4595 60.7714 62.4661C60.7714 60.895 58.4737 60.6528 58.393 62.9008C58.3123 65.2047 58.2502 69.4648 58.5482 71.9488C58.5855 72.222 58.275 72.3525 58.1694 72.0544C57.772 70.9863 56.797 67.7819 56.3872 62.2426C56.2754 60.7522 53.8659 60.51 53.8845 62.6028C53.9342 68.3408 55.2631 73.6317 55.2631 73.6317C55.3315 73.8925 55.0955 74.1223 54.9154 73.8242C54.1143 72.5139 52.8537 69.2599 52.214 67.0181C51.7048 65.2234 49.3015 65.6767 49.7238 67.9185C50.4752 71.9364 51.6676 77.0224 53.4436 80.649C55.3439 84.5303 56.9895 86.474 57.9272 89.5231C58.8712 92.5722 62.7772 109.842 66.9566 116.574C70.2292 121.846 73.9739 121.362 78.0042 118.58C82.0345 115.798 96.4354 95.7331 96.4354 95.7331L97.6402 77.6185Z" fill="#F0B1B1"/>
<path d="M74.7188 102.695C74.7188 102.695 76.737 106.123 77.0475 108.855C77.0475 108.855 78.0225 104.936 75.6254 101.142L74.7188 102.695Z" fill="#CE8888"/>
<path d="M98.6461 77.6309C96.2366 77.3825 93.2434 77.3018 89.8962 79.4008C86.549 81.506 85.3877 84.4433 83.7669 87.0018C82.1461 89.5665 76.5447 98.6518 76.5447 98.6518C76.5447 98.6518 78.6002 107.277 86.7788 109.054L99.0187 92.448L98.6461 77.6309Z" fill="#455A64"/>
<path d="M109.62 229.291C110.216 229.217 111.06 231.328 111.073 232.024C111.085 232.713 110.396 234.197 109.477 235.588C108.558 236.979 107.291 238.7 106.465 240.948C105.763 242.86 105.118 244.115 103.161 246.617C100.988 249.406 95.8833 254.076 88.1332 252.045C86.2391 251.548 85.2952 250.952 84.6121 250.263C84.0346 249.685 83.7613 248.741 84.0718 247.89L109.62 229.291Z" fill="#263238"/>
<path d="M94.3987 226.87C94.3925 226.895 94.3862 226.913 94.38 226.938C94.2434 227.509 94.3614 228.106 94.4297 228.683C94.6843 230.72 94.4111 232.825 93.6473 234.732C93.1318 236.011 92.399 237.203 91.4924 238.246C90.5671 239.302 89.0519 240.42 87.872 241.178C83.9472 243.686 83.525 245.357 84.0776 247.891C85.388 250.84 94.2931 252.635 99.4101 248.245C101.41 246.531 102.925 245.022 104.279 241.619C105.229 239.228 105.943 237.874 106.862 236.154C107.856 234.291 109.731 232.192 109.787 230.273C109.818 229.217 108.775 227.255 107.756 225.64C106.825 224.156 105.869 222.746 105.03 222.914L105.26 223.752C104.564 224.479 103.552 224.746 102.937 225.597C102.18 226.646 102.211 228.056 101.739 229.261C101.695 229.379 101.633 229.503 101.509 229.54C101.385 229.577 101.242 229.49 101.18 229.372C101.118 229.254 101.112 229.118 101.105 228.987C101.087 228.385 101.068 227.783 101.05 227.18C101.037 226.832 101.019 226.46 100.789 226.199C100.304 225.653 99.1121 225.715 98.4476 225.69C97.5409 225.653 96.6715 225.795 95.7711 225.851C95.4357 225.87 95.1873 225.851 94.9017 226.081C94.6595 226.274 94.4794 226.565 94.3987 226.87Z" fill="#37474F"/>
<path d="M81.2393 190.765C83.3072 197.565 92.9762 221.101 93.5537 222.516C94.1374 223.932 95.4788 227.186 95.4788 227.186C95.4788 227.186 97.0561 227.838 99.4035 227.348C99.6085 229.602 99.9438 233.136 100.08 234.924C100.124 236.992 100.304 239.544 99.8631 241.587C99.4843 243.326 99.0433 245.152 98.7142 246.897C98.5714 247.667 98.4223 248.443 98.3106 249.219C98.1864 250.039 98.1056 250.927 98.5031 251.66C98.6894 252.002 98.9688 252.281 99.2669 252.529C100.608 253.635 102.409 254.101 104.142 253.958C105.055 253.883 105.98 253.635 106.725 253.101C108.228 252.026 108.756 250.157 109.52 248.567C110.352 246.841 110.079 246.655 110.153 244.81C110.203 243.519 110.563 240.24 111.078 236.812C111.594 233.384 113.817 221.337 114.885 209.333C115.624 201.024 114.885 193.311 114.885 193.311C123.368 170.266 127.144 156.56 128.255 148.909C129.379 141.134 128.839 138.365 128.696 133.894L87.4431 134.887C84.1269 156.219 78.4634 181.648 81.2393 190.765Z" fill="#F0B1B1"/>
<path d="M80.5934 173.749C81.4441 165.912 87.3064 135.788 87.3064 135.788H128.864C128.864 135.788 129.125 141.569 129.05 144.227C128.975 146.885 128.125 151.741 126.634 157.877C125.144 164.012 119.648 181.406 118.586 183.971C117.524 186.536 115.469 193.95 115.469 193.95C116.487 207.886 113.835 220.393 111.848 237.017C111.848 237.017 111.271 239.265 105.384 238.818C99.6581 238.383 98.503 236.278 98.503 236.278L98.118 221.933C98.118 221.933 94.9881 222.895 93.15 222.454C93.15 222.454 80.848 192.087 80.2518 190.256C79.6681 188.424 79.7426 181.586 80.5934 173.749Z" fill="#039E00"/>
<path opacity="0.45" d="M80.5934 173.749C81.4441 165.912 87.3064 135.788 87.3064 135.788H128.864C128.864 135.788 129.125 141.569 129.05 144.227C128.975 146.885 128.125 151.741 126.634 157.877C125.144 164.012 119.648 181.406 118.586 183.971C117.524 186.536 115.469 193.95 115.469 193.95C116.487 207.886 113.835 220.393 111.848 237.017C111.848 237.017 111.271 239.265 105.384 238.818C99.6581 238.383 98.503 236.278 98.503 236.278L98.118 221.933C98.118 221.933 94.9881 222.895 93.15 222.454C93.15 222.454 80.848 192.087 80.2518 190.256C79.6681 188.424 79.7426 181.586 80.5934 173.749Z" fill="black"/>
<path opacity="0.2" d="M98.2244 155.424C92.3373 150.114 91.0332 145.897 91.0332 145.897C95.4175 151.077 101.398 154.2 101.398 154.2C101.398 154.2 95.8087 183.71 96.2186 189.777C96.6222 195.844 98.1374 221.933 98.1374 221.933C98.1499 222.181 94.1755 194.348 94.0637 192.118C93.7594 186.256 98.2244 155.424 98.2244 155.424Z" fill="black"/>
<path d="M111.178 251.791C111.756 251.958 111.687 253.685 111.426 254.324C111.166 254.964 110.135 256.187 108.744 257.106C107.353 258.025 106.055 259.311 104.8 261.354C103.906 262.807 101.658 265.564 98.6215 267.384C95.5848 269.203 91.0887 269.843 87.754 268.893C83.8541 267.787 83.4939 266.831 83.5312 265.359L111.178 251.791Z" fill="#263238"/>
<path d="M99.1118 242.761C98.0872 247.754 96.3049 251.375 92.1752 254.448C88.8902 256.889 86.4993 258.131 83.8787 260.317C82.7609 261.248 82.6677 263.229 83.5247 265.366C85.2946 266.788 87.8158 267.601 91.2065 267.601C94.9884 267.595 96.4477 266.931 98.6212 265.44C99.8694 264.583 100.739 263.801 101.59 262.95C103.409 261.124 104.676 258.876 105.986 257.429C107.297 255.982 110.141 254.504 110.942 252.759C111.383 251.803 111.196 249.58 110.898 247.692C110.625 245.959 111.159 242.917 110.321 242.743C110.339 242.749 110.209 243.985 110.209 243.985C110.141 244.264 109.967 244.407 109.377 244.612C108.986 244.748 108.185 244.73 107.781 244.662C107.303 244.581 107.03 244.587 106.713 244.966C106.154 245.624 106.005 246.556 105.285 247.102C105.235 247.139 105.179 247.177 105.117 247.189C105.055 247.201 104.986 247.189 104.943 247.139C104.9 247.083 104.906 247.009 104.912 246.934C104.98 246.313 105.049 245.699 105.117 245.078C105.136 244.891 105.16 244.699 105.129 244.512C105.08 244.165 104.819 243.873 104.527 243.699C104.018 243.388 103.428 243.165 102.856 243.003C102.254 242.836 101.627 242.743 101.006 242.687C100.385 242.625 99.7328 242.612 99.1118 242.761Z" fill="#455A64"/>
<path d="M125.113 79.4072C125.113 79.4072 126.827 81.7608 128.193 86.5984C128.193 86.5984 130.801 97.6584 130.801 110.768C130.801 121.735 129.323 139.52 129.323 139.52C116.587 145.904 96.0441 142.128 87.0085 135.906C87.3749 133.931 87.6854 123.548 88.3934 116.698C88.8778 104.949 89.269 98.7886 89.3559 93.566C89.5236 83.1208 94.7214 77.7243 98.6461 77.6436L108.619 77.7988L125.113 79.4072Z" fill="#039E00"/>
<path d="M128.256 136.291C126.362 137.849 122.642 140.842 121.965 142.351C121.189 144.078 120.704 146.68 120.195 147.686C119.686 148.692 120.468 149.158 121.555 148.81C122.648 148.462 123.3 147.524 124.145 145.27C124.989 143.01 127.337 141.24 127.337 141.24L128.256 136.291Z" fill="#CE8888"/>
<path d="M121.338 156.616C121.791 157.492 122.847 157.492 123.828 157.573C125.225 157.684 126.014 157.585 127.349 157.175C128.684 156.759 129.933 155.97 130.734 154.821C131.69 153.449 131.932 151.723 132.479 150.139C133.628 146.817 137.031 144.42 137.583 140.899C137.813 139.439 137.813 137.732 138.229 136.825C138.471 136.291 144.067 126.659 146.06 122.486C147.979 118.474 149.413 116.586 147.675 111.768C145.936 106.949 140.011 89.9891 135.826 84.0958C133.447 80.7548 129.678 79.7985 125.107 79.4072C121.63 88.4676 125.679 97.8199 125.679 97.8199L134.876 115.568C134.876 115.568 131.299 127.789 129.063 134.583C128.442 136.471 127.188 137.638 125.778 139.731C125.163 140.638 123.76 142.234 123.257 143.209C122.611 144.463 122.63 145.27 122.325 147.028C121.847 149.822 121.121 156.2 121.338 156.616Z" fill="#F0B1B1"/>
<path d="M124.623 79.3574C127.026 79.4506 130.479 79.8604 132.541 80.9037C134.609 81.947 136.037 83.2325 138.409 87.9893C140.788 92.7462 144.247 101.987 144.247 101.987C144.247 101.987 143.098 108.96 132.069 110.768L124.617 97.0249C124.623 97.0249 121.301 88.4613 124.623 79.3574Z" fill="#455A64"/>
<path d="M95.9696 57.1628C96.3298 57.6845 96.5285 58.4048 96.8141 58.9762C97.2116 59.7835 97.6152 60.597 98.2052 61.2863C99.6335 62.9319 101.646 64.1367 103.471 65.3042C104.583 66.0121 105.85 66.6766 107.203 66.484C108.582 66.2853 110.066 66.5834 111.47 66.7138C113.097 66.8629 114.73 67.0057 116.357 67.1547L116.084 72.2904C116.084 72.2904 116.686 70.9304 117.518 69.3034C118.232 67.9061 121.195 60.8143 121.207 60.7895C122.679 57.2746 124.424 52.5985 122.666 48.9035C122.25 48.0341 121.636 47.2206 120.754 46.7114C120.934 46.0345 120.99 45.5626 120.915 44.9602C120.679 42.973 119.667 41.8366 118.319 40.8492C116.972 39.8618 115.339 39.3277 113.712 38.9489C111.526 38.4459 109.284 38.1975 107.042 38.2099C104.813 38.2161 102.689 38.5949 100.497 38.9613C99.2919 39.1663 98.0748 39.3277 96.8514 39.3401C96.336 39.3463 95.7646 39.3774 95.2741 39.2656C94.6344 39.1166 93.9886 38.7999 93.3676 38.5763C93.2558 38.539 93.1316 38.4956 93.026 38.5515C92.9205 38.6011 92.8708 38.7316 92.8397 38.8433C92.4485 40.2778 92.9391 42.1471 93.852 43.3207C93.4794 43.2711 93.1875 43.1469 93.0447 43.0848C92.7404 42.9606 92.4796 42.7867 92.2063 42.6128C91.7095 42.3023 91.4052 41.9421 91.0264 41.4888C90.9705 41.4267 90.9146 41.3584 90.8339 41.346C90.7097 41.3211 90.6041 41.4329 90.5296 41.5323C89.8217 42.501 89.6478 43.7927 89.8838 44.9664C90.1198 46.1401 90.7408 47.2082 91.4984 48.1397C90.6849 49.3444 90.6725 50.9839 91.281 52.3066C91.5481 52.8904 91.9269 53.4244 92.3802 53.884C92.9391 54.4553 93.5974 54.921 94.1873 55.4551C94.7897 55.9892 95.51 56.486 95.9696 57.1628Z" fill="#37474F"/>
<path d="M110.855 48.6052C110.867 49.9714 111.06 50.934 111.209 51.35C111.501 52.1946 111.979 52.7473 112.593 53.3931C113.227 54.0514 114.009 54.5792 114.519 55.3369C115.214 56.3677 115.456 57.7029 115.599 58.9138C115.686 59.6466 115.916 60.4539 116.543 60.8389C117.872 61.6586 118.667 60.0689 119.375 59.2864C120.288 58.4419 122.995 57.411 124.25 60.2924C125.548 63.2732 123.157 67.2228 120.971 67.8314C117.214 68.8809 116.394 66.3223 116.394 66.3223L115.674 79.7359C113.55 83.7538 108.569 85.0331 105.297 84.3934C102.471 83.8408 100.919 81.8598 103.577 78.9907L103.719 74.9046C103.719 74.9046 100.329 75.3082 98.6955 74.9977C95.9755 74.4885 94.6217 72.1722 93.8889 69.1852C92.709 64.3848 92.1688 59.3361 93.6281 48.5307C94.2988 48.1643 96.9815 50.2571 101.049 50.5365C105.098 50.8098 108.83 49.723 110.855 48.6052Z" fill="#F0B1B1"/>
<path d="M103.732 74.905C103.732 74.905 109.88 73.8741 112.053 72.806C113.506 72.0919 114.73 70.8126 115.102 69.9805C115.102 69.9805 114.643 71.7814 113.314 73.3711C111.687 75.3149 103.682 76.5258 103.682 76.5258L103.732 74.905Z" fill="#CE8888"/>
<path d="M106.905 53.3809L109.768 54.2565C109.992 53.443 109.532 52.5798 108.743 52.3439C107.949 52.1017 107.129 52.5674 106.905 53.3809Z" fill="#263238"/>
<path d="M105.912 66.9683L101.701 68.3966C102.074 69.6013 103.322 70.2596 104.483 69.8683C105.645 69.4709 106.284 68.173 105.912 66.9683Z" fill="#CE8888"/>
<path d="M105.57 67.999C104.409 67.999 103.434 68.8001 103.167 69.8807C103.583 70.0111 104.036 70.0111 104.477 69.862C105.297 69.5826 105.843 68.8622 105.973 68.0363C105.843 68.0177 105.706 67.999 105.57 67.999Z" fill="#F28F8F"/>
<path d="M94.125 53.8591L97.0312 53.474C96.9443 52.6854 96.2239 52.1265 95.4228 52.232C94.6218 52.3438 94.0442 53.0704 94.125 53.8591Z" fill="#263238"/>
<path d="M112.029 55.1011L121.635 58.3924C121.635 58.3924 120.133 58.2682 118.866 59.7958L112.066 57.2125L112.029 55.1011Z" fill="#263238"/>
<path d="M95.5593 58.8517C95.5407 59.51 96.0375 60.0564 96.6709 60.0751C97.3044 60.0937 97.8384 59.5783 97.857 58.92C97.8757 58.2617 97.3851 57.7153 96.7454 57.6904C96.112 57.6718 95.578 58.1872 95.5593 58.8517Z" fill="#263238"/>
<path d="M106.532 58.8519C106.514 59.5102 107.011 60.0567 107.644 60.0753C108.277 60.0939 108.812 59.5785 108.83 58.9202C108.849 58.262 108.352 57.7155 107.719 57.6906C107.085 57.6782 106.551 58.1937 106.532 58.8519Z" fill="#263238"/>
<path d="M89.8898 55.7967C89.9333 56.3804 90.3059 56.9207 90.4984 57.1504C90.5978 57.2684 90.6909 57.4299 90.7406 57.6348C90.9642 58.5601 91.1567 60.3113 91.5914 61.2925C92.0323 62.2737 92.9514 63.8324 95.5285 63.8883C96.0315 63.9007 96.4724 63.8572 96.8699 63.7765C96.9071 63.7703 96.9382 63.7641 96.9692 63.7517C97.3853 63.6523 97.7455 63.5095 98.056 63.3232C98.0808 63.3108 98.0995 63.2983 98.1181 63.2797C98.1491 63.2611 98.1802 63.2424 98.2112 63.2238C98.2361 63.2052 98.2671 63.1866 98.3292 63.1431C98.3665 63.1182 98.4037 63.0872 98.4348 63.0624C98.4783 63.0313 98.5155 63.0003 98.5528 62.963C98.59 62.9319 98.6273 62.9009 98.6646 62.8636C98.7391 62.7953 98.8074 62.727 98.8757 62.6525C99.2545 62.2364 99.534 61.752 99.7513 61.2615C100.316 59.9822 100.174 58.1937 101.105 57.9888C101.142 57.9826 101.18 57.9764 101.217 57.9702C101.254 57.9639 101.298 57.9639 101.341 57.9639C102.608 57.9826 102.471 59.9325 103.179 61.3236C103.887 62.7146 105.061 64.0746 107.818 64.1118C107.942 64.1118 108.06 64.1118 108.172 64.1118C108.271 64.1056 108.365 64.0994 108.458 64.0932C108.694 64.0746 108.917 64.0435 109.122 64.0001C109.191 63.9814 109.265 63.969 109.333 63.9504C109.402 63.9318 109.47 63.9131 109.532 63.8945C109.576 63.8821 109.619 63.8697 109.656 63.8572C109.936 63.7579 110.184 63.6399 110.401 63.5095C110.488 63.4536 110.569 63.3977 110.65 63.3418C110.805 63.2238 110.948 63.0996 111.078 62.963C111.494 62.5345 111.743 62.0563 111.91 61.6713C112.339 60.7088 112.451 58.9575 112.662 58.0447C112.718 57.8025 112.792 57.6348 112.873 57.5168C113.053 57.256 113.475 56.7965 113.494 56.2127C113.513 55.629 113.097 55.1198 112.724 55.0639C112.507 55.0328 112.283 55.0018 112.047 54.9769C109.874 54.7161 107.042 54.5981 105.347 55.0577C103.223 55.6414 102.484 56.3183 101.298 56.3059C100.186 56.281 99.4719 55.5731 97.4536 54.9148C95.8452 54.3932 93.1998 54.4056 91.1753 54.5919C90.958 54.6105 90.7468 54.6354 90.5481 54.6602C90.219 54.6913 89.8526 55.2129 89.8898 55.7967ZM103.875 57.1318C103.987 56.9641 104.198 56.7965 104.477 56.635C104.514 56.6102 104.545 56.5915 104.589 56.5729C104.608 56.5605 104.626 56.5543 104.651 56.5419C104.744 56.4922 104.844 56.4425 104.949 56.399C105.036 56.3618 105.129 56.3245 105.229 56.2872C105.508 56.1817 105.818 56.0823 106.135 56.0016C106.253 55.9705 106.377 55.9457 106.495 55.9146C106.806 55.8463 107.116 55.7967 107.427 55.7656C107.501 55.7594 107.576 55.7532 107.644 55.747C109.694 55.5793 110.967 56.0637 111.432 56.4798C111.91 56.9145 111.693 58.8085 111.501 59.7648C111.494 59.7897 111.488 59.8145 111.488 59.8332C111.482 59.858 111.476 59.8828 111.476 59.9077C111.451 60.0257 111.426 60.1561 111.389 60.2927C111.37 60.3672 111.345 60.4479 111.321 60.5349C111.321 60.5411 111.321 60.5411 111.314 60.5473C111.277 60.6777 111.234 60.8081 111.178 60.951C111.159 60.9944 111.14 61.0441 111.122 61.0876C111.109 61.1124 111.097 61.1435 111.085 61.1683C111.072 61.1994 111.06 61.2304 111.041 61.2615C111.022 61.2987 111.004 61.336 110.985 61.3732C110.967 61.4167 110.942 61.4602 110.917 61.5036C110.892 61.5471 110.867 61.5906 110.836 61.6403C110.811 61.6837 110.78 61.7334 110.749 61.7769C110.24 62.5097 109.383 63.1307 107.886 63.1245C106.408 63.1245 105.465 62.6152 104.862 61.9694C104.266 61.3298 103.999 60.5597 103.869 60.0319C103.62 58.9638 103.477 57.7155 103.875 57.1318ZM91.8398 56.1258C91.9516 56.0202 92.1192 55.9084 92.3428 55.8091C92.3552 55.8029 92.3676 55.7966 92.38 55.7904C92.4483 55.7594 92.5229 55.7283 92.6036 55.7035C92.6471 55.6911 92.6905 55.6725 92.7402 55.66C92.7775 55.6476 92.8147 55.6352 92.852 55.629C92.8768 55.6228 92.9017 55.6166 92.9265 55.6104C92.9389 55.6041 92.9452 55.6041 92.9576 55.6041C92.9948 55.5979 93.0321 55.5855 93.0693 55.5793C93.2122 55.5483 93.3736 55.5234 93.5413 55.5048C93.622 55.4924 93.709 55.4861 93.7959 55.4799C93.8456 55.4737 93.8953 55.4737 93.9512 55.4675C93.9884 55.4675 94.0319 55.4613 94.0692 55.4613C94.1747 55.4613 94.2865 55.4551 94.3983 55.4551C94.4355 55.4551 94.479 55.4551 94.5163 55.4551C94.5535 55.4551 94.5908 55.4551 94.6281 55.4613C94.9199 55.4737 95.2366 55.4986 95.572 55.5483C97.0313 55.7594 98.559 56.4363 98.9502 57.0324C99.3477 57.6348 99.2607 58.8768 99.0682 59.9449C99.031 60.1561 98.9751 60.4045 98.8819 60.6591C98.8757 60.6777 98.8695 60.6963 98.8633 60.715C98.8571 60.7398 98.8447 60.7647 98.8384 60.7895C98.8322 60.8081 98.826 60.8205 98.8198 60.8392C98.8074 60.8702 98.795 60.8951 98.7826 60.9261C98.7577 60.9882 98.7329 61.0441 98.7018 61.1C98.677 61.1497 98.6521 61.1994 98.6273 61.249C98.6149 61.2677 98.6087 61.2863 98.5963 61.3049C98.5776 61.336 98.559 61.3732 98.5342 61.4043C98.5155 61.4353 98.4969 61.4602 98.4783 61.4912C98.4783 61.4974 98.4721 61.5036 98.4721 61.5036C97.9628 62.2799 97.0562 62.9506 95.4354 62.8947C94.8206 62.8761 94.3176 62.7394 93.9015 62.5283C92.4484 61.7893 92.082 60.1623 91.9081 59.4047C91.6907 58.4483 91.4051 56.5419 91.8398 56.1258Z" fill="#263238"/>
<path d="M101.695 58.0386L101.477 66.0184L97.0249 64.7329L101.179 57.9703C101.372 57.9516 101.54 57.9827 101.695 58.0386Z" fill="#CE8888"/>
<path d="M163.956 59.0509C176.663 59.0509 186.964 50.0288 186.964 38.8995C186.964 27.7702 176.663 18.748 163.956 18.748C151.249 18.748 140.948 27.7702 140.948 38.8995C140.948 50.0288 151.249 59.0509 163.956 59.0509Z" fill="#039E00"/>
<path d="M145.593 50.5557C145.469 53.257 143.184 58.0884 139.048 59.8458C138.787 59.9576 138.818 60.3302 139.098 60.3861C141.358 60.8581 147.382 61.4232 151.828 55.5671L145.593 50.5557Z" fill="#039E00"/>
<path d="M148.357 37.3036C148.406 36.3969 148.605 35.5461 148.953 34.7451C149.301 33.944 149.791 33.2484 150.431 32.6585C151.071 32.0685 151.847 31.6028 152.76 31.255C153.673 30.9073 154.728 30.7334 155.921 30.7334C157.1 30.7334 158.15 30.9073 159.069 31.255C159.988 31.6028 160.771 32.0685 161.404 32.6585C162.044 33.2484 162.534 33.944 162.882 34.7451C163.23 35.5461 163.428 36.3969 163.478 37.3036C163.509 37.9991 163.528 38.7257 163.528 39.4833C163.528 40.2409 163.509 40.9551 163.478 41.6133C163.428 42.52 163.23 43.3707 162.882 44.1718C162.534 44.9729 162.044 45.6684 161.404 46.2708C160.764 46.867 159.988 47.3389 159.069 47.6743C158.15 48.0158 157.1 48.1835 155.921 48.1835C154.728 48.1835 153.673 48.0158 152.76 47.6743C151.847 47.3327 151.071 46.867 150.431 46.2708C149.791 45.6747 149.301 44.9729 148.953 44.1718C148.605 43.3707 148.406 42.52 148.357 41.6133C148.326 40.9488 148.307 40.2409 148.307 39.4833C148.307 38.7257 148.326 37.9991 148.357 37.3036ZM158.995 41.4953C159.013 41.2035 159.026 40.8805 159.044 40.5266C159.063 40.1726 159.069 39.8062 159.069 39.4398C159.069 39.0672 159.063 38.707 159.044 38.3593C159.026 38.0115 159.013 37.701 158.995 37.4278C158.963 37.0241 158.877 36.6515 158.74 36.3162C158.603 35.9746 158.411 35.6828 158.156 35.4344C157.908 35.186 157.597 34.9872 157.225 34.8382C156.852 34.6954 156.417 34.6209 155.914 34.6209C155.411 34.6209 154.977 34.6954 154.604 34.8382C154.231 34.981 153.921 35.1798 153.673 35.4344C153.424 35.6828 153.232 35.9808 153.089 36.3162C152.952 36.6577 152.865 37.0241 152.834 37.4278C152.803 37.701 152.778 38.0115 152.772 38.3593C152.766 38.707 152.76 39.0672 152.76 39.4398C152.76 39.8124 152.766 40.1726 152.772 40.5266C152.778 40.8805 152.797 41.2035 152.834 41.4953C152.896 42.3026 153.176 42.9733 153.673 43.5074C154.163 44.0414 154.915 44.3085 155.914 44.3085C156.914 44.3085 157.659 44.0414 158.144 43.5074C158.628 42.9733 158.914 42.3026 158.995 41.4953Z" fill="#FAFAFA"/>
<path d="M180.68 47.1402C180.73 47.2023 180.754 47.2955 180.754 47.4072C180.754 47.5501 180.699 47.6805 180.599 47.7798C180.494 47.8854 180.369 47.9351 180.227 47.9351H176.364C176.14 47.9351 175.954 47.8854 175.805 47.7923C175.662 47.6929 175.513 47.5563 175.37 47.3824L170.794 41.6133V47.283C170.794 47.4631 170.731 47.6122 170.601 47.7426C170.471 47.873 170.322 47.9351 170.142 47.9351H166.968C166.788 47.9351 166.639 47.873 166.509 47.7426C166.378 47.6122 166.316 47.4631 166.316 47.283V31.6338C166.316 31.4538 166.378 31.3047 166.509 31.1743C166.639 31.0439 166.794 30.9818 166.968 30.9818H170.142C170.322 30.9818 170.471 31.0439 170.601 31.1743C170.731 31.3047 170.794 31.46 170.794 31.6338V36.7447L175.06 31.5096C175.141 31.4103 175.246 31.2985 175.377 31.1681C175.507 31.0377 175.724 30.9756 176.029 30.9756H179.81C179.953 30.9756 180.084 31.0315 180.189 31.1308C180.295 31.2364 180.345 31.3606 180.345 31.5034C180.345 31.6152 180.32 31.7084 180.27 31.7705L174.284 39.0858L180.68 47.1402Z" fill="#FAFAFA"/>
<path d="M223.324 57.9516L219.84 59.0011L217.325 50.5989L220.797 49.5557L223.324 57.9516Z" fill="#E0E0E0"/>
<path d="M234.197 50.4933C234.334 50.9466 233.887 51.9154 233.21 52.1203C233.21 52.1203 233.533 52.4619 233.701 53.0083C233.899 53.6604 233.371 54.536 232.322 54.8465C231.279 55.157 224.355 57.2436 224.355 57.2436L222.007 49.4438H222.001C222.001 49.4438 223.355 45.991 223.417 45.4756C223.498 44.9664 222.684 43.0413 222.579 42.6811C222.492 42.3892 223.758 41.849 224.777 42.265C225.013 42.3582 225.236 42.501 225.429 42.7122C225.826 43.1469 226.124 43.5754 226.342 44.0225C226.683 44.7056 226.826 45.4197 226.826 46.227L231.639 44.7801C232.043 44.6621 232.39 44.6932 232.67 44.8111C233.098 44.9912 233.372 45.3576 233.465 45.6557C233.688 46.3574 233.278 46.8977 233.055 47.1088C233.055 47.1088 234.079 47.0219 234.371 47.9907C234.533 48.5309 234.266 49.2513 233.576 49.6053C233.583 49.5928 233.999 49.8164 234.197 50.4933Z" fill="#E0E0E0"/>
<path d="M273.24 145.071L268.781 143.997L271.383 133.229L275.842 134.303L273.24 145.071Z" fill="#E0E0E0"/>
<path d="M289.864 143.861C289.727 144.438 288.622 145.214 287.752 145.003C287.752 145.003 287.889 145.587 287.721 146.283C287.523 147.121 286.386 147.736 285.051 147.407C283.716 147.084 274.829 144.947 274.829 144.947L277.239 134.943L277.233 134.937C277.233 134.937 280.909 132.031 281.306 131.509C281.716 131 282.058 128.392 282.17 127.926C282.263 127.547 283.983 127.771 284.834 128.87C285.026 129.124 285.181 129.422 285.256 129.776C285.411 130.509 285.467 131.167 285.417 131.788C285.355 132.757 285.057 133.62 284.542 134.502L290.715 135.986C291.23 136.111 291.59 136.371 291.82 136.676C292.174 137.141 292.242 137.719 292.149 138.104C291.944 139.011 291.149 139.34 290.777 139.433C290.777 139.433 291.95 139.992 291.652 141.234C291.485 141.929 290.733 142.544 289.758 142.488C289.764 142.495 290.075 142.998 289.864 143.861Z" fill="#E0E0E0"/>
<path d="M47.7051 138.632L52.5799 140.097L56.1072 128.336L51.2386 126.87L47.7051 138.632Z" fill="#E0E0E0"/>
<path d="M32.472 128.18C32.2857 128.814 32.9067 130.174 33.8568 130.459C33.8568 130.459 33.4035 130.938 33.1737 131.701C32.8942 132.614 33.6395 133.838 35.105 134.272C36.5644 134.707 46.2644 137.632 46.2644 137.632L49.5495 126.709H49.5557C49.5557 126.709 47.6616 121.877 47.5685 121.151C47.4567 120.437 48.5931 117.741 48.7422 117.238C48.8664 116.829 47.0903 116.077 45.662 116.655C45.3329 116.791 45.0224 116.99 44.7491 117.282C44.1902 117.897 43.7742 118.493 43.4699 119.114C42.9855 120.07 42.793 121.07 42.793 122.2L36.0551 120.17C35.49 120.002 34.9994 120.052 34.6144 120.213C34.0121 120.461 33.627 120.977 33.5028 121.393C33.1923 122.38 33.7699 123.138 34.0741 123.43C34.0741 123.43 32.6396 123.312 32.2298 124.666C32 125.423 32.3788 126.429 33.3414 126.926C33.3352 126.926 32.7576 127.237 32.472 128.18Z" fill="#E0E0E0"/>
</svg>
