<svg width="311" height="312" viewBox="0 0 311 312" fill="none" xmlns="http://www.w3.org/2000/svg">
<path d="M53.8716 162.68C-2.25766 195.086 -2.25766 247.627 53.8716 280.033C110.001 312.439 201.006 312.439 257.129 280.033C313.258 247.627 313.258 195.086 257.129 162.68C201 130.274 109.995 130.28 53.8716 162.68Z" fill="#F5F5F5"/>
<path d="M35.79 32.2344H42.8186C42.7813 32.0167 42.7564 31.7928 42.7564 31.5626V30.0325C42.7564 27.3144 45.3004 25.1125 48.4415 25.1125C49.7104 25.1125 50.8797 25.4795 51.8314 26.089C52.3477 22.4503 55.9242 19.6265 60.2657 19.6265C64.9618 19.6265 68.7685 22.9231 68.7685 26.9909V29.2737C68.7685 30.3249 68.5072 31.3263 68.0469 32.2344H73.8875C75.6291 32.2344 77.0411 33.4597 77.0411 34.965C77.0411 36.4702 75.6291 37.6956 73.8875 37.6956H35.79C34.0484 37.6956 32.6365 36.4702 32.6365 34.965C32.6365 33.4535 34.0484 32.2344 35.79 32.2344Z" fill="#F5F5F5"/>
<path d="M46.9174 59.6523H41.8606C41.8855 59.4968 41.9041 59.335 41.9041 59.1671V58.0662C41.9041 56.1131 40.0754 54.527 37.8176 54.527C36.9032 54.527 36.0635 54.7882 35.3793 55.2298C35.0124 52.6112 32.4373 50.5835 29.3148 50.5835C25.9374 50.5835 23.2006 52.9533 23.2006 55.8767V57.5188C23.2006 58.2776 23.3872 58.9929 23.7168 59.646H19.5183C18.2681 59.646 17.248 60.5231 17.248 61.6116C17.248 62.6938 18.2619 63.5771 19.5183 63.5771H46.9174C48.1677 63.5771 49.1877 62.7001 49.1877 61.6116C49.1877 60.5293 48.1739 59.6523 46.9174 59.6523Z" fill="#F5F5F5"/>
<path d="M249.833 69.3865H256.861C256.824 69.1688 256.799 68.9449 256.799 68.7147V67.1846C256.799 64.4665 259.343 62.2646 262.484 62.2646C263.753 62.2646 264.922 62.6316 265.874 63.2411C266.39 59.6024 269.967 56.7786 274.308 56.7786C279.005 56.7786 282.811 60.0752 282.811 64.143V66.4258C282.811 67.477 282.55 68.4784 282.09 69.3865H287.93C289.672 69.3865 291.084 70.6118 291.084 72.1171C291.084 73.6223 289.672 74.8477 287.93 74.8477H249.833C248.091 74.8477 246.679 73.6223 246.679 72.1171C246.679 70.6056 248.091 69.3865 249.833 69.3865Z" fill="#F5F5F5"/>
<path d="M287.799 39.5242H282.742C282.767 39.3687 282.786 39.207 282.786 39.0391V37.9443C282.786 35.9913 280.957 34.4052 278.699 34.4052C277.785 34.4052 276.945 34.6664 276.261 35.108C275.894 32.4894 273.319 30.4617 270.197 30.4617C266.819 30.4617 264.082 32.8315 264.082 35.7549V37.397C264.082 38.1558 264.269 38.8711 264.599 39.5242H260.4C259.15 39.5242 258.13 40.4012 258.13 41.4897C258.13 42.572 259.144 43.4553 260.4 43.4553H287.799C289.05 43.4553 290.07 42.5782 290.07 41.4897C290.063 40.4075 289.05 39.5242 287.799 39.5242Z" fill="#F5F5F5"/>
<path d="M229.929 33.9015H225.786C225.817 33.69 225.842 33.4723 225.842 33.2546V31.7866C225.842 29.168 223.392 27.047 220.369 27.047C219.143 27.047 218.017 27.4015 217.109 27.9862C216.612 24.4781 213.172 21.76 208.986 21.76C204.464 21.76 200.8 24.9322 200.8 28.8508V31.0527C200.8 32.0665 201.049 33.0307 201.491 33.9015H198.611C196.932 33.9015 195.576 35.077 195.576 36.5325C195.576 37.9818 196.938 39.1636 198.611 39.1636H229.923C231.602 39.1636 232.958 37.988 232.958 36.5325C232.964 35.077 231.602 33.9015 229.929 33.9015Z" fill="#F5F5F5"/>
<path d="M21.2537 217.435C21.4403 216.701 21.3719 215.382 20.1465 214.362C18.9212 213.342 17.2604 212.919 17.0987 213.019C16.937 213.118 17.0987 214.81 18.38 216.172C19.6303 217.516 20.7934 217.41 21.2537 217.435Z" fill="#FF0000"/>
<path d="M21.9817 221.329C21.8075 220.595 21.1482 219.45 19.587 219.096C18.0257 218.741 16.3588 219.127 16.2593 219.289C16.1597 219.45 17.0803 220.881 18.8406 221.515C20.5635 222.137 21.5525 221.509 21.9817 221.329Z" fill="#FF0000"/>
<path d="M24.9673 221.914C25.6639 221.615 26.6778 220.769 26.7586 219.177C26.8395 217.584 26.317 216.116 26.1366 216.048C25.9563 215.98 24.5443 217.236 24.14 218.86C23.7046 220.632 24.7185 221.534 24.9673 221.914Z" fill="#FF0000"/>
<path d="M26.6962 235.361C27.0445 233.974 26.945 232.481 26.7957 231.069C26.6589 229.744 26.4039 228.426 26.0493 227.138C25.3154 224.47 24.2082 221.864 22.7901 219.488C21.8882 217.97 20.8619 216.396 19.5121 215.239C19.481 215.214 19.4064 215.27 19.4313 215.302C20.8059 217 21.3284 217.964 22.1183 219.357C22.8087 220.57 23.4867 221.82 24.0527 223.257C25.0417 225.788 25.5766 227.903 25.9312 230.404C26.1613 232.027 26.1178 233.651 26.1613 235.286C26.1675 235.641 26.6029 235.709 26.6962 235.361Z" fill="#37474F"/>
<path d="M24.65 223.17C24.9921 222.523 25.2285 221.851 25.4151 221.148C25.5892 220.495 25.7136 219.768 25.6266 219.096C25.6141 219.003 25.5395 219.127 25.527 219.189C25.4213 219.811 25.272 220.377 25.0916 220.987C24.9113 221.615 24.6003 222.206 24.2519 222.759C24.1649 222.896 24.1586 223.133 24.2768 223.257C24.4012 223.369 24.5816 223.307 24.65 223.17Z" fill="#37474F"/>
<path d="M24.4945 222.952C23.8477 222.168 23.1324 221.708 22.1061 221.117C21.6707 220.868 21.3223 220.713 20.8558 220.526C20.3893 220.34 19.5621 220.134 19.2573 220.153C19.2386 220.153 19.108 220.197 19.1453 220.209C19.5745 220.333 20.2027 220.576 20.6506 220.775C21.1979 221.018 21.5214 221.192 21.9381 221.459C22.9084 222.081 23.518 222.56 24.2271 223.257C24.3764 223.4 24.6065 223.089 24.4945 222.952Z" fill="#37474F"/>
<path d="M24.1772 226.809C24.1647 226.056 23.7542 224.8 22.305 224.128C20.8557 223.462 19.1452 223.487 19.0146 223.624C18.884 223.761 19.4873 225.353 21.0734 226.336C22.6284 227.306 23.7293 226.902 24.1772 226.809Z" fill="#FF0000"/>
<path d="M26.2984 228.917C25.8319 228.015 25.2285 227.418 24.3453 226.622C23.9721 226.286 23.6611 226.062 23.2444 225.782C22.8276 225.502 22.0626 225.129 21.764 225.086C21.7453 225.079 21.6085 225.098 21.6458 225.117C22.0377 225.328 22.6037 225.695 22.9956 225.981C23.4807 226.33 23.7606 226.572 24.1152 226.921C24.93 227.729 25.4276 228.326 25.9812 229.154C26.0931 229.328 26.3792 229.073 26.2984 228.917Z" fill="#37474F"/>
<path d="M31.4858 210.089C31.1499 209.343 30.9634 207.918 32.0767 206.587C33.1901 205.256 34.8819 204.491 35.0748 204.566C35.2676 204.64 35.4169 206.482 34.3222 208.186C33.2399 209.859 31.9772 209.965 31.4858 210.089Z" fill="#FF0000"/>
<path d="M31.4734 214.381C31.5169 213.56 32.0021 212.21 33.6006 211.532C35.1992 210.854 37.0527 210.941 37.1896 211.097C37.3264 211.252 36.6173 212.957 34.8633 213.977C33.1403 214.978 31.9585 214.499 31.4734 214.381Z" fill="#FF0000"/>
<path d="M28.388 215.588C27.5857 215.407 26.3354 214.692 25.9436 213.006C25.5517 211.321 25.8254 209.648 25.9996 209.542C26.1799 209.436 27.9278 210.506 28.6742 212.167C29.489 213.977 28.5871 215.127 28.388 215.588Z" fill="#FF0000"/>
<path d="M29.1532 230.292C28.5064 228.874 28.326 227.263 28.2078 225.72C28.0958 224.277 28.1145 222.821 28.2451 221.378C28.5126 218.387 29.1906 215.389 30.2417 212.577C30.9135 210.786 31.7034 208.901 32.9226 207.408C32.9474 207.377 33.0407 207.421 33.0221 207.458C31.8838 209.536 31.5168 210.668 30.9322 212.31C30.4283 213.734 29.9494 215.202 29.626 216.85C29.0599 219.749 28.8982 222.112 29.004 224.849C29.0724 226.628 29.4331 228.357 29.7068 230.111C29.769 230.491 29.315 230.646 29.1532 230.292Z" fill="#37474F"/>
<path d="M28.9665 216.869C28.4751 216.241 28.0895 215.569 27.7536 214.854C27.4426 214.188 27.1689 213.435 27.1316 212.702C27.1254 212.596 27.2311 212.714 27.256 212.776C27.4924 213.423 27.7598 214.001 28.0708 214.617C28.3881 215.252 28.8359 215.824 29.3148 216.346C29.433 216.477 29.489 216.732 29.3833 216.881C29.2775 217.037 29.0723 217.006 28.9665 216.869Z" fill="#37474F"/>
<path d="M29.0973 216.608C29.6384 215.644 30.3102 215.015 31.2992 214.182C31.7159 213.834 32.058 213.597 32.5245 213.305C32.9848 213.019 33.8307 212.639 34.1603 212.602C34.1852 212.602 34.3283 212.621 34.291 212.639C33.8618 212.857 33.2336 213.236 32.792 213.535C32.2508 213.896 31.9398 214.151 31.548 214.518C30.6336 215.37 30.0738 216.004 29.4518 216.881C29.3087 217.056 29.004 216.769 29.0973 216.608Z" fill="#37474F"/>
<path d="M30.1795 220.663C30.0488 219.854 30.2417 218.43 31.6598 217.441C33.078 216.446 34.9129 216.147 35.0808 216.272C35.2488 216.396 34.9129 218.212 33.4076 219.568C31.9335 220.899 30.6833 220.676 30.1795 220.663Z" fill="#FF0000"/>
<path d="M28.3257 223.331C28.6491 222.28 29.1778 221.521 29.9678 220.501C30.3037 220.072 30.5898 219.767 30.9816 219.394C31.3735 219.015 32.1199 218.474 32.4309 218.368C32.4558 218.362 32.5988 218.355 32.5615 218.38C32.1821 218.679 31.6534 219.189 31.2864 219.562C30.8386 220.029 30.5836 220.34 30.2726 220.781C29.5573 221.801 29.1405 222.541 28.7113 223.53C28.6305 223.73 28.2697 223.512 28.3257 223.331Z" fill="#37474F"/>
<path d="M290.524 217.435C290.337 216.701 290.406 215.382 291.631 214.362C292.856 213.342 294.517 212.919 294.679 213.019C294.841 213.118 294.679 214.81 293.398 216.172C292.154 217.516 290.984 217.41 290.524 217.435Z" fill="#FF0000"/>
<path d="M289.802 221.329C289.976 220.595 290.636 219.45 292.197 219.096C293.758 218.741 295.425 219.127 295.525 219.289C295.624 219.45 294.704 220.881 292.943 221.515C291.214 222.137 290.225 221.509 289.802 221.329Z" fill="#FF0000"/>
<path d="M286.81 221.914C286.114 221.615 285.1 220.769 285.019 219.177C284.938 217.584 285.461 216.116 285.641 216.048C285.821 215.98 287.233 217.236 287.638 218.86C288.079 220.632 287.065 221.534 286.81 221.914Z" fill="#FF0000"/>
<path d="M285.087 235.361C284.739 233.974 284.839 232.481 284.988 231.069C285.125 229.744 285.38 228.426 285.734 227.138C286.468 224.47 287.575 221.864 288.994 219.488C289.895 217.97 290.922 216.396 292.272 215.239C292.303 215.214 292.377 215.27 292.352 215.302C290.978 217 290.455 217.964 289.665 219.357C288.975 220.57 288.297 221.82 287.731 223.257C286.742 225.788 286.207 227.903 285.853 230.404C285.622 232.027 285.666 233.651 285.622 235.286C285.61 235.641 285.175 235.709 285.087 235.361Z" fill="#37474F"/>
<path d="M287.127 223.17C286.785 222.523 286.549 221.851 286.362 221.148C286.188 220.495 286.064 219.768 286.151 219.096C286.163 219.003 286.238 219.127 286.25 219.189C286.356 219.811 286.505 220.377 286.686 220.987C286.866 221.615 287.177 222.206 287.525 222.759C287.613 222.896 287.619 223.133 287.501 223.257C287.376 223.369 287.202 223.307 287.127 223.17Z" fill="#37474F"/>
<path d="M287.283 222.952C287.93 222.168 288.646 221.708 289.672 221.117C290.107 220.868 290.456 220.713 290.922 220.526C291.389 220.34 292.216 220.134 292.521 220.153C292.539 220.153 292.67 220.197 292.633 220.209C292.203 220.333 291.575 220.576 291.127 220.775C290.58 221.018 290.257 221.192 289.84 221.459C288.869 222.081 288.26 222.56 287.551 223.257C287.408 223.4 287.171 223.089 287.283 222.952Z" fill="#37474F"/>
<path d="M287.6 226.809C287.613 226.056 288.023 224.799 289.473 224.128C290.922 223.456 292.632 223.487 292.763 223.624C292.894 223.761 292.29 225.353 290.704 226.336C289.149 227.306 288.054 226.902 287.6 226.809Z" fill="#FF0000"/>
<path d="M285.48 228.917C285.946 228.015 286.549 227.418 287.433 226.622C287.806 226.286 288.117 226.062 288.534 225.782C288.95 225.502 289.715 225.129 290.014 225.086C290.033 225.079 290.169 225.098 290.132 225.117C289.74 225.328 289.174 225.695 288.782 225.981C288.297 226.33 288.017 226.572 287.663 226.921C286.848 227.729 286.35 228.326 285.797 229.154C285.691 229.328 285.399 229.073 285.48 228.917Z" fill="#37474F"/>
<path d="M281.536 210.089C281.872 209.343 282.058 207.918 280.945 206.587C279.832 205.256 278.14 204.491 277.947 204.566C277.754 204.64 277.605 206.482 278.7 208.186C279.782 209.859 281.051 209.965 281.536 210.089Z" fill="#FF0000"/>
<path d="M281.554 214.381C281.511 213.56 281.026 212.21 279.427 211.532C277.829 210.854 275.975 210.941 275.838 211.097C275.701 211.252 276.411 212.957 278.165 213.977C279.887 214.978 281.069 214.499 281.554 214.381Z" fill="#FF0000"/>
<path d="M284.64 215.588C285.442 215.407 286.692 214.692 287.084 213.006C287.476 211.321 287.202 209.648 287.028 209.542C286.848 209.436 285.1 210.506 284.354 212.167C283.532 213.977 284.441 215.127 284.64 215.588Z" fill="#FF0000"/>
<path d="M283.868 230.292C284.515 228.874 284.695 227.263 284.814 225.72C284.926 224.277 284.907 222.821 284.776 221.378C284.509 218.387 283.831 215.389 282.78 212.577C282.108 210.786 281.318 208.901 280.099 207.408C280.074 207.377 279.981 207.421 279.999 207.458C281.138 209.536 281.505 210.668 282.089 212.31C282.593 213.734 283.072 215.202 283.395 216.85C283.961 219.749 284.123 222.112 284.017 224.849C283.949 226.628 283.588 228.357 283.315 230.111C283.252 230.491 283.706 230.646 283.868 230.292Z" fill="#37474F"/>
<path d="M284.055 216.869C284.547 216.241 284.932 215.569 285.268 214.854C285.579 214.188 285.853 213.435 285.89 212.702C285.896 212.596 285.791 212.714 285.766 212.776C285.529 213.423 285.262 214.001 284.951 214.617C284.634 215.252 284.186 215.824 283.707 216.346C283.582 216.477 283.533 216.732 283.638 216.881C283.75 217.037 283.949 217.006 284.055 216.869Z" fill="#37474F"/>
<path d="M283.931 216.608C283.389 215.644 282.718 215.015 281.729 214.182C281.312 213.834 280.97 213.597 280.503 213.305C280.043 213.019 279.197 212.639 278.868 212.602C278.843 212.602 278.7 212.621 278.737 212.639C279.166 212.857 279.794 213.236 280.236 213.535C280.777 213.896 281.088 214.151 281.48 214.518C282.394 215.37 282.954 216.004 283.576 216.881C283.713 217.056 284.024 216.769 283.931 216.608Z" fill="#37474F"/>
<path d="M282.842 220.663C282.973 219.854 282.78 218.43 281.362 217.441C279.944 216.446 278.109 216.147 277.941 216.272C277.773 216.396 278.109 218.212 279.614 219.568C281.088 220.899 282.344 220.676 282.842 220.663Z" fill="#FF0000"/>
<path d="M284.702 223.331C284.378 222.28 283.85 221.521 283.06 220.501C282.724 220.072 282.438 219.767 282.046 219.394C281.654 219.015 280.908 218.474 280.597 218.368C280.572 218.362 280.429 218.355 280.466 218.38C280.845 218.679 281.374 219.189 281.741 219.562C282.189 220.029 282.444 220.34 282.755 220.781C283.47 221.801 283.887 222.541 284.31 223.53C284.397 223.73 284.758 223.512 284.702 223.331Z" fill="#37474F"/>
<path d="M150.263 289.239C168.713 289.239 183.67 280.603 183.67 269.95C183.67 259.298 168.713 250.662 150.263 250.662C131.812 250.662 116.855 259.298 116.855 269.95C116.855 280.603 131.812 289.239 150.263 289.239Z" fill="#E0E0E0"/>
<path d="M254.672 258.188C273.122 258.188 288.079 249.553 288.079 238.9C288.079 228.247 273.122 219.612 254.672 219.612C236.221 219.612 221.264 228.247 221.264 238.9C221.264 249.553 236.221 258.188 254.672 258.188Z" fill="#E0E0E0"/>
<path d="M56.6703 258.188C75.1208 258.188 90.0779 249.553 90.0779 238.9C90.0779 228.247 75.1208 219.612 56.6703 219.612C38.2198 219.612 23.2627 228.247 23.2627 238.9C23.2627 249.553 38.2198 258.188 56.6703 258.188Z" fill="#E0E0E0"/>
<path d="M268.493 246.831C268.704 248.945 269.071 250.395 269.898 251.601C270.726 252.814 272.212 253.144 273.686 252.715C275.161 252.292 276.722 251.153 277.381 249.399C277.941 247.913 277.928 246.296 277.512 244.343L268.493 246.831Z" fill="#263238"/>
<path d="M274.544 232.773C274.887 234.179 275.055 235.143 275.521 237.071C276.243 240.063 277.02 241.332 277.462 243.82C277.965 246.663 277.673 248.043 276.56 249.729C275.446 251.415 271.982 253.343 270.072 250.942C268.511 248.983 268.362 246.75 268.38 243.888C268.399 240.934 268.107 238.9 267.889 236.667C267.889 236.655 267.889 236.636 267.883 236.623C267.808 235.858 267.684 234.353 267.572 233.594C267.323 231.921 268.468 231.735 268.909 231.498C269.531 231.162 270.197 230.901 270.893 230.777C271.602 230.652 272.324 230.739 273.033 230.87C273.842 231.019 274.215 231.424 274.544 232.773Z" fill="#37474F"/>
<path d="M227.229 237.942C227.098 237.948 226.936 239.366 227.677 239.945C228.529 240.61 231.01 241.674 234.232 241.176C237.454 240.673 239.177 239.659 240.44 238.577C241.703 237.494 243.469 235.964 244.925 235.61C246.274 235.28 248.047 234.54 248.47 234.123C248.893 233.706 248.781 231.909 248.781 231.909L227.229 237.942Z" fill="#263238"/>
<path d="M247.245 226.105C247.394 226.105 247.544 226.13 247.674 226.205C248.029 226.404 248.11 226.871 248.153 227.281C248.19 227.629 248.184 228.009 248.309 228.338C248.725 229.433 249.011 231.368 248.725 232.525C248.501 233.439 246.069 234.26 244.67 234.826C243.239 235.398 241.603 236.543 240.167 237.756C238.686 239.012 235.526 240.318 233.418 240.411C230.202 240.555 228.094 239.777 227.422 238.682C226.588 237.326 227.185 236.512 230.83 234.745C231.521 234.409 233.934 232.935 234.761 232.4C235.632 231.834 236.459 231.212 237.225 230.515C237.61 230.161 237.977 229.794 238.319 229.402C238.836 228.811 239.489 228.345 240.092 227.841C240.534 227.474 240.975 227.107 241.467 226.827C242.269 226.373 243.183 226.155 244.091 226.093C245.024 226.031 245.908 226.217 246.847 226.124C246.977 226.118 247.114 226.105 247.245 226.105Z" fill="#37474F"/>
<path d="M274.165 232.033C273.45 225.869 273.941 219.04 273.014 209.411C272.865 206.942 272.666 204.292 272.399 201.941C271.497 194.041 270.122 191.386 269.942 189.862C269.942 189.862 269.861 174.305 268.617 156.989C268.032 148.847 265.482 146.471 263.349 142.223L239.097 143.174C236.932 153.96 237.43 178.305 237.952 189.314C238.22 194.925 239.688 215.065 239.762 224.196C239.787 226.877 239.246 227.841 238.288 228.911C236.292 231.156 233.723 232.755 231.278 234.503C230.606 235.97 234.021 236.816 236.87 235.255C239.283 233.937 242.051 232.319 242.879 231.679C244.962 230.062 247.208 228.961 247.631 226.665C247.799 225.732 252.184 204.298 252.271 199.627C252.345 195.609 251.562 188.829 251.562 188.829L253.552 171.743C253.552 171.743 256.22 184.755 257.807 191.634C259.393 198.507 261.147 206.674 262.957 213.473C264.748 221.316 267.174 228.917 267.709 232.86C267.858 233.8 269.345 243.03 269.892 245.133C270.439 247.241 275.241 247.098 275.397 243.434C275.502 241.009 274.302 233.19 274.165 232.033Z" fill="#B16668"/>
<path d="M264.033 142.372C266.987 147.111 269.195 150.987 270.06 165.392C270.925 179.798 270.844 188.555 270.974 190.291C271.105 192.026 272.026 193.295 273.294 201.823C274.563 210.35 273.941 220.731 273.941 220.731C273.941 220.731 273.126 222.324 269.743 222.753C266.62 223.151 265.022 222.081 265.022 222.081C265.022 222.081 260.774 206.282 259.38 200.417C258.155 195.26 253.751 175.301 253.751 175.301L252.265 189.14C252.265 189.14 253.546 194.178 252.532 201.742C251.524 209.255 249.839 216.719 249.839 216.719C249.839 216.719 248.278 217.254 244.969 217.354C242.288 217.429 239.315 216.309 239.315 216.309C239.315 216.309 237.71 194.527 237.368 186.018C237.019 177.502 236.341 153.854 239.035 143.554L264.033 142.372Z" fill="#455A64"/>
<path d="M267.902 190.372C267.902 190.372 266.11 188.705 262.814 189.227C259.517 189.75 258.248 191.684 258.248 191.684C261.731 189.992 267.902 190.372 267.902 190.372ZM260.17 192.219C262.136 192.517 264.089 192.598 268.325 191.616C266.285 191.218 260.17 192.219 260.17 192.219Z" fill="#B16668"/>
<path d="M237.424 187.299C237.436 187.598 237.455 187.908 237.467 188.226C238.301 188.132 242.07 187.772 245.889 188.17C244.67 187.554 240.266 186.876 237.424 187.299Z" fill="#B16668"/>
<path d="M237.529 189.432C237.542 189.712 237.56 190.005 237.579 190.297C238.251 190.235 242.182 189.849 243.911 189.327C241.031 189.227 238.17 189.389 237.529 189.432Z" fill="#B16668"/>
<path d="M270.103 193.251C269.077 189.302 269.058 181.707 268.81 175.114C268.735 173.124 268.654 171.058 268.542 168.869C268.113 160.285 267.037 150.694 262.279 144.679L261.924 144.941C265.121 148.984 266.633 154.706 267.404 160.634C262.913 160.242 261.756 156.025 260.189 150.215C259.971 149.419 259.753 148.598 259.511 147.758L259.082 147.87C259.318 148.71 259.542 149.531 259.753 150.321C261.321 156.118 262.565 160.708 267.454 161.069C267.777 163.682 267.964 166.325 268.094 168.888C268.206 171.077 268.281 173.136 268.362 175.126C268.617 181.744 268.635 189.364 269.674 193.351C269.792 193.799 269.917 194.259 270.047 194.75C271.416 199.851 273.008 208.36 272.697 221.839C272.865 221.739 273.021 221.646 273.151 221.546C273.431 208.192 271.845 199.726 270.483 194.638C270.346 194.166 270.222 193.699 270.103 193.251Z" fill="#37474F"/>
<path d="M253.751 175.301L250.287 159.048C250.287 159.048 244.365 158.88 240.95 155.708C241.691 158.513 246.474 160.708 248.62 161.113L249.273 163.974C249.229 165.51 249.179 167.127 249.13 168.788C248.856 177.969 248.657 187.448 249.142 189.582C250.081 193.724 249.833 197.711 249.291 203.129C248.806 208.018 247.967 214.076 247.438 217.174C247.593 217.155 247.743 217.136 247.88 217.118C248.408 214.045 249.105 208.646 249.789 203.154C250.479 197.612 250.66 193.824 249.565 189.476C249.049 187.411 249.304 177.527 249.565 168.801C249.596 167.743 249.627 166.704 249.658 165.697L251.972 175.767L252.246 189.14L253.751 175.301Z" fill="#37474F"/>
<path d="M208.128 118.91C207.848 117.828 207.674 116.721 207.599 115.601C207.562 115.01 207.549 114.413 207.574 113.822C207.612 113.057 207.773 113.387 208.333 113.144C208.495 113.076 208.563 112.889 208.576 112.715C208.588 112.541 208.557 112.367 208.582 112.199C208.625 111.944 208.806 111.72 209.042 111.62C209.173 111.571 209.316 111.552 209.422 111.465C209.652 111.278 209.583 110.905 209.701 110.631C209.857 110.289 210.317 110.171 210.659 110.32C211.001 110.47 211.225 110.818 211.319 111.179C211.337 111.253 211.356 111.328 211.406 111.39C211.499 111.496 211.655 111.496 211.798 111.515C212.233 111.571 212.594 111.888 212.818 112.267C213.377 113.213 213.272 114.413 213.521 115.458C213.688 116.186 213.993 116.845 214.441 117.442C214.51 117.529 214.597 117.635 214.709 117.616C214.827 117.598 214.876 117.448 214.895 117.33C215.051 116.186 214.478 114.979 214.87 113.897C215.007 113.517 215.25 113.188 215.517 112.889C215.573 112.827 215.635 112.759 215.71 112.727C215.89 112.653 216.102 112.79 216.183 112.97C216.32 113.262 216.295 113.692 216.363 114.009C216.55 114.892 216.761 115.713 217.097 116.553C217.383 117.274 217.57 118.027 217.688 118.798C217.787 119.433 217.632 120.297 217.881 120.882C217.943 121.019 218.042 121.137 218.142 121.249C219.019 122.225 223.746 126.194 225.177 127.27C226.203 128.041 227.236 128.812 228.274 129.565C228.274 129.565 232.143 124.751 234.326 122.325C239.383 116.702 240.155 115.626 244.527 116.012L240.596 129.832C240.596 129.832 236.435 133.788 232.031 137.67C229.444 139.952 227.565 140.294 223.796 136.388C221.613 134.124 216.886 128.85 215.822 127.705C214.845 126.654 213.614 125.964 212.544 125.043C210.989 123.706 209.235 122.294 208.545 120.31C208.389 119.843 208.246 119.383 208.128 118.91Z" fill="#B16668"/>
<path d="M244.633 115.788C241.803 115.862 239.806 115.694 237.163 118.68C235.185 120.907 234.445 121.84 234.445 121.84C234.445 121.84 233.916 124.713 235.906 127.798C237.362 130.062 239.271 131.306 239.271 131.306L241.305 129.472L244.633 115.788Z" fill="#263238"/>
<path d="M267.871 149.755C266.136 144.406 264.369 141.868 264.661 139.374C265.109 135.536 266.67 130.703 266.782 128.047C267.174 118.618 265.346 117.673 263.672 116.951C263.672 116.951 260.649 116.298 258.995 115.906C258 115.67 256.016 115.396 256.016 115.396C254.492 115.346 251.394 115.39 250.138 115.52C249.516 115.583 248.402 115.533 248.402 115.533C248.402 115.533 244.546 115.8 244.54 115.8C244.54 115.8 241.635 118.232 238.749 122.138C235.807 126.119 234.681 130.865 238.935 134.398C238.935 134.398 239.134 138.118 239.097 139.778C238.923 142.167 238.133 146.465 237.754 151.41C244.297 157.462 260.513 156.044 267.871 149.755Z" fill="#263238"/>
<path d="M252.569 127.811L245.479 121.691L250.878 93.3522L240.397 84.3084L232.224 87.1509L228.448 106.993L220.524 100.157L249.086 54.0729L237.816 44.3511L229.649 47.1936L199.102 96.1885L197.012 107.136L223.982 130.411L220.86 146.807L231.341 155.857L239.507 153.008L241.013 145.109L241.56 145.575L249.727 142.733L252.569 127.811Z" fill="#FF0000"/>
<path opacity="0.3" d="M252.569 127.811L245.479 121.691L250.878 93.3522L240.397 84.3084L232.224 87.1509L228.448 106.993L220.524 100.157L249.086 54.0729L237.816 44.3511L229.649 47.1936L199.102 96.1885L197.012 107.136L223.982 130.411L220.86 146.807L231.341 155.857L239.507 153.008L241.013 145.109L241.56 145.575L249.727 142.733L252.569 127.811Z" fill="black"/>
<path d="M237.312 124.539L242.711 96.201L232.23 87.1509L226.825 115.489L212.357 102.999L240.92 56.9217L229.649 47.1936L199.103 96.1885L197.013 107.136L223.983 130.411L220.86 146.807L231.341 155.857L234.47 139.455L241.56 145.575L244.403 130.654L237.312 124.539Z" fill="#FF0000"/>
<path opacity="0.3" d="M237.312 124.539L242.711 96.201L232.23 87.1509L226.825 115.489L212.357 102.999L240.92 56.9217L229.649 47.1936L199.103 96.1885L197.013 107.136L223.983 130.411L220.86 146.807L231.341 155.857L234.47 139.455L241.56 145.575L244.403 130.654L237.312 124.539Z" fill="white"/>
<path d="M229.649 47.1936L240.92 56.9217L249.087 54.0729L237.816 44.3511L229.649 47.1936Z" fill="#FF0000"/>
<path opacity="0.5" d="M229.649 47.1936L240.92 56.9217L249.087 54.0729L237.816 44.3511L229.649 47.1936Z" fill="white"/>
<path d="M232.23 87.1509L240.397 84.3083L250.878 93.3522L242.711 96.201L232.23 87.1509Z" fill="#FF0000"/>
<path opacity="0.5" d="M232.23 87.1509L240.397 84.3083L250.878 93.3522L242.711 96.201L232.23 87.1509Z" fill="white"/>
<path d="M237.312 124.539L245.479 121.69L252.57 127.811L244.403 130.653L237.312 124.539Z" fill="#FF0000"/>
<path opacity="0.5" d="M237.312 124.539L245.479 121.69L252.57 127.811L244.403 130.653L237.312 124.539Z" fill="white"/>
<path d="M212.357 103L220.524 100.157L228.449 106.993L226.825 115.489L212.357 103Z" fill="#FF0000"/>
<path opacity="0.5" d="M212.357 103L220.524 100.157L228.449 106.993L226.825 115.489L212.357 103Z" fill="white"/>
<path d="M263.088 104.53C263.735 104.511 264.376 104.256 264.842 103.802C265.564 103.099 265.875 101.986 266.77 101.525C267.398 101.202 268.157 101.295 268.835 101.109C269.893 100.822 270.708 99.8086 270.757 98.7139C270.807 97.5818 270.123 96.4685 270.359 95.3551C270.508 94.6522 271.006 94.08 271.274 93.4145C271.815 92.0647 271.255 90.3667 270.017 89.6016C269.457 89.2595 268.798 89.0978 268.226 88.7805C267.013 88.115 267.206 86.672 266.192 85.7887C265.321 85.0299 264.052 84.7002 262.939 85.061C262.167 85.3098 261.415 85.8447 260.619 85.683C260.171 85.5897 259.804 85.2911 259.4 85.0734C257.944 84.2897 255.929 84.7873 255.008 86.1619C254.722 86.5849 254.517 87.0949 254.075 87.3562C253.242 87.8538 253.105 88.4322 252.713 89.3217C252.321 90.2112 252.265 91.3121 252.825 92.102C253.223 92.6743 253.901 93.035 254.193 93.6695C254.741 94.8513 253.714 96.145 253.59 97.4388C253.348 100.051 255.985 99.8522 257.16 101.351C257.54 101.836 257.776 102.421 258.1 102.95C258.746 104.02 260.121 103.553 261.216 103.988C261.608 104.144 261.987 104.349 262.398 104.455C262.628 104.511 262.858 104.536 263.088 104.53Z" fill="#263238"/>
<path d="M260.103 89.3652C260.768 89.7943 261.384 90.3355 261.757 91.0321C261.9 91.2996 262.006 91.6168 261.919 91.9029C261.757 92.4316 261.085 92.5685 260.538 92.5871C258.467 92.6493 256.097 91.8469 255.344 89.6886C254.374 86.9269 259.145 88.7432 260.103 89.3652Z" fill="#FF0000"/>
<path d="M257.073 110.712C256.358 110.874 255.655 110.383 255.145 109.86C253.97 108.66 253.155 107.142 251.954 105.96C250.499 104.523 248.564 103.684 246.68 102.888C245.691 102.471 244.82 102.21 243.769 102.141C242.886 102.085 242.114 101.277 241.716 100.536C241.268 99.7091 241.163 98.6952 241.43 97.7933C241.685 96.935 242.264 96.1637 242.32 95.268C242.363 94.6273 242.133 94.0053 242.114 93.3647C242.077 92.1704 242.855 90.9949 243.968 90.5657C245.056 90.1427 246.381 90.3791 247.333 89.7073C248.073 89.1911 248.421 88.2394 249.174 87.7542C249.56 87.4992 250.026 87.3935 250.486 87.3375C252.004 87.1571 253.578 87.549 254.834 88.4073C255.344 88.7557 255.811 89.1786 256.377 89.4212C257.111 89.7322 257.944 89.7073 258.716 89.8939C260.165 90.2422 261.645 91.2872 262.118 92.7302C262.441 93.713 262.311 94.7393 262.597 95.7221C262.895 96.7484 263.611 97.6005 264.09 98.5584C264.668 99.7029 264.911 101.009 264.78 102.284C264.73 102.776 264.625 103.279 264.351 103.69C263.66 104.735 262.081 105.015 261.614 106.172C261.471 106.526 261.459 106.912 261.39 107.285C261.067 109.12 259.356 110.607 257.49 110.669C257.08 110.675 257.49 110.619 257.073 110.712Z" fill="#263238"/>
<path d="M258.006 114.015C258.037 113.076 258.386 108.386 258.386 108.386C258.411 108.74 260.071 109.773 261.676 108.031C263.324 106.246 263.181 103.659 262.093 102.583C260.407 100.922 257.882 102.272 257.521 104.548C256.184 105.22 255.767 103.572 256.675 101.731C256.607 100.213 255.046 99.9703 255.245 96.6737C255.114 95.0254 250.119 93.4331 245.728 94.2541C244.814 96.1388 243.675 97.6751 243.843 100.07C243.899 100.916 243.19 101.936 243.091 103.055C242.662 108.031 243.962 110.439 245.523 111.347C246.568 111.956 247.476 112.211 249.348 112.261L249.193 113.822C249.124 114.606 249.18 115.315 248.403 115.539C248.061 116.037 247.196 119.632 249.864 122.145C254.983 121.044 259.039 116.77 259.412 116.012C258.156 115.551 257.969 114.948 258.006 114.015Z" fill="#B16668"/>
<path d="M244.534 99.1432L246.618 98.77C246.537 98.1853 246.002 97.7997 245.43 97.8992C244.851 98.0049 244.453 98.5585 244.534 99.1432Z" fill="#263238"/>
<path d="M252.24 98.6082L253.814 100.064C253.428 100.518 252.757 100.561 252.321 100.157C251.892 99.7526 251.855 99.0622 252.24 98.6082Z" fill="#263238"/>
<path d="M246.524 100.96C246.518 101.445 246.12 101.837 245.635 101.849C245.15 101.855 244.758 101.476 244.758 100.991C244.764 100.505 245.162 100.114 245.647 100.101C246.139 100.095 246.531 100.481 246.524 100.96Z" fill="#263238"/>
<path d="M252.701 101.961C252.694 102.44 252.296 102.838 251.811 102.85C251.326 102.856 250.934 102.477 250.934 101.992C250.94 101.507 251.338 101.115 251.824 101.102C252.315 101.096 252.707 101.482 252.701 101.961Z" fill="#263238"/>
<path d="M245.523 104.604L248.148 105.749L249.174 100.829C248.067 100.767 246.804 102.521 245.523 104.604Z" fill="#9A4A4D"/>
<path d="M248.962 108.287C249.436 108.287 249.821 107.902 249.821 107.428C249.821 106.954 249.436 106.57 248.962 106.57C248.488 106.57 248.104 106.954 248.104 107.428C248.104 107.902 248.488 108.287 248.962 108.287Z" fill="#9A4A4D"/>
<path d="M249.796 107.217C249.814 107.285 249.827 107.36 249.827 107.434C249.827 107.907 249.441 108.293 248.968 108.293C248.751 108.293 248.558 108.212 248.409 108.081C248.707 107.602 249.211 107.279 249.796 107.217Z" fill="#F28F8F"/>
<path d="M249.348 112.255C251.842 112.261 253.596 111.844 254.728 111.129C255.693 110.52 256.408 109.717 256.787 109.033C256.787 109.033 256.252 110.862 254.996 111.82C252.676 113.586 249.23 113.437 249.23 113.437L249.348 112.255Z" fill="#9A4A4D"/>
<path d="M250.523 138.416C250.523 138.416 250.337 139.411 250.324 139.586C250.287 141.483 251.406 142.733 253.154 143.485C255.568 144.53 259.642 145.787 264.866 147.186C270.807 148.779 273.842 147.759 274.93 146.689C276.019 145.619 276.492 143.062 275.82 140.313C273.761 131.823 273.313 130.399 272.318 127.096C269.699 118.444 268.207 118.282 263.996 117.082C261.645 119.694 261.352 124.819 262.752 129.403C264.655 135.617 266.011 139.001 266.011 139.001C266.011 139.001 261.166 138.547 255.692 137.402C253.453 136.93 254.087 133.67 254.087 133.67L250.523 138.416Z" fill="#B16668"/>
<path d="M253.876 132.507C254.205 130.784 254.137 130.417 253.478 129.167C252.824 127.917 252.538 127.338 252.24 126.872C251.941 126.405 250.641 124.981 250.262 124.776C249.584 124.409 249.236 125.777 249.783 126.685C250.33 127.593 251.139 128.725 251.139 128.725L253.876 132.507Z" fill="#9A4A4D"/>
<path d="M252.476 140.313C252.321 139.866 253.932 138.758 253.783 137.937C253.633 137.116 253.484 137.079 253.944 136.37C254.405 135.661 254.38 135.014 254.106 134.622C253.832 134.224 254.697 133.938 254.448 133.055C254.255 132.377 253.254 130.679 252.787 130.013C252.315 129.347 250.38 128.334 249.497 127.923C248.614 127.513 248.421 128.259 248.446 128.825C248.464 129.391 249.155 130.131 249.155 130.131C249.155 130.131 248.129 129.783 247.93 130.113C247.675 130.548 247.749 131.462 248.763 132.227C247.923 131.829 247.525 132.153 247.619 132.831C247.687 133.347 248.116 133.907 248.788 134.473C249.628 135.182 250.679 135.99 250.797 136.867L250.523 138.429L252.476 140.313Z" fill="#B16668"/>
<path d="M252.476 140.313C252.395 140.121 252.52 139.921 252.594 139.754C252.688 139.586 252.793 139.43 252.905 139.281C253.117 138.976 253.347 138.696 253.49 138.398C253.559 138.255 253.608 138.105 253.59 137.981L253.515 137.433C253.484 137.253 253.49 137.004 253.59 136.824C253.689 136.644 253.807 136.5 253.944 136.37C253.882 136.55 253.801 136.718 253.776 136.892C253.739 137.06 253.776 137.197 253.826 137.378C253.882 137.552 253.932 137.732 253.969 137.919C254.013 138.167 253.938 138.385 253.857 138.572C253.671 138.945 253.409 139.219 253.148 139.486L252.756 139.872C252.632 140.002 252.489 140.127 252.476 140.313Z" fill="#9A4A4D"/>
<path d="M249.155 130.119C249.652 130.311 250.138 130.517 250.616 130.741C251.095 130.971 251.562 131.182 252.035 131.518C252.47 131.935 252.731 132.364 253.03 132.812C253.316 133.26 253.577 133.72 253.807 134.205C253.447 133.813 253.104 133.409 252.775 132.999L252.277 132.389C252.115 132.196 251.941 131.972 251.78 131.835C251.394 131.549 250.909 131.294 250.467 131.014C250.013 130.747 249.572 130.455 249.155 130.119Z" fill="#9A4A4D"/>
<path d="M252.968 136.264C252.657 135.872 252.395 135.431 252.128 135.033C251.861 134.641 251.512 134.336 251.114 134.05C250.33 133.459 249.516 132.887 248.763 132.215C249.683 132.619 250.542 133.129 251.357 133.72C251.755 134.019 252.165 134.392 252.395 134.865C252.638 135.331 252.787 135.791 252.968 136.264Z" fill="#9A4A4D"/>
<path d="M266.005 139.007C268.312 138.994 270.396 139.299 272.088 141.078C270.751 138.273 268.033 138.261 265.681 138.155L266.005 139.007Z" fill="#9A4A4D"/>
<path d="M263.666 116.951C267.467 117.853 268.182 118.164 269.252 119.458C270.322 120.751 270.9 121.921 272.237 126.175C271.211 128.819 262.789 130.66 262.789 130.66C262.789 130.66 261.943 128.24 261.632 125.926C261.321 123.606 261.29 119.433 263.666 116.951Z" fill="#455A64"/>
<path d="M129.04 256.099C129.419 250.563 129.619 247.969 130.147 238.073C130.197 235.535 130.284 232.817 130.458 230.404C131.03 222.28 132.075 220.352 132.772 217.566C133.469 214.779 133.382 207.24 134.445 189.781C135.036 180.096 136.442 174.735 137.667 170.051H162.678C165.247 180.998 165.981 204.703 165.906 215.986C165.869 221.739 165.806 251.458 165.95 253.834C166.099 256.347 167.374 257.933 168.357 258.991C170.416 261.205 171.896 262.095 174.477 264.023C174.104 265.012 168.693 264.974 167.15 264.222C164.693 263.021 161.527 261.05 160.687 260.428C158.566 258.854 158.069 257.909 158.031 255.52C158.025 255.221 158.038 254.786 158.05 254.743C158.013 253.349 153.982 232.518 153.105 227.816C152.421 224.165 153.167 217.087 153.167 217.087L150.518 199.689C150.518 199.689 148.185 213.566 146.587 220.601C145.411 225.77 142.506 233.937 140.609 242.203C138.389 250.606 138.208 251.346 136.902 257.361C136.243 260.397 134.626 270.597 133.892 272.693C131.516 279.467 126.142 276.102 125.837 272.358C125.631 269.87 128.959 257.293 129.04 256.099Z" fill="#FFA8A7"/>
<path d="M150.518 199.689L152.452 187.137C152.452 187.137 159.941 186.248 162.665 183.629C162.665 183.629 159.232 188.475 154.15 189.265L152.017 199.671L153.143 216.937L150.518 199.689Z" fill="#AF6152"/>
<path d="M180.194 266.828C180.337 266.828 180.561 268.371 179.808 269.036C178.937 269.801 176.368 271.076 172.954 270.672C169.539 270.268 167.679 269.235 166.304 268.103C164.93 266.977 162.995 265.385 161.453 265.062C160.016 264.763 157.677 263.979 157.211 263.538C156.751 263.102 156.788 261.131 156.788 261.131L180.194 266.828Z" fill="#263238"/>
<path d="M158.001 254.214C158.001 254.214 157.54 254.432 157.459 254.892C157.36 255.433 157.36 256.13 157.148 257.025C156.85 258.269 156.663 260.807 156.862 261.815C157.061 262.822 160.184 263.65 161.683 264.203C163.213 264.769 164.992 265.945 166.553 267.207C168.17 268.514 171.554 269.801 173.781 269.807C177.177 269.82 179.36 268.874 180.026 267.649C180.847 266.131 180.181 265.267 176.263 263.5C175.522 263.164 172.91 261.659 172.02 261.112C171.081 260.533 170.179 259.893 169.346 259.165C168.923 258.798 168.519 258.412 168.145 258.002C167.81 257.641 167.343 257.206 167.144 256.752C167.1 256.652 167.069 256.528 167.026 256.422C166.908 256.117 166.827 255.831 166.765 255.514C166.696 255.19 166.653 254.718 166.342 254.525C165.987 254.307 165.346 254.338 164.948 254.376C164.445 254.419 163.941 254.488 163.449 254.606C162.877 254.743 161.434 254.649 161.104 255.19C160.849 255.607 160.812 256.13 160.8 256.609C160.793 256.839 160.8 257.063 160.8 257.293C160.8 257.392 160.843 257.566 160.706 257.523C160.576 257.486 160.426 257.15 160.377 257.032C160.265 256.777 160.196 256.503 160.072 256.254C159.935 255.968 159.823 255.632 159.58 255.433C158.927 254.892 158.299 255.01 158.113 254.823C158.094 254.817 158.019 254.407 158.001 254.214Z" fill="#37474F"/>
<path d="M176.891 263.786C171.983 264.178 170.465 267.226 170.279 269.104C171.498 269.521 172.761 269.795 173.774 269.801C177.171 269.814 179.497 268.868 180.162 267.643C180.94 266.212 180.386 265.068 176.891 263.786Z" fill="#FAFAFA"/>
<path d="M169.526 263.911C169.47 263.911 169.42 263.892 169.371 263.861C169.265 263.78 169.252 263.625 169.333 263.525C170.005 262.679 171.971 261.553 173.756 261.727C173.886 261.74 173.986 261.858 173.973 261.989C173.961 262.119 173.849 262.219 173.712 262.206C172.045 262.045 170.248 263.158 169.713 263.83C169.663 263.88 169.595 263.911 169.526 263.911Z" fill="#F0F0F0"/>
<path d="M167.399 262.704C167.343 262.704 167.293 262.685 167.244 262.654C167.138 262.573 167.126 262.418 167.206 262.318C167.884 261.473 169.844 260.34 171.629 260.521C171.759 260.533 171.859 260.651 171.846 260.782C171.834 260.913 171.722 261.012 171.585 261C169.918 260.838 168.121 261.951 167.586 262.623C167.536 262.673 167.468 262.704 167.399 262.704Z" fill="#F0F0F0"/>
<path d="M165.421 261.317C165.365 261.317 165.315 261.298 165.265 261.267C165.16 261.186 165.147 261.031 165.228 260.931C165.906 260.085 167.872 258.953 169.651 259.134C169.781 259.146 169.881 259.264 169.868 259.395C169.856 259.526 169.744 259.625 169.607 259.613C167.94 259.451 166.142 260.564 165.608 261.236C165.564 261.286 165.496 261.317 165.421 261.317Z" fill="#F0F0F0"/>
<path d="M163.487 259.93C163.437 259.93 163.381 259.911 163.337 259.88C163.232 259.799 163.213 259.65 163.294 259.544C164.221 258.344 166.342 257.541 168.127 257.716C168.257 257.728 168.357 257.846 168.344 257.977C168.332 258.107 168.22 258.201 168.083 258.195C166.478 258.039 164.5 258.779 163.679 259.837C163.63 259.899 163.555 259.93 163.487 259.93Z" fill="#F0F0F0"/>
<path d="M134.626 273.477C134.234 275.76 133.711 277.246 132.747 278.503C131.783 279.759 130.197 280.014 128.679 279.448C127.162 278.882 125.283 277.601 125.059 275.573C124.835 273.539 124.723 272.152 125.314 270.056L134.626 273.477Z" fill="#263238"/>
<path d="M129.04 256.098C128.393 256.08 128.225 259.146 127.51 262.194C126.745 265.466 126.123 266.722 125.464 269.403C124.717 272.463 125.072 273.906 125.955 275.903C126.832 277.9 130.483 280.17 132.679 277.688C134.47 275.667 134.8 273.247 135.005 270.131C135.217 266.909 135.764 264.794 136.293 262.399C136.84 259.924 137.431 257.678 136.902 257.361C136.821 257.697 136.436 259.451 136.243 259.824C136.156 259.992 135.864 260.396 135.833 259.737C135.826 259.544 135.932 259.103 135.938 258.91C135.951 258.369 135.633 258.244 135.441 258.101C135.011 257.797 134.022 257.342 132.772 257.199C131.516 257.056 130.44 256.895 129.7 257.175C129.252 257.342 129.221 257.747 129.134 258.132C129.028 258.593 128.991 258.879 128.885 258.773C128.667 258.562 129.071 256.434 129.04 256.098Z" fill="#37474F"/>
<path d="M125.09 271.182C124.767 273.098 125.078 274.466 125.768 276.034C126.645 278.03 130.601 280.338 132.797 277.862C133.892 276.631 134.321 275.076 134.626 273.477C133.718 271.275 127.081 269.615 125.09 271.182Z" fill="#FAFAFA"/>
<path d="M133.599 269.944C133.574 269.938 133.549 269.926 133.524 269.913C133.5 269.901 130.663 268.34 127.696 268.688C127.566 268.7 127.448 268.607 127.429 268.476C127.416 268.346 127.51 268.228 127.64 268.209C130.775 267.842 133.668 269.434 133.779 269.503C133.891 269.571 133.929 269.72 133.854 269.832C133.798 269.926 133.699 269.963 133.599 269.944Z" fill="#F0F0F0"/>
<path d="M128.094 266.393C128.007 266.374 127.933 266.306 127.908 266.212C127.883 266.082 127.964 265.957 128.088 265.926C131.074 265.273 134.109 267.089 134.221 267.164C134.333 267.239 134.358 267.388 134.283 267.494C134.209 267.606 134.059 267.63 133.954 267.556C133.929 267.537 130.968 265.777 128.188 266.386C128.163 266.399 128.132 266.399 128.094 266.393Z" fill="#F0F0F0"/>
<path d="M128.437 264.222C128.349 264.203 128.275 264.135 128.256 264.042C128.225 263.911 128.306 263.78 128.437 263.755C131.727 262.972 134.588 264.906 134.688 264.987C134.793 265.068 134.812 265.217 134.731 265.323C134.65 265.429 134.495 265.447 134.395 265.366C134.37 265.348 131.609 263.494 128.542 264.222C128.511 264.228 128.474 264.228 128.437 264.222Z" fill="#F0F0F0"/>
<path d="M128.835 262.088C128.748 262.07 128.673 262.001 128.654 261.914C128.623 261.784 128.698 261.653 128.828 261.622C131.92 260.838 135.005 262.841 135.117 262.928C135.223 263.003 135.247 263.158 135.167 263.264C135.092 263.37 134.936 263.395 134.831 263.314C134.806 263.295 131.814 261.361 128.94 262.088C128.909 262.095 128.872 262.101 128.835 262.088Z" fill="#EBEBEB"/>
<path d="M135.391 170.051C134.75 176.719 134.439 178.554 133.419 193.762C132.43 208.509 133.002 213 132.859 214.779C132.523 218.853 130.72 220.259 130.191 229.875C129.706 238.689 129.42 249.555 129.42 249.555C129.42 249.555 130.608 251.185 133.96 251.483C137.058 251.763 138.607 250.6 138.607 250.6C138.607 250.6 144.348 230.062 145.952 224.893C148.129 217.877 150.524 203.222 150.524 203.222L152.552 217.323C152.552 217.323 151.899 224.078 153.211 230.453C154.835 238.359 156.495 246.955 156.495 246.955C156.495 246.955 158.523 247.801 161.16 247.534C164.787 247.167 165.993 246.327 165.993 246.327C165.993 246.327 167.007 222.442 167.007 213.715C167.007 204.989 166.671 183.567 165.925 169.989L135.391 170.051Z" fill="#455A64"/>
<path d="M150.518 203.222L153.031 187.958C153.031 187.958 158.081 186.627 161.328 183.231C161.086 185.757 156.595 189.003 154.492 189.507L151.687 203.036L152.546 217.323L150.518 203.222Z" fill="#37474F"/>
<path d="M144.652 172.415C143.862 173.665 143.265 175.033 142.761 176.42C142.251 177.807 141.847 179.232 141.499 180.662C141.163 182.099 140.889 183.548 140.696 185.01C140.504 186.472 140.373 187.946 140.404 189.426C140.759 187.989 141.082 186.565 141.412 185.141C141.748 183.716 142.059 182.292 142.401 180.874C142.73 179.456 143.085 178.044 143.446 176.632C143.825 175.232 144.217 173.826 144.652 172.415Z" fill="#37474F"/>
<path d="M142.724 172.949C141.978 173.627 141.325 174.386 140.728 175.189C140.124 175.985 139.596 176.837 139.104 177.708C138.632 178.591 138.202 179.499 137.873 180.451C137.537 181.396 137.282 182.379 137.195 183.38L138.538 180.737C138.992 179.872 139.446 179.008 139.919 178.156C140.379 177.291 140.865 176.445 141.331 175.581C141.81 174.722 142.289 173.858 142.724 172.949Z" fill="#37474F"/>
<path d="M145.934 190.602C145.299 195.174 144.727 199.758 144.148 204.329C143.557 208.901 143.11 216.284 142.27 220.8C141.405 225.316 136.087 243.024 135.391 247.589C136.448 243.092 142.301 225.521 143.184 220.968C144.012 216.409 144.422 209.007 144.864 204.41C145.324 199.82 145.654 195.217 145.934 190.602Z" fill="#37474F"/>
<path d="M162.361 190.602L163.113 202.638C163.225 204.64 163.356 206.649 163.443 208.652C163.536 210.655 163.655 212.664 163.623 214.642C163.58 216.633 163.456 235.846 163.729 239.87C164.202 235.392 164.42 218.704 164.556 214.661C164.544 210.593 164.202 206.6 163.841 202.588C163.462 198.576 162.977 194.583 162.361 190.602Z" fill="#37474F"/>
<path d="M156.11 245.021L156.794 249.201C156.794 249.201 158.467 250.27 161.988 249.91C165.502 249.549 166.012 248.411 166.012 248.411V244.473C166.012 244.473 165.172 245.288 161.956 245.655C158.741 246.016 156.11 245.021 156.11 245.021Z" fill="#37474F"/>
<path d="M129.494 246.644L129.183 250.867C129.183 250.867 130.564 252.298 134.066 252.765C137.568 253.231 138.327 252.242 138.327 252.242L139.247 248.417C139.247 248.417 138.239 249.014 135.03 248.622C131.82 248.224 129.494 246.644 129.494 246.644Z" fill="#37474F"/>
<path d="M159.997 136.892C163.25 137.29 166.677 139.299 172.605 142.584C177.401 145.239 178.962 146.098 178.962 146.098C178.962 146.098 184.286 135.934 186.239 132.638C189.076 127.861 191.333 133.372 190.593 135.337C189.212 139.032 188.758 143.299 186.457 151.298C185.269 155.428 184.442 157.207 179.267 155.515C175.012 154.122 164.27 150.16 164.27 150.16L159.997 136.892Z" fill="#FFA8A7"/>
<path d="M192.733 125.964C193.038 123.967 191.514 121.753 191.514 121.753L191.52 124.751L192.733 125.964Z" fill="#F28F8F"/>
<path d="M159.779 136.457C163.132 136.892 164.712 137.458 166.92 138.814C169.128 140.17 177.22 144.754 177.22 144.754C177.22 144.754 177.824 146.614 177.481 149.817C177.133 153.021 174.925 154.321 174.925 154.321L163.194 150.402L159.779 136.457Z" fill="#263238"/>
<path d="M135.391 139.368C135.391 139.368 132.835 144.568 134.433 154.09C135.167 158.444 135.708 161.828 135.391 167.607C135.124 172.514 134.122 181.446 134.122 181.446C139.16 185.725 161.273 185.931 166.435 179.499C166.435 179.499 166.149 168.944 166.149 160.609C166.149 154.395 165.794 149.183 165.092 146.247C163.499 139.617 161.123 137.464 159.78 136.457C156.16 136.196 154.232 136.158 148.901 136.668C144.758 137.066 139.938 138.149 136.996 138.814C135.808 139.082 135.391 139.368 135.391 139.368Z" fill="#37474F"/>
<path d="M135.391 139.368C131.019 140.885 130.222 142.863 127.112 148.219C124.002 153.574 120.837 160.833 119.624 164.291C118.417 167.75 120.289 171.457 121.913 172.116C123.194 172.638 124.245 173.161 125.825 171.948C126.739 171.245 128.338 169.616 129.277 168.154C132.381 163.302 137.201 154.893 137.201 154.893C137.201 154.893 140.56 143.529 135.391 139.368Z" fill="#FFA8A7"/>
<path d="M126.913 167.868C127.716 163.732 127.025 162.289 126.677 159.701C126.335 157.163 125.912 153.195 125.669 150.831C124.494 153.046 123.362 155.397 122.373 157.592L126.913 167.868Z" fill="#F28F8F"/>
<path d="M122.696 156.205C122.957 157.505 126.129 164.08 131.348 165.231L137.867 154.632C137.867 154.632 140.442 147.895 136.996 138.814C133.083 139.548 131.41 140.382 129.009 144.195C126.608 148.007 122.696 156.205 122.696 156.205Z" fill="#263238"/>
<path d="M119.449 153.133C119.418 153.916 119.561 154.464 119.43 157.051C119.3 159.639 119.194 160.018 119.001 162.755C118.784 165.778 118.242 167.718 120.177 170.804C122.155 173.957 124.4 173.242 126.36 171.513C127.33 168.508 127.044 163.707 125.831 160.223C124.624 156.74 124.394 153.829 124.394 153.829L119.449 153.133Z" fill="#FFA8A7"/>
<path d="M116.812 145.892C116.613 145.669 115.966 145.557 115.68 145.787C115.4 146.011 115.785 146.769 116.32 147.79C116.675 148.461 117.434 150.893 118.193 151.913C118.951 152.934 119.387 153.717 119.486 154.999C120.27 151.739 118.983 148.113 116.812 145.892Z" fill="#F28F8F"/>
<path d="M143.514 132.762C141.387 129.708 139.447 127.792 137.879 124.377C137.245 122.99 136.206 119.781 136.822 117.828C137.251 116.466 137.979 115.365 139.397 115.222C138.881 113.412 139.652 112.23 140.348 111.378C141.045 110.526 142.264 110.146 143.322 110.438C143.359 109.499 143.969 108.597 144.833 108.218C145.698 107.838 146.774 108 147.489 108.616C148.036 107.235 149.349 106.993 149.983 106.98C151.097 106.955 152.191 107.652 152.639 108.672C154.611 106.893 157.92 108.031 158.038 111.496C158.48 111.092 159.176 110.992 159.718 111.247C160.259 111.502 160.613 112.105 160.582 112.703C160.563 113.094 160.389 113.486 160.47 113.872C160.545 114.208 160.825 114.488 161.161 114.562C161.496 114.631 161.87 114.488 162.069 114.208C162.274 114.805 162.15 115.508 161.758 115.999C161.36 116.497 160.707 116.764 160.078 116.702C160.246 117.224 160.072 117.84 159.655 118.201C159.351 118.462 158.859 118.58 158.467 118.543C158.461 118.549 143.595 132.681 143.514 132.762Z" fill="#263238"/>
<path d="M159.226 128.066C158.946 130.691 157.933 132.01 156.247 132.799C155.096 133.341 153.429 133.515 153.429 133.515L153.678 136.314C159.376 141.887 147.004 142.658 144.081 137.589L143.085 129.111C143.085 129.111 142.128 130.517 140.137 129.546C138.775 128.875 137.606 126.859 138.277 124.782C138.949 122.742 140.772 122.617 141.767 123.413C142.874 124.303 142.899 125.248 143.384 125.149C144.137 125 144.429 124.595 144.553 124.098C144.777 123.233 144.746 122.369 144.553 120.527C145.206 120.08 145.94 119.339 146.183 118.742C146.78 117.237 146.183 115.813 145.648 114.905C147.632 113.909 150.027 115.85 152.266 115.893C154.829 115.943 154.835 113.785 156.228 113.81C157.441 114.681 158.212 116.957 158.318 118.462C158.523 121.411 159.786 122.879 159.226 128.066Z" fill="#FFA8A7"/>
<path d="M153.43 133.515C150.413 133.689 147.185 133.073 145.966 132.084C144.746 131.089 144 128.844 144 128.844C144 128.844 144.522 131.736 145.518 132.918C146.513 134.099 148.696 134.398 150.015 134.56C151.333 134.721 153.535 134.697 153.535 134.697L153.43 133.515Z" fill="#F28F8F"/>
<path d="M157.149 119.352L155.09 118.705C155.245 118.126 155.836 117.797 156.408 117.977C156.975 118.158 157.304 118.773 157.149 119.352Z" fill="#263238"/>
<path d="M147.694 120.59L149.417 119.24C149.063 118.748 148.385 118.649 147.912 119.022C147.439 119.389 147.34 120.092 147.694 120.59Z" fill="#263238"/>
<path d="M155.283 121.292C155.326 121.784 155.768 122.151 156.265 122.12C156.763 122.089 157.13 121.666 157.086 121.174C157.043 120.683 156.601 120.316 156.104 120.347C155.606 120.378 155.239 120.801 155.283 121.292Z" fill="#263238"/>
<path d="M148.547 122.126C148.59 122.617 149.032 122.984 149.529 122.953C150.027 122.922 150.394 122.499 150.351 122.008C150.307 121.516 149.865 121.149 149.368 121.181C148.87 121.212 148.503 121.635 148.547 122.126Z" fill="#263238"/>
<path d="M156.091 124.9L153.23 126.163L152.098 120.527C153.137 120.247 154.953 122.978 156.091 124.9Z" fill="#F28F8F"/>
<path d="M152.869 127.979C152.633 127.531 152.086 127.276 151.613 127.17C151.345 127.108 151.066 127.09 150.792 127.108C150.506 127.127 150.213 127.164 149.965 127.313C149.84 127.388 149.977 127.593 150.089 127.587C150.587 127.556 151.066 127.469 151.563 127.562C151.806 127.612 152.055 127.693 152.278 127.799C152.465 127.886 152.627 128.01 152.807 128.097C152.876 128.128 152.888 128.016 152.869 127.979Z" fill="#B16668"/>
<path d="M191.508 120.975C191.508 98.9937 173.7 81.1858 151.718 81.1858C129.749 81.1858 111.941 98.9937 111.941 120.975C111.941 121.958 111.941 125.827 111.941 126.809C111.941 148.779 129.749 166.599 151.718 166.599C173.7 166.599 191.508 148.779 191.508 126.809C191.508 125.827 191.508 121.958 191.508 120.975ZM151.718 145.445C139.191 145.445 128.872 136.021 127.429 123.892C128.872 111.745 139.191 102.334 151.718 102.334C164.258 102.334 174.577 111.745 176.02 123.892C174.583 136.021 164.258 145.445 151.718 145.445Z" fill="#FF0000"/>
<path opacity="0.5" d="M191.508 120.975C191.508 98.9937 173.7 81.1858 151.718 81.1858C129.749 81.1858 111.941 98.9937 111.941 120.975C111.941 121.958 111.941 125.827 111.941 126.809C111.941 148.779 129.749 166.599 151.718 166.599C173.7 166.599 191.508 148.779 191.508 126.809C191.508 125.827 191.508 121.958 191.508 120.975ZM151.718 145.445C139.191 145.445 128.872 136.021 127.429 123.892C128.872 111.745 139.191 102.334 151.718 102.334C164.258 102.334 174.577 111.745 176.02 123.892C174.583 136.021 164.258 145.445 151.718 145.445Z" fill="white"/>
<path d="M151.718 87.0203C129.749 87.0203 111.941 104.828 111.941 126.81C111.941 148.779 129.749 166.599 151.718 166.599C173.7 166.599 191.508 148.779 191.508 126.81C191.508 104.828 173.7 87.0203 151.718 87.0203ZM151.718 151.279C138.202 151.279 127.249 140.313 127.249 126.81C127.249 113.281 138.202 102.328 151.718 102.328C165.247 102.328 176.2 113.281 176.2 126.81C176.2 140.313 165.247 151.279 151.718 151.279Z" fill="#FF0000"/>
<path opacity="0.3" d="M151.718 87.0203C129.749 87.0203 111.941 104.828 111.941 126.81C111.941 148.779 129.749 166.599 151.718 166.599C173.7 166.599 191.508 148.779 191.508 126.81C191.508 104.828 173.7 87.0203 151.718 87.0203ZM151.718 151.279C138.202 151.279 127.249 140.313 127.249 126.81C127.249 113.281 138.202 102.328 151.718 102.328C165.247 102.328 176.2 113.281 176.2 126.81C176.2 140.313 165.247 151.279 151.718 151.279Z" fill="white"/>
<path d="M151.725 145.445C139.204 145.445 128.897 136.04 127.442 123.93C127.33 124.875 127.255 125.833 127.255 126.81C127.255 140.313 138.202 151.279 151.725 151.279C165.253 151.279 176.2 140.313 176.2 126.81C176.2 125.833 176.132 124.875 176.014 123.93C174.558 136.04 164.245 145.445 151.725 145.445Z" fill="#FF0000"/>
<path opacity="0.3" d="M151.725 145.445C139.204 145.445 128.897 136.04 127.442 123.93C127.33 124.875 127.255 125.833 127.255 126.81C127.255 140.313 138.202 151.279 151.725 151.279C165.253 151.279 176.2 140.313 176.2 126.81C176.2 125.833 176.132 124.875 176.014 123.93C174.558 136.04 164.245 145.445 151.725 145.445Z" fill="black"/>
<path d="M193.212 127.201C193.791 126.082 193.704 125.957 193.237 125.497C192.771 125.037 191.769 124.309 190.45 124.539C189.561 124.695 188.665 124.807 188.236 125.105C187.813 125.41 188.342 126.318 189.536 126.411C191.421 126.561 191.483 127.058 191.483 127.058C191.483 127.058 189.748 126.922 189.063 126.984C188.379 127.046 187.191 127.544 186.439 127.774C185.686 128.004 185.674 129.024 187.029 129.179C187.029 129.179 186.078 129.472 185.649 129.609C184.685 129.907 184.423 130.486 185.288 130.983C185.493 131.101 185.773 131.232 186.233 131.188C186.233 131.188 185.182 131.338 185.207 131.692C185.288 132.706 185.978 132.874 188.193 133.185C190.084 133.453 190.774 134.099 190.681 134.858L190.587 135.331C190.587 135.331 191.334 134.74 191.993 134.13C192.472 133.683 192.864 133.204 192.503 132.408C192.503 132.408 193.666 132.264 193.635 131.537C193.604 130.809 193.131 130.038 193.131 130.038C193.131 130.038 193.766 129.602 193.598 128.756C193.436 127.91 192.994 127.556 192.994 127.556L193.212 127.201Z" fill="#FFA8A7"/>
<path d="M187.042 129.179C187.459 129.055 187.845 128.906 188.305 128.856C188.778 128.831 189.194 128.968 189.605 129.074C190.426 129.31 191.235 129.578 192.012 129.951C191.154 129.864 190.326 129.665 189.505 129.441C189.095 129.329 188.691 129.186 188.311 129.155C187.913 129.142 187.471 129.198 187.042 129.179Z" fill="#F28F8F"/>
<path d="M186.24 131.195C186.663 131.002 187.148 130.921 187.621 130.952C188.093 130.977 188.554 131.07 189.001 131.182C189.897 131.419 190.774 131.711 191.601 132.128C190.681 131.997 189.791 131.767 188.908 131.549C188.025 131.325 187.167 131.076 186.24 131.195Z" fill="#F28F8F"/>
<path d="M117.72 150.868C116.594 150.302 116.594 150.153 116.7 149.506C116.806 148.859 117.191 147.684 118.392 147.093C119.2 146.695 119.996 146.259 120.519 146.253C121.041 146.247 121.147 147.298 120.233 148.076C118.79 149.301 119.144 149.612 119.144 149.612C119.144 149.612 120.363 148.611 120.948 148.262C121.533 147.908 122.789 147.615 123.536 147.36C124.282 147.105 124.885 147.92 123.878 148.847C123.878 148.847 124.823 148.53 125.246 148.38C126.204 148.057 126.751 148.368 126.347 149.282C126.254 149.5 126.098 149.768 125.706 150.004C125.706 150.004 126.646 149.506 126.832 149.811C127.361 150.682 126.901 151.223 125.29 152.778C123.915 154.103 123.741 155.03 124.257 155.589L124.612 155.938C124.612 155.938 123.654 155.882 122.771 155.776C122.117 155.695 121.52 155.54 121.346 154.681C121.346 154.681 120.432 154.936 119.716 154.289C119.318 153.929 119.443 153.133 119.443 153.133C119.443 153.133 118.64 153.089 118.273 152.305C117.906 151.522 118.093 151.043 118.093 151.043L117.72 150.868Z" fill="#FFA8A7"/>
<path d="M123.884 148.847C123.474 148.99 123.069 149.096 122.671 149.326C122.273 149.581 122.018 149.935 121.744 150.265C121.222 150.937 120.718 151.627 120.308 152.392C120.954 151.814 121.508 151.167 122.037 150.508C122.298 150.172 122.547 149.823 122.839 149.575C123.156 149.332 123.548 149.114 123.884 148.847Z" fill="#F28F8F"/>
<path d="M125.713 150.004C125.259 150.097 124.811 150.315 124.45 150.62C124.083 150.918 123.766 151.267 123.467 151.615C122.883 152.33 122.348 153.083 121.919 153.91C122.584 153.263 123.169 152.554 123.76 151.857C124.345 151.161 124.892 150.458 125.713 150.004Z" fill="#F28F8F"/>
<path d="M169.533 75.0838L169.377 69.1686C169.377 69.1686 181.232 67.5887 179.976 55.2856C179.192 47.6039 175.043 41.6575 150.885 42.3417C124.22 43.0943 126.646 59.0673 129.594 63.5955C134.023 70.4064 144.783 71.1963 163.854 70.1327L168.649 75.4321C168.96 75.7929 169.545 75.5565 169.533 75.0838Z" fill="#FAFAFA"/>
<path d="M168.998 76.3217L163.711 70.4749C144.466 71.5385 133.78 70.6553 129.314 63.776C127.672 61.2444 126.888 55.8766 129.451 50.9876C131.485 47.1126 136.853 42.4103 150.872 42.0122C174.123 41.3591 179.435 46.8327 180.299 55.2546C181.462 66.6309 171.56 69.0878 169.713 69.4486L169.887 75.9734C169.899 76.4399 169.315 76.6762 168.998 76.3217ZM163.99 69.7969L169.215 75.5753L169.035 68.8826L169.327 68.8453C169.8 68.7831 180.853 67.1596 179.64 55.323C178.943 48.5307 176.163 41.9624 150.891 42.6777C140.043 42.9825 132.834 45.9681 130.035 51.2986C127.603 55.9388 128.306 61.0267 129.868 63.4214C134.172 70.0457 144.746 70.873 163.829 69.8094L163.99 69.7969Z" fill="#FF0000"/>
<path d="M139.422 52.0327C139.994 52.0327 140.491 52.1074 140.927 52.2629C141.362 52.4184 141.723 52.605 142.009 52.8351C142.295 53.0652 142.519 53.3203 142.668 53.5939C142.818 53.8676 142.899 54.1289 142.917 54.3777C142.923 54.4772 142.892 54.5643 142.824 54.6265C142.749 54.6887 142.668 54.7198 142.575 54.7198H141.686C141.543 54.7198 141.431 54.6949 141.362 54.6389C141.288 54.5829 141.225 54.5083 141.163 54.415C141.033 54.2035 140.84 54.0169 140.585 53.8614C140.324 53.7059 139.938 53.625 139.428 53.625C139.204 53.625 138.999 53.6499 138.8 53.6935C138.601 53.7432 138.426 53.8054 138.277 53.8987C138.128 53.9858 138.01 54.0978 137.929 54.2222C137.842 54.3528 137.798 54.4958 137.798 54.6576C137.798 54.8504 137.836 55.0121 137.916 55.1365C137.997 55.2609 138.134 55.3666 138.327 55.4537C138.52 55.5408 138.769 55.6279 139.086 55.7025C139.403 55.7772 139.789 55.8705 140.261 55.97C140.771 56.0819 141.213 56.2126 141.58 56.3618C141.947 56.5111 142.252 56.6915 142.488 56.8968C142.724 57.102 142.899 57.3446 143.011 57.6183C143.123 57.892 143.185 58.203 143.185 58.5513C143.185 58.9307 143.098 59.2915 142.93 59.6149C142.762 59.9446 142.519 60.2245 142.202 60.4546C141.885 60.691 141.499 60.8713 141.039 61.0082C140.579 61.145 140.062 61.2134 139.496 61.2134C139.017 61.2134 138.563 61.1575 138.134 61.0393C137.699 60.9273 137.313 60.7594 136.977 60.5417C136.641 60.324 136.374 60.0627 136.169 59.758C135.963 59.4532 135.851 59.1111 135.826 58.7379C135.82 58.6384 135.851 58.5513 135.92 58.4891C135.994 58.4269 136.075 58.3958 136.169 58.3958H137.058C137.201 58.3958 137.313 58.4207 137.388 58.4704C137.462 58.5202 137.531 58.5948 137.581 58.7006C137.643 58.8125 137.711 58.9245 137.798 59.0302C137.885 59.1422 137.997 59.2355 138.14 59.3226C138.283 59.4096 138.464 59.4781 138.681 59.534C138.899 59.59 139.167 59.6149 139.49 59.6149C139.745 59.6149 139.994 59.5962 140.23 59.5589C140.467 59.5216 140.678 59.4594 140.852 59.3661C141.033 59.279 141.176 59.1671 141.288 59.0364C141.4 58.9058 141.456 58.7441 141.456 58.5451C141.456 58.3585 141.393 58.203 141.275 58.0848C141.157 57.9666 140.977 57.8609 140.734 57.78C140.491 57.6929 140.193 57.6121 139.832 57.5374C139.478 57.4628 139.061 57.3633 138.594 57.2451C138.171 57.1456 137.798 57.0212 137.481 56.8843C137.164 56.7413 136.896 56.5733 136.691 56.3681C136.48 56.1628 136.33 55.9264 136.225 55.6465C136.125 55.3729 136.069 55.0432 136.069 54.6576C136.069 54.2781 136.156 53.9236 136.324 53.6002C136.492 53.2767 136.728 53.003 137.027 52.7729C137.325 52.5428 137.68 52.3624 138.091 52.2318C138.501 52.1011 138.943 52.0327 139.422 52.0327Z" fill="#37474F"/>
<path d="M147.427 54.3279C147.893 54.3279 148.316 54.4025 148.696 54.5456C149.075 54.6886 149.399 54.8877 149.679 55.1427C149.952 55.3977 150.176 55.6963 150.344 56.0322C150.512 56.3743 150.605 56.735 150.63 57.1269C150.636 57.2015 150.643 57.301 150.643 57.4192C150.643 57.5374 150.643 57.6556 150.643 57.7738C150.643 57.8919 150.643 58.0101 150.643 58.1221C150.643 58.234 150.636 58.3336 150.63 58.4082C150.593 58.8001 150.5 59.167 150.338 59.5029C150.176 59.845 149.958 60.1374 149.679 60.3862C149.405 60.635 149.075 60.834 148.696 60.9771C148.316 61.1201 147.893 61.1948 147.427 61.1948C146.96 61.1948 146.537 61.1201 146.158 60.9771C145.779 60.834 145.455 60.635 145.175 60.3862C144.902 60.1374 144.678 59.8388 144.516 59.5029C144.354 59.1608 144.255 58.8001 144.224 58.4082C144.217 58.3336 144.211 58.234 144.205 58.1221C144.199 58.0101 144.199 57.8919 144.199 57.7738C144.199 57.6556 144.199 57.5374 144.205 57.4192C144.211 57.301 144.217 57.2015 144.224 57.1269C144.248 56.735 144.342 56.368 144.51 56.0322C144.678 55.6901 144.895 55.3977 145.175 55.1427C145.449 54.8877 145.779 54.6886 146.158 54.5456C146.537 54.4025 146.96 54.3279 147.427 54.3279ZM148.969 57.1953C148.945 56.9341 148.882 56.7101 148.783 56.536C148.683 56.3618 148.565 56.225 148.422 56.1192C148.279 56.0197 148.117 55.9451 147.949 55.9078C147.781 55.8704 147.607 55.8518 147.427 55.8518C147.247 55.8518 147.072 55.8704 146.904 55.9078C146.736 55.9451 146.575 56.0135 146.432 56.1192C146.289 56.2188 146.164 56.3618 146.071 56.536C145.971 56.7101 145.909 56.9278 145.884 57.1953C145.878 57.2637 145.872 57.3508 145.866 57.4503C145.859 57.5498 145.859 57.6556 145.859 57.7675C145.859 57.8795 145.859 57.9852 145.866 58.091C145.872 58.1967 145.878 58.2776 145.884 58.3398C145.909 58.601 145.971 58.8249 146.071 58.9991C146.17 59.1733 146.289 59.3101 146.432 59.4158C146.575 59.5154 146.73 59.59 146.904 59.6273C147.072 59.6646 147.247 59.6833 147.427 59.6833C147.607 59.6833 147.781 59.6646 147.949 59.6273C148.117 59.59 148.279 59.5216 148.422 59.4158C148.565 59.3163 148.69 59.1733 148.783 58.9991C148.882 58.8249 148.945 58.6072 148.969 58.3398C148.976 58.2776 148.982 58.1967 148.982 58.091C148.982 57.9852 148.982 57.8733 148.982 57.7675C148.982 57.6556 148.982 57.5498 148.982 57.4503C148.982 57.3508 148.976 57.2637 148.969 57.1953Z" fill="#37474F"/>
<path d="M155.196 55.9825C154.686 55.9825 154.319 56.0945 154.095 56.3184C153.871 56.5423 153.759 56.9093 153.759 57.4193V60.7346C153.759 60.8279 153.728 60.9088 153.659 60.9772C153.591 61.0456 153.51 61.0767 153.417 61.0767H152.446C152.353 61.0767 152.272 61.0456 152.204 60.9772C152.135 60.9088 152.104 60.8279 152.104 60.7346V54.8007C152.104 54.7074 152.135 54.6266 152.204 54.5581C152.272 54.4897 152.353 54.4586 152.446 54.4586H153.417C153.51 54.4586 153.591 54.4897 153.659 54.5581C153.728 54.6266 153.759 54.7074 153.759 54.8007V55.0931C153.983 54.8878 154.213 54.7323 154.468 54.6203C154.717 54.5084 155.046 54.4524 155.457 54.4524H156.029C156.122 54.4524 156.203 54.4835 156.272 54.5519C156.34 54.6203 156.371 54.7012 156.371 54.7945V55.6342C156.371 55.7275 156.34 55.8084 156.272 55.8768C156.203 55.9452 156.122 55.9763 156.029 55.9763H155.196V55.9825Z" fill="#37474F"/>
<path d="M160.526 55.9825C160.016 55.9825 159.649 56.0945 159.425 56.3184C159.201 56.5423 159.089 56.9093 159.089 57.4193V60.7346C159.089 60.8279 159.058 60.9088 158.99 60.9772C158.921 61.0456 158.84 61.0767 158.747 61.0767H157.777C157.683 61.0767 157.603 61.0456 157.534 60.9772C157.466 60.9088 157.435 60.8279 157.435 60.7346V54.8007C157.435 54.7074 157.466 54.6266 157.534 54.5581C157.603 54.4897 157.683 54.4586 157.777 54.4586H158.747C158.84 54.4586 158.921 54.4897 158.99 54.5581C159.058 54.6266 159.089 54.7074 159.089 54.8007V55.0931C159.313 54.8878 159.543 54.7323 159.798 54.6203C160.047 54.5084 160.377 54.4524 160.787 54.4524H161.359C161.453 54.4524 161.534 54.4835 161.602 54.5519C161.67 54.6203 161.701 54.7012 161.701 54.7945V55.6342C161.701 55.7275 161.67 55.8084 161.602 55.8768C161.534 55.9452 161.453 55.9763 161.359 55.9763H160.526V55.9825Z" fill="#37474F"/>
<path d="M164.768 60.7283L162.243 54.8877C162.236 54.8628 162.23 54.8317 162.23 54.8006C162.23 54.7073 162.261 54.6264 162.33 54.558C162.398 54.4896 162.479 54.4585 162.572 54.4585H163.53C163.63 54.4585 163.723 54.4896 163.798 54.558C163.872 54.6264 163.922 54.6949 163.953 54.7633L165.651 58.7005L167.349 54.7633C167.374 54.6949 167.424 54.6264 167.505 54.558C167.579 54.4896 167.673 54.4585 167.772 54.4585H168.73C168.823 54.4585 168.904 54.4896 168.973 54.558C169.041 54.6264 169.072 54.7073 169.072 54.8006C169.072 54.8317 169.066 54.8628 169.06 54.8877L165.477 63.2038C165.452 63.2722 165.402 63.3407 165.322 63.4091C165.247 63.4775 165.154 63.5086 165.054 63.5086H164.096C164.003 63.5086 163.922 63.4713 163.854 63.4091C163.785 63.3407 163.754 63.2598 163.754 63.1665C163.754 63.1354 163.76 63.1043 163.767 63.0794L164.768 60.7283Z" fill="#37474F"/>
<path d="M171.653 59.2728C171.747 59.2728 171.828 59.3039 171.896 59.3723C171.964 59.4407 171.995 59.5216 171.995 59.6149V60.7345C171.995 60.8278 171.964 60.9087 171.896 60.9771C171.828 61.0455 171.747 61.0766 171.653 61.0766H170.559C170.465 61.0766 170.384 61.0455 170.316 60.9771C170.248 60.9087 170.217 60.8278 170.217 60.7345V59.6149C170.217 59.5216 170.248 59.4407 170.316 59.3723C170.384 59.3039 170.465 59.2728 170.559 59.2728H171.653ZM171.933 58.1656C171.933 58.2589 171.902 58.3398 171.834 58.4082C171.765 58.4766 171.684 58.5077 171.591 58.5077H170.621C170.528 58.5077 170.447 58.4766 170.378 58.4082C170.31 58.3398 170.279 58.2589 170.279 58.1656V52.5054C170.279 52.4121 170.31 52.3313 170.378 52.2629C170.447 52.1944 170.528 52.1633 170.621 52.1633H171.591C171.684 52.1633 171.765 52.1944 171.834 52.2629C171.902 52.3313 171.933 52.4121 171.933 52.5054V58.1656Z" fill="#37474F"/>
<path d="M63.1139 225.794L62.1311 217.024L72.1204 216.122C72.1204 216.122 71.6975 222.883 71.7597 225.987C71.7908 227.449 72.8233 230.198 72.8233 230.198C72.8233 230.198 68.6434 232.369 66.4727 231.479C64.3019 230.59 62.8651 227.169 62.921 226.541C62.9646 225.913 63.1139 225.794 63.1139 225.794Z" fill="#FFBDA7"/>
<path d="M84.3988 239.597C84.5357 239.597 84.6414 240.872 83.8764 241.494C82.9993 242.215 80.2066 243.59 76.8602 243.105C73.5138 242.62 71.7163 241.568 70.3976 240.436C69.079 239.304 67.2254 237.712 65.714 237.357C64.3082 237.028 62.4236 235.871 61.9757 235.436C61.5341 235 61.6336 233.091 61.6336 233.091L84.3988 239.597Z" fill="#263238"/>
<path d="M63.114 225.776C63.114 225.776 62.691 225.776 62.5977 226.211C62.4858 226.734 62.3427 228.264 62.1064 229.122C61.7767 230.316 61.5217 232.767 61.6896 233.75C61.8576 234.732 64.5135 235.952 65.969 236.524C67.4556 237.115 69.1723 238.303 70.6713 239.565C72.2201 240.872 75.5105 242.259 77.6999 242.284C80.2874 242.308 83.2108 241.537 83.9012 240.368C84.7534 238.919 85.3878 237.233 81.5874 235.417C80.8659 235.075 78.3468 233.544 77.4884 232.991C75.1621 231.492 73.5325 230.13 72.5 227.53C72.3818 227.225 72.2512 226.889 71.9651 226.734C71.7411 226.609 71.4737 226.622 71.2187 226.653C70.578 226.727 68.0216 227.032 67.4369 227.293C66.9206 227.523 66.1805 227.797 66.1805 228.444C66.1805 228.668 66.2427 228.892 66.3111 229.103C66.3546 229.234 66.3857 229.414 66.2675 229.489C66.1556 229.564 66.0063 229.477 65.913 229.383C65.5149 229.022 65.235 228.562 64.8991 228.145C64.725 227.922 64.159 227.2 63.935 227.026C63.7298 226.864 63.4685 226.777 63.2882 226.597C63.058 226.367 63.1202 226.08 63.114 225.776Z" fill="#455A64"/>
<path d="M70.6712 239.565C70.0119 239.012 69.3091 238.471 68.6062 237.992V237.986C68.6062 237.986 73.0659 240.766 74.9133 239.572C76.1013 238.8 75.5602 237.836 75.5415 237.525C75.5166 237.221 79.7027 235.124 80.8472 235.012C81.1644 235.193 81.4194 235.342 81.5936 235.417C84.5667 236.648 84.9337 238.172 84.405 240.076C83.7146 241.245 81.096 242.42 77.7558 242.364C75.5539 242.327 72.22 240.872 70.6712 239.565Z" fill="#37474F"/>
<path d="M75.2366 236.63C77.6065 237.612 76.5802 238.029 75.9084 238.116C75.2366 238.197 71.2683 235.821 68.8549 233.874C66.3358 231.84 64.4014 229.135 63.4622 228.388C63.1139 228.108 62.7407 227.766 62.4048 227.449C62.4794 226.933 62.5354 226.466 62.5914 226.217C62.6847 225.776 63.1076 225.782 63.1076 225.782C63.1139 226.087 63.0517 226.367 63.2818 226.603C63.4622 226.79 63.7234 226.87 63.9287 227.032C64.1526 227.213 64.7186 227.928 64.8928 228.152C65.2224 228.569 65.5086 229.029 65.9066 229.39C67.9468 232.027 72.873 235.647 75.2366 236.63Z" fill="#37474F"/>
<path d="M75.7468 237.768C75.697 237.768 75.6411 237.749 75.5975 237.712C75.498 237.631 75.4856 237.482 75.5726 237.382C76.2631 236.58 79.485 234.714 81.2391 234.932C81.3697 234.95 81.463 235.062 81.4443 235.193C81.4257 235.317 81.3261 235.404 81.1831 235.392C79.5472 235.193 76.4808 237.046 75.9396 237.681C75.8836 237.737 75.8152 237.768 75.7468 237.768Z" fill="#263238"/>
<path d="M73.688 236.468C73.6382 236.468 73.5822 236.449 73.5387 236.412C73.4392 236.331 73.4267 236.182 73.5138 236.082C74.2042 235.286 77.4262 233.414 79.1802 233.632C79.3108 233.65 79.4041 233.762 79.3855 233.893C79.3668 234.017 79.2549 234.111 79.1242 234.092C77.4884 233.893 74.4219 235.747 73.8808 236.381C73.8248 236.443 73.7564 236.468 73.688 236.468Z" fill="#263238"/>
<path d="M71.6291 235.236C71.5794 235.236 71.5234 235.218 71.4798 235.18C71.3803 235.1 71.3679 234.95 71.455 234.851C72.1454 234.048 75.3673 232.176 77.1214 232.4C77.252 232.419 77.3453 232.531 77.3266 232.661C77.308 232.786 77.196 232.879 77.0654 232.86C75.4295 232.661 72.3631 234.515 71.8219 235.149C71.766 235.211 71.6975 235.243 71.6291 235.236Z" fill="#263238"/>
<path d="M69.7321 233.843C69.6824 233.843 69.6264 233.824 69.5829 233.787C69.4833 233.706 69.4709 233.557 69.558 233.457C70.2484 232.655 73.4766 230.789 75.2244 231.007C75.355 231.025 75.4483 231.137 75.4297 231.268C75.411 231.392 75.299 231.486 75.1684 231.467C73.5326 231.268 70.4661 233.122 69.925 233.756C69.869 233.818 69.8006 233.843 69.7321 233.843Z" fill="#263238"/>
<path d="M67.8659 232.444C67.8161 232.444 67.7602 232.425 67.7228 232.388C67.6233 232.307 67.6109 232.158 67.6917 232.058C68.6372 230.926 72.0084 229.371 73.7562 229.589C73.8869 229.607 73.9802 229.719 73.9615 229.85C73.9429 229.974 73.8309 230.061 73.7003 230.049C72.1266 229.85 68.8984 231.343 68.0587 232.35C68.0027 232.419 67.9343 232.45 67.8659 232.444Z" fill="#263238"/>
<path d="M46.5558 229.912L48.9318 219.375L38.5382 217.752L38.3703 228.152C38.3703 228.152 37.5741 230.951 38.165 231.909C38.7497 232.873 44.9946 233.88 45.5668 233.24C46.1391 232.605 46.5558 229.912 46.5558 229.912Z" fill="#FFBDA7"/>
<path d="M45.517 246.513C45.2434 248.877 44.7458 250.407 43.7257 251.682C42.7056 252.963 40.8831 253.181 39.0793 252.547C37.2755 251.912 34.9928 250.538 34.5761 248.417C34.1531 246.296 34.3273 244.902 34.8497 242.744L45.517 246.513Z" fill="#263238"/>
<path d="M38.3701 228.152C37.6175 228.114 37.8228 229.974 37.462 233.159C37.0764 236.605 35.5214 239.31 34.9678 242.072C34.3334 245.232 34.4578 246.687 35.6333 248.79C36.8089 250.892 41.2189 253.349 43.5763 250.836C45.4983 248.79 45.6973 246.277 45.6849 243.049C45.6786 239.708 45.6413 237.357 45.9212 234.857C46.1887 232.468 47.1901 230.26 46.5494 229.912C46.481 230.26 45.8404 232.68 45.4174 232.643C45.3925 232.332 45.4174 232.045 45.4547 231.734C45.4858 231.467 45.4796 231.162 45.2868 230.932C45.094 230.696 44.3787 230.41 44.0739 230.316C43.3399 230.099 42.0337 229.825 41.2811 229.669C40.9079 229.595 40.5347 229.533 40.1553 229.489C39.8505 229.458 39.4897 229.433 39.1974 229.495C39.017 229.533 38.8491 229.626 38.7744 229.769C38.7185 229.881 38.7247 230.005 38.7185 230.13C38.706 230.354 38.6625 230.571 38.5941 230.777C38.563 230.87 38.4821 230.976 38.3764 230.938C38.2893 230.907 38.2582 230.808 38.2644 230.727C38.2893 230.341 38.3453 228.357 38.3701 228.152Z" fill="#455A64"/>
<path d="M35.1917 241.183C35.0984 241.637 34.5013 244.653 35.4219 245.325C36.4171 246.047 37.0951 243.702 37.0951 243.702C37.0951 243.702 39.5271 243.347 42.9481 245.126C42.7428 245.605 43.2031 247.309 44.1734 247.079C45.1437 246.849 45.6911 243.372 45.6973 243.329C45.6911 246.426 45.4485 248.852 43.5887 250.836C41.2314 253.349 36.8214 250.892 35.6458 248.79C34.4702 246.687 34.3458 245.232 34.9803 242.072C35.0362 241.755 35.1109 241.463 35.1917 241.183Z" fill="#37474F"/>
<path d="M37.3504 243.938C37.2757 245.101 36.0006 244.548 36.0255 242.899C36.0504 241.251 36.915 237.245 37.2446 234.552C37.4623 230.677 37.6178 228.114 38.3704 228.152C38.3642 228.189 38.3642 228.233 38.358 228.27C38.358 228.27 38.2771 230.478 38.2709 230.727C38.1341 233.097 38.103 237.699 37.7671 239.839C37.4312 241.985 37.425 242.781 37.3504 243.938Z" fill="#37474F"/>
<path d="M42.5377 245.039C42.8425 243.926 43.085 243.179 43.452 241.046C43.819 238.931 45.0817 234.689 45.7099 232.412C45.9151 232.039 46.5496 229.906 46.5496 229.906C47.0721 230.055 46.5496 232.083 46.307 233.034C46.0644 233.986 45.7659 235.006 45.4611 236.368C44.6836 239.055 44.6089 243.092 44.1051 244.635C43.6013 246.183 42.2329 246.152 42.5377 245.039Z" fill="#37474F"/>
<path d="M43.0105 245.226C42.9732 245.219 42.9421 245.207 42.911 245.188C42.8861 245.17 40.2178 243.602 37.1513 243.95C37.002 243.969 36.8527 243.87 36.8216 243.733C36.7905 243.596 36.8838 243.472 37.0331 243.453C40.3173 243.086 43.079 244.709 43.1909 244.784C43.3215 244.865 43.3713 245.02 43.2904 245.132C43.2345 245.213 43.1163 245.25 43.0105 245.226Z" fill="#263238"/>
<path d="M43.763 242.781C43.7319 242.775 43.7008 242.763 43.6697 242.75C43.6386 242.731 40.6343 241.083 37.2195 241.363C37.0702 241.375 36.921 241.276 36.8961 241.139C36.865 241.002 36.9707 240.878 37.12 240.872C40.7338 240.579 43.8065 242.265 43.9371 242.34C44.074 242.414 44.1237 242.57 44.0553 242.688C43.9869 242.763 43.8749 242.806 43.763 242.781Z" fill="#263238"/>
<path d="M37.5185 238.987C37.4128 238.962 37.3195 238.894 37.2884 238.794C37.2448 238.657 37.3319 238.527 37.475 238.502C40.8897 237.905 44.1428 239.827 44.2859 239.908C44.4165 239.988 44.4662 240.144 44.3854 240.256C44.3045 240.368 44.1366 240.393 44.006 240.312C43.9749 240.293 40.8151 238.427 37.6367 238.987C37.5994 238.993 37.5558 238.993 37.5185 238.987Z" fill="#263238"/>
<path d="M37.8231 236.748C37.7174 236.723 37.6303 236.654 37.5992 236.555C37.5556 236.418 37.6365 236.287 37.7796 236.263C41.5427 235.541 44.5967 237.581 44.7273 237.668C44.8579 237.755 44.889 237.911 44.8019 238.017C44.7149 238.122 44.5407 238.141 44.4163 238.054C44.3852 238.035 41.4494 236.076 37.9475 236.748C37.904 236.76 37.8604 236.76 37.8231 236.748Z" fill="#263238"/>
<path d="M38.1778 234.241C38.0783 234.222 37.985 234.148 37.9539 234.054C37.9041 233.918 37.985 233.787 38.1343 233.756C41.661 233.028 44.9887 235.143 45.1255 235.236C45.2562 235.317 45.2935 235.479 45.2126 235.585C45.1318 235.697 44.9576 235.715 44.827 235.628C44.7959 235.609 41.5801 233.563 38.3084 234.241C38.2587 234.247 38.2151 234.247 38.1778 234.241Z" fill="#263238"/>
<path d="M42.3637 148.667C39.0608 156.765 41.2254 167.594 40.8895 176.42C40.4852 186.975 40.2986 195.254 40.2986 195.254C40.1742 196.672 39.3656 198.663 38.7063 205.667C38.0097 213.056 38.0345 223.605 38.0345 223.605C38.0345 223.605 44.2794 226.273 48.1607 224.893C48.1607 224.893 52.3343 209.069 54.3496 200.367C56.2591 192.132 57.6649 179.256 57.6649 179.256L59.9352 191.659C59.9352 191.659 59.649 196.99 59.7859 200.722C59.9414 205.057 62.2801 221.671 62.2801 221.671C62.2801 221.671 68.0834 225.148 72.1201 221.832C72.1201 221.832 74.0857 197.45 74.2163 192.238C74.4713 182.006 74.7636 161.872 73.557 148.667H42.3637Z" fill="#37474F"/>
<path d="M57.6709 179.257L60.2584 163.029C60.2584 163.029 65.8502 162.096 68.2698 159.769C68.2698 159.769 66.466 163.364 62.0311 164.552L59.3192 179.58L59.9474 191.659L57.6709 179.257Z" fill="#263238"/>
<path d="M37.929 223.966C39.6706 225.334 44.7523 226.497 48.2293 225.241L48.9321 222.305C46.3073 223.188 40.9021 222.629 37.9912 220.831L37.929 223.966Z" fill="#455A64"/>
<path d="M62.2865 222.013C63.4621 223.207 68.9171 224.196 72.139 222.305L72.3754 219.357C69.9309 220.719 64.3205 220.483 61.9258 219.089L62.2865 222.013Z" fill="#455A64"/>
<path d="M40.7093 177.869C40.7093 177.869 40.1681 191.025 40.2055 191.983C40.2428 192.94 47.3958 194.838 47.5824 194.228C47.8934 193.214 47.8125 190.95 48.4345 180.053C42.5006 179.288 40.7093 177.869 40.7093 177.869Z" fill="#455A64"/>
<path d="M47.3148 183.803C47.0971 183.729 46.8669 183.753 46.643 183.747C46.3818 183.741 46.1205 183.729 45.8593 183.71C45.3057 183.666 44.7521 183.579 44.211 183.455C43.5952 183.318 42.9919 183.131 42.4072 182.908C41.9282 182.721 41.4742 182.478 40.9952 182.298C40.9517 182.279 40.9455 182.366 40.9704 182.391C41.4244 182.721 41.9656 182.951 42.4818 183.163C42.967 183.355 43.4646 183.517 43.9746 183.642C44.5158 183.778 45.0631 183.872 45.6167 183.934C45.8904 183.965 46.1703 183.984 46.4502 183.996C46.7114 184.009 47.0908 184.064 47.3272 183.934C47.3521 183.909 47.3583 183.822 47.3148 183.803Z" fill="#37474F"/>
<path d="M44.1986 181.968C44.1301 181.831 44.0742 181.751 43.9249 181.732C43.8005 181.719 43.6699 181.751 43.5641 181.825C43.4646 181.894 43.4024 182.006 43.3837 182.124C43.3589 182.329 43.4646 182.522 43.6388 182.621C43.788 182.708 44.0057 182.721 44.1488 182.615C44.2421 182.547 44.2732 182.429 44.2732 182.317C44.2794 182.192 44.2545 182.074 44.1986 181.968ZM44.0617 182.373C43.9809 182.478 43.8129 182.503 43.701 182.441C43.5206 182.335 43.5579 181.981 43.7818 181.956C43.8502 181.95 43.9249 181.962 43.9809 182.006C44.0804 182.08 44.1426 182.261 44.0617 182.373Z" fill="#37474F"/>
<path d="M64.7683 114.407C68.3697 115.054 70.1175 115.974 72.8232 120.316C75.5289 124.657 81.0274 137.054 81.0274 137.054L92.8267 146.11L85.7111 149.307C85.9163 149.606 84.0317 148.884 79.3169 146.34C75.1246 144.076 74.7639 144.07 72.0146 139.287C69.5702 135.038 65.9252 128.887 65.9252 128.887L64.7683 114.407Z" fill="#FFBDA7"/>
<path d="M41.2693 120.546C46.1955 120.546 50.1888 116.553 50.1888 111.627V89.3652H48.7084C44.6032 89.3652 41.2693 92.6929 41.2693 96.8044V120.546Z" fill="#37474F"/>
<path d="M45.6669 92.1704C45.5487 92.5373 45.4679 92.923 45.4305 93.3086C45.4057 93.5574 45.3932 93.8062 45.4305 94.055C45.586 95.2119 46.7305 96.0579 47.875 96.0765C49.0195 96.0952 50.1018 95.4172 50.8171 94.4966C51.7687 93.2775 53.1931 90.4039 51.3395 89.3838C50.1204 88.712 48.5405 88.8924 47.4023 89.7072C46.5812 90.2981 45.9841 91.1876 45.6669 92.1704Z" fill="#FF0000"/>
<path opacity="0.25" d="M45.6669 92.1704C45.5487 92.5373 45.4679 92.923 45.4305 93.3086C45.4057 93.5574 45.3932 93.8062 45.4305 94.055C45.586 95.2119 46.7305 96.0579 47.875 96.0765C49.0195 96.0952 50.1018 95.4172 50.8171 94.4966C51.7687 93.2775 53.1931 90.4039 51.3395 89.3838C50.1204 88.712 48.5405 88.8924 47.4023 89.7072C46.5812 90.2981 45.9841 91.1876 45.6669 92.1704Z" fill="black"/>
<path d="M45.1567 139.896C44.9515 140.804 42.7869 145.513 41.4932 150.564C49.2619 160.578 72.2759 155.117 73.9553 149.475C73.5946 142.776 73.2836 125.858 71.8157 122.798C69.1908 117.324 64.7684 114.401 64.7684 114.401C62.6785 113.959 60.4953 113.816 59.8608 113.748C58.5733 113.617 55.9173 113.287 52.5026 113.934C50.9102 114.239 48.3849 114.88 45.8409 115.937C43.1477 117.063 42.5443 120.658 43.4214 126.511C43.8257 129.204 46.5936 133.577 45.1567 139.896Z" fill="#455A64"/>
<path d="M105.746 121.653L98.6547 115.533L104.054 87.1943L93.5667 78.1504L85.3999 80.9929L81.6181 100.835L73.7001 93.999L102.262 47.915L90.9917 38.1931L82.8248 41.0357L52.2784 90.0306L50.1885 100.984L77.1584 124.253L74.0297 140.649L84.5167 149.699L92.6835 146.85L94.1887 138.951L94.7361 139.417L102.903 136.575L105.746 121.653Z" fill="#FF0000"/>
<path opacity="0.3" d="M105.746 121.653L98.6547 115.533L104.054 87.1943L93.5667 78.1504L85.3999 80.9929L81.6181 100.835L73.7001 93.999L102.262 47.915L90.9917 38.1931L82.8248 41.0357L52.2784 90.0306L50.1885 100.984L77.1584 124.253L74.0297 140.649L84.5167 149.699L92.6835 146.85L94.1887 138.951L94.7361 139.417L102.903 136.575L105.746 121.653Z" fill="black"/>
<path d="M90.4876 118.381L95.8866 90.043L85.3997 80.9929L80.0007 109.331L65.5268 96.8477L94.0952 50.7637L82.8246 41.0356L52.2719 90.0306L50.1882 100.984L77.1582 124.253L74.0357 140.649L84.5164 149.699L87.6451 133.297L94.7359 139.417L97.5784 124.502L90.4876 118.381Z" fill="#FF0000"/>
<path opacity="0.3" d="M90.4876 118.381L95.8866 90.043L85.3997 80.9929L80.0007 109.331L65.5268 96.8477L94.0952 50.7637L82.8246 41.0356L52.2719 90.0306L50.1882 100.984L77.1582 124.253L74.0357 140.649L84.5164 149.699L87.6451 133.297L94.7359 139.417L97.5784 124.502L90.4876 118.381Z" fill="white"/>
<path d="M82.8247 41.0357L94.0953 50.7637L102.262 47.915L90.9916 38.1931L82.8247 41.0357Z" fill="#FF0000"/>
<path opacity="0.5" d="M82.8247 41.0357L94.0953 50.7637L102.262 47.915L90.9916 38.1931L82.8247 41.0357Z" fill="white"/>
<path d="M85.3997 80.9929L93.5665 78.1504L104.053 87.1943L95.8866 90.043L85.3997 80.9929Z" fill="#FF0000"/>
<path opacity="0.5" d="M85.3997 80.9929L93.5665 78.1504L104.053 87.1943L95.8866 90.043L85.3997 80.9929Z" fill="white"/>
<path d="M90.4878 118.381L98.6547 115.533L105.745 121.653L97.5786 124.502L90.4878 118.381Z" fill="#FF0000"/>
<path opacity="0.5" d="M90.4878 118.381L98.6547 115.533L105.745 121.653L97.5786 124.502L90.4878 118.381Z" fill="white"/>
<path d="M65.5269 96.8478L73.6999 93.999L81.618 100.835L80.0008 109.331L65.5269 96.8478Z" fill="#FF0000"/>
<path opacity="0.5" d="M65.5269 96.8478L73.6999 93.999L81.618 100.835L80.0008 109.331L65.5269 96.8478Z" fill="white"/>
<path d="M85.4812 121.746C84.8716 121.578 86.2774 119.19 85.9788 117.623C85.8295 116.845 84.8716 116.13 84.5295 117.168C83.808 119.352 82.8564 120.148 82.2219 121.46" fill="#FFBDA7"/>
<path d="M82.2218 121.46C81.5873 122.773 80.8907 123.662 79.0993 124.925C77.1898 126.268 65.9503 128.632 65.9503 128.632C65.9503 128.632 63.2881 127.052 58.7599 124.023C53.0251 120.185 47.6448 115.613 45.841 115.937C40.1559 117.554 41.4932 125.845 43.7013 127.699C45.1568 128.924 46.8362 130.038 52.7328 133.191C59.1207 136.612 60.0537 136.743 61.9197 137.533C65.2225 138.932 65.9129 138.652 70.0741 137.178C74.2353 135.704 76.686 134.404 82.2218 131.667C85.027 130.28 86.0533 129.285 88.1681 127.867C89.2193 127.164 89.7791 126.654 90.3451 125.976C90.9111 125.298 91.3714 124.514 91.5518 123.65C91.5829 123.488 91.5953 123.332 91.6762 123.183C91.7508 123.04 91.8441 122.91 91.9436 122.785C92.124 122.543 92.3231 122.306 92.4288 122.014C92.5408 121.709 92.5408 121.379 92.5905 121.062C92.6154 120.913 92.6154 120.77 92.6527 120.621C92.6963 120.471 92.7585 120.328 92.8269 120.191C93.001 119.837 93.225 119.476 93.2623 119.072C93.2996 118.699 93.0259 118.512 93.0259 118.512C93.0259 118.512 93.3245 118.089 93.424 117.94C93.5546 117.728 93.6666 117.504 93.7474 117.274C93.7785 117.181 93.8096 117.075 93.7599 116.988C93.7288 116.938 93.679 116.907 93.6293 116.882C92.8144 116.459 92.0245 116.969 91.3901 117.461C89.7231 118.748 88.9456 119.899 87.1356 121C86.1528 121.597 85.8978 121.734 85.4873 121.728" fill="#FFBDA7"/>
<path d="M93.0073 118.643C92.7212 119.084 92.3916 119.495 92.0619 119.905C91.7322 120.316 91.3964 120.714 91.0667 121.118C90.8988 121.317 90.7433 121.529 90.5629 121.728C90.3825 121.921 90.2021 122.113 90.0093 122.294C89.6299 122.654 89.238 123.009 88.8213 123.332L89.3624 122.76C89.5428 122.574 89.7232 122.381 89.9036 122.188C90.0777 121.995 90.2581 121.802 90.4261 121.603C90.594 121.41 90.7495 121.199 90.9174 120.994C91.2533 120.589 91.5954 120.191 91.9499 119.806L93.0073 118.643Z" fill="#F0997A"/>
<path d="M92.6712 120.571C92.5219 120.95 92.3291 121.323 92.1052 121.666C91.8875 122.008 91.6449 122.331 91.3961 122.655C91.1473 122.972 90.8923 123.283 90.6186 123.588C90.3512 123.886 90.065 124.178 89.7603 124.446C90.0153 124.129 90.2516 123.805 90.5004 123.494L91.2406 122.543L91.9746 121.591C92.2234 121.255 92.4535 120.913 92.6712 120.571Z" fill="#F0997A"/>
<path d="M66.9642 101.948L67.692 101.724C70.9699 99.9639 70.802 95.6908 70.0058 93.464C68.2331 88.4942 62.859 86.6344 59.5375 86.4541C53.2367 86.112 50.1578 87.7354 49.5047 91.0009C48.6525 90.9262 47.477 91.6166 46.7679 92.5807C45.2191 94.6893 43.3718 102.041 51.5448 109.798L66.9642 101.948Z" fill="#37474F"/>
<path d="M50.0277 107.335C48.8832 107.503 48.0062 106.906 47.3469 106.122C45.8852 104.38 45.8105 102.664 46.5694 101.556C47.1914 100.642 48.6531 100.101 49.642 100.773C50.6932 101.494 50.7057 102.048 51.0851 102.825C51.4707 103.628 53.0444 103.603 53.542 100.53C54.0085 97.6626 53.8779 94.6584 55.3333 93.4144C57.5103 91.5546 59.7495 92.1953 60.5457 93.3771C61.4538 92.0709 63.4256 91.9776 64.8313 92.8048C65.8576 93.4082 66.9336 94.366 66.8155 97.5942C66.7781 98.5894 67.4437 100.449 67.5121 101.842C67.7982 107.428 66.8714 108.809 65.3849 110.165C64.4954 110.973 63.0897 111.508 60.9935 111.521L61.0682 114.376C61.0682 114.376 63.6184 118.089 63.7055 119.924L51.7133 114.226L51.421 106.52C51.4272 106.514 51.1162 107.173 50.0277 107.335Z" fill="#FFBDA7"/>
<path d="M64.2341 95.7344L65.8824 97.1899C65.4967 97.6626 64.8125 97.7186 64.3585 97.3205C63.8982 96.9162 63.8422 96.2071 64.2341 95.7344Z" fill="#263238"/>
<path d="M58.5737 97.5631L56.5397 98.7449C56.1914 98.1913 56.3594 97.4761 56.9192 97.1526C57.4852 96.823 58.2254 97.0096 58.5737 97.5631Z" fill="#263238"/>
<path d="M55.3519 93.7875C54.8606 94.4158 54.4998 95.044 54.5744 97.2894C54.6055 98.2224 54.5371 100.406 53.9089 101.706C53.3615 102.844 52.7893 103.522 51.5826 103.733C50.9793 103.839 49.953 103.771 49.3932 103.509C48.964 103.31 47.7573 102.458 47.9004 101.208C48.0932 101.426 48.4477 101.699 48.7836 101.83C49.0386 101.93 49.3123 102.004 49.586 102.023C50.407 102.066 51.1908 101.563 51.651 100.878C52.4659 99.6717 52.4099 98.042 52.6587 96.6612C52.9759 94.9009 53.2807 92.9043 54.8668 92.0335C56.7452 91.001 60.1351 91.4613 60.5394 93.377C59.2643 92.1517 56.627 92.1703 55.3519 93.7875Z" fill="#37474F"/>
<path d="M61.4534 98.9563L62.1065 104.424L65.0672 103.267L61.4534 98.9563Z" fill="#F0997A"/>
<path d="M59.569 100.673C59.569 101.146 59.1834 101.531 58.7107 101.531C58.2379 101.531 57.8523 101.146 57.8523 100.673C57.8523 100.2 58.2379 99.8147 58.7107 99.8147C59.1834 99.8147 59.569 100.2 59.569 100.673Z" fill="#263238"/>
<path d="M64.8371 100.673C65.3112 100.673 65.6955 100.289 65.6955 99.8147C65.6955 99.3406 65.3112 98.9563 64.8371 98.9563C64.3631 98.9563 63.9788 99.3406 63.9788 99.8147C63.9788 100.289 64.3631 100.673 64.8371 100.673Z" fill="#263238"/>
<path d="M61.5717 106.147C61.5717 106.619 61.1861 107.005 60.7133 107.005C60.2406 107.005 59.855 106.619 59.855 106.147C59.855 105.674 60.2406 105.288 60.7133 105.288C61.1861 105.288 61.5717 105.668 61.5717 106.147Z" fill="#B16668"/>
<path d="M59.8861 105.929C59.8674 105.997 59.855 106.072 59.855 106.147C59.855 106.619 60.2406 107.005 60.7133 107.005C60.931 107.005 61.1239 106.924 61.2731 106.794C60.9746 106.321 60.4708 105.997 59.8861 105.929Z" fill="#F28F8F"/>
<path d="M60.9996 111.515C58.5738 111.421 56.3595 111.023 54.9787 110.177C54.3442 109.785 53.1935 108.846 52.4534 107.44C52.4534 107.44 52.5778 109.798 54.7361 111.322C56.9193 112.864 61.0307 113.126 61.0307 113.126L60.9996 111.515Z" fill="#F0997A"/>
<path d="M94.1267 147.821C95.3832 147.814 95.4578 147.678 95.6444 147.049C95.831 146.421 96.0114 145.196 95.1903 144.138C94.643 143.429 94.1205 142.683 93.654 142.447C93.1875 142.21 92.6277 143.106 93.1066 144.207C93.8593 145.942 93.4425 146.228 93.4425 146.228C93.4425 146.228 92.7521 144.63 92.3789 144.051C92.0057 143.473 91.0105 142.658 90.4569 142.098C89.8971 141.538 88.9952 142.005 89.4928 143.28C89.4928 143.28 88.79 142.577 88.4665 142.26C87.7512 141.545 87.123 141.582 87.0795 142.583C87.0732 142.82 87.0857 143.131 87.3345 143.516C87.3345 143.516 86.7125 142.652 86.4077 142.845C85.5493 143.392 85.7235 144.076 86.4823 146.185C87.1292 147.976 86.8804 148.89 86.1651 149.164L85.7048 149.301C85.7048 149.301 86.5819 149.687 87.4216 149.985C88.0373 150.203 88.6469 150.327 89.1818 149.637C89.1818 149.637 89.8536 150.601 90.4818 150.228C91.11 149.861 91.5703 149.083 91.5703 149.083C91.5703 149.083 92.2483 149.438 92.92 148.897C93.5918 148.356 93.6975 147.802 93.6975 147.802L94.1267 147.821Z" fill="#FFBDA7"/>
<path d="M89.499 143.286C89.8038 143.597 90.121 143.871 90.376 144.25C90.6186 144.655 90.6933 145.09 90.7928 145.5C90.9669 146.334 91.11 147.18 91.1411 148.038C90.8177 147.236 90.6062 146.415 90.4258 145.581C90.3387 145.165 90.2703 144.742 90.121 144.387C89.9344 144.039 89.6794 143.672 89.499 143.286Z" fill="#F0997A"/>
<path d="M87.3469 143.516C87.7139 143.796 88.0125 144.194 88.2053 144.624C88.4043 145.053 88.535 145.501 88.6469 145.955C88.8584 146.857 89.0077 147.765 89.0263 148.698C88.7091 147.821 88.4976 146.931 88.2799 146.042C88.056 145.158 87.8756 144.281 87.3469 143.516Z" fill="#F0997A"/>
</svg>
