<svg width="312" height="311" viewBox="0 0 312 311" fill="none" xmlns="http://www.w3.org/2000/svg">
<path d="M54.3295 277.96C-1.82127 245.543 -1.82127 192.982 54.3295 160.566C110.48 128.15 201.513 128.15 257.664 160.566C313.814 192.982 313.814 245.543 257.664 277.96C201.513 310.376 110.48 310.382 54.3295 277.96Z" fill="#F5F5F5"/>
<path d="M99.2653 279.525C123.63 279.525 143.381 268.122 143.381 254.057C143.381 239.992 123.63 228.59 99.2653 228.59C74.9007 228.59 55.1494 239.992 55.1494 254.057C55.1494 268.122 74.9007 279.525 99.2653 279.525Z" fill="#E0E0E0"/>
<path d="M201.242 242.168C231.835 225.67 249.979 199.953 241.769 184.729C233.558 169.505 202.102 170.539 171.51 187.038C140.917 203.537 122.773 229.253 130.983 244.477C139.193 259.701 170.649 258.667 201.242 242.168Z" fill="#E0E0E0"/>
<path d="M237.239 90.7716L237.146 90.7157C237.14 90.7157 237.14 90.7095 237.134 90.7095L213.461 77.0847C213.455 77.0785 213.449 77.0785 213.436 77.0723L213.3 77.004V77.0102C202.24 71.4336 187.485 73.1041 171.618 83.3692C139.736 103.986 115.436 151.443 117.349 189.362C118.305 208.265 125.59 221.225 136.606 226.92V226.926L136.706 226.976C136.712 226.976 136.712 226.982 136.718 226.982L160.397 240.613C160.403 240.613 160.403 240.619 160.409 240.619L160.527 240.681V240.675C171.587 246.27 186.355 244.599 202.24 234.334C234.122 213.717 258.422 166.26 256.509 128.342C255.546 109.433 248.256 96.4723 237.239 90.7716Z" fill="#37474F"/>
<path d="M159.583 240.178L136.718 226.975C136.699 226.975 136.699 226.975 136.699 226.975L136.594 226.913C125.583 221.2 118.299 208.24 117.349 189.361C116.498 172.452 120.864 153.654 128.769 136.191L128.93 135.806L152.454 149.816C144.53 167.272 140.177 186.07 141.028 202.986C141.965 221.486 148.964 234.291 159.583 240.178Z" fill="#263238"/>
<path d="M202.233 234.328C234.116 213.711 258.415 166.254 256.496 128.336C254.584 90.4175 227.185 76.3891 195.303 97.0063C163.421 117.624 139.121 165.08 141.034 202.999C142.953 240.917 170.351 254.945 202.233 234.328Z" fill="#455A64"/>
<path d="M229.235 87.8281L189.273 170.135L180.672 160.814C178.021 157.933 174.239 156.281 170.296 156.281C166.731 156.281 163.322 157.61 160.695 160.026C154.975 165.31 154.622 174.271 159.9 179.997L182.56 204.539C185.069 207.259 188.485 208.861 192.18 209.06C192.44 209.072 192.701 209.078 192.962 209.078C193.639 209.078 194.322 209.029 195.011 208.929C199.644 208.24 203.631 205.321 205.662 201.117L251.491 106.719C246.809 96.2675 238.984 89.7594 229.235 87.8281Z" fill="#37474F"/>
<path d="M261.688 60.7152C261.439 60.5724 261.185 60.4358 260.918 60.3116C254.82 57.3618 247.454 59.9079 244.511 65.9875L193.657 170.725L190.77 167.596C189.906 166.664 188.938 165.894 187.888 165.292C186.373 164.422 179.927 160.69 178.884 160.088C174.363 157.479 168.469 157.97 164.408 161.702C159.44 166.291 159.136 174.073 163.719 179.041L186.379 203.589C187.242 204.52 188.23 205.303 189.304 205.917C190.782 206.762 197.203 210.482 198.259 211.09C199.917 212.053 201.786 212.618 203.755 212.724C204.562 212.767 205.375 212.736 206.214 212.618C210.238 212.022 213.697 209.482 215.461 205.837L275.617 81.9286C278.442 76.0974 276.238 69.1112 270.717 65.9316C270.463 65.7826 263.29 61.6405 261.688 60.7152Z" fill="#039E00"/>
<path opacity="0.15" d="M261.688 60.7152C261.439 60.5724 261.185 60.4358 260.918 60.3116C254.82 57.3618 247.454 59.9079 244.511 65.9875L193.657 170.725L190.77 167.596C189.906 166.664 188.938 165.894 187.888 165.292C186.373 164.422 179.927 160.69 178.884 160.088C174.363 157.479 168.469 157.97 164.408 161.702C159.44 166.291 159.136 174.073 163.719 179.041L186.379 203.589C187.242 204.52 188.23 205.303 189.304 205.917C190.782 206.762 197.203 210.482 198.259 211.09C199.917 212.053 201.786 212.618 203.755 212.724C204.562 212.767 205.375 212.736 206.214 212.618C210.238 212.022 213.697 209.482 215.461 205.837L275.617 81.9286C278.442 76.0974 276.238 69.1112 270.717 65.9316C270.463 65.7826 263.29 61.6405 261.688 60.7152Z" fill="black"/>
<path opacity="0.15" d="M198.253 211.09C197.203 210.482 190.782 206.756 189.298 205.917C188.224 205.303 187.236 204.526 186.373 203.595L163.713 179.053C162.682 177.929 161.906 176.656 161.371 175.321L170.382 180.519C170.916 181.86 171.699 183.133 172.736 184.257L195.396 208.799C196.241 209.706 197.203 210.476 198.253 211.09Z" fill="black"/>
<path opacity="0.15" d="M256.372 67.4159C255.217 68.4468 254.242 69.7198 253.528 71.1916L201.227 178.923L193.664 170.725L244.511 65.9876C245.225 64.5096 246.207 63.2428 247.362 62.2119L256.372 67.4159Z" fill="black"/>
<path d="M269.935 65.5157C263.837 62.5659 256.472 65.112 253.528 71.1916L201.227 178.923L190.77 167.596C186.199 162.634 178.424 162.317 173.425 166.913C168.457 171.502 168.153 179.283 172.736 184.257L195.396 208.805C197.57 211.165 200.538 212.556 203.749 212.73C204.556 212.773 205.37 212.742 206.208 212.624C210.232 212.028 213.691 209.488 215.455 205.843L275.611 81.9349C278.567 75.8243 276.021 68.4654 269.935 65.5157Z" fill="#039E00"/>
<path d="M98.3899 77.6188C93.6517 77.6188 90.4101 78.8546 87.0443 83.6425C83.9579 88.0392 75.4688 102.695 75.4688 102.695C75.4688 102.695 69.2775 89.958 68.6378 87.4119C67.992 84.8721 68.0541 83.7418 68.6627 82.6365C69.4141 81.2765 70.0848 80.0842 70.2338 78.2646C70.476 75.2155 71.2212 72.6011 70.5381 72.5142C68.644 72.4086 68.5695 74.8367 67.5759 76.2774C67.222 76.7929 66.0607 76.8674 65.6695 76.0663C65.2534 75.2155 65.4769 73.8183 65.272 72.8122C65.3652 71.9428 65.4397 71.6634 65.539 71.148C66.0731 71.2722 66.8494 71.2846 67.7125 71.2101C68.5323 72.4955 69.0912 73.0358 70.2338 72.5142C70.3828 72.272 69.7432 70.6263 68.998 69.434C68.88 69.2477 68.6999 69.1049 68.4888 69.0428C67.3399 68.7261 66.0421 68.6515 64.2784 68.9248C64.0673 68.9558 63.8561 69.049 63.7381 69.2229C63.0799 70.1978 62.6887 71.1852 62.5272 71.6882C62.4403 71.9553 62.1981 71.949 62.136 71.7193C61.5274 68.7198 61.5212 64.4598 61.5212 62.4664C61.5212 60.8952 59.2235 60.6531 59.1427 62.9011C59.062 65.205 58.9999 69.4651 59.298 71.9491C59.3353 72.2223 59.0248 72.3527 58.9192 72.0546C58.5217 70.9865 57.5468 67.7821 57.1369 62.2428C57.0251 60.7524 54.6157 60.5102 54.6343 62.603C54.684 68.341 56.0129 73.632 56.0129 73.632C56.0812 73.8928 55.8452 74.1225 55.6651 73.8245C54.8641 72.5142 53.6034 69.2601 52.9638 67.0183C52.4546 65.2236 50.0513 65.677 50.4736 67.9188C51.225 71.9366 52.4173 77.0226 54.1934 80.6493C56.0936 84.5305 57.7393 86.4742 58.677 89.5234C59.6209 92.5725 63.527 109.842 67.7063 116.574C70.979 121.846 74.7236 121.362 78.7539 118.58C82.7842 115.798 97.1852 95.7334 97.1852 95.7334L98.3899 77.6188Z" fill="#F0B1B1"/>
<path d="M75.4686 102.695C75.4686 102.695 77.4869 106.123 77.7974 108.855C77.7974 108.855 78.7723 104.937 76.3753 101.142L75.4686 102.695Z" fill="#CE8888"/>
<path d="M99.3958 77.6312C96.9863 77.3828 93.9931 77.302 90.6459 79.401C87.2987 81.5062 86.1375 84.4435 84.5167 87.0021C82.8959 89.5668 77.2944 98.652 77.2944 98.652C77.2944 98.652 79.3499 107.278 87.5285 109.054L99.7684 92.4482L99.3958 77.6312Z" fill="#455A64"/>
<path d="M110.37 229.292C110.966 229.217 111.81 231.329 111.823 232.024C111.835 232.714 111.146 234.198 110.227 235.589C109.308 236.98 108.041 238.7 107.215 240.948C106.513 242.861 105.868 244.115 103.911 246.618C101.738 249.406 96.6333 254.076 88.8832 252.045C86.9891 251.549 86.0452 250.952 85.3621 250.263C84.7846 249.686 84.5113 248.742 84.8218 247.891L110.37 229.292Z" fill="#263238"/>
<path d="M95.1487 226.87C95.1425 226.895 95.1362 226.913 95.13 226.938C94.9934 227.51 95.1114 228.106 95.1797 228.683C95.4343 230.72 95.1611 232.825 94.3973 234.732C93.8818 236.011 93.149 237.203 92.2424 238.247C91.3171 239.302 89.8019 240.42 88.622 241.178C84.6972 243.687 84.275 245.357 84.8276 247.891C86.138 250.841 95.0431 252.635 100.16 248.245C102.16 246.531 103.675 245.022 105.029 241.619C105.979 239.228 106.693 237.874 107.612 236.154C108.606 234.291 110.481 232.192 110.537 230.273C110.568 229.217 109.525 227.255 108.506 225.64C107.575 224.156 106.619 222.747 105.78 222.914L106.01 223.753C105.314 224.479 104.302 224.746 103.687 225.597C102.93 226.646 102.961 228.056 102.489 229.261C102.445 229.379 102.383 229.503 102.259 229.54C102.135 229.578 101.992 229.491 101.93 229.373C101.868 229.255 101.862 229.118 101.855 228.988C101.837 228.385 101.818 227.783 101.8 227.181C101.787 226.833 101.769 226.46 101.539 226.199C101.054 225.653 99.8621 225.715 99.1976 225.69C98.2909 225.653 97.4215 225.796 96.5211 225.852C96.1857 225.87 95.9373 225.852 95.6517 226.081C95.4095 226.274 95.2294 226.566 95.1487 226.87Z" fill="#37474F"/>
<path d="M81.9893 190.765C84.0572 197.565 93.7262 221.101 94.3037 222.517C94.8874 223.933 96.2288 227.187 96.2288 227.187C96.2288 227.187 97.8061 227.839 100.154 227.348C100.358 229.602 100.694 233.136 100.83 234.924C100.874 236.992 101.054 239.545 100.613 241.588C100.234 243.326 99.7933 245.152 99.4642 246.897C99.3214 247.667 99.1723 248.443 99.0606 249.22C98.9364 250.039 98.8556 250.927 99.2531 251.66C99.4394 252.002 99.7188 252.281 100.017 252.53C101.358 253.635 103.159 254.101 104.892 253.958C105.805 253.883 106.73 253.635 107.475 253.101C108.978 252.027 109.506 250.157 110.27 248.568C111.102 246.841 110.829 246.655 110.903 244.811C110.953 243.519 111.313 240.24 111.828 236.812C112.344 233.384 114.567 221.337 115.635 209.333C116.374 201.024 115.635 193.311 115.635 193.311C124.118 170.266 127.894 156.56 129.005 148.91C130.129 141.135 129.589 138.365 129.446 133.894L88.1931 134.887C84.8769 156.219 79.2134 181.649 81.9893 190.765Z" fill="#F0B1B1"/>
<path d="M81.3435 173.75C82.1943 165.913 88.0565 135.788 88.0565 135.788H129.614C129.614 135.788 129.875 141.569 129.8 144.227C129.726 146.885 128.875 151.741 127.384 157.877C125.894 164.012 120.398 181.407 119.336 183.971C118.274 186.536 116.219 193.951 116.219 193.951C117.237 207.886 114.586 220.393 112.598 237.017C112.598 237.017 112.021 239.265 106.134 238.818C100.408 238.383 99.2531 236.278 99.2531 236.278L98.8681 221.933C98.8681 221.933 95.7383 222.896 93.9001 222.455C93.9001 222.455 81.5981 192.088 81.0019 190.256C80.4182 188.424 80.4927 181.587 81.3435 173.75Z" fill="#039E00"/>
<path opacity="0.45" d="M81.3435 173.75C82.1943 165.913 88.0565 135.788 88.0565 135.788H129.614C129.614 135.788 129.875 141.569 129.8 144.227C129.726 146.885 128.875 151.741 127.384 157.877C125.894 164.012 120.398 181.407 119.336 183.971C118.274 186.536 116.219 193.951 116.219 193.951C117.237 207.886 114.586 220.393 112.598 237.017C112.598 237.017 112.021 239.265 106.134 238.818C100.408 238.383 99.2531 236.278 99.2531 236.278L98.8681 221.933C98.8681 221.933 95.7383 222.896 93.9001 222.455C93.9001 222.455 81.5981 192.088 81.0019 190.256C80.4182 188.424 80.4927 181.587 81.3435 173.75Z" fill="black"/>
<path opacity="0.2" d="M98.9743 155.424C93.0872 150.114 91.7831 145.898 91.7831 145.898C96.1673 151.077 102.148 154.2 102.148 154.2C102.148 154.2 96.5586 183.71 96.9684 189.778C97.3721 195.845 98.8873 221.933 98.8873 221.933C98.8997 222.181 94.9253 194.348 94.8136 192.119C94.5093 186.256 98.9743 155.424 98.9743 155.424Z" fill="black"/>
<path d="M111.928 251.791C112.506 251.958 112.437 253.685 112.176 254.324C111.916 254.964 110.885 256.187 109.494 257.106C108.103 258.025 106.805 259.311 105.55 261.354C104.656 262.807 102.408 265.564 99.3715 267.384C96.3348 269.203 91.8387 269.843 88.504 268.893C84.6041 267.787 84.2439 266.831 84.2812 265.359L111.928 251.791Z" fill="#263238"/>
<path d="M99.8618 242.761C98.8372 247.754 97.0549 251.375 92.9252 254.448C89.6402 256.889 87.2493 258.131 84.6287 260.317C83.5109 261.248 83.4177 263.229 84.2747 265.366C86.0446 266.788 88.5658 267.601 91.9565 267.601C95.7384 267.595 97.1977 266.931 99.3712 265.44C100.619 264.583 101.489 263.801 102.34 262.95C104.159 261.124 105.426 258.876 106.736 257.429C108.047 255.982 110.891 254.504 111.692 252.759C112.133 251.803 111.946 249.58 111.648 247.692C111.375 245.959 111.909 242.917 111.071 242.743C111.089 242.749 110.959 243.985 110.959 243.985C110.891 244.264 110.717 244.407 110.127 244.612C109.736 244.748 108.935 244.73 108.531 244.662C108.053 244.581 107.78 244.587 107.463 244.966C106.904 245.624 106.755 246.556 106.035 247.102C105.985 247.139 105.929 247.177 105.867 247.189C105.805 247.201 105.736 247.189 105.693 247.139C105.65 247.083 105.656 247.009 105.662 246.934C105.73 246.313 105.799 245.699 105.867 245.078C105.886 244.891 105.91 244.699 105.879 244.512C105.83 244.165 105.569 243.873 105.277 243.699C104.768 243.388 104.178 243.165 103.606 243.003C103.004 242.836 102.377 242.743 101.756 242.687C101.135 242.625 100.483 242.612 99.8618 242.761Z" fill="#455A64"/>
<path d="M125.863 79.4072C125.863 79.4072 127.577 81.7608 128.943 86.5984C128.943 86.5984 131.551 97.6584 131.551 110.768C131.551 121.735 130.073 139.52 130.073 139.52C117.337 145.904 96.7941 142.128 87.7585 135.906C88.1249 133.931 88.4354 123.548 89.1434 116.698C89.6278 104.949 90.019 98.7886 90.1059 93.566C90.2736 83.1208 95.4714 77.7243 99.3961 77.6436L109.369 77.7988L125.863 79.4072Z" fill="#039E00"/>
<path d="M129.005 136.291C127.111 137.85 123.392 140.843 122.715 142.352C121.938 144.078 121.454 146.68 120.945 147.686C120.436 148.692 121.218 149.158 122.305 148.81C123.398 148.463 124.05 147.525 124.894 145.271C125.739 143.01 128.086 141.24 128.086 141.24L129.005 136.291Z" fill="#CE8888"/>
<path d="M122.088 156.616C122.541 157.492 123.597 157.492 124.578 157.573C125.975 157.684 126.764 157.585 128.099 157.175C129.434 156.759 130.682 155.97 131.484 154.821C132.44 153.449 132.682 151.723 133.229 150.139C134.377 146.817 137.78 144.42 138.333 140.899C138.563 139.439 138.563 137.732 138.979 136.825C139.221 136.291 144.816 126.659 146.81 122.486C148.729 118.474 150.163 116.586 148.424 111.768C146.686 106.949 140.761 89.9891 136.576 84.0958C134.197 80.7548 130.428 79.7985 125.857 79.4072C122.38 88.4676 126.429 97.8199 126.429 97.8199L135.626 115.568C135.626 115.568 132.049 127.789 129.813 134.583C129.192 136.471 127.938 137.638 126.528 139.731C125.913 140.638 124.51 142.234 124.007 143.209C123.361 144.463 123.379 145.27 123.075 147.028C122.597 149.822 121.87 156.2 122.088 156.616Z" fill="#F0B1B1"/>
<path d="M125.373 79.3577C127.776 79.4508 131.229 79.8607 133.291 80.904C135.359 81.9472 136.787 83.2327 139.159 87.9896C141.537 92.7464 144.996 101.987 144.996 101.987C144.996 101.987 143.848 108.961 132.819 110.768L125.367 97.0251C125.373 97.0251 122.05 88.4615 125.373 79.3577Z" fill="#455A64"/>
<path d="M96.7195 57.1631C97.0796 57.6847 97.2784 58.4051 97.564 58.9764C97.9615 59.7837 98.3651 60.5972 98.9551 61.2865C100.383 62.9322 102.395 64.1369 104.221 65.3044C105.333 66.0123 106.6 66.6768 107.953 66.4843C109.332 66.2856 110.816 66.5837 112.22 66.7141C113.847 66.8631 115.48 67.0059 117.107 67.155L116.834 72.2906C116.834 72.2906 117.436 70.9307 118.268 69.3036C118.982 67.9064 121.944 60.8146 121.957 60.7897C123.429 57.2749 125.174 52.5987 123.416 48.9038C123 48.0344 122.385 47.2209 121.504 46.7117C121.684 46.0348 121.74 45.5628 121.665 44.9604C121.429 42.9732 120.417 41.8368 119.069 40.8494C117.722 39.862 116.088 39.328 114.461 38.9492C112.276 38.4461 110.034 38.1977 107.792 38.2102C105.562 38.2164 103.439 38.5952 101.247 38.9616C100.042 39.1665 98.8247 39.328 97.6013 39.3404C97.0859 39.3466 96.5145 39.3776 96.0239 39.2659C95.3843 39.1168 94.7385 38.8001 94.1175 38.5766C94.0057 38.5393 93.8815 38.4958 93.7759 38.5517C93.6704 38.6014 93.6207 38.7318 93.5896 38.8436C93.1984 40.2781 93.689 42.1473 94.6019 43.321C94.2293 43.2713 93.9374 43.1471 93.7946 43.085C93.4903 42.9608 93.2294 42.7869 92.9562 42.6131C92.4594 42.3026 92.1551 41.9424 91.7763 41.489C91.7204 41.4269 91.6645 41.3586 91.5838 41.3462C91.4596 41.3214 91.354 41.4331 91.2795 41.5325C90.5716 42.5013 90.3977 43.793 90.6337 44.9666C90.8696 46.1403 91.4906 47.2084 92.2483 48.1399C91.4347 49.3447 91.4223 50.9841 92.0309 52.3069C92.2979 52.8906 92.6767 53.4247 93.1301 53.8842C93.689 54.4555 94.3472 54.9213 94.9372 55.4553C95.5396 55.9894 96.2599 56.4862 96.7195 57.1631Z" fill="#37474F"/>
<path d="M111.605 48.6057C111.617 49.9719 111.809 50.9345 111.959 51.3505C112.25 52.1951 112.729 52.7478 113.343 53.3936C113.977 54.0519 114.759 54.5797 115.268 55.3373C115.964 56.3682 116.206 57.7034 116.349 58.9143C116.436 59.6471 116.666 60.4544 117.293 60.8394C118.622 61.6591 119.417 60.0694 120.125 59.2869C121.038 58.4423 123.745 57.4115 125 60.2929C126.297 63.2737 123.907 67.2233 121.721 67.8319C117.964 68.8814 117.144 66.3228 117.144 66.3228L116.424 79.7364C114.3 83.7543 109.319 85.0336 106.047 84.3939C103.221 83.8412 101.669 81.8603 104.326 78.9912L104.469 74.9051C104.469 74.9051 101.079 75.3087 99.4454 74.9982C96.7254 74.489 95.3716 72.1727 94.6388 69.1856C93.4589 64.3853 92.9187 59.3366 94.378 48.5312C95.0487 48.1648 97.7314 50.2576 101.799 50.537C105.848 50.8103 109.58 49.7235 111.605 48.6057Z" fill="#F0B1B1"/>
<path d="M104.482 74.905C104.482 74.905 110.63 73.8741 112.803 72.806C114.256 72.0919 115.48 70.8126 115.852 69.9805C115.852 69.9805 115.393 71.7814 114.064 73.3711C112.437 75.3149 104.432 76.5258 104.432 76.5258L104.482 74.905Z" fill="#CE8888"/>
<path d="M107.655 53.3812L110.518 54.2568C110.742 53.4433 110.282 52.5801 109.493 52.3441C108.698 52.1019 107.879 52.5677 107.655 53.3812Z" fill="#263238"/>
<path d="M106.662 66.9688L102.451 68.3971C102.824 69.6018 104.072 70.2601 105.233 69.8688C106.395 69.4714 107.034 68.1735 106.662 66.9688Z" fill="#CE8888"/>
<path d="M106.32 67.9995C105.158 67.9995 104.183 68.8006 103.916 69.8811C104.332 70.0116 104.786 70.0116 105.227 69.8625C106.046 69.5831 106.593 68.8627 106.723 68.0368C106.593 68.0181 106.456 67.9995 106.32 67.9995Z" fill="#F28F8F"/>
<path d="M94.8747 53.8593L97.781 53.4743C97.6941 52.6856 96.9737 52.1267 96.1726 52.2323C95.3715 52.3441 94.794 53.0706 94.8747 53.8593Z" fill="#263238"/>
<path d="M112.778 55.1013L122.385 58.3926C122.385 58.3926 120.882 58.2684 119.616 59.7961L112.816 57.2127L112.778 55.1013Z" fill="#263238"/>
<path d="M96.3093 58.8522C96.2907 59.5104 96.7875 60.0569 97.4209 60.0756C98.0544 60.0942 98.5884 59.5788 98.607 58.9205C98.6257 58.2622 98.1351 57.7158 97.4954 57.6909C96.862 57.6723 96.328 58.1877 96.3093 58.8522Z" fill="#263238"/>
<path d="M107.282 58.8522C107.264 59.5104 107.761 60.0569 108.394 60.0755C109.027 60.0942 109.561 59.5787 109.58 58.9205C109.599 58.2622 109.102 57.7157 108.468 57.6909C107.835 57.6785 107.301 58.1939 107.282 58.8522Z" fill="#263238"/>
<path d="M90.6397 55.7969C90.6832 56.3806 91.0558 56.9209 91.2483 57.1507C91.3476 57.2687 91.4408 57.4301 91.4905 57.6351C91.714 58.5603 91.9066 60.3116 92.3413 61.2927C92.7822 62.2739 93.7012 63.8326 96.2784 63.8885C96.7814 63.9009 97.2223 63.8575 97.6198 63.7767C97.657 63.7705 97.6881 63.7643 97.7191 63.7519C98.1352 63.6525 98.4954 63.5097 98.8059 63.3234C98.8307 63.311 98.8493 63.2986 98.868 63.2799C98.899 63.2613 98.9301 63.2427 98.9611 63.2241C98.9859 63.2054 99.017 63.1868 99.0791 63.1433C99.1164 63.1185 99.1536 63.0874 99.1847 63.0626C99.2281 63.0315 99.2654 63.0005 99.3027 62.9632C99.3399 62.9322 99.3772 62.9011 99.4144 62.8639C99.489 62.7956 99.5573 62.7273 99.6256 62.6527C100.004 62.2367 100.284 61.7523 100.501 61.2617C101.066 59.9824 100.923 58.194 101.855 57.989C101.892 57.9828 101.929 57.9766 101.967 57.9704C102.004 57.9642 102.047 57.9642 102.091 57.9642C103.358 57.9828 103.221 59.9328 103.929 61.3238C104.637 62.7148 105.811 64.0748 108.568 64.1121C108.692 64.1121 108.81 64.1121 108.922 64.1121C109.021 64.1059 109.114 64.0997 109.208 64.0935C109.444 64.0748 109.667 64.0438 109.872 64.0003C109.94 63.9817 110.015 63.9693 110.083 63.9506C110.152 63.932 110.22 63.9134 110.282 63.8947C110.325 63.8823 110.369 63.8699 110.406 63.8575C110.686 63.7581 110.934 63.6401 111.151 63.5097C111.238 63.4538 111.319 63.3979 111.4 63.342C111.555 63.2241 111.698 63.0999 111.828 62.9632C112.244 62.5347 112.493 62.0566 112.66 61.6716C113.089 60.709 113.201 58.9578 113.412 58.0449C113.468 57.8027 113.542 57.6351 113.623 57.5171C113.803 57.2562 114.225 56.7967 114.244 56.213C114.263 55.6292 113.846 55.12 113.474 55.0641C113.257 55.0331 113.033 55.002 112.797 54.9772C110.623 54.7164 107.792 54.5984 106.096 55.0579C103.973 55.6416 103.234 56.3185 102.047 56.3061C100.936 56.2813 100.222 55.5733 98.2035 54.9151C96.5951 54.3934 93.9496 54.4059 91.9252 54.5922C91.7078 54.6108 91.4967 54.6356 91.298 54.6605C90.9688 54.6915 90.6024 55.2132 90.6397 55.7969ZM104.625 57.132C104.736 56.9644 104.948 56.7967 105.227 56.6352C105.264 56.6104 105.295 56.5918 105.339 56.5731C105.357 56.5607 105.376 56.5545 105.401 56.5421C105.494 56.4924 105.593 56.4427 105.699 56.3993C105.786 56.362 105.879 56.3247 105.978 56.2875C106.258 56.1819 106.568 56.0826 106.885 56.0018C107.003 55.9708 107.127 55.9459 107.245 55.9149C107.556 55.8466 107.866 55.7969 108.177 55.7658C108.251 55.7596 108.326 55.7534 108.394 55.7472C110.443 55.5795 111.716 56.0639 112.182 56.48C112.66 56.9147 112.443 58.8087 112.251 59.7651C112.244 59.7899 112.238 59.8148 112.238 59.8334C112.232 59.8582 112.226 59.8831 112.226 59.9079C112.201 60.0259 112.176 60.1563 112.139 60.2929C112.12 60.3675 112.095 60.4482 112.07 60.5351C112.07 60.5413 112.07 60.5413 112.064 60.5475C112.027 60.678 111.983 60.8084 111.928 60.9512C111.909 60.9947 111.89 61.0443 111.872 61.0878C111.859 61.1127 111.847 61.1437 111.834 61.1685C111.822 61.1996 111.81 61.2306 111.791 61.2617C111.772 61.299 111.754 61.3362 111.735 61.3735C111.716 61.4169 111.692 61.4604 111.667 61.5039C111.642 61.5474 111.617 61.5908 111.586 61.6405C111.561 61.684 111.53 61.7337 111.499 61.7771C110.99 62.5099 110.133 63.1309 108.636 63.1247C107.158 63.1247 106.214 62.6155 105.612 61.9696C105.016 61.33 104.749 60.56 104.618 60.0321C104.37 58.964 104.227 57.7158 104.625 57.132ZM92.5896 56.126C92.7014 56.0205 92.8691 55.9087 93.0927 55.8093C93.1051 55.8031 93.1175 55.7969 93.1299 55.7907C93.1982 55.7596 93.2727 55.7286 93.3535 55.7037C93.3969 55.6913 93.4404 55.6727 93.4901 55.6603C93.5274 55.6479 93.5646 55.6354 93.6019 55.6292C93.6267 55.623 93.6516 55.6168 93.6764 55.6106C93.6888 55.6044 93.695 55.6044 93.7075 55.6044C93.7447 55.5982 93.782 55.5858 93.8192 55.5795C93.9621 55.5485 94.1235 55.5237 94.2912 55.505C94.3719 55.4926 94.4589 55.4864 94.5458 55.4802C94.5955 55.474 94.6452 55.474 94.701 55.4678C94.7383 55.4678 94.7818 55.4616 94.819 55.4616C94.9246 55.4616 95.0364 55.4553 95.1482 55.4553C95.1854 55.4553 95.2289 55.4553 95.2662 55.4553C95.3034 55.4553 95.3407 55.4553 95.3779 55.4616C95.6698 55.474 95.9865 55.4988 96.3219 55.5485C97.7812 55.7596 99.3089 56.4365 99.7001 57.0327C100.098 57.6351 100.011 58.8771 99.8181 59.9452C99.7808 60.1563 99.7249 60.4047 99.6318 60.6593C99.6256 60.678 99.6194 60.6966 99.6132 60.7152C99.6069 60.7401 99.5945 60.7649 99.5883 60.7897C99.5821 60.8084 99.5759 60.8208 99.5697 60.8394C99.5573 60.8705 99.5449 60.8953 99.5324 60.9264C99.5076 60.9885 99.4828 61.0443 99.4517 61.1002C99.4269 61.1499 99.402 61.1996 99.3772 61.2493C99.3648 61.2679 99.3586 61.2865 99.3461 61.3052C99.3275 61.3362 99.3089 61.3735 99.284 61.4045C99.2654 61.4356 99.2468 61.4604 99.2281 61.4915C99.2281 61.4977 99.2219 61.5039 99.2219 61.5039C98.7127 62.2801 97.806 62.9508 96.1852 62.8949C95.5704 62.8763 95.0674 62.7397 94.6514 62.5285C93.1982 61.7895 92.8318 60.1625 92.658 59.4049C92.4406 58.4486 92.1549 56.5421 92.5896 56.126Z" fill="#263238"/>
<path d="M102.445 58.0386L102.227 66.0184L97.7749 64.7329L101.929 57.9703C102.122 57.9516 102.29 57.9827 102.445 58.0386Z" fill="#CE8888"/>
<path d="M164.706 59.0509C177.413 59.0509 187.714 50.0288 187.714 38.8995C187.714 27.7702 177.413 18.748 164.706 18.748C151.999 18.748 141.698 27.7702 141.698 38.8995C141.698 50.0288 151.999 59.0509 164.706 59.0509Z" fill="#039E00"/>
<path d="M146.344 50.5557C146.219 53.257 143.934 58.0884 139.798 59.8458C139.537 59.9576 139.569 60.3302 139.848 60.3861C142.108 60.8581 148.132 61.4232 152.578 55.5671L146.344 50.5557Z" fill="#039E00"/>
<path d="M149.107 37.3036C149.157 36.3969 149.355 35.5461 149.703 34.7451C150.051 33.944 150.541 33.2484 151.181 32.6585C151.821 32.0685 152.597 31.6028 153.51 31.255C154.423 30.9073 155.478 30.7334 156.671 30.7334C157.851 30.7334 158.9 30.9073 159.819 31.255C160.738 31.6028 161.521 32.0685 162.154 32.6585C162.794 33.2484 163.284 33.944 163.632 34.7451C163.98 35.5461 164.179 36.3969 164.228 37.3036C164.259 37.9991 164.278 38.7257 164.278 39.4833C164.278 40.2409 164.259 40.9551 164.228 41.6133C164.179 42.52 163.98 43.3707 163.632 44.1718C163.284 44.9729 162.794 45.6684 162.154 46.2708C161.515 46.867 160.738 47.3389 159.819 47.6743C158.9 48.0158 157.851 48.1835 156.671 48.1835C155.478 48.1835 154.423 48.0158 153.51 47.6743C152.597 47.3327 151.821 46.867 151.181 46.2708C150.541 45.6747 150.051 44.9729 149.703 44.1718C149.355 43.3707 149.157 42.52 149.107 41.6133C149.076 40.9488 149.057 40.2409 149.057 39.4833C149.057 38.7257 149.076 37.9991 149.107 37.3036ZM159.745 41.4953C159.763 41.2035 159.776 40.8805 159.794 40.5266C159.813 40.1726 159.819 39.8062 159.819 39.4398C159.819 39.0672 159.813 38.707 159.794 38.3593C159.776 38.0115 159.763 37.701 159.745 37.4278C159.714 37.0241 159.627 36.6515 159.49 36.3162C159.353 35.9746 159.161 35.6828 158.906 35.4344C158.658 35.186 158.347 34.9872 157.975 34.8382C157.602 34.6954 157.168 34.6209 156.665 34.6209C156.161 34.6209 155.727 34.6954 155.354 34.8382C154.982 34.981 154.671 35.1798 154.423 35.4344C154.174 35.6828 153.982 35.9808 153.839 36.3162C153.702 36.6577 153.615 37.0241 153.584 37.4278C153.553 37.701 153.528 38.0115 153.522 38.3593C153.516 38.707 153.51 39.0672 153.51 39.4398C153.51 39.8124 153.516 40.1726 153.522 40.5266C153.528 40.8805 153.547 41.2035 153.584 41.4953C153.646 42.3026 153.926 42.9733 154.423 43.5074C154.913 44.0414 155.665 44.3085 156.665 44.3085C157.664 44.3085 158.41 44.0414 158.894 43.5074C159.378 42.9733 159.664 42.3026 159.745 41.4953Z" fill="#FAFAFA"/>
<path d="M181.43 47.1402C181.48 47.2023 181.505 47.2955 181.505 47.4072C181.505 47.5501 181.449 47.6805 181.349 47.7798C181.244 47.8854 181.12 47.9351 180.977 47.9351H177.114C176.891 47.9351 176.704 47.8854 176.555 47.7923C176.412 47.6929 176.263 47.5563 176.12 47.3824L171.544 41.6133V47.283C171.544 47.4631 171.482 47.6122 171.351 47.7426C171.221 47.873 171.072 47.9351 170.892 47.9351H167.718C167.538 47.9351 167.389 47.873 167.259 47.7426C167.128 47.6122 167.066 47.4631 167.066 47.283V31.6338C167.066 31.4538 167.128 31.3047 167.259 31.1743C167.389 31.0439 167.544 30.9818 167.718 30.9818H170.892C171.072 30.9818 171.221 31.0439 171.351 31.1743C171.482 31.3047 171.544 31.46 171.544 31.6338V36.7447L175.81 31.5096C175.891 31.4103 175.996 31.2985 176.127 31.1681C176.257 31.0377 176.474 30.9756 176.779 30.9756H180.561C180.703 30.9756 180.834 31.0315 180.939 31.1308C181.045 31.2364 181.095 31.3606 181.095 31.5034C181.095 31.6152 181.07 31.7084 181.02 31.7705L175.034 39.0858L181.43 47.1402Z" fill="#FAFAFA"/>
<path d="M224.074 57.9518L220.59 59.0013L218.075 50.5992L221.546 49.5559L224.074 57.9518Z" fill="#E0E0E0"/>
<path d="M234.947 50.4935C235.084 50.9469 234.637 51.9156 233.96 52.1206C233.96 52.1206 234.283 52.4621 234.451 53.0086C234.649 53.6606 234.121 54.5363 233.072 54.8468C232.029 55.1573 225.105 57.2438 225.105 57.2438L222.757 49.4441H222.751C222.751 49.4441 224.105 45.9913 224.167 45.4759C224.248 44.9666 223.434 43.0415 223.329 42.6814C223.242 42.3895 224.508 41.8492 225.527 42.2653C225.763 42.3584 225.986 42.5013 226.179 42.7124C226.576 43.1471 226.874 43.5756 227.092 44.0227C227.433 44.7058 227.576 45.42 227.576 46.2273L232.389 44.7803C232.793 44.6624 233.14 44.6934 233.42 44.8114C233.848 44.9915 234.122 45.3579 234.215 45.6559C234.438 46.3577 234.028 46.898 233.805 47.1091C233.805 47.1091 234.829 47.0221 235.121 47.9909C235.283 48.5312 235.016 49.2515 234.326 49.6055C234.333 49.5931 234.749 49.8166 234.947 50.4935Z" fill="#E0E0E0"/>
<path d="M273.99 145.072L269.531 143.998L272.133 133.229L276.592 134.304L273.99 145.072Z" fill="#E0E0E0"/>
<path d="M290.614 143.861C290.477 144.438 289.372 145.215 288.503 145.004C288.503 145.004 288.639 145.587 288.472 146.283C288.273 147.121 287.136 147.736 285.801 147.407C284.466 147.084 275.58 144.948 275.58 144.948L277.989 134.943L277.983 134.937C277.983 134.937 281.659 132.031 282.057 131.509C282.466 131 282.808 128.392 282.92 127.926C283.013 127.547 284.733 127.771 285.584 128.87C285.776 129.125 285.932 129.423 286.006 129.777C286.161 130.509 286.217 131.168 286.168 131.789C286.106 132.757 285.807 133.621 285.292 134.502L291.465 135.987C291.98 136.111 292.34 136.372 292.57 136.676C292.924 137.142 292.992 137.719 292.899 138.104C292.694 139.011 291.899 139.34 291.527 139.433C291.527 139.433 292.701 139.992 292.402 141.234C292.235 141.93 291.483 142.544 290.508 142.489C290.515 142.495 290.825 142.998 290.614 143.861Z" fill="#E0E0E0"/>
<path d="M48.4553 138.632L53.3302 140.098L56.8575 128.336L51.9888 126.87L48.4553 138.632Z" fill="#E0E0E0"/>
<path d="M33.2222 128.181C33.0359 128.814 33.6569 130.174 34.607 130.46C34.607 130.46 34.1537 130.938 33.9239 131.702C33.6445 132.615 34.3897 133.838 35.8553 134.273C37.3146 134.707 47.0146 137.632 47.0146 137.632L50.2997 126.709H50.3059C50.3059 126.709 48.4119 121.878 48.3187 121.151C48.2069 120.437 49.3434 117.742 49.4924 117.239C49.6166 116.829 47.8406 116.077 46.4123 116.655C46.0831 116.792 45.7726 116.99 45.4994 117.282C44.9405 117.897 44.5244 118.493 44.2201 119.114C43.7357 120.07 43.5432 121.07 43.5432 122.2L36.8054 120.17C36.2403 120.002 35.7497 120.052 35.3647 120.213C34.7623 120.462 34.3773 120.977 34.2531 121.393C33.9426 122.381 34.5201 123.138 34.8244 123.43C34.8244 123.43 33.3899 123.312 32.98 124.666C32.7503 125.423 33.1291 126.429 34.0916 126.926C34.0854 126.926 33.5079 127.237 33.2222 128.181Z" fill="#E0E0E0"/>
</svg>
