<svg width="128" height="128" viewBox="0 0 128 128" fill="none" xmlns="http://www.w3.org/2000/svg">
<circle cx="64" cy="64" r="64" fill="#0066FF"/>
<path d="M63.9167 31C82.0959 31 96.8333 45.7373 96.8333 63.9167C96.8333 82.0959 82.0959 96.8333 63.9167 96.8333C58.5898 96.8333 53.442 95.5647 48.8173 93.173L36.224 96.6862C34.0353 97.2975 31.7656 96.0186 31.1544 93.83C30.9521 93.1059 30.9522 92.3399 31.1545 91.6164L34.6689 79.0327C32.2718 74.4039 31 69.2502 31 63.9167C31 45.7373 45.7373 31 63.9167 31ZM63.9167 35.9375C48.4642 35.9375 35.9375 48.4642 35.9375 63.9167C35.9375 68.7541 37.1645 73.4079 39.4696 77.5359L39.9654 78.4237L36.3027 91.5384L49.4253 87.8774L50.3125 88.3721C54.4369 90.6717 59.0852 91.8958 63.9167 91.8958C79.3691 91.8958 91.8958 79.3691 91.8958 63.9167C91.8958 48.4642 79.3691 35.9375 63.9167 35.9375ZM63.9167 75.4375C65.7347 75.4375 67.2083 76.9112 67.2083 78.7292C67.2083 80.5472 65.7347 82.0208 63.9167 82.0208C62.0987 82.0208 60.625 80.5472 60.625 78.7292C60.625 76.9112 62.0987 75.4375 63.9167 75.4375ZM63.9167 46.6354C68.916 46.6354 72.9688 50.6882 72.9688 55.6875C72.9688 59.0147 71.9895 60.8686 69.5089 63.4512L68.9539 64.0164C66.9068 66.0635 66.3854 66.9328 66.3854 68.8542C66.3854 70.2176 65.2801 71.3229 63.9167 71.3229C62.5533 71.3229 61.4479 70.2176 61.4479 68.8542C61.4479 65.527 62.4272 63.6731 64.9078 61.0904L65.4628 60.5253C67.5098 58.4782 68.0312 57.6088 68.0312 55.6875C68.0312 53.4151 66.1892 51.5729 63.9167 51.5729C61.7863 51.5729 60.0341 53.192 59.8235 55.2668L59.8021 55.6875C59.8021 57.0509 58.6967 58.1562 57.3333 58.1562C55.9699 58.1562 54.8646 57.0509 54.8646 55.6875C54.8646 50.6882 58.9173 46.6354 63.9167 46.6354Z" fill="white"/>
</svg>
