<svg width="32" height="32" viewBox="0 0 32 32" fill="none" xmlns="http://www.w3.org/2000/svg">
<g id="Theme=Light, Name=Bank, State=Fill">
<g id="Group">
<path id="Vector" d="M15.1382 4.45919C15.9394 3.84693 17.0513 3.84694 17.8525 4.4592L27.3595 11.7247C28.5705 12.6501 27.9195 14.5823 26.3988 14.5896H6.59137C5.07065 14.5823 4.41977 12.6501 5.63071 11.7247L15.1382 4.45919ZM16.4946 11.237C17.2882 11.237 17.9314 10.5937 17.9314 9.80021C17.9314 9.00668 17.2882 8.36338 16.4946 8.36338C15.7011 8.36338 15.0578 9.00668 15.0578 9.80021C15.0578 10.5937 15.7011 11.237 16.4946 11.237Z" fill="currentColor"/>
<path id="Vector_2" d="M7.87384 16.5055V22.2528H10.7475V16.5055H7.87384Z" fill="currentColor"/>
<path id="Vector_3" d="M12.6629 16.5055V22.2528H15.5366V16.5055H12.6629Z" fill="currentColor"/>
<path id="Vector_4" d="M17.4528 16.5055V22.2528H20.3264V16.5055H17.4528Z" fill="currentColor"/>
<path id="Vector_5" d="M22.2418 16.5055V22.2528H25.1155V16.5055H22.2418Z" fill="currentColor"/>
<path id="Vector_6" d="M5 26.563C5 25.2404 6.07214 24.1683 7.39471 24.1683H25.5945C26.9171 24.1683 27.9892 25.2404 27.9892 26.563V27.042C27.9892 27.5709 27.5603 27.9999 27.0313 27.9999H5.95788C5.42886 27.9999 5 27.5709 5 27.042V26.563Z" fill="currentColor"/>
</g>
</g>
</svg>
