<svg width="32" height="32" viewBox="0 0 32 32" fill="none" xmlns="http://www.w3.org/2000/svg">
<g id="Theme=Light, Name=Bank, State=Base">
<g id="Group">
<path id="Vector" d="M16.3312 11.1351C17.1074 11.1351 17.7366 10.5058 17.7366 9.72965C17.7366 8.95346 17.1074 8.32422 16.3312 8.32422C15.555 8.32422 14.9258 8.95346 14.9258 9.72965C14.9258 10.5058 15.555 11.1351 16.3312 11.1351Z" fill="white"/>
<path id="Vector_2" d="M17.711 4.48992C16.9076 3.83674 15.7562 3.83668 14.9528 4.48981L5.57966 12.1093C4.43898 13.0366 5.09466 14.8827 6.56468 14.8827H6.96174V22.7529C5.84937 23.3216 5.08784 24.4787 5.08784 25.8137V27.063C5.08784 27.5804 5.50733 28 6.02479 28H26.6377C27.1551 28 27.5747 27.5804 27.5747 27.063V25.8137C27.5747 24.4787 26.8131 23.3216 25.7008 22.7529V14.8827H26.0973C27.5674 14.8827 28.223 13.0368 27.0826 12.1094L17.711 4.48992ZM16.1348 5.94389C16.2496 5.85057 16.4141 5.85058 16.5289 5.94389L25.2182 13.0088H7.44401L16.1348 5.94389ZM23.8269 22.3783H21.953V14.8827H23.8269V22.3783ZM20.0791 22.3783H17.2682V14.8827H20.0791V22.3783ZM15.3943 22.3783H12.5834V14.8827H15.3943V22.3783ZM24.1392 24.2522C25.0016 24.2522 25.7008 24.9513 25.7008 25.8137V26.1261H6.96174V25.8137C6.96174 24.9513 7.6609 24.2522 8.52332 24.2522H24.1392ZM10.7095 22.3783H8.83564V14.8827H10.7095V22.3783Z" fill="white"/>
</g>
</g>
</svg>
