<svg width="32" height="32" viewBox="0 0 32 32" fill="none" xmlns="http://www.w3.org/2000/svg">
<g id="Theme=Light, Name=Bot, State=Base">
<g id="Group">
<path id="Vector" d="M18.75 9.25012C17.9216 9.25012 17.25 9.9217 17.25 10.7501C17.25 11.5785 17.9216 12.2501 18.75 12.2501C19.5784 12.2501 20.25 11.5785 20.25 10.7501C20.25 9.9217 19.5784 9.25012 18.75 9.25012Z" fill="currentColor"/>
<path id="Vector_2" d="M11.2501 10.7501C11.2501 9.9217 11.9217 9.25012 12.7501 9.25012C13.5785 9.25012 14.2501 9.9217 14.2501 10.7501C14.2501 11.5785 13.5785 12.2501 12.7501 12.2501C11.9217 12.2501 11.2501 11.5785 11.2501 10.7501Z" fill="currentColor"/>
<path id="Vector_3" d="M16.4999 4.75C16.4999 4.33579 16.164 4 15.7499 4C15.3357 4 14.9999 4.33579 14.9999 4.75V5.5H10.4999C9.25723 5.5 8.24988 6.50735 8.24988 7.75V13.75C8.24988 14.9926 9.25723 16 10.4999 16H20.9999C22.2425 16 23.2499 14.9926 23.2499 13.75V7.75C23.2499 6.50735 22.2425 5.5 20.9999 5.5H16.4999V4.75ZM10.4999 7H20.9999C21.414 7 21.7499 7.33579 21.7499 7.75V13.75C21.7499 14.1642 21.414 14.5 20.9999 14.5H10.4999C10.0857 14.5 9.74988 14.1642 9.74988 13.75V7.75C9.74988 7.33579 10.0857 7 10.4999 7Z" fill="currentColor"/>
<path id="Vector_4" d="M16.125 27.9978C20.0484 27.9476 22.4173 27.1049 23.8077 25.8363C25.1205 24.6384 25.441 23.1722 25.492 22.0031H25.5V20.9688C25.5 19.4699 24.285 18.2549 22.786 18.2549H18V18.2502H13.5V18.2549H8.71395C7.21507 18.2549 6 19.4699 6 20.9688V22.0031H6.008C6.05897 23.1722 6.37946 24.6384 7.6923 25.8363C9.08259 27.1049 11.4516 27.9476 15.375 27.9978V28.0002H16.125V27.9978ZM8.71395 19.7549H22.786C23.4565 19.7549 24 20.2983 24 20.9688V21.6252C24 22.6596 23.8032 23.8098 22.7967 24.7283C21.7654 25.6692 19.7407 26.5002 15.75 26.5002C11.7592 26.5002 9.73453 25.6692 8.70336 24.7283C7.69684 23.8098 7.5 22.6596 7.5 21.6252V20.9688C7.5 20.2983 8.04349 19.7549 8.71395 19.7549Z" fill="currentColor"/>
</g>
</g>
</svg>
