<svg width="80" height="40" viewBox="0 0 80 40" fill="none" xmlns="http://www.w3.org/2000/svg">
<path d="M33.6291 11.1827C33.671 11.2388 33.7291 11.2805 33.7956 11.3023C33.8621 11.324 33.9336 11.3247 34.0005 11.3042C34.0673 11.2837 34.1263 11.2431 34.1692 11.1879C34.2121 11.1326 34.2369 11.0655 34.2402 10.9956L34.3443 9.43402C34.3486 9.37862 34.3394 9.32302 34.3176 9.27192C34.2958 9.22083 34.262 9.17577 34.219 9.14057C34.176 9.10537 34.1252 9.08107 34.0708 9.06974C34.0165 9.05842 33.9602 9.0604 33.9067 9.07552L32.8808 9.39477C32.8277 9.41223 32.7795 9.44204 32.7402 9.48176C32.7009 9.52148 32.6715 9.56997 32.6546 9.62324C32.6377 9.67651 32.6336 9.73304 32.6428 9.78818C32.6519 9.84333 32.674 9.89551 32.7073 9.94044L33.6291 11.1827Z" fill="#212121"/>
<path d="M31.8488 12.4069L30.4456 11.8182C30.3948 11.7976 30.3499 11.7647 30.3148 11.7226C30.2797 11.6805 30.2554 11.6304 30.2443 11.5767C30.2331 11.523 30.2353 11.4674 30.2506 11.4147C30.266 11.3621 30.2941 11.314 30.3324 11.2748L31.0642 10.4974C31.1017 10.4575 31.1483 10.4274 31.2001 10.4095C31.2518 10.3916 31.3071 10.3865 31.3613 10.3946C31.4154 10.4028 31.4668 10.424 31.5109 10.4563C31.5551 10.4887 31.5908 10.5313 31.6149 10.5804L32.2863 11.9465C32.3153 12.0087 32.325 12.0781 32.3139 12.1458C32.3029 12.2135 32.2718 12.2763 32.2245 12.326C32.1773 12.3758 32.1161 12.4101 32.0491 12.4245C31.9821 12.4389 31.9122 12.4328 31.8488 12.4069Z" fill="#212121"/>
<path d="M50.0463 15.5293C50.5353 15.9515 50.8417 16.547 50.9011 17.1905C50.904 17.218 50.9056 17.2457 50.9056 17.2735V24.402C50.9637 25.5249 50.7225 26.6432 50.2065 27.6422C49.6906 28.6412 48.9186 29.4851 47.9695 30.0874C47.0301 30.6488 45.9548 30.9415 44.8606 30.9335C44.126 30.9324 43.3967 30.8084 42.703 30.5667C42.0402 30.811 41.3394 30.9365 40.633 30.9372C39.6485 30.9463 38.6759 30.7225 37.7943 30.2841C36.9128 29.8456 36.1474 29.2049 35.5604 28.4141L32.9419 24.1371L31.0559 20.9513C30.793 20.4431 30.7128 19.8598 30.8288 19.2995C30.9447 18.7391 31.2497 18.2356 31.6926 17.8735C31.8623 17.7581 32.043 17.6598 32.232 17.5799C32.064 17.0999 32.0539 16.5787 32.2032 16.0925C32.3525 15.6064 32.6534 15.1807 33.0618 14.8779C33.2272 14.7762 33.4015 14.6896 33.5824 14.6191C33.5585 14.4237 33.5603 14.226 33.5877 14.0311C33.6383 13.6817 33.7662 13.348 33.9619 13.0543C34.1577 12.7605 34.4164 12.5141 34.7192 12.333C35.136 12.0998 35.6124 11.9953 36.0884 12.0325C36.5644 12.0697 37.0188 12.247 37.3943 12.542C37.5214 12.4071 37.6657 12.2896 37.8236 12.1926C38.3102 11.9009 38.8917 11.8117 39.4433 11.9443C39.7684 11.8573 40.1071 11.833 40.4413 11.8726C40.8702 11.9189 41.275 12.0941 41.6024 12.3752C41.7316 12.2375 41.8785 12.1174 42.0392 12.0182C42.5558 11.7138 43.1719 11.6264 43.7527 11.7754C44.3335 11.9243 44.8317 12.2974 45.1382 12.813L46.7013 15.6055C46.9067 15.3941 47.1518 15.2253 47.4225 15.1088C47.6931 14.9922 47.9841 14.9302 48.2788 14.9262C48.9237 14.8909 49.5573 15.1071 50.0463 15.5293ZM41.1082 18.3739H41.1037L41.0758 18.3935L41.0954 18.3814L41.1082 18.3739ZM35.9614 13.5392C35.8039 13.5279 35.6461 13.5572 35.5031 13.6243V13.6213C35.3903 13.6854 35.2937 13.7742 35.2203 13.8812C35.147 13.9882 35.099 14.1104 35.0799 14.2387C35.0602 14.3846 35.0913 14.5328 35.1681 14.6583L36.2876 16.3602C36.3108 16.0351 36.4076 15.7195 36.5705 15.4372C36.7335 15.1549 36.9584 14.9133 37.2284 14.7308C37.265 14.7085 37.3005 14.6922 37.336 14.6759C37.3606 14.6647 37.3852 14.6535 37.4102 14.6402C37.215 14.6151 37.0376 14.5143 36.9161 14.3594L36.4491 13.7556C36.4325 13.7342 36.4171 13.7117 36.4031 13.6885C36.271 13.6018 36.119 13.5504 35.9614 13.5392ZM34.2357 15.9919C34.0971 16.0318 33.9649 16.0916 33.8434 16.1693L33.8457 16.1663C33.7327 16.3028 33.6586 16.4671 33.631 16.6421C33.6034 16.8172 33.6233 16.9964 33.6887 17.161C33.7846 17.3448 33.8557 17.4782 33.9101 17.5804L33.9151 17.5897L34.975 19.1837C35.0585 18.7451 35.2604 18.3376 35.5589 18.0056L34.2357 15.9919ZM34.2319 23.3619L36.818 27.5885L36.8202 27.5854C37.2723 28.1814 37.8611 28.6598 38.537 28.9801C39.2128 29.3003 39.9558 29.4531 40.7031 29.4255C40.3454 29.1226 40.0271 28.776 39.7556 28.3938L37.1107 24.0744L35.9934 22.1876C35.8302 22.2781 35.639 22.3042 35.4575 22.2608C35.276 22.2173 35.1173 22.1075 35.0127 21.9528L32.9864 18.9165C32.8234 18.9567 32.6697 19.0279 32.5338 19.1264C32.415 19.2706 32.3353 19.4431 32.3024 19.6271C32.2695 19.8111 32.2845 20.0004 32.3459 20.177L34.2319 23.3619ZM43.8652 29.3489C45.0007 29.5763 46.1801 29.3819 47.1826 28.8021L47.1849 28.7991C47.8995 28.3391 48.4806 27.6991 48.8695 26.9432C49.2584 26.1874 49.4416 25.3424 49.4006 24.4933V17.321C49.3884 17.1914 49.3506 17.0654 49.2893 16.9505C49.2281 16.8357 49.1445 16.7341 49.0436 16.6519C48.9427 16.5696 48.8265 16.5083 48.7016 16.4714C48.5768 16.4346 48.4459 16.4229 48.3165 16.4372C48.1228 16.441 47.9372 16.5161 47.7953 16.6481C47.6533 16.78 47.565 16.9597 47.547 17.1527C47.8397 17.6788 48.0826 18.112 48.2026 18.3195C48.2928 18.492 48.3129 18.6927 48.2586 18.8797C48.2044 19.0666 48.0801 19.2254 47.9116 19.3228C47.7432 19.4202 47.5436 19.4488 47.3546 19.4024C47.1656 19.3561 47.0019 19.2386 46.8975 19.0743C46.7654 18.8463 46.5022 18.3761 46.1891 17.8139L46.1355 17.718V17.672C46.1322 17.667 46.1282 17.6625 46.1243 17.6581C46.1194 17.6526 46.1144 17.647 46.1106 17.6403L43.8474 13.5956C43.789 13.4724 43.6961 13.3686 43.58 13.297C43.4639 13.2253 43.3295 13.1888 43.1931 13.1919C43.0568 13.1949 42.9242 13.2373 42.8114 13.3141C42.6986 13.3908 42.6104 13.4986 42.5574 13.6243C42.776 13.977 43.0446 14.408 43.3297 14.8654L43.4137 15.0002C44.1311 16.1557 44.9081 17.3988 45.1624 17.7927C45.2711 17.9608 45.3087 18.1652 45.2668 18.3609C45.2249 18.5567 45.107 18.7277 44.9391 18.8365C44.7711 18.9453 44.5668 18.9829 44.3711 18.941C44.1755 18.8991 44.0045 18.7812 43.8957 18.6131C43.6324 18.2048 42.8471 16.9474 42.1327 15.801C41.9042 15.4343 41.6824 15.0776 41.4862 14.7621L41.1799 14.2696L41.1701 14.2538L41.1482 14.2183C41.1451 14.2148 41.1415 14.2119 41.1379 14.2088C41.1336 14.2053 41.1293 14.2017 41.1256 14.1972L40.6541 13.5836C40.6382 13.5617 40.6224 13.539 40.6088 13.5164C40.5101 13.426 40.382 13.3743 40.2482 13.3707C40.0583 13.3388 39.8632 13.3651 39.6885 13.4462C39.5738 13.5116 39.4755 13.6022 39.4009 13.7111C39.3263 13.8199 39.2773 13.9443 39.2577 14.0749C39.2385 14.2146 39.265 14.3568 39.3331 14.4802C39.6835 14.6191 40.0069 14.8181 40.289 15.0681C40.5216 15.3059 40.7266 15.5692 40.9 15.8531C41.1105 16.1716 41.3481 16.561 41.5835 16.9535C41.7593 17.2471 41.9335 17.5429 42.0957 17.8184L42.157 17.9218C42.4133 18.3541 42.6306 18.7205 42.7747 18.9437C42.8838 19.1118 42.9218 19.3163 42.8802 19.5123C42.8386 19.7084 42.7209 19.8798 42.5529 19.989C42.3849 20.0982 42.1805 20.1362 41.9845 20.0946C41.7886 20.053 41.6172 19.9352 41.5081 19.7671C41.3357 19.4999 41.074 19.0562 40.7931 18.5799L40.688 18.402L40.6873 18.4007C40.5567 18.1797 40.423 17.9534 40.2912 17.7339C40.0589 17.3452 39.8341 16.9791 39.6424 16.6886C39.5459 16.5353 39.4591 16.4169 39.395 16.3316C39.3658 16.2889 39.3396 16.2566 39.32 16.2325L39.3196 16.2319C39.3108 16.2212 39.3015 16.2108 39.2916 16.201C39.1256 16.0511 38.9326 15.9343 38.7228 15.8568C38.6669 15.8487 38.612 15.8346 38.5591 15.8146C38.3643 15.8378 38.1782 15.9089 38.0175 16.0214C37.9015 16.1601 37.8249 16.3274 37.7959 16.5059C37.7668 16.6844 37.7863 16.8674 37.8523 17.0357L38.0914 17.4803C38.4092 17.616 38.7048 17.799 38.968 18.0229C39.1706 18.2212 39.348 18.4438 39.4961 18.6856C39.659 18.9347 39.8325 19.2282 40.0008 19.5218C40.1019 19.6977 40.2014 19.8743 40.2973 20.0449L40.3025 20.0539L40.3331 20.108C40.5538 20.4991 40.7513 20.8488 40.9128 21.0985C40.969 21.1817 41.008 21.2752 41.0275 21.3737C41.0471 21.4721 41.0468 21.5735 41.0268 21.6718C41.0067 21.7701 40.9672 21.8635 40.9107 21.9464C40.8541 22.0293 40.7816 22.1 40.6973 22.1546C40.6131 22.2091 40.5188 22.2462 40.4201 22.2638C40.3213 22.2815 40.22 22.2792 40.1221 22.2572C40.0243 22.2352 39.9318 22.1938 39.85 22.1356C39.7683 22.0774 39.699 22.0035 39.6462 21.9181C39.4479 21.6126 39.2066 21.1842 38.9721 20.7678C38.8771 20.5987 38.7817 20.4298 38.6896 20.269C38.5252 19.9815 38.3698 19.7188 38.2317 19.5083C38.16 19.4018 38.0997 19.3135 38.0514 19.2509C38.0243 19.2145 37.9948 19.18 37.9632 19.1475C37.7952 19.0085 37.6063 18.8972 37.4034 18.8177C37.3481 18.8085 37.2939 18.7933 37.2419 18.7724C37.0416 18.8088 36.8518 18.889 36.686 19.0071C36.5657 19.1542 36.4853 19.3297 36.4522 19.5168C36.4192 19.704 36.4348 19.8964 36.4974 20.0758L38.4015 23.2963L41.0139 27.5666C41.7161 28.4878 42.7298 29.1215 43.8652 29.3489Z" fill="#212121"/>
<path d="M29.87 12.8876L31.1758 13.7647C31.2348 13.8055 31.2799 13.8632 31.3053 13.9303C31.3307 13.9973 31.3351 14.0705 31.318 14.1401C31.3009 14.2097 31.2631 14.2725 31.2096 14.3202C31.156 14.3678 31.0893 14.3981 31.0182 14.4069L29.4558 14.6107C29.3995 14.6177 29.3424 14.611 29.2893 14.591C29.2362 14.571 29.1887 14.5384 29.151 14.496C29.1133 14.4536 29.0865 14.4026 29.0728 14.3475C29.0591 14.2925 29.0591 14.2349 29.0726 14.1798L29.3306 13.099C29.3446 13.0441 29.3715 12.9934 29.409 12.951C29.4464 12.9086 29.4935 12.8757 29.5462 12.8551C29.5989 12.8344 29.6557 12.8266 29.712 12.8323C29.7683 12.8379 29.8225 12.8569 29.87 12.8876Z" fill="#212121"/>
</svg>
