<svg width="32" height="32" viewBox="0 0 32 32" fill="none" xmlns="http://www.w3.org/2000/svg">
<g id="Theme=Light, Name=Close, State=Base">
<path id="Vector" d="M16 15.1919L19.0245 12.1674C19.2477 11.9442 19.6095 11.9442 19.8326 12.1674C20.0558 12.3905 20.0558 12.7523 19.8326 12.9755L16.8081 16L19.8326 19.0245C20.0558 19.2477 20.0558 19.6095 19.8326 19.8326C19.6095 20.0558 19.2477 20.0558 19.0245 19.8326L16 16.8081L12.9755 19.8326C12.7523 20.0558 12.3905 20.0558 12.1674 19.8326C11.9442 19.6095 11.9442 19.2477 12.1674 19.0245L15.1919 16L12.1674 12.9755C11.9442 12.7523 11.9442 12.3905 12.1674 12.1674C12.3905 11.9442 12.7523 11.9442 12.9755 12.1674L16 15.1919ZM16 28C9.37258 28 4 22.6274 4 16C4 9.37258 9.37258 4 16 4C22.6274 4 28 9.37258 28 16C28 22.6274 22.6274 28 16 28ZM16 26.8571C21.9962 26.8571 26.8571 21.9962 26.8571 16C26.8571 10.0038 21.9962 5.14286 16 5.14286C10.0038 5.14286 5.14286 10.0038 5.14286 16C5.14286 21.9962 10.0038 26.8571 16 26.8571Z" fill="currentColor"/>
</g>
</svg>
