<svg width="26" height="26" viewBox="0 0 17 17" fill="none" xmlns="http://www.w3.org/2000/svg">
<path id="Vector" d="M0.207706 1.2106C0.141855 1.14475 0.0896195 1.06657 0.0539811 0.980535C0.0183428 0.894496 6.93853e-10 0.802281 0 0.709153C-6.93853e-10 0.616026 0.0183428 0.523811 0.0539811 0.437772C0.0896194 0.351734 0.141855 0.273557 0.207706 0.207706C0.273557 0.141855 0.351734 0.0896194 0.437772 0.0539811C0.523811 0.0183428 0.616026 -6.93853e-10 0.709153 0C0.802281 6.93853e-10 0.894496 0.0183428 0.980535 0.0539811C1.06657 0.0896195 1.14475 0.141855 1.2106 0.207706L8.5 7.49852L15.7894 0.207706C15.8553 0.141855 15.9334 0.0896194 16.0195 0.0539811C16.1055 0.0183428 16.1977 0 16.2908 0C16.384 0 16.4762 0.0183428 16.5622 0.0539811C16.6483 0.0896194 16.7264 0.141855 16.7923 0.207706C16.8581 0.273557 16.9104 0.351734 16.946 0.437772C16.9817 0.523811 17 0.616026 17 0.709153C17 0.802281 16.9817 0.894496 16.946 0.980535C16.9104 1.06657 16.8581 1.14475 16.7923 1.2106L9.50148 8.5L16.7923 15.7894C16.8581 15.8553 16.9104 15.9334 16.946 16.0195C16.9817 16.1055 17 16.1977 17 16.2908C17 16.384 16.9817 16.4762 16.946 16.5622C16.9104 16.6483 16.8581 16.7264 16.7923 16.7923C16.7264 16.8581 16.6483 16.9104 16.5622 16.946C16.4762 16.9817 16.384 17 16.2908 17C16.1977 17 16.1055 16.9817 16.0195 16.946C15.9334 16.9104 15.8553 16.8581 15.7894 16.7923L8.5 9.50148L1.2106 16.7923C1.14475 16.8581 1.06657 16.9104 0.980535 16.946C0.894496 16.9817 0.802281 17 0.709153 17C0.616026 17 0.523811 16.9817 0.437772 16.946C0.351734 16.9104 0.273557 16.8581 0.207706 16.7923C0.141855 16.7264 0.0896194 16.6483 0.0539811 16.5622C0.0183428 16.4762 0 16.384 0 16.2908C0 16.1977 0.0183428 16.1055 0.0539811 16.0195C0.0896194 15.9334 0.141855 15.8553 0.207706 15.7894L7.49852 8.5L0.207706 1.2106Z" fill="currentColor"/>
</svg>
