<svg width="32" height="32" viewBox="0 0 32 32" fill="none" xmlns="http://www.w3.org/2000/svg">
<g id="Theme=Light, Name=Close, State=Fill">
<path id="Vector" d="M16 4C13.6266 4 11.3066 4.70379 9.33316 6.02236C7.35977 7.34094 5.8217 9.21508 4.91345 11.4078C4.0052 13.6005 3.76756 16.0133 4.23058 18.3411C4.6936 20.6689 5.83649 22.807 7.51472 24.4853C9.19295 26.1635 11.3311 27.3064 13.6589 27.7694C15.9867 28.2324 18.3995 27.9948 20.5922 27.0865C22.7849 26.1783 24.6591 24.6402 25.9776 22.6668C27.2962 20.6934 28 18.3734 28 16C28 14.4241 27.6896 12.8637 27.0866 11.4078C26.4835 9.95189 25.5996 8.62902 24.4853 7.51472C23.371 6.40041 22.0481 5.5165 20.5922 4.91345C19.1363 4.31039 17.5759 4 16 4ZM19.252 17.548C19.3645 17.6596 19.4537 17.7923 19.5147 17.9385C19.5756 18.0847 19.607 18.2416 19.607 18.4C19.607 18.5584 19.5756 18.7153 19.5147 18.8615C19.4537 19.0077 19.3645 19.1404 19.252 19.252C19.1404 19.3645 19.0077 19.4537 18.8615 19.5147C18.7153 19.5756 18.5584 19.607 18.4 19.607C18.2416 19.607 18.0847 19.5756 17.9385 19.5147C17.7923 19.4537 17.6596 19.3645 17.548 19.252L16 17.692L14.452 19.252C14.3404 19.3645 14.2077 19.4537 14.0615 19.5147C13.9153 19.5756 13.7584 19.607 13.6 19.607C13.4416 19.607 13.2847 19.5756 13.1385 19.5147C12.9923 19.4537 12.8596 19.3645 12.748 19.252C12.6355 19.1404 12.5463 19.0077 12.4853 18.8615C12.4244 18.7153 12.393 18.5584 12.393 18.4C12.393 18.2416 12.4244 18.0847 12.4853 17.9385C12.5463 17.7923 12.6355 17.6596 12.748 17.548L14.308 16L12.748 14.452C12.522 14.226 12.3951 13.9196 12.3951 13.6C12.3951 13.2804 12.522 12.974 12.748 12.748C12.974 12.522 13.2804 12.3951 13.6 12.3951C13.9196 12.3951 14.226 12.522 14.452 12.748L16 14.308L17.548 12.748C17.774 12.522 18.0804 12.3951 18.4 12.3951C18.7196 12.3951 19.026 12.522 19.252 12.748C19.478 12.974 19.6049 13.2804 19.6049 13.6C19.6049 13.9196 19.478 14.226 19.252 14.452L17.692 16L19.252 17.548Z" fill="currentColor"/>
</g>
</svg>
