<svg width="32" height="32" viewBox="0 0 32 32" fill="none" xmlns="http://www.w3.org/2000/svg">
<g id="Theme=Light, Name=Control, State=Base">
<path id="Vector" d="M25.6 26.1H26.1V25.6V6.4V5.9H25.6H6.4H5.9V6.4V25.6V26.1H6.4H25.6ZM16.5 23.9V16.5H23.9V23.9H16.5ZM16.5 14.3V8.1H23.9V14.3H16.5ZM8.1 23.9V8.1H14.3V23.9H8.1ZM5.2 4.5H26.8C27.1839 4.5 27.5 4.81614 27.5 5.2V26.8C27.5 27.1839 27.1839 27.5 26.8 27.5H5.2C4.81614 27.5 4.5 27.1839 4.5 26.8V5.2C4.5 4.81614 4.81614 4.5 5.2 4.5Z" stroke="currentColor"/>
</g>
</svg>
