<svg width="15" height="15" viewBox="0 0 15 15" fill="none" xmlns="http://www.w3.org/2000/svg">
<path d="M7.26562 0C3.25292 0 0 3.25292 0 7.26562C0 11.2783 3.25292 14.5312 7.26562 14.5312C11.2783 14.5312 14.5312 11.2783 14.5312 7.26562C14.5312 3.25292 11.2783 0 7.26562 0ZM7.26562 13.125C4.02738 13.125 1.40625 10.5044 1.40625 7.26562C1.40625 4.02741 4.02688 1.40625 7.26562 1.40625C10.5039 1.40625 13.125 4.02688 13.125 7.26562C13.125 10.5039 10.5044 13.125 7.26562 13.125ZM10.4107 10.1641C10.129 10.4487 9.07679 11.3769 7.36189 11.3769C4.94695 11.3769 3.24615 9.57735 3.24615 7.22944C3.24615 4.91054 5.01202 3.14543 7.34074 3.14543C8.96763 3.14543 9.94049 3.92531 10.1999 4.16435C10.2609 4.22041 10.3 4.29625 10.3104 4.37841C10.3208 4.46058 10.3017 4.54377 10.2566 4.61323L9.72475 5.43686C9.61222 5.61117 9.37418 5.6502 9.21208 5.52243C8.96027 5.32392 8.28003 4.86214 7.40423 4.86214C5.9891 4.86214 5.12153 5.8972 5.12153 7.20829C5.12153 8.42672 5.90927 9.6602 7.4148 9.6602C8.37155 9.6602 9.08013 9.10242 9.34037 8.8626C9.49477 8.7203 9.73869 8.74427 9.86244 8.91352L10.4444 9.70951C10.494 9.77683 10.5179 9.85968 10.5117 9.94307C10.5055 10.0265 10.4697 10.1049 10.4107 10.1641Z" fill="currentColor"/>
</svg>
