<svg width="24" height="25" viewBox="0 0 24 25" fill="none" xmlns="http://www.w3.org/2000/svg">
<path id="Vector" d="M14.0714 9.92857V10.4286H14.5714H22.2857C22.9562 10.4286 23.5 10.9724 23.5 11.6429V13.3571C23.5 14.0276 22.9562 14.5714 22.2857 14.5714H14.5714H14.0714V15.0714V22.7857C14.0714 23.4562 13.5276 24 12.8571 24H11.1429C10.4724 24 9.92857 23.4562 9.92857 22.7857V15.0714V14.5714H9.42857H1.71429C1.04382 14.5714 0.5 14.0276 0.5 13.3571V11.6429C0.5 10.9724 1.04382 10.4286 1.71429 10.4286H9.42857H9.92857V9.92857V2.21429C9.92857 1.54382 10.4724 1 11.1429 1H12.8571C13.5276 1 14.0714 1.54382 14.0714 2.21429V9.92857Z" fill="black" stroke="black"/>
</svg>
