<svg width="26" height="26" viewBox="0 0 26 26" fill="none" xmlns="http://www.w3.org/2000/svg">
<g id="State=No disponible">
<circle id="Ellipse" cx="13" cy="13" r="13" fill="currentColor"/>
<path id="Vector" d="M19.4788 7.88236L17.0813 5.47618C16.7684 5.1812 16.3584 5.01194 15.9292 5.00061C15.5 4.98927 15.0817 5.13665 14.7538 5.41471L6.87869 13.3182C6.59585 13.6045 6.41975 13.9797 6.37993 14.3808L6.00368 18.0428C5.99189 18.1714 6.00852 18.3011 6.05238 18.4225C6.09624 18.5439 6.16626 18.6542 6.25743 18.7453C6.33919 18.8267 6.43616 18.8911 6.54277 18.9348C6.64937 18.9785 6.76353 19.0007 6.87869 19H6.95744L10.6062 18.6663C11.0059 18.6263 11.3798 18.4496 11.665 18.1657L19.5401 10.2622C19.8457 9.93813 20.0109 9.50567 19.9994 9.05958C19.988 8.61349 19.8007 8.19017 19.4788 7.88236ZM10.4487 16.9099L7.8237 17.1558L8.05995 14.5213L13.0038 9.62114L15.3663 11.9922L10.4487 16.9099ZM16.5038 10.8154L14.1588 8.46195L15.865 6.70562L18.2538 9.10302L16.5038 10.8154Z" fill="white"/>
</g>
</svg>
