<svg width="24" height="17" viewBox="0 0 24 17" fill="none" xmlns="http://www.w3.org/2000/svg">
<mask id="mask0_84_28338" style="mask-type:luminance" maskUnits="userSpaceOnUse" x="0" y="0" width="24" height="17">
<rect y="0.5" width="24" height="16" fill="white"/>
</mask>
<g mask="url(#mask0_84_28338)">
<path fill-rule="evenodd" clip-rule="evenodd" d="M0 0.5H24V16.5H0V0.5Z" fill="#E31D1C"/>
<path fill-rule="evenodd" clip-rule="evenodd" d="M0 1.83325V3.16659H24V1.83325H0ZM0 4.49994V5.83327H24V4.49994H0ZM0 8.49994V7.16661H24V8.49994H0ZM0 9.83327V11.1666H24V9.83327H0ZM0 13.8333V12.4999H24V13.8333H0ZM0 16.4999V15.1666H24V16.4999H0Z" fill="#F7FCFF"/>
<rect y="0.5" width="13.5" height="9.33333" fill="#2E42A5"/>
<path fill-rule="evenodd" clip-rule="evenodd" d="M1.56002 3.39841L2.3549 2.90624L2.97146 3.3008H2.62238L3.32838 3.85586L3.08992 4.63413H2.71644L2.35379 3.91934L2.04451 4.63413H1.12238L1.82838 5.18919L1.56002 6.06506L2.3549 5.57289L2.97149 5.96746H2.62238L3.32838 6.52253L3.08992 7.3008H2.71644L2.35379 6.586L2.04451 7.3008H1.12238L1.82838 7.85586L1.56002 8.73173L2.3549 8.23955L3.124 8.73173L2.88488 7.85586L3.50253 7.3008H3.21764L3.8549 6.90622L4.47149 7.3008H4.12238L4.82838 7.85586L4.56002 8.73173L5.3549 8.23955L6.124 8.73173L5.88488 7.85586L6.50253 7.3008H6.21764L6.8549 6.90622L7.47149 7.3008H7.12238L7.82838 7.85586L7.56002 8.73173L8.3549 8.23955L9.124 8.73173L8.88488 7.85586L9.50253 7.3008H9.21764L9.8549 6.90622L10.4715 7.3008H10.1224L10.8284 7.85586L10.56 8.73173L11.3549 8.23955L12.124 8.73173L11.8849 7.85586L12.5025 7.3008H11.7164L11.3538 6.586L11.0445 7.3008H10.5974L10.3849 6.52253L11.0025 5.96746H10.7176L11.3549 5.57289L12.124 6.06506L11.8849 5.18919L12.5025 4.63413H11.7164L11.3538 3.91934L11.0445 4.63413H10.5974L10.3849 3.85586L11.0025 3.3008H10.7177L11.3549 2.90624L12.124 3.39841L11.8849 2.52254L12.5025 1.96748H11.7164L11.3538 1.25269L11.0445 1.96748H10.1224L10.8284 2.52254L10.5899 3.3008H10.2164L9.85379 2.586L9.54451 3.3008H9.09735L8.88488 2.52254L9.50253 1.96748H8.71644L8.35379 1.25269L8.04451 1.96748H7.12237L7.82838 2.52254L7.58992 3.3008H7.21644L6.85379 2.586L6.54451 3.3008H6.09735L5.88488 2.52254L6.50253 1.96748H5.71644L5.35379 1.25269L5.04451 1.96748H4.12237L4.82838 2.52254L4.58992 3.3008H4.21644L3.85379 2.586L3.54451 3.3008H3.09735L2.88488 2.52254L3.50253 1.96748H2.71644L2.35379 1.25269L2.04451 1.96748H1.12238L1.82838 2.52254L1.56002 3.39841ZM10.5899 5.96746L10.8284 5.18919L10.1224 4.63413H10.4715L9.8549 4.23955L9.21764 4.63413H9.50253L8.88488 5.18919L9.09735 5.96746H9.54451L9.85379 5.25267L10.2164 5.96746H10.5899ZM8.97149 5.96746L8.3549 5.57289L7.71764 5.96746H8.00253L7.38488 6.52253L7.59735 7.3008H8.04451L8.35379 6.586L8.71644 7.3008H9.08992L9.32838 6.52253L8.62238 5.96746H8.97149ZM6.32838 6.52253L6.08992 7.3008H5.71644L5.35379 6.586L5.04451 7.3008H4.59735L4.38488 6.52253L5.00253 5.96746H4.71764L5.3549 5.57289L5.97149 5.96746H5.62238L6.32838 6.52253ZM6.54451 5.96746H6.09735L5.88488 5.18919L6.50253 4.63413H6.21764L6.8549 4.23955L7.47149 4.63413H7.12238L7.82838 5.18919L7.58992 5.96746H7.21644L6.85379 5.25267L6.54451 5.96746ZM4.58992 5.96746L4.82838 5.18919L4.12238 4.63413H4.47149L3.8549 4.23955L3.21764 4.63413H3.50253L2.88488 5.18919L3.09735 5.96746H3.54451L3.85379 5.25267L4.21644 5.96746H4.58992ZM9.32838 3.85586L9.08992 4.63413H8.71644L8.35379 3.91934L8.04451 4.63413H7.59735L7.38488 3.85586L8.00253 3.3008H7.71767L8.3549 2.90624L8.97146 3.3008H8.62238L9.32838 3.85586ZM5.97146 3.3008L5.3549 2.90624L4.71767 3.3008H5.00253L4.38488 3.85586L4.59735 4.63413H5.04451L5.35379 3.91934L5.71644 4.63413H6.08992L6.32838 3.85586L5.62238 3.3008H5.97146Z" fill="#F7FCFF"/>
</g>
</svg>
