<svg width="18" height="17" viewBox="0 0 18 17" fill="none" xmlns="http://www.w3.org/2000/svg">
<path d="M15.8424 13.1722C16.2911 13.9846 15.7279 15 14.8319 15H3.16799C2.27021 15 1.70968 13.983 2.15743 13.1722L7.98945 2.60899C8.4383 1.79627 9.56251 1.79774 10.0106 2.60899L15.8424 13.1722ZM9 10.9883C8.38252 10.9883 7.88195 11.5112 7.88195 12.1562C7.88195 12.8013 8.38252 13.3242 9 13.3242C9.61749 13.3242 10.1181 12.8013 10.1181 12.1562C10.1181 11.5112 9.61749 10.9883 9 10.9883ZM7.93851 6.79004L8.11881 10.2432C8.12724 10.4048 8.25514 10.5312 8.41004 10.5312H9.58997C9.74487 10.5312 9.87277 10.4048 9.8812 10.2432L10.0615 6.79004C10.0706 6.61551 9.93759 6.46875 9.77027 6.46875H8.22971C8.06239 6.46875 7.92939 6.61551 7.93851 6.79004Z" fill="#FF0000"/>
</svg>
