<svg width="17" height="17" viewBox="0 0 17 17" fill="none" xmlns="http://www.w3.org/2000/svg">
<g clip-path="url(#clip0_2_1176)">
<path d="M16.995 0H0.00498047C0.00222983 0 0 0.00222983 0 0.00498047V16.995C0 16.9978 0.00222983 17 0.00498047 17H16.995C16.9978 17 17 16.9978 17 16.995V0.00498047C17 0.00222983 16.9978 0 16.995 0Z" fill="#1877F2"/>
<path d="M11.807 10.957L12.1855 8.5H9.82812V6.90625C9.82812 6.23555 10.1568 5.57812 11.2127 5.57812H12.2852V3.48633C12.2852 3.48633 11.3123 3.32031 10.3826 3.32031C8.44023 3.32031 7.17188 4.4957 7.17188 6.62734V8.5H5.01367V10.957H7.17188V17H9.82812V10.957H11.807Z" fill="white"/>
</g>
<defs>
<clipPath id="clip0_2_1176">
<rect width="17" height="17" fill="white"/>
</clipPath>
</defs>
</svg>
