<svg width="16" height="16" viewBox="0 0 16 16" fill="none" xmlns="http://www.w3.org/2000/svg">
<g id="Name=Google, State=16x16">
<g id="Google" clip-path="url(#clip0_1480_9479)">
<path id="Vector" d="M13.8833 6.8249H13.4V6.8H8V9.2H11.3909C10.8962 10.5971 9.5669 11.6 8 11.6C6.0119 11.6 4.4 9.9881 4.4 8C4.4 6.0119 6.0119 4.4 8 4.4C8.9177 4.4 9.7526 4.7462 10.3883 5.3117L12.0854 3.6146C11.0138 2.6159 9.5804 2 8 2C4.6865 2 2 4.6865 2 8C2 11.3135 4.6865 14 8 14C11.3135 14 14 11.3135 14 8C14 7.5977 13.9586 7.205 13.8833 6.8249Z" fill="#FFC107"/>
<path id="Vector_2" d="M2.69177 5.2073L4.66307 6.653C5.19647 5.3324 6.48827 4.4 7.99997 4.4C8.91767 4.4 9.75257 4.7462 10.3883 5.3117L12.0854 3.6146C11.0138 2.6159 9.58037 2 7.99997 2C5.69537 2 3.69677 3.3011 2.69177 5.2073Z" fill="#FF3D00"/>
<path id="Vector_3" d="M8.00001 14C9.54981 14 10.958 13.4069 12.0227 12.4424L10.1657 10.871C9.56331 11.3273 8.81451 11.6 8.00001 11.6C6.43941 11.6 5.11431 10.6049 4.61511 9.21619L2.65851 10.7237C3.65151 12.6668 5.66811 14 8.00001 14Z" fill="#4CAF50"/>
<path id="Vector_4" d="M13.8833 6.82489H13.4V6.79999H8V9.19999H11.3909C11.1533 9.87109 10.7216 10.4498 10.1648 10.8713C10.1651 10.871 10.1654 10.871 10.1657 10.8707L12.0227 12.4421C11.8913 12.5615 14 11 14 7.99999C14 7.59769 13.9586 7.20499 13.8833 6.82489Z" fill="#1976D2"/>
</g>
</g>
<defs>
<clipPath id="clip0_1480_9479">
<rect width="12" height="12" fill="white" transform="translate(2 2)"/>
</clipPath>
</defs>
</svg>
