<svg width="32" height="32" viewBox="0 0 32 32" fill="none" xmlns="http://www.w3.org/2000/svg">
<g id="Name=Google, State=32x32">
<g id="Google" clip-path="url(#clip0_1480_9475)">
<path id="Vector" d="M27.7666 13.6498H26.8V13.6H16V18.4H22.7818C21.7924 21.1942 19.1338 23.2 16 23.2C12.0238 23.2 8.8 19.9762 8.8 16C8.8 12.0238 12.0238 8.8 16 8.8C17.8354 8.8 19.5052 9.4924 20.7766 10.6234L24.1708 7.2292C22.0276 5.2318 19.1608 4 16 4C9.373 4 4 9.373 4 16C4 22.627 9.373 28 16 28C22.627 28 28 22.627 28 16C28 15.1954 27.9172 14.41 27.7666 13.6498Z" fill="#FFC107"/>
<path id="Vector_2" d="M5.38354 10.4146L9.32614 13.306C10.3929 10.6648 12.9765 8.8 15.9999 8.8C17.8353 8.8 19.5051 9.4924 20.7765 10.6234L24.1707 7.2292C22.0275 5.2318 19.1607 4 15.9999 4C11.3907 4 7.39354 6.6022 5.38354 10.4146Z" fill="#FF3D00"/>
<path id="Vector_3" d="M16 28C19.0996 28 21.916 26.8138 24.0454 24.8848L20.3314 21.742C19.1266 22.6546 17.629 23.2 16 23.2C12.8788 23.2 10.2286 21.2098 9.23025 18.4324L5.31705 21.4474C7.30305 25.3336 11.3362 28 16 28Z" fill="#4CAF50"/>
<path id="Vector_4" d="M27.7666 13.6498H26.8V13.6H16V18.4H22.7818C22.3066 19.7422 21.4432 20.8996 20.3296 21.7426C20.3302 21.742 20.3308 21.742 20.3314 21.7414L24.0454 24.8842C23.7826 25.123 28 22 28 16C28 15.1954 27.9172 14.41 27.7666 13.6498Z" fill="#1976D2"/>
</g>
</g>
<defs>
<clipPath id="clip0_1480_9475">
<rect width="24" height="24" fill="white" transform="translate(4 4)"/>
</clipPath>
</defs>
</svg>
