<svg width="32" height="32" viewBox="0 0 32 32" fill="none" xmlns="http://www.w3.org/2000/svg">
<g id="Theme=Light, Name=Health, State=Fill">
<g id="hospital" clip-path="url(#clip0_1332_13680)">
<path id="Vector" d="M26 27.0625V28H5V27.0625C5 26.7519 5.25186 26.5 5.5625 26.5H6.5V9.625C6.5 9.00367 7.00367 8.5 7.625 8.5H11.75V5.125C11.75 4.50367 12.2537 4 12.875 4H18.125C18.7463 4 19.25 4.50367 19.25 5.125V8.5H23.375C23.9963 8.5 24.5 9.00367 24.5 9.625V26.5H25.4375C25.7481 26.5 26 26.7519 26 27.0625ZM19.4375 13H17.5625C17.2519 13 17 13.2519 17 13.5625V15.4375C17 15.7481 17.2519 16 17.5625 16H19.4375C19.7481 16 20 15.7481 20 15.4375V13.5625C20 13.2519 19.7481 13 19.4375 13ZM11.5625 16H13.4375C13.7481 16 14 15.7481 14 15.4375V13.5625C14 13.2519 13.7481 13 13.4375 13H11.5625C11.2519 13 11 13.2519 11 13.5625V15.4375C11 15.7481 11.2519 16 11.5625 16ZM16.4375 22H14.5625C14.2519 22 14 22.2519 14 22.5625V26.5H17V22.5625C17 22.2519 16.7481 22 16.4375 22ZM19.4375 17.5H17.5625C17.2519 17.5 17 17.7519 17 18.0625V19.9375C17 20.2481 17.2519 20.5 17.5625 20.5H19.4375C19.7481 20.5 20 20.2481 20 19.9375V18.0625C20 17.7519 19.7481 17.5 19.4375 17.5ZM14 18.0625C14 17.7519 13.7481 17.5 13.4375 17.5H11.5625C11.2519 17.5 11 17.7519 11 18.0625V19.9375C11 20.2481 11.2519 20.5 11.5625 20.5H13.4375C13.7481 20.5 14 20.2481 14 19.9375V18.0625ZM13.5312 8.5H14.75V9.71875C14.75 9.79334 14.7796 9.86488 14.8324 9.91762C14.8851 9.97037 14.9567 10 15.0312 10H15.9688C16.0433 10 16.1149 9.97037 16.1676 9.91762C16.2204 9.86488 16.25 9.79334 16.25 9.71875V8.5H17.4688C17.5433 8.5 17.6149 8.47037 17.6676 8.41762C17.7204 8.36488 17.75 8.29334 17.75 8.21875V7.28125C17.75 7.20666 17.7204 7.13512 17.6676 7.08238C17.6149 7.02963 17.5433 7 17.4688 7H16.25V5.78125C16.25 5.70666 16.2204 5.63512 16.1676 5.58238C16.1149 5.52963 16.0433 5.5 15.9688 5.5H15.0312C14.9567 5.5 14.8851 5.52963 14.8324 5.58238C14.7796 5.63512 14.75 5.70666 14.75 5.78125V7H13.5312C13.4567 7 13.3851 7.02963 13.3324 7.08238C13.2796 7.13512 13.25 7.20666 13.25 7.28125V8.21875C13.25 8.29334 13.2796 8.36488 13.3324 8.41762C13.3851 8.47037 13.4567 8.5 13.5312 8.5Z" fill="currentColor"/>
</g>
</g>
<defs>
<clipPath id="clip0_1332_13680">
<rect width="21" height="24" fill="white" transform="translate(5 4)"/>
</clipPath>
</defs>
</svg>
