<svg width="32" height="33" viewBox="0 0 32 33" fill="none" xmlns="http://www.w3.org/2000/svg">
<g id="Icons">
<path id="Vector" d="M16 15.6919L19.0245 12.6674C19.2477 12.4442 19.6095 12.4442 19.8326 12.6674C20.0558 12.8905 20.0558 13.2523 19.8326 13.4755L16.8081 16.5L19.8326 19.5245C20.0558 19.7477 20.0558 20.1095 19.8326 20.3326C19.6095 20.5558 19.2477 20.5558 19.0245 20.3326L16 17.3081L12.9755 20.3326C12.7523 20.5558 12.3905 20.5558 12.1674 20.3326C11.9442 20.1095 11.9442 19.7477 12.1674 19.5245L15.1919 16.5L12.1674 13.4755C11.9442 13.2523 11.9442 12.8905 12.1674 12.6674C12.3905 12.4442 12.7523 12.4442 12.9755 12.6674L16 15.6919ZM16 28.5C9.37258 28.5 4 23.1274 4 16.5C4 9.87258 9.37258 4.5 16 4.5C22.6274 4.5 28 9.87258 28 16.5C28 23.1274 22.6274 28.5 16 28.5ZM16 27.3571C21.9962 27.3571 26.8571 22.4962 26.8571 16.5C26.8571 10.5038 21.9962 5.64286 16 5.64286C10.0038 5.64286 5.14286 10.5038 5.14286 16.5C5.14286 22.4962 10.0038 27.3571 16 27.3571Z" fill="white"/>
</g>
</svg>
