<svg width="49" height="49" viewBox="0 0 49 49" fill="none" xmlns="http://www.w3.org/2000/svg">
<g id="Menu">
<path id="Vector" d="M40.9354 22.4584H8.06458C6.99338 22.4584 6.125 23.3268 6.125 24.398V24.6021C6.125 25.6733 6.99338 26.5417 8.06458 26.5417H40.9354C42.0066 26.5417 42.875 25.6733 42.875 24.6021V24.398C42.875 23.3268 42.0066 22.4584 40.9354 22.4584Z" fill="currentColor"/>
<path id="Vector_2" d="M40.9354 32.6666H8.06458C6.99338 32.6666 6.125 33.535 6.125 34.6062V34.8104C6.125 35.8816 6.99338 36.75 8.06458 36.75H40.9354C42.0066 36.75 42.875 35.8816 42.875 34.8104V34.6062C42.875 33.535 42.0066 32.6666 40.9354 32.6666Z" fill="currentColor"/>
<path id="Vector_3" d="M40.9354 12.25H8.06458C6.99338 12.25 6.125 13.1184 6.125 14.1896V14.3938C6.125 15.465 6.99338 16.3333 8.06458 16.3333H40.9354C42.0066 16.3333 42.875 15.465 42.875 14.3938V14.1896C42.875 13.1184 42.0066 12.25 40.9354 12.25Z" fill="currentColor"/>
</g>
</svg>
