<svg width="80" height="40" viewBox="0 0 80 40" fill="none" xmlns="http://www.w3.org/2000/svg">
<path d="M44.9358 9.0625C45.314 9.0625 45.6632 9.17565 45.9688 9.36422C46.1361 9.47737 50.1808 12.306 50.1953 17.4127C50.1953 19.784 49.3209 21.7241 48.3873 23.1182C47.9886 24.0096 47.4715 24.8588 46.8377 25.6382L46.8362 25.64C46.4092 26.1618 45.9441 26.6526 45.4552 27.0973C44.9917 27.5532 44.5102 27.9653 44.0175 28.3247C41.6854 30.0479 38.882 30.9375 36.0316 30.9375H30.5174C29.7156 30.9375 29.0625 30.2603 29.0625 29.4289V22.6401C29.0625 21.8086 29.7156 21.1315 30.5174 21.1315H33.7619C34.5284 21.1315 35.2327 20.709 35.6116 20.0244L35.6136 20.0207L39.4797 13.1259C39.8079 12.5119 40.3159 12.0727 40.8976 11.8343C41.1193 10.3763 42.4276 9.30778 43.8042 9.44075C44.1223 9.20271 44.5131 9.0625 44.9358 9.0625ZM44.1588 11.1167C43.364 10.6212 42.2536 11.2901 42.3225 12.3615L42.3264 12.4227C42.5413 12.4645 42.7548 12.5433 42.957 12.6605C43.538 12.9926 43.9061 13.5693 44.0089 14.1974C44.0089 14.1973 44.0089 14.1974 44.0089 14.1974L44.4853 14.8818C45.2653 16.0024 45.6705 17.2334 45.6705 18.5367C45.6705 18.6937 45.6629 18.8417 45.6562 18.9738L45.6544 19.009L45.6536 19.0192C45.5208 20.7399 44.1208 22.0442 42.4696 22.0442C41.5043 22.0442 40.7237 21.2278 40.7237 20.2263C40.7237 19.9178 40.7986 19.617 40.9475 19.3445C41.213 18.8464 41.485 18.3703 41.7515 17.9038C42.2985 16.9465 42.8224 16.0294 43.2193 15.0447L43.2239 15.0331L43.256 14.9533C43.432 14.3363 43.1767 13.6474 42.6059 13.3211L42.6019 13.3189C42.3191 13.1549 42.0108 13.1101 41.7424 13.1611L41.5303 13.2014C41.2052 13.306 40.9248 13.532 40.7501 13.8614L40.7459 13.8693L36.8724 20.7773C36.2325 21.9319 35.0461 22.6401 33.7619 22.6401H30.5174V29.4289H36.0316C38.5927 29.4289 41.099 28.6293 43.1749 27.0948L43.1788 27.092C43.6127 26.7756 44.0435 26.4074 44.4636 25.9932L44.4745 25.9825L44.4858 25.9722C44.9236 25.575 45.3419 25.1343 45.7262 24.6647C49.1025 20.5119 48.6174 14.2096 44.1588 11.1167ZM42.939 18.7884C42.6853 19.2331 42.4391 19.6647 42.2189 20.0781L42.2164 20.0829L42.2137 20.0876C42.1901 20.1305 42.1786 20.1748 42.1786 20.2263C42.1786 20.4016 42.3146 20.5356 42.4696 20.5356C43.376 20.5356 44.1273 19.8232 44.2026 18.9082L44.2026 18.9064C44.2099 18.7644 44.2155 18.6528 44.2155 18.5367C44.2155 18.0043 44.1253 17.4821 43.9396 16.9715C43.6213 17.5923 43.2736 18.2018 42.939 18.7884Z" fill="#212121"/>
</svg>
