<svg width="22" height="22" viewBox="0 0 22 22" fill="none" xmlns="http://www.w3.org/2000/svg">
<path id="Vector" d="M21.8113 19.7889L15.7079 13.7336C16.958 12.0087 17.5831 9.80681 17.2522 7.45809C16.7007 3.53131 13.5019 0.411907 9.49424 0.0449186C4.08943 -0.505564 -0.506503 4.08179 0.0450086 9.51322C0.412683 13.44 3.53792 16.7062 7.47203 17.2567C9.82515 17.587 11.9944 16.9264 13.7593 15.7153L19.8627 21.8073C20.12 22.0642 20.5612 22.0642 20.8186 21.8073L21.7746 20.8532C22.0687 20.5229 22.0687 20.0825 21.8113 19.7889ZM2.7658 8.63245C2.7658 5.40295 5.41306 2.72393 8.68536 2.72393C11.9577 2.72393 14.6049 5.36625 14.6049 8.63245C14.6049 11.8986 11.9577 14.541 8.68536 14.541C5.41306 14.541 2.7658 11.9353 2.7658 8.63245Z" fill="currentColor"/>
</svg>
