<svg width="32" height="32" viewBox="0 0 32 32" fill="none" xmlns="http://www.w3.org/2000/svg">
<g id="Theme=Light, Name=Settings, State=Base">
<g id="cog" clip-path="url(#clip0_1332_13592)">
<path id="Vector" d="M13.1436 8.04891L13.3696 7.98114L13.4609 7.76368L14.8322 4.5H17.1677L18.539 7.76368L18.6158 7.94641L18.7969 8.02691C18.9254 8.08401 19.0623 8.14881 19.2059 8.21687L19.2088 8.21824C19.3493 8.28477 19.4963 8.35444 19.6369 8.41691L19.8344 8.50468L20.0337 8.42096L23.294 7.05109L24.9789 8.73602L23.609 11.9963L23.5149 12.2204L23.6329 12.4328C23.7783 12.6946 23.9104 12.9625 23.9856 13.1881L24.0573 13.4032L24.2663 13.491L27.53 14.8623V17.1977L24.2663 18.569L24.0836 18.6458L24.0031 18.8269C23.946 18.9554 23.8812 19.0923 23.8131 19.236L23.8117 19.239C23.7452 19.3794 23.6755 19.5264 23.6131 19.6669L23.5253 19.8644L23.609 20.0637L24.9789 23.324L23.294 25.0089L20.0337 23.639L19.8096 23.5449L19.5972 23.6629C19.4133 23.7651 19.2193 23.8491 19.0091 23.9403C18.9402 23.9702 18.8695 24.0008 18.7969 24.0331L18.6158 24.1136L18.539 24.2963L17.1677 27.56H14.8322L13.4609 24.2963L13.3799 24.1035L13.1857 24.0258C13.0532 23.9728 12.9241 23.9119 12.7875 23.8454C12.7624 23.8332 12.7368 23.8207 12.7108 23.8079C12.5997 23.7536 12.4808 23.6954 12.363 23.6431L12.1655 23.5553L11.9663 23.639L8.70599 25.0089L7.02106 23.324L8.39093 20.0637L8.47993 19.8519L8.37718 19.6464C8.22637 19.3448 8.11542 19.1223 8.00421 18.8443L7.92652 18.6501L7.73365 18.569L4.46997 17.1977V14.8623L7.73365 13.491L7.92652 13.4099L8.00421 13.2157C8.11542 12.9377 8.22637 12.7152 8.37718 12.4136L8.47993 12.2081L8.39093 11.9963L7.02106 8.73602L8.70599 7.05109L11.9663 8.42096L12.1903 8.5151L12.4028 8.39708C12.6804 8.24283 12.904 8.12082 13.1436 8.04891ZM21 16C21 13.2339 18.7661 11 16 11C13.2338 11 11 13.2339 11 16C11 18.7661 13.2338 21 16 21C18.7661 21 21 18.7661 21 16Z" stroke="currentColor"/>
</g>
</g>
<defs>
<clipPath id="clip0_1332_13592">
<rect width="24" height="24" fill="white" transform="translate(4 4)"/>
</clipPath>
</defs>
</svg>
