<svg width="24" height="17" viewBox="0 0 24 17" fill="none" xmlns="http://www.w3.org/2000/svg">
<mask id="mask0_84_27473" style="mask-type:luminance" maskUnits="userSpaceOnUse" x="0" y="0" width="24" height="17">
<rect y="0.5" width="24" height="16" fill="white"/>
</mask>
<g mask="url(#mask0_84_27473)">
<path fill-rule="evenodd" clip-rule="evenodd" d="M0 0.5V16.5H24V0.5H0Z" fill="#FFB400"/>
<mask id="mask1_84_27473" style="mask-type:luminance" maskUnits="userSpaceOnUse" x="0" y="0" width="24" height="17">
<path fill-rule="evenodd" clip-rule="evenodd" d="M0 0.5V16.5H24V0.5H0Z" fill="white"/>
</mask>
<g mask="url(#mask1_84_27473)">
<path fill-rule="evenodd" clip-rule="evenodd" d="M0 0.5V4.5H24V0.5H0Z" fill="#C51918"/>
<path fill-rule="evenodd" clip-rule="evenodd" d="M0 12.5V16.5H24V12.5H0Z" fill="#C51918"/>
<rect x="3.75598" y="7.34814" width="0.84" height="3.88267" fill="#F1F9FF"/>
<path fill-rule="evenodd" clip-rule="evenodd" d="M4.93198 6.67603H3.41998V7.04936H3.67197V7.34804H4.67997V7.04936H4.93198V6.67603Z" fill="#C88A02"/>
<path fill-rule="evenodd" clip-rule="evenodd" d="M4.67998 11.4547H4.93198V11.828H3.41998V11.4547H3.67198V11.156H4.67998V11.4547Z" fill="#C88A02"/>
<path fill-rule="evenodd" clip-rule="evenodd" d="M4.17595 6.75078C4.35875 6.75078 4.37733 6.68959 4.48518 6.59821C4.56892 6.52725 4.76395 6.43925 4.76395 6.34011C4.76395 6.11331 4.5007 5.92944 4.17595 5.92944C3.85121 5.92944 3.58795 6.11331 3.58795 6.34011C3.58795 6.45055 3.72226 6.5244 3.82381 6.59821C3.93081 6.67597 4.00935 6.75078 4.17595 6.75078Z" fill="#AD1619"/>
<path fill-rule="evenodd" clip-rule="evenodd" d="M3.41998 11.8281H4.93198V12.4255C4.93198 12.4255 4.74298 12.3508 4.55398 12.3508C4.36498 12.3508 4.17598 12.4255 4.17598 12.4255C4.17598 12.4255 3.98698 12.3508 3.79798 12.3508C3.60898 12.3508 3.41998 12.4255 3.41998 12.4255V11.8281Z" fill="#005BBF"/>
<mask id="mask2_84_27473" style="mask-type:luminance" maskUnits="userSpaceOnUse" x="3" y="11" width="2" height="2">
<path fill-rule="evenodd" clip-rule="evenodd" d="M3.41998 11.8281H4.93198V12.4255C4.93198 12.4255 4.74298 12.3508 4.55398 12.3508C4.36498 12.3508 4.17598 12.4255 4.17598 12.4255C4.17598 12.4255 3.98698 12.3508 3.79798 12.3508C3.60898 12.3508 3.41998 12.4255 3.41998 12.4255V11.8281Z" fill="white"/>
</mask>
<g mask="url(#mask2_84_27473)">
<path d="M3.40629 12.3079L3.37329 12.2364C3.50947 12.1825 3.64614 12.1555 3.78302 12.1555C3.87145 12.1555 3.91763 12.1665 3.99613 12.1975C4.06509 12.2248 4.10083 12.2333 4.17625 12.2333C4.25166 12.2333 4.2874 12.2248 4.35636 12.1975C4.43486 12.1665 4.48104 12.1555 4.56947 12.1555C4.70635 12.1555 4.84302 12.1825 4.9792 12.2364L4.9462 12.3079C4.82023 12.2581 4.69475 12.2333 4.56947 12.2333C4.49406 12.2333 4.45832 12.2418 4.38936 12.2691C4.31086 12.3001 4.26468 12.3111 4.17625 12.3111C4.08781 12.3111 4.04164 12.3001 3.96313 12.2691C3.89418 12.2418 3.85843 12.2333 3.78302 12.2333C3.65774 12.2333 3.53226 12.2581 3.40629 12.3079Z" fill="white"/>
<path d="M3.40629 12.0841L3.37329 12.0125C3.50947 11.9587 3.64614 11.9316 3.78302 11.9316C3.87145 11.9316 3.91763 11.9426 3.99613 11.9737C4.06509 12.0009 4.10083 12.0094 4.17625 12.0094C4.25166 12.0094 4.2874 12.0009 4.35636 11.9737C4.43486 11.9426 4.48104 11.9316 4.56947 11.9316C4.70635 11.9316 4.84302 11.9587 4.9792 12.0125L4.9462 12.0841C4.82023 12.0342 4.69475 12.0094 4.56947 12.0094C4.49406 12.0094 4.45832 12.0179 4.38936 12.0452C4.31086 12.0762 4.26468 12.0872 4.17625 12.0872C4.08781 12.0872 4.04164 12.0762 3.96313 12.0452C3.89418 12.0179 3.85843 12.0094 3.78302 12.0094C3.65774 12.0094 3.53226 12.0342 3.40629 12.0841Z" fill="white"/>
</g>
<rect x="11.9879" y="7.34814" width="0.84" height="3.88267" fill="#F1F9FF"/>
<path fill-rule="evenodd" clip-rule="evenodd" d="M13.164 6.67603H11.652V7.04936H11.904V7.34804H12.912V7.04936H13.164V6.67603Z" fill="#C88A02"/>
<path fill-rule="evenodd" clip-rule="evenodd" d="M12.912 11.4547H13.164V11.828H11.652V11.4547H11.904V11.156H12.912V11.4547Z" fill="#C88A02"/>
<path fill-rule="evenodd" clip-rule="evenodd" d="M12.4079 6.75078C12.5907 6.75078 12.6093 6.68959 12.7172 6.59821C12.8009 6.52725 12.9959 6.43925 12.9959 6.34011C12.9959 6.11331 12.7327 5.92944 12.4079 5.92944C12.0832 5.92944 11.8199 6.11331 11.8199 6.34011C11.8199 6.45055 11.9543 6.5244 12.0558 6.59821C12.1628 6.67597 12.2413 6.75078 12.4079 6.75078Z" fill="#AD1619"/>
<path fill-rule="evenodd" clip-rule="evenodd" d="M11.652 11.8281H13.164V12.4255C13.164 12.4255 12.975 12.3508 12.786 12.3508C12.597 12.3508 12.408 12.4255 12.408 12.4255C12.408 12.4255 12.219 12.3508 12.03 12.3508C11.841 12.3508 11.652 12.4255 11.652 12.4255V11.8281Z" fill="#005BBF"/>
<mask id="mask3_84_27473" style="mask-type:luminance" maskUnits="userSpaceOnUse" x="11" y="11" width="3" height="2">
<path fill-rule="evenodd" clip-rule="evenodd" d="M11.652 11.8281H13.164V12.4255C13.164 12.4255 12.975 12.3508 12.786 12.3508C12.597 12.3508 12.408 12.4255 12.408 12.4255C12.408 12.4255 12.219 12.3508 12.03 12.3508C11.841 12.3508 11.652 12.4255 11.652 12.4255V11.8281Z" fill="white"/>
</mask>
<g mask="url(#mask3_84_27473)">
<path d="M11.6383 12.3079L11.6053 12.2364C11.7415 12.1825 11.8782 12.1555 12.0151 12.1555C12.1035 12.1555 12.1497 12.1665 12.2282 12.1975C12.2971 12.2248 12.3329 12.2333 12.4083 12.2333C12.4837 12.2333 12.5195 12.2248 12.5884 12.1975C12.6669 12.1665 12.7131 12.1555 12.8015 12.1555C12.9384 12.1555 13.0751 12.1825 13.2113 12.2364L13.1783 12.3079C13.0523 12.2581 12.9268 12.2333 12.8015 12.2333C12.7261 12.2333 12.6904 12.2418 12.6214 12.2691C12.5429 12.3001 12.4967 12.3111 12.4083 12.3111C12.3199 12.3111 12.2737 12.3001 12.1952 12.2691C12.1262 12.2418 12.0905 12.2333 12.0151 12.2333C11.8898 12.2333 11.7643 12.2581 11.6383 12.3079Z" fill="white"/>
<path d="M11.6383 12.0841L11.6053 12.0125C11.7415 11.9587 11.8782 11.9316 12.0151 11.9316C12.1035 11.9316 12.1497 11.9426 12.2282 11.9737C12.2971 12.0009 12.3329 12.0094 12.4083 12.0094C12.4837 12.0094 12.5195 12.0009 12.5884 11.9737C12.6669 11.9426 12.7131 11.9316 12.8015 11.9316C12.9384 11.9316 13.0751 11.9587 13.2113 12.0125L13.1783 12.0841C13.0523 12.0342 12.9268 12.0094 12.8015 12.0094C12.7261 12.0094 12.6904 12.0179 12.6214 12.0452C12.5429 12.0762 12.4967 12.0872 12.4083 12.0872C12.3199 12.0872 12.2737 12.0762 12.1952 12.0452C12.1262 12.0179 12.0905 12.0094 12.0151 12.0094C11.8898 12.0094 11.7643 12.0342 11.6383 12.0841Z" fill="white"/>
</g>
<path fill-rule="evenodd" clip-rule="evenodd" d="M3.74094 10.9534C3.89238 10.7902 3.97707 10.6417 3.97707 10.484C3.97707 10.3846 3.94379 10.2987 3.88546 10.2286L3.89532 10.2246C3.89441 10.225 4.06146 10.1603 4.11962 10.1355C4.22773 10.0894 4.32298 10.0406 4.41585 9.98057C4.47513 9.94224 4.55457 9.9005 4.67567 9.8427L4.78948 9.7889L4.82019 9.7744C4.87905 9.74648 4.92287 9.72509 4.96359 9.7041C5.09047 9.63868 5.17431 9.58461 5.23844 9.51233C5.39033 9.34112 5.35879 9.10904 5.14595 8.98023C5.04167 8.91712 4.90095 8.8809 4.69468 8.8524L4.65204 8.84653L4.39966 8.81175C4.30095 8.79798 4.21288 8.78512 4.13435 8.77293C4.65077 8.69654 5.3882 8.72461 5.71257 8.87348L6.02087 8.34272C5.35986 8.03935 3.85376 8.07033 3.29116 8.41473C2.87851 8.66733 2.93388 9.04917 3.36322 9.2136C3.54263 9.2823 3.7765 9.32789 4.20929 9.3897C4.13676 9.4271 4.07663 9.46126 4.02061 9.49748C3.96379 9.53421 3.90291 9.5654 3.82908 9.59687C3.79377 9.61192 3.68923 9.65272 3.64129 9.67143L3.64127 9.67144L3.64126 9.67145L3.61716 9.68088C3.26745 9.82223 3.09772 10.0178 3.14844 10.3707L3.1759 10.5618L3.22514 10.5753L3.74094 10.9534ZM3.30865 10.4596L3.30759 10.4624L3.3084 10.4604L3.30865 10.4596ZM12.5294 10.484C12.5294 10.6417 12.6141 10.7902 12.7656 10.9534L13.2814 10.5753L13.3306 10.5618L13.3581 10.3707C13.4088 10.0178 13.2391 9.82223 12.8893 9.68088L12.8652 9.67143C12.8173 9.65272 12.7127 9.61192 12.6774 9.59687C12.6036 9.5654 12.5427 9.53421 12.4859 9.49748C12.4299 9.46126 12.3697 9.4271 12.2972 9.3897C12.73 9.32789 12.9639 9.2823 13.1433 9.2136C13.5726 9.04917 13.628 8.66733 13.2153 8.41473C12.6527 8.07033 11.1466 8.03935 10.4856 8.34272L10.7939 8.87348C11.1183 8.72461 11.8557 8.69654 12.3722 8.77293C12.2936 8.78512 12.2055 8.79798 12.1068 8.81175L11.8546 8.84652L11.8118 8.8524C11.6055 8.8809 11.4648 8.91712 11.3606 8.98023C11.1477 9.10904 11.1162 9.34112 11.2681 9.51233C11.3322 9.58461 11.416 9.63868 11.5429 9.7041C11.5836 9.72509 11.6275 9.74648 11.6863 9.7744L11.7171 9.78891L11.8308 9.8427C11.9519 9.9005 12.0314 9.94224 12.0907 9.98057C12.1835 10.0406 12.2788 10.0894 12.3869 10.1355C12.445 10.1603 12.6121 10.225 12.6112 10.2246L12.621 10.2286C12.5627 10.2987 12.5294 10.3846 12.5294 10.484Z" fill="#AD1619"/>
<path d="M4.4425 8.76685L4.69044 8.81244V9.14093C4.42637 9.32822 3.75598 9.64389 3.75598 9.64389V8.76685H4.4425Z" fill="#F1F9FF"/>
<path d="M12.2359 8.76685L11.988 8.81244V9.14093C12.252 9.32822 12.9224 9.64389 12.9224 9.64389V8.76685H12.2359Z" fill="#F1F9FF"/>
<path fill-rule="evenodd" clip-rule="evenodd" d="M11.0819 5.3041V5.19478C10.6499 4.91915 10.1974 4.78133 9.72455 4.78133C9.27123 4.60301 8.81239 4.5338 8.34802 4.57368C8.34814 4.57242 8.34821 4.57178 8.34821 4.57178C7.64997 4.51105 6.9463 4.78135 6.9463 4.78135C6.23702 4.78135 5.58893 5.1948 5.58893 5.1948V5.30412L6.43615 6.06047C6.43615 6.06047 6.67463 6.78847 8.34475 6.61737V6.6192C8.34475 6.6192 9.45051 6.59237 9.52821 6.5694C9.55904 6.56028 9.59101 6.55199 9.62368 6.54351C9.84027 6.4873 10.0875 6.42314 10.2347 6.06045L11.0819 5.3041ZM8.34475 4.60719C8.32063 4.85912 8.18298 6.3769 8.34475 6.61224V4.60719Z" fill="#AD1619"/>
<path fill-rule="evenodd" clip-rule="evenodd" d="M6.23522 5.93309L6.23579 5.93076L5.63977 5.43231L5.69733 5.37793L6.25661 5.84565L6.27092 5.78716C6.36242 5.80485 6.4293 5.81135 6.46828 5.80767V5.7062L6.59226 5.76584C6.65324 5.79518 6.74057 5.80307 6.85559 5.78643C6.94008 5.77421 6.99708 5.687 7.01572 5.50115L7.05335 5.12598L7.17958 5.48554C7.23669 5.64825 7.32383 5.71997 7.44788 5.71997C7.56904 5.71997 7.61774 5.68049 7.62312 5.58097L7.63836 5.29872L7.78196 5.55082C7.83369 5.64165 7.90504 5.68285 8.00648 5.68285C8.15156 5.68285 8.24848 5.57534 8.24848 5.40664H8.25122H8.41648H8.41922C8.41922 5.57534 8.51614 5.68285 8.66122 5.68285C8.76266 5.68285 8.83401 5.64165 8.88574 5.55082L9.02934 5.29872L9.04459 5.58097C9.04996 5.68049 9.09866 5.71997 9.21982 5.71997C9.34387 5.71997 9.43101 5.64825 9.48812 5.48554L9.61435 5.12598L9.65198 5.50115C9.67062 5.687 9.72763 5.77421 9.81211 5.78643C9.92713 5.80307 10.0145 5.79518 10.0754 5.76584L10.1994 5.7062V5.80767C10.2384 5.81135 10.3053 5.80485 10.3968 5.78716L10.4233 5.89573L11.0425 5.37793L11.1001 5.43231L10.3296 6.07665C10.2172 6.26067 10.1606 6.38213 10.1606 6.43259C10.1606 6.50956 9.93528 6.55525 9.49558 6.60217C9.15113 6.63893 8.74461 6.66361 8.41208 6.6673V6.66778L8.36992 6.66765L8.32776 6.66778V6.6673C7.99523 6.66361 7.58871 6.63893 7.24425 6.60217C6.80456 6.55525 6.57927 6.50956 6.57927 6.43259C6.57927 6.42305 6.57724 6.41097 6.5732 6.39641C6.52884 6.34622 6.49766 6.26406 6.47691 6.18997C6.45745 6.15535 6.43523 6.11755 6.41025 6.07665L6.23958 5.93392L6.23522 5.93309ZM10.3643 5.94511C10.2267 5.96676 10.1274 5.96457 10.0747 5.92642C9.99224 5.94775 9.89554 5.94979 9.78512 5.93382C9.6672 5.91676 9.58508 5.84704 9.53566 5.73137C9.47115 5.80442 9.3896 5.84952 9.29191 5.86411C9.82943 5.93187 10.206 6.02711 10.206 6.02711C10.206 6.02711 10.1967 6.09788 10.1741 6.18107C10.198 6.13752 10.2263 6.08912 10.259 6.03571L10.2671 6.02637L10.3643 5.94511ZM9.03818 5.83572C8.99144 5.81507 8.95412 5.78513 8.92714 5.74656C8.88706 5.77801 8.8415 5.80102 8.79089 5.81521C8.87538 5.82096 8.958 5.8279 9.03818 5.83572ZM8.49429 5.80068C8.42886 5.77381 8.37447 5.73077 8.33385 5.67563C8.29351 5.73038 8.2396 5.7732 8.1748 5.80011C8.21319 5.79909 8.2518 5.79838 8.2906 5.79799V5.79765L8.32428 5.79774L8.35796 5.79765V5.79799C8.40368 5.79845 8.44914 5.79936 8.49429 5.80068ZM6.4666 6.02126L6.38831 5.95578C6.4823 5.96407 6.55186 5.9562 6.59301 5.92642C6.67546 5.94775 6.77216 5.94979 6.88258 5.93382C7.0005 5.91676 7.08262 5.84704 7.13204 5.73137C7.19468 5.80231 7.2734 5.84688 7.36735 5.86276C6.90394 5.92064 6.55819 5.99938 6.4666 6.02126ZM7.87317 5.81417C7.79181 5.81955 7.71215 5.82605 7.63469 5.83338C7.67902 5.81284 7.71458 5.7837 7.74056 5.74656C7.77967 5.77725 7.82402 5.79991 7.87317 5.81417ZM9.93971 6.43405C9.99857 6.45854 10.0457 6.43411 10.083 6.38724C10.0798 6.40018 10.0778 6.41188 10.077 6.42237C10.0721 6.42523 10.0645 6.42868 10.0546 6.43239C10.0269 6.44273 9.98467 6.45374 9.9297 6.46489C9.82165 6.4868 9.66785 6.50858 9.48557 6.52804C9.12963 6.56603 8.70639 6.59102 8.36992 6.59299C8.03345 6.59102 7.6102 6.56603 7.25427 6.52804C7.07199 6.50858 6.91819 6.4868 6.81014 6.46489C6.76407 6.45555 6.72692 6.4463 6.69982 6.43746C6.7028 6.43645 6.70581 6.43532 6.70885 6.43405C6.89234 6.35773 8.10576 6.28611 8.32428 6.27375C8.5428 6.28611 9.75622 6.35773 9.93971 6.43405ZM10.1711 6.42038L10.1698 6.42168L10.1706 6.42073L10.1711 6.42038Z" fill="#C88A02"/>
<path fill-rule="evenodd" clip-rule="evenodd" d="M8.33409 4.0647C8.47327 4.0647 8.58609 3.96441 8.58609 3.8407C8.58609 3.71699 8.47327 3.6167 8.33409 3.6167C8.19492 3.6167 8.08209 3.71699 8.08209 3.8407C8.08209 3.96441 8.19492 4.0647 8.33409 4.0647Z" fill="#005BBF"/>
<path fill-rule="evenodd" clip-rule="evenodd" d="M9.60706 5.38C9.53757 5.38323 9.47632 5.3024 9.47025 5.19945C9.46418 5.09649 9.51559 5.01041 9.58508 5.00717C9.65457 5.00394 9.71583 5.08477 9.7219 5.18772C9.72797 5.29068 9.67656 5.37676 9.60706 5.38ZM10.3652 5.67153C10.4676 5.71992 10.5771 5.71489 10.6098 5.66027L10.6115 5.65721C10.6216 5.6667 10.6335 5.67361 10.6472 5.67731C10.7137 5.6954 10.7951 5.63014 10.829 5.53155C10.863 5.43296 10.8365 5.33838 10.77 5.32029C10.7034 5.30221 10.622 5.36747 10.5881 5.46606C10.5798 5.49001 10.5751 5.51372 10.5737 5.53616C10.5508 5.51282 10.5201 5.49104 10.4835 5.47375C10.3811 5.42535 10.2716 5.43039 10.2389 5.485C10.2063 5.53962 10.2628 5.62313 10.3652 5.67153ZM6.24356 5.69441C6.14116 5.74281 6.03166 5.73777 5.99899 5.68315C5.99838 5.68215 5.99781 5.68113 5.99727 5.6801C5.98718 5.68959 5.97524 5.69649 5.96162 5.7002C5.89507 5.71828 5.81363 5.65302 5.77972 5.55443C5.74581 5.45584 5.77227 5.36126 5.83882 5.34318C5.90537 5.32509 5.9868 5.39035 6.02071 5.48894C6.02895 5.51289 6.03362 5.5366 6.03503 5.55904C6.05793 5.5357 6.08866 5.51392 6.12525 5.49663C6.22766 5.44823 6.33716 5.45327 6.36983 5.50788C6.40249 5.5625 6.34596 5.64601 6.24356 5.69441Z" fill="#C88A02"/>
<path fill-rule="evenodd" clip-rule="evenodd" d="M8.24002 3.21777H8.41502V3.31605H8.52937V3.4716H8.41502V3.78271H8.52937V3.93827H8.1239V3.78271H8.24002V3.4716H8.1239V3.31605H8.24002V3.21777Z" fill="#C88A02"/>
<rect x="8.20795" y="4.06274" width="0.336" height="0.970667" fill="#C88A02"/>
<path d="M6.85538 4.22532L6.85392 4.29997C6.10909 4.28841 5.68185 4.38503 5.5734 4.5776C5.46127 4.77668 5.48212 5.0187 5.63923 5.30618L5.56367 5.33881C5.39605 5.03207 5.37315 4.76635 5.49828 4.54417C5.62708 4.31548 6.07905 4.21327 6.85538 4.22532Z" fill="white"/>
<path d="M6.99946 4.88746L6.9564 4.95157C6.79419 4.86548 6.71301 4.71856 6.71301 4.5161C6.71301 4.22511 6.88165 4.05447 7.25466 3.9377C7.49273 3.86317 7.81793 3.89373 8.2312 4.02692L8.20257 4.09711C7.80584 3.96926 7.49887 3.94041 7.28256 4.00813C6.94042 4.11523 6.79701 4.26035 6.79701 4.5161C6.79701 4.69377 6.86444 4.8158 6.99946 4.88746Z" fill="white"/>
<path d="M5.74504 5.19172L5.58654 5.2412C5.42208 4.82497 5.46904 4.54229 5.75006 4.42036C5.99769 4.31291 6.35858 4.26918 6.83452 4.28633L6.82772 4.43554C6.37709 4.41931 6.04184 4.45993 5.82376 4.55455C5.63907 4.63469 5.60529 4.83802 5.74504 5.19172Z" fill="#C88A02"/>
<path d="M7.59688 4.1259C7.21277 4.1259 7.05504 4.20905 6.96492 4.45458C6.9075 4.61104 6.96319 4.74459 7.14378 4.86924L7.04074 4.98719C6.80694 4.8258 6.7245 4.62815 6.80521 4.40826C6.92005 4.09536 7.14539 3.97656 7.59688 3.97656C7.89279 3.97656 8.12331 4.04567 8.28382 4.18631L8.30885 4.20824V4.92822H8.14085V4.27207C8.01549 4.17528 7.83543 4.1259 7.59688 4.1259Z" fill="#C88A02"/>
<path d="M9.78671 4.30002L9.78817 4.37468C10.533 4.36312 10.9602 4.45974 11.0687 4.6523C11.1808 4.85139 11.16 5.0934 11.0029 5.38089L11.0784 5.41351C11.246 5.10678 11.2689 4.84106 11.1438 4.61888C11.015 4.39019 10.563 4.28798 9.78671 4.30002Z" fill="white"/>
<path d="M9.52367 4.90309L9.56673 4.9672C9.72894 4.88111 9.81012 4.73419 9.81012 4.53172C9.81012 4.24074 9.64149 4.0701 9.26847 3.95333C9.03041 3.8788 8.7052 3.90936 8.29194 4.04254L8.32057 4.11274C8.71729 3.98488 9.02426 3.95604 9.24057 4.02375C9.58271 4.13086 9.72612 4.27598 9.72612 4.53172C9.72612 4.7094 9.65869 4.83143 9.52367 4.90309Z" fill="white"/>
<path d="M10.9494 5.26642L11.1079 5.31591C11.2723 4.89968 11.2254 4.617 10.9443 4.49506C10.6967 4.38762 10.3358 4.34389 9.85988 4.36104L9.86668 4.51025C10.3173 4.49401 10.6526 4.53463 10.8706 4.62926C11.0553 4.7094 11.0891 4.91272 10.9494 5.26642Z" fill="#C88A02"/>
<path d="M9.08787 4.13737C9.47198 4.13737 9.62972 4.22053 9.71983 4.46605C9.77726 4.62252 9.72156 4.75606 9.54097 4.88072L9.64401 4.99867C9.87781 4.83728 9.96025 4.63962 9.87954 4.41973C9.7647 4.10684 9.53936 3.98804 9.08787 3.98804C8.79196 3.98804 8.56144 4.05714 8.40094 4.19778L8.37591 4.21972V4.93969H8.54391V4.28354C8.66926 4.18676 8.84932 4.13737 9.08787 4.13737Z" fill="#C88A02"/>
<path opacity="0.3" fill-rule="evenodd" clip-rule="evenodd" d="M5.60394 6.67603H11.0639V11.0366C11.0639 11.0366 10.6584 12.5 8.33394 12.5C6.00952 12.5 5.60394 10.998 5.60394 10.998V6.67603Z" fill="#E1E5E8"/>
<mask id="mask4_84_27473" style="mask-type:luminance" maskUnits="userSpaceOnUse" x="5" y="6" width="7" height="7">
<path fill-rule="evenodd" clip-rule="evenodd" d="M5.60394 6.67603H11.0639V11.0366C11.0639 11.0366 10.6584 12.5 8.33394 12.5C6.00952 12.5 5.60394 10.998 5.60394 10.998V6.67603Z" fill="white"/>
</mask>
<g mask="url(#mask4_84_27473)">
<rect x="5.60394" y="9.36401" width="2.772" height="2.912" fill="#FFC034"/>
<rect x="5.93994" y="9.51343" width="0.336" height="2.76267" fill="#AD1619"/>
<rect x="7.11597" y="9.51343" width="0.336" height="2.76267" fill="#AD1619"/>
<rect x="6.52795" y="9.51343" width="0.336" height="2.76267" fill="#AD1619"/>
<rect x="7.70398" y="9.51343" width="0.336" height="2.76267" fill="#AD1619"/>
<rect x="5.60394" y="6.60132" width="2.772" height="2.83733" fill="#AD1619"/>
<rect x="8.29193" y="9.28931" width="2.772" height="2.83733" fill="#AD1619"/>
<rect x="8.29193" y="6.67603" width="2.94" height="2.76267" fill="#F1F9FF"/>
<path fill-rule="evenodd" clip-rule="evenodd" d="M6.7799 6.90015H7.0319V7.51962H7.19989V7.20989H7.45189V7.51962H7.70389V7.90678H7.45191V8.60367H7.70389V8.99083H6.19189V8.60367H6.44391V7.90678H6.19189V7.51962H6.35992V7.20989H6.61192V7.51962H6.7799V6.90015Z" fill="#C88A02"/>
<path d="M9.73407 7.03015L9.90609 6.86646L10.2672 7.16634L10.0952 7.33003L9.73407 7.03015Z" fill="#C88A02"/>
<path fill-rule="evenodd" clip-rule="evenodd" d="M10.7699 11.2602V9.62549H8.66992V11.2465L8.67325 11.2591C8.77956 11.6618 9.14158 11.8655 9.71992 11.8655C10.2977 11.8655 10.6597 11.667 10.7664 11.2731L10.7699 11.2602ZM9.71991 11.6415C9.25588 11.6415 9.00247 11.5025 8.92191 11.2201V9.84947H10.5179V11.2331C10.4376 11.5063 10.1841 11.6415 9.71991 11.6415Z" fill="#FFC034"/>
<path fill-rule="evenodd" clip-rule="evenodd" d="M9.80665 9.76196H9.63165V10.503L8.94179 9.8361L8.81812 9.93718L9.44201 10.5403H8.87674V10.7643H9.31097H9.45575L8.81812 11.3808L8.94179 11.4819L9.63165 10.8149V11.6812H9.80665V10.8929L10.4159 11.4819L10.5396 11.3808L9.90193 10.7643H10.6137V10.5403H9.91567L10.5396 9.93718L10.4159 9.8361L9.80665 10.4251V9.76196Z" fill="#FFC034"/>
<path fill-rule="evenodd" clip-rule="evenodd" d="M10.112 12.1285C10.112 12.1285 8.33285 12.2529 8.33285 11.2329C8.33285 11.2329 8.31588 12.1285 6.45813 12.1285V12.9338H10.112V12.1285Z" fill="#F1F9FF"/>
<path fill-rule="evenodd" clip-rule="evenodd" d="M8.33398 9.96127C8.68192 9.96127 8.96398 9.69383 8.96398 9.36393C8.96398 9.03404 8.68192 8.7666 8.33398 8.7666C7.98604 8.7666 7.70398 9.03404 7.70398 9.36393C7.70398 9.69383 7.98604 9.96127 8.33398 9.96127Z" fill="#005BBF" stroke="#AD1619" stroke-width="0.729167"/>
</g>
</g>
</g>
</svg>
