<svg width="80" height="40" viewBox="0 0 80 40" fill="none" xmlns="http://www.w3.org/2000/svg">
<path d="M46.6499 11.2168C47.3155 11.9338 47.8302 12.7814 48.1624 13.7078C48.4946 14.6343 48.6375 15.6199 48.5821 16.6045C48.5821 20.7478 46.6836 22.0361 45.158 23.0713L45.1571 23.0719C44.553 23.4134 44.0257 23.8796 43.6092 24.4407C43.3809 24.8142 43.3494 25.2 43.3494 27.6165C43.3716 28.0668 43.3028 28.517 43.1474 28.9392C42.9919 29.3615 42.7531 29.7468 42.4456 30.0715C41.8513 30.6381 41.0643 30.9484 40.25 30.9372C38.6534 30.9372 37.5413 29.9041 37.2107 28.0978C37.0892 26.8554 37.0923 25.6037 37.22 24.3621H34.8634C33.3518 24.3621 32.1225 23.1114 32.1225 21.5736C32.1208 21.3658 32.1399 21.159 32.1793 20.9564C32.2223 20.7287 32.2904 20.5072 32.385 20.2976C31.797 19.7975 31.4069 19.0674 31.4069 18.229L31.4069 18.2244C31.401 17.8453 31.4725 17.4711 31.6145 17.1247C31.6977 16.9183 31.8064 16.7222 31.9414 16.541C31.963 16.5116 31.9852 16.4825 32.008 16.4538C31.8414 16.2497 31.7071 16.023 31.6081 15.7817C31.4791 15.4707 31.4069 15.1301 31.4069 14.7705C31.3986 14.3797 31.4739 13.9917 31.6278 13.6335L31.6354 13.6161C31.7647 13.3132 31.9499 13.0335 32.1939 12.7924C32.2275 12.7592 32.262 12.7269 32.2973 12.6956C32.2359 12.53 32.1914 12.3538 32.1626 12.1681C32.1331 11.9877 32.1196 11.8044 32.1225 11.6208V11.6198C32.1225 10.944 32.3589 10.2895 32.8573 9.80583C32.917 9.74783 32.9796 9.69317 33.0449 9.64187C33.2792 9.44669 33.5466 9.29589 33.8342 9.19708C34.1569 9.08622 34.4982 9.04318 34.8376 9.07045L34.8634 9.07037H37.624C37.6613 9.07037 37.6983 9.07114 37.7349 9.07266H40.2457C43.0717 9.07266 45.2279 9.79199 46.6499 11.2168ZM39.9723 10.5288H39.7917C39.9375 10.881 40.0057 11.2584 40.0057 11.6198C40.0057 12.0095 39.8723 12.5979 39.5246 13.115C39.9003 13.6984 40.0057 14.3583 40.0057 14.7707C40.0057 15.2073 39.8532 15.876 39.4546 16.4533C39.6859 16.7733 39.84 17.1382 39.9251 17.5115C40.3567 16.1667 41.1349 14.685 42.528 13.4591C42.827 13.1961 43.2789 13.2294 43.5375 13.5336C43.796 13.8377 43.7633 14.2975 43.4643 14.5605C41.9661 15.8788 41.3065 17.5719 41.0247 18.9683C40.8842 19.6646 40.84 20.2766 40.8309 20.7122C40.8264 20.9296 40.8306 21.1016 40.8357 21.2166C40.8383 21.274 40.841 21.3171 40.843 21.3444C40.844 21.358 40.8448 21.3677 40.8453 21.3732L40.8457 21.3775C40.8849 21.7773 40.5982 22.134 40.2051 22.1742C40.1161 22.1833 40.0292 22.1754 39.9476 22.153C39.8843 22.4878 39.7644 22.8629 39.5641 23.2086C39.3618 23.5579 39.0656 23.8915 38.6622 24.1093C38.5553 25.3483 38.5406 26.594 38.6183 27.8356C38.9208 29.4859 39.9066 29.4829 40.2649 29.4819L40.2901 29.4818C40.7162 29.4858 41.1279 29.3252 41.4422 29.0326C41.6112 28.8412 41.7405 28.6171 41.8223 28.3736C41.9041 28.1301 41.9367 27.8724 41.9181 27.6158C41.9181 25.1826 41.9181 24.448 42.3947 23.6697C42.913 22.9285 43.5836 22.3109 44.3599 21.8597L44.3647 21.8564C45.7942 20.8849 47.1509 19.9629 47.1509 16.6038C47.2068 15.8128 47.1022 15.0186 46.8437 14.2705C46.5852 13.5224 46.1782 12.8364 45.648 12.255C44.4601 11.0668 42.5593 10.4953 39.9723 10.5288ZM34.8627 10.5288C34.3697 10.5288 34.0013 10.6685 33.7828 10.9266C33.639 11.0982 33.5538 11.3312 33.5538 11.6198C33.5538 11.8021 33.5719 11.9459 33.5996 12.0596C33.843 12.0083 34.1014 11.9823 34.3724 11.9823H37.3556C37.7576 11.9823 38.1085 12.0544 38.4115 12.1786C38.4344 12.1357 38.4553 12.0912 38.474 12.0456C38.5513 11.8572 38.5744 11.6936 38.5744 11.6198C38.5744 11.3193 38.4802 11.0337 38.3232 10.8376C38.1918 10.6735 37.9992 10.5471 37.7003 10.5288H34.8627ZM33.2019 15.6286C33.5553 15.5044 33.9485 15.4405 34.3724 15.4405H37.4392C37.7533 15.4405 38.0426 15.4915 38.3047 15.5842C38.3666 15.4893 38.4189 15.3857 38.4611 15.2781C38.5469 15.0597 38.5744 14.8676 38.5744 14.7707C38.5744 14.5589 38.5109 14.1947 38.3239 13.9075C38.1644 13.6626 37.8989 13.4384 37.3556 13.4384H34.3724C33.9993 13.4384 33.7139 13.5108 33.4989 13.6188C33.3005 13.7201 33.1332 13.8756 33.0161 14.0684C32.9901 14.1112 32.9668 14.1554 32.9463 14.2007C32.8765 14.3654 32.8382 14.5562 32.8381 14.7705C32.8451 14.991 32.9074 15.2059 33.0191 15.3949L33.0273 15.4086C33.0765 15.4861 33.1348 15.5599 33.2019 15.6286ZM32.9853 17.5815C32.9667 17.6161 32.9498 17.6515 32.9346 17.6875C32.8722 17.8456 32.8382 18.0268 32.8381 18.2288C32.8484 18.4805 32.9291 18.7239 33.0704 18.9305C33.1411 19.0291 33.2272 19.1205 33.3274 19.2017C33.7564 18.9299 34.2777 18.7851 34.8634 18.7851H37.624C37.8995 18.7851 38.1502 18.8353 38.3759 18.9219C38.4027 18.8715 38.4272 18.8193 38.4493 18.7658C38.5438 18.5369 38.5744 18.3314 38.5744 18.229C38.5744 17.8674 38.4633 17.5202 38.2735 17.2788C38.0987 17.0566 37.8394 16.8967 37.4392 16.8967H34.3724C33.9282 16.8967 33.6083 16.9993 33.3835 17.1424C33.2177 17.2531 33.0808 17.4038 32.9853 17.5815ZM37.6267 22.9059C37.965 22.9051 38.173 22.7422 38.3311 22.4693C38.5075 22.1647 38.5744 21.7826 38.5744 21.5736C38.5744 21.2992 38.477 20.9287 38.2852 20.6438C38.1036 20.3741 37.8859 20.2412 37.624 20.2412H34.8634C34.3695 20.2412 34.0632 20.407 33.8762 20.6123L33.8686 20.6208C33.7766 20.7327 33.7034 20.8578 33.6507 20.991C33.589 21.1575 33.5538 21.3526 33.5538 21.5736C33.554 21.7864 33.6042 21.9938 33.6978 22.1798C33.8226 22.4268 34.0211 22.6295 34.2634 22.7573C34.4473 22.8538 34.6527 22.9057 34.8634 22.9059H37.6243L37.6267 22.9059Z" fill="#212121"/>
</svg>
