<svg width="80" height="40" viewBox="0 0 80 40" fill="none" xmlns="http://www.w3.org/2000/svg">
<path d="M33.3501 28.7832C32.6845 28.0662 32.1698 27.2186 31.8376 26.2922C31.5054 25.3657 31.3625 24.3801 31.4179 23.3955C31.4179 19.2522 33.3164 17.9639 34.842 16.9287L34.8429 16.9281C35.447 16.5866 35.9743 16.1204 36.3908 15.5593C36.6191 15.1858 36.6506 14.8 36.6506 12.3835C36.6284 11.9332 36.6972 11.483 36.8526 11.0608C37.0081 10.6385 37.2469 10.2532 37.5544 9.92846C38.1487 9.36189 38.9357 9.05162 39.75 9.06279C41.3466 9.06279 42.4587 10.0959 42.7893 11.9022C42.9108 13.1446 42.9077 14.3963 42.78 15.6379H45.1366C46.6482 15.6379 47.8775 16.8886 47.8775 18.4264C47.8792 18.6342 47.8601 18.841 47.8207 19.0436C47.7777 19.2713 47.7096 19.4928 47.615 19.7024C48.203 20.2025 48.5931 20.9326 48.5931 21.771L48.5931 21.7756C48.599 22.1547 48.5275 22.5289 48.3855 22.8753C48.3023 23.0817 48.1936 23.2778 48.0586 23.459C48.037 23.4884 48.0148 23.5175 47.992 23.5462C48.1586 23.7503 48.2929 23.977 48.3919 24.2183C48.5209 24.5293 48.5931 24.8699 48.5931 25.2295C48.6014 25.6203 48.5261 26.0083 48.3722 26.3665L48.3646 26.3839C48.2353 26.6868 48.0501 26.9665 47.8061 27.2076C47.7725 27.2408 47.738 27.2731 47.7027 27.3044C47.7641 27.47 47.8086 27.6462 47.8374 27.8319C47.8669 28.0123 47.8804 28.1956 47.8775 28.3792V28.3802C47.8775 29.056 47.6411 29.7105 47.1427 30.1942C47.083 30.2522 47.0204 30.3068 46.9551 30.3581C46.7208 30.5533 46.4534 30.7041 46.1658 30.8029C45.8431 30.9138 45.5018 30.9568 45.1624 30.9295L45.1366 30.9296H42.376C42.3387 30.9296 42.3017 30.9289 42.2651 30.9273H39.7543C36.9283 30.9273 34.7721 30.208 33.3501 28.7832ZM40.0277 29.4712H40.2083C40.0625 29.119 39.9943 28.7416 39.9943 28.3802C39.9943 27.9905 40.1277 27.4021 40.4754 26.885C40.0997 26.3016 39.9943 25.6417 39.9943 25.2293C39.9943 24.7927 40.1468 24.124 40.5454 23.5467C40.3141 23.2267 40.16 22.8618 40.0749 22.4885C39.6433 23.8333 38.8651 25.315 37.472 26.5409C37.173 26.8039 36.7211 26.7706 36.4625 26.4664C36.204 26.1623 36.2367 25.7025 36.5357 25.4395C38.0339 24.1212 38.6935 22.4281 38.9753 21.0317C39.1158 20.3354 39.16 19.7234 39.1691 19.2878C39.1736 19.0704 39.1694 18.8984 39.1643 18.7834C39.1617 18.726 39.159 18.6829 39.157 18.6556C39.156 18.642 39.1552 18.6323 39.1547 18.6268L39.1543 18.6225C39.1151 18.2227 39.4018 17.866 39.7949 17.8258C39.8839 17.8167 39.9708 17.8246 40.0524 17.847C40.1157 17.5122 40.2356 17.1371 40.4359 16.7914C40.6382 16.4421 40.9344 16.1085 41.3378 15.8907C41.4447 14.6517 41.4594 13.406 41.3817 12.1644C41.0792 10.5141 40.0934 10.5171 39.7351 10.5181L39.7099 10.5182C39.2838 10.5142 38.8721 10.6748 38.5578 10.9674C38.3888 11.1588 38.2595 11.383 38.1777 11.6264C38.0959 11.8699 38.0633 12.1276 38.0819 12.3842C38.0819 14.8174 38.0819 15.552 37.6053 16.3303C37.087 17.0715 36.4164 17.6891 35.6401 18.1403L35.6353 18.1436C34.2058 19.1151 32.8491 20.0371 32.8491 23.3962C32.7932 24.1872 32.8978 24.9814 33.1563 25.7295C33.4148 26.4776 33.8218 27.1636 34.352 27.745C35.5399 28.9332 37.4407 29.5047 40.0277 29.4712ZM45.1373 29.4712C45.6303 29.4712 45.9987 29.3315 46.2172 29.0734C46.361 28.9018 46.4462 28.6688 46.4462 28.3802C46.4462 28.1979 46.4281 28.0541 46.4004 27.9404C46.157 27.9917 45.8986 28.0177 45.6276 28.0177H42.6444C42.2424 28.0177 41.8915 27.9456 41.5885 27.8214C41.5656 27.8643 41.5447 27.9088 41.526 27.9544C41.4487 28.1428 41.4256 28.3064 41.4256 28.3802C41.4256 28.6807 41.5198 28.9663 41.6768 29.1624C41.8082 29.3265 42.0008 29.4529 42.2997 29.4712H45.1373ZM46.7981 24.3714C46.4447 24.4956 46.0515 24.5595 45.6276 24.5595H42.5608C42.2467 24.5595 41.9574 24.5085 41.6953 24.4158C41.6334 24.5107 41.5811 24.6143 41.5389 24.7219C41.4531 24.9403 41.4256 25.1324 41.4256 25.2293C41.4256 25.4411 41.4891 25.8053 41.6761 26.0925C41.8356 26.3374 42.1011 26.5616 42.6444 26.5616H45.6276C46.0007 26.5616 46.2861 26.4892 46.5011 26.3812C46.6995 26.2799 46.8668 26.1244 46.9839 25.9316C47.0099 25.8888 47.0332 25.8446 47.0537 25.7993C47.1235 25.6346 47.1618 25.4438 47.1619 25.2295C47.1549 25.009 47.0926 24.7941 46.9809 24.6051L46.9727 24.5914C46.9235 24.5139 46.8652 24.4401 46.7981 24.3714ZM47.0147 22.4185C47.0333 22.3839 47.0502 22.3485 47.0654 22.3125C47.1278 22.1544 47.1618 21.9732 47.1619 21.7712C47.1516 21.5195 47.0709 21.2761 46.9296 21.0695C46.8589 20.9709 46.7728 20.8795 46.6726 20.7983C46.2436 21.0701 45.7223 21.2149 45.1366 21.2149H42.376C42.1005 21.2149 41.8498 21.1647 41.6241 21.0781C41.5973 21.1285 41.5728 21.1807 41.5507 21.2342C41.4562 21.4631 41.4256 21.6686 41.4256 21.771C41.4256 22.1326 41.5367 22.4798 41.7265 22.7212C41.9013 22.9434 42.1606 23.1033 42.5608 23.1033H45.6276C46.0718 23.1033 46.3917 23.0007 46.6165 22.8576C46.7823 22.7469 46.9192 22.5962 47.0147 22.4185ZM42.3733 17.0941C42.035 17.0949 41.827 17.2578 41.6689 17.5307C41.4925 17.8353 41.4256 18.2174 41.4256 18.4264C41.4256 18.7008 41.523 19.0713 41.7148 19.3562C41.8964 19.6259 42.1141 19.7588 42.376 19.7588H45.1366C45.6305 19.7588 45.9368 19.593 46.1238 19.3877L46.1314 19.3792C46.2234 19.2673 46.2966 19.1422 46.3493 19.009C46.411 18.8425 46.4462 18.6474 46.4462 18.4264C46.446 18.2136 46.3958 18.0062 46.3022 17.8202C46.1774 17.5732 45.9789 17.3705 45.7366 17.2427C45.5527 17.1462 45.3473 17.0943 45.1366 17.0941H42.3757L42.3733 17.0941Z" fill="#212121"/>
</svg>
