<svg width="17" height="17" viewBox="0 0 17 17" fill="none" xmlns="http://www.w3.org/2000/svg">
<g clip-path="url(#clip0_2_1179)">
<path d="M16.995 0H0.00498047C0.00222983 0 0 0.00222983 0 0.00498047V16.995C0 16.9978 0.00222983 17 0.00498047 17H16.995C16.9978 17 17 16.9978 17 16.995V0.00498047C17 0.00222983 16.9978 0 16.995 0Z" fill="#1DA1F2"/>
<path d="M14.5098 5.04695C14.1161 5.30805 13.654 5.4467 13.1816 5.44539C13.6866 5.14789 14.0648 4.67525 14.2441 4.11726C13.8255 4.47114 13.298 4.67042 12.75 4.68171C12.3887 4.31164 11.9171 4.06873 11.406 3.98944C10.8949 3.91015 10.3718 3.99876 9.91538 4.24196C9.45891 4.48516 9.09363 4.86983 8.87435 5.33826C8.65507 5.80669 8.59362 6.3336 8.69922 6.83992C7.76931 6.79082 6.86013 6.5467 6.03069 6.12341C5.20126 5.70011 4.47013 5.1071 3.88477 4.38289C3.59833 4.9012 3.51446 5.50738 3.64941 6.084C3.78436 6.66061 4.12853 7.16661 4.61523 7.50398C4.24791 7.50917 3.88434 7.42964 3.55273 7.27156C3.56166 7.8064 3.74972 8.3228 4.08681 8.73814C4.4239 9.15349 4.89055 9.44378 5.41211 9.56257C5.06492 9.65324 4.70178 9.66459 4.34961 9.59578C4.50153 10.0696 4.79751 10.4842 5.19629 10.7818C5.59506 11.0794 6.07676 11.2451 6.57422 11.2559C5.52358 11.8933 4.31671 12.2266 3.08789 12.2188C4.11703 12.8907 5.31244 13.2638 6.54105 13.2965C7.76965 13.3293 8.98325 13.0205 10.0467 12.4044C11.1102 11.7883 11.9819 10.8892 12.5647 9.80713C13.1475 8.72505 13.4185 7.50246 13.3477 6.27546C13.7858 5.91716 14.1763 5.5043 14.5098 5.04695Z" fill="white"/>
</g>
<defs>
<clipPath id="clip0_2_1179">
<rect width="17" height="17" fill="white"/>
</clipPath>
</defs>
</svg>
