<svg width="24" height="25" viewBox="0 0 24 25" fill="none" xmlns="http://www.w3.org/2000/svg">
<g id="user-avatar" clip-path="url(#clip0_1938_4120)">
<path id="Vector" d="M12 5.64285C11.1524 5.64285 10.3238 5.89421 9.619 6.36513C8.91421 6.83605 8.3649 7.50538 8.04053 8.2885C7.71615 9.07161 7.63128 9.93332 7.79665 10.7647C7.96201 11.596 8.37019 12.3597 8.96955 12.959C9.56892 13.5584 10.3326 13.9666 11.1639 14.1319C11.9953 14.2973 12.857 14.2124 13.6401 13.8881C14.4232 13.5637 15.0925 13.0144 15.5635 12.3096C16.0344 11.6048 16.2857 10.7762 16.2857 9.92857C16.2857 8.79192 15.8342 7.70184 15.0305 6.89811C14.2267 6.09438 13.1367 5.64285 12 5.64285ZM12 12.5C11.4914 12.5 10.9943 12.3492 10.5714 12.0666C10.1485 11.7841 9.81895 11.3825 9.62432 10.9126C9.4297 10.4427 9.37877 9.92571 9.47799 9.42691C9.57721 8.9281 9.82212 8.46991 10.1817 8.11029C10.5414 7.75067 10.9995 7.50577 11.4984 7.40655C11.9972 7.30733 12.5142 7.35825 12.9841 7.55288C13.4539 7.7475 13.8555 8.07709 14.1381 8.49996C14.4206 8.92283 14.5714 9.41999 14.5714 9.92857C14.5707 10.6103 14.2995 11.2639 13.8174 11.746C13.3354 12.2281 12.6818 12.4992 12 12.5Z" fill="white"/>
<path id="Vector_2" d="M12 0.5C9.62663 0.5 7.30655 1.20379 5.33316 2.52236C3.35977 3.84094 1.8217 5.71509 0.913451 7.9078C0.0051994 10.1005 -0.232441 12.5133 0.230582 14.8411C0.693605 17.1689 1.83649 19.3071 3.51472 20.9853C5.19295 22.6635 7.33115 23.8064 9.65892 24.2694C11.9867 24.7324 14.3995 24.4948 16.5922 23.5866C18.7849 22.6783 20.6591 21.1402 21.9776 19.1668C23.2962 17.1935 24 14.8734 24 12.5C23.9964 9.3185 22.731 6.26834 20.4813 4.01868C18.2317 1.76902 15.1815 0.503584 12 0.5ZM6.85715 21.3941V20.2143C6.8579 19.5325 7.12906 18.8789 7.61113 18.3968C8.0932 17.9148 8.74682 17.6436 9.42858 17.6429H14.5714C15.2532 17.6436 15.9068 17.9148 16.3889 18.3968C16.871 18.8789 17.1421 19.5325 17.1429 20.2143V21.3941C15.5822 22.3055 13.8073 22.7857 12 22.7857C10.1927 22.7857 8.41786 22.3055 6.85715 21.3941ZM18.8507 20.1507C18.8337 19.0263 18.3756 17.9537 17.5751 17.1639C16.7746 16.3741 15.6959 15.9305 14.5714 15.9286H9.42858C8.30409 15.9305 7.22537 16.3741 6.42491 17.1639C5.62445 17.9537 5.16633 19.0263 5.14929 20.1507C3.59492 18.7628 2.49877 16.9354 2.00601 14.9107C1.51324 12.8859 1.64709 10.7593 2.38984 8.81228C3.13259 6.86529 4.44919 5.18983 6.16532 4.00774C7.88145 2.82566 9.91616 2.19271 12 2.19271C14.0839 2.19271 16.1186 2.82566 17.8347 4.00774C19.5508 5.18983 20.8674 6.86529 21.6102 8.81228C22.3529 10.7593 22.4868 12.8859 21.994 14.9107C21.5012 16.9354 20.4051 18.7628 18.8507 20.1507Z" fill="white"/>
</g>
<defs>
<clipPath id="clip0_1938_4120">
<rect width="24" height="24" fill="white" transform="translate(0 0.5)"/>
</clipPath>
</defs>
</svg>
